<?xml version="1.0" encoding="UTF-8" standalone="no"?>
<svg width="264.231mm" height="241.653mm"
 viewBox="0 0 749 685"
 xmlns="http://www.w3.org/2000/svg" xmlns:xlink="http://www.w3.org/1999/xlink"  version="1.2" baseProfile="tiny">
<title>Qt SVG Document</title>
<desc>Generated with Qt</desc>
<defs>
</defs>
<g fill="none" stroke="black" stroke-width="1" fill-rule="evenodd" stroke-linecap="square" stroke-linejoin="bevel" >

<g fill="none" stroke="#000000" stroke-opacity="1" stroke-width="1" stroke-linecap="square" stroke-linejoin="bevel" transform="matrix(1,0,0,1,0,0)"
font-family="Sans Serif" font-size="9" font-weight="400" font-style="normal" 
>
</g>

<g fill="none" stroke="#000000" stroke-opacity="1" stroke-width="1" stroke-linecap="square" stroke-linejoin="bevel" transform="matrix(1.17031,0,0,1.17031,0,0)"
font-family="Sans Serif" font-size="9" font-weight="400" font-style="normal" 
>
</g>

<g fill="none" stroke="#000000" stroke-opacity="1" stroke-width="1" stroke-linecap="round" stroke-linejoin="round" transform="matrix(1.17031,0,0,1.17031,0,0)"
font-family="Sans Serif" font-size="9" font-weight="400" font-style="normal" 
>
<polyline fill="none" vector-effect="none" points="93.5,18.5 93.5,467.5 543.5,467.5 543.5,18.5 93.5,18.5 " />
</g>

<g fill="none" stroke="#000000" stroke-opacity="1" stroke-width="1" stroke-linecap="square" stroke-linejoin="bevel" transform="matrix(1.17031,0,0,1.17031,0,0)"
font-family="Sans Serif" font-size="9" font-weight="400" font-style="normal" 
>
</g>

<g fill="none" stroke="#000000" stroke-opacity="1" stroke-width="1" stroke-linecap="square" stroke-linejoin="bevel" transform="matrix(1.17031,0,0,1.17031,0,0)"
font-family="Sans Serif" font-size="9" font-weight="400" font-style="normal" 
>
</g>

<g fill="none" stroke="#000000" stroke-opacity="1" stroke-width="1" stroke-linecap="square" stroke-linejoin="bevel" transform="matrix(1.17031,0,0,1.17031,0,0)"
font-family="Sans Serif" font-size="9" font-weight="400" font-style="normal" 
>
</g>

<g fill="none" stroke="#000000" stroke-opacity="1" stroke-width="1" stroke-linecap="square" stroke-linejoin="bevel" transform="matrix(1.17031,0,0,1.17031,0,0)"
font-family="Sans Serif" font-size="9" font-weight="400" font-style="normal" 
>
</g>

<g fill="none" stroke="#9400d3" stroke-opacity="1" stroke-width="1" stroke-linecap="round" stroke-linejoin="round" transform="matrix(1.17031,0,0,1.17031,0,0)"
font-family="Sans Serif" font-size="9" font-weight="400" font-style="normal" 
>
<polyline fill="none" vector-effect="none" points="93.5,467.5 93.5,467.5 93.5,462.5 93.5,456.5 99.5,456.5 99.5,462.5 99.5,467.5 104.5,467.5 104.5,462.5 104.5,456.5 104.5,451.5 99.5,451.5 93.5,451.5 93.5,445.5 99.5,445.5 104.5,445.5 104.5,439.5 99.5,439.5 93.5,439.5 93.5,434.5 93.5,428.5 93.5,422.5 99.5,422.5 99.5,428.5 99.5,434.5 104.5,434.5 104.5,428.5 104.5,422.5 110.5,422.5 116.5,422.5 121.5,422.5 121.5,428.5 116.5,428.5 110.5,428.5 110.5,434.5 116.5,434.5 121.5,434.5 121.5,439.5 121.5,445.5 121.5,451.5 116.5,451.5 116.5,445.5 116.5,439.5 110.5,439.5 110.5,445.5 110.5,451.5 110.5,456.5 116.5,456.5 121.5,456.5 121.5,462.5 116.5,462.5 110.5,462.5 110.5,467.5 116.5,467.5 121.5,467.5 127.5,467.5 127.5,462.5 127.5,456.5 132.5,456.5 132.5,462.5 132.5,467.5 138.5,467.5 138.5,462.5 138.5,456.5 138.5,451.5 132.5,451.5 127.5,451.5 127.5,445.5 132.5,445.5 138.5,445.5 138.5,439.5 132.5,439.5 127.5,439.5 127.5,434.5 127.5,428.5 127.5,422.5 132.5,422.5 132.5,428.5 132.5,434.5 138.5,434.5 138.5,428.5 138.5,422.5 138.5,417.5 132.5,417.5 127.5,417.5 127.5,411.5 132.5,411.5 138.5,411.5 138.5,406.5 132.5,406.5 127.5,406.5 121.5,406.5 121.5,411.5 121.5,417.5 116.5,417.5 116.5,411.5 116.5,406.5 110.5,406.5 110.5,411.5 110.5,417.5 104.5,417.5 99.5,417.5 93.5,417.5 93.5,411.5 99.5,411.5 104.5,411.5 104.5,406.5 99.5,406.5 93.5,406.5 93.5,400.5 93.5,394.5 93.5,389.5 99.5,389.5 99.5,394.5 99.5,400.5 104.5,400.5 104.5,394.5 104.5,389.5 110.5,389.5 116.5,389.5 121.5,389.5 121.5,394.5 116.5,394.5 110.5,394.5 110.5,400.5 116.5,400.5 121.5,400.5 127.5,400.5 127.5,394.5 127.5,389.5 132.5,389.5 132.5,394.5 132.5,400.5 138.5,400.5 138.5,394.5 138.5,389.5 138.5,383.5 132.5,383.5 127.5,383.5 127.5,377.5 132.5,377.5 138.5,377.5 138.5,372.5 132.5,372.5 127.5,372.5 121.5,372.5 121.5,377.5 121.5,383.5 116.5,383.5 116.5,377.5 116.5,372.5 110.5,372.5 110.5,377.5 110.5,383.5 104.5,383.5 99.5,383.5 93.5,383.5 93.5,377.5 99.5,377.5 104.5,377.5 104.5,372.5 99.5,372.5 93.5,372.5 93.5,366.5 93.5,361.5 93.5,355.5 99.5,355.5 99.5,361.5 99.5,366.5 104.5,366.5 104.5,361.5 104.5,355.5 104.5,349.5 99.5,349.5 93.5,349.5 93.5,344.5 99.5,344.5 104.5,344.5 104.5,338.5 99.5,338.5 93.5,338.5 93.5,332.5 93.5,327.5 93.5,321.5 99.5,321.5 99.5,327.5 99.5,332.5 104.5,332.5 104.5,327.5 104.5,321.5 110.5,321.5 116.5,321.5 121.5,321.5 121.5,327.5 116.5,327.5 110.5,327.5 110.5,332.5 116.5,332.5 121.5,332.5 121.5,338.5 121.5,344.5 121.5,349.5 116.5,349.5 116.5,344.5 116.5,338.5 110.5,338.5 110.5,344.5 110.5,349.5 110.5,355.5 116.5,355.5 121.5,355.5 121.5,361.5 116.5,361.5 110.5,361.5 110.5,366.5 116.5,366.5 121.5,366.5 127.5,366.5 127.5,361.5 127.5,355.5 132.5,355.5 132.5,361.5 132.5,366.5 138.5,366.5 138.5,361.5 138.5,355.5 138.5,349.5 132.5,349.5 127.5,349.5 127.5,344.5 132.5,344.5 138.5,344.5 138.5,338.5 132.5,338.5 127.5,338.5 127.5,332.5 127.5,327.5 127.5,321.5 132.5,321.5 132.5,327.5 132.5,332.5 138.5,332.5 138.5,327.5 138.5,321.5 144.5,321.5 149.5,321.5 155.5,321.5 155.5,327.5 149.5,327.5 144.5,327.5 144.5,332.5 149.5,332.5 155.5,332.5 161.5,332.5 161.5,327.5 161.5,321.5 166.5,321.5 166.5,327.5 166.5,332.5 172.5,332.5 172.5,327.5 172.5,321.5 177.5,321.5 183.5,321.5 189.5,321.5 189.5,327.5 183.5,327.5 177.5,327.5 177.5,332.5 183.5,332.5 189.5,332.5 189.5,338.5 189.5,344.5 189.5,349.5 183.5,349.5 183.5,344.5 183.5,338.5 177.5,338.5 177.5,344.5 177.5,349.5 172.5,349.5 166.5,349.5 161.5,349.5 161.5,344.5 166.5,344.5 172.5,344.5 172.5,338.5 166.5,338.5 161.5,338.5 155.5,338.5 155.5,344.5 155.5,349.5 149.5,349.5 149.5,344.5 149.5,338.5 144.5,338.5 144.5,344.5 144.5,349.5 144.5,355.5 149.5,355.5 155.5,355.5 155.5,361.5 149.5,361.5 144.5,361.5 144.5,366.5 149.5,366.5 155.5,366.5 161.5,366.5 161.5,361.5 161.5,355.5 166.5,355.5 166.5,361.5 166.5,366.5 172.5,366.5 172.5,361.5 172.5,355.5 177.5,355.5 183.5,355.5 189.5,355.5 189.5,361.5 183.5,361.5 177.5,361.5 177.5,366.5 183.5,366.5 189.5,366.5 189.5,372.5 189.5,377.5 189.5,383.5 183.5,383.5 183.5,377.5 183.5,372.5 177.5,372.5 177.5,377.5 177.5,383.5 177.5,389.5 183.5,389.5 189.5,389.5 189.5,394.5 183.5,394.5 177.5,394.5 177.5,400.5 183.5,400.5 189.5,400.5 189.5,406.5 189.5,411.5 189.5,417.5 183.5,417.5 183.5,411.5 183.5,406.5 177.5,406.5 177.5,411.5 177.5,417.5 172.5,417.5 166.5,417.5 161.5,417.5 161.5,411.5 166.5,411.5 172.5,411.5 172.5,406.5 166.5,406.5 161.5,406.5 161.5,400.5 161.5,394.5 161.5,389.5 166.5,389.5 166.5,394.5 166.5,400.5 172.5,400.5 172.5,394.5 172.5,389.5 172.5,383.5 166.5,383.5 161.5,383.5 161.5,377.5 166.5,377.5 172.5,377.5 172.5,372.5 166.5,372.5 161.5,372.5 155.5,372.5 155.5,377.5 155.5,383.5 149.5,383.5 149.5,377.5 149.5,372.5 144.5,372.5 144.5,377.5 144.5,383.5 144.5,389.5 149.5,389.5 155.5,389.5 155.5,394.5 149.5,394.5 144.5,394.5 144.5,400.5 149.5,400.5 155.5,400.5 155.5,406.5 155.5,411.5 155.5,417.5 149.5,417.5 149.5,411.5 149.5,406.5 144.5,406.5 144.5,411.5 144.5,417.5 144.5,422.5 149.5,422.5 155.5,422.5 155.5,428.5 149.5,428.5 144.5,428.5 144.5,434.5 149.5,434.5 155.5,434.5 161.5,434.5 161.5,428.5 161.5,422.5 166.5,422.5 166.5,428.5 166.5,434.5 172.5,434.5 172.5,428.5 172.5,422.5 177.5,422.5 183.5,422.5 189.5,422.5 189.5,428.5 183.5,428.5 177.5,428.5 177.5,434.5 183.5,434.5 189.5,434.5 189.5,439.5 189.5,445.5 189.5,451.5 183.5,451.5 183.5,445.5 183.5,439.5 177.5,439.5 177.5,445.5 177.5,451.5 172.5,451.5 166.5,451.5 161.5,451.5 161.5,445.5 166.5,445.5 172.5,445.5 172.5,439.5 166.5,439.5 161.5,439.5 155.5,439.5 155.5,445.5 155.5,451.5 149.5,451.5 149.5,445.5 149.5,439.5 144.5,439.5 144.5,445.5 144.5,451.5 144.5,456.5 149.5,456.5 155.5,456.5 155.5,462.5 149.5,462.5 144.5,462.5 144.5,467.5 149.5,467.5 155.5,467.5 161.5,467.5 161.5,462.5 161.5,456.5 166.5,456.5 166.5,462.5 166.5,467.5 172.5,467.5 172.5,462.5 172.5,456.5 177.5,456.5 183.5,456.5 189.5,456.5 189.5,462.5 183.5,462.5 177.5,462.5 177.5,467.5 183.5,467.5 189.5,467.5 194.5,467.5 194.5,462.5 194.5,456.5 200.5,456.5 200.5,462.5 200.5,467.5 206.5,467.5 206.5,462.5 206.5,456.5 206.5,451.5 200.5,451.5 194.5,451.5 194.5,445.5 200.5,445.5 206.5,445.5 206.5,439.5 200.5,439.5 194.5,439.5 194.5,434.5 194.5,428.5 194.5,422.5 200.5,422.5 200.5,428.5 200.5,434.5 206.5,434.5 206.5,428.5 206.5,422.5 211.5,422.5 217.5,422.5 222.5,422.5 222.5,428.5 217.5,428.5 211.5,428.5 211.5,434.5 217.5,434.5 222.5,434.5 222.5,439.5 222.5,445.5 222.5,451.5 217.5,451.5 217.5,445.5 217.5,439.5 211.5,439.5 211.5,445.5 211.5,451.5 211.5,456.5 217.5,456.5 222.5,456.5 222.5,462.5 217.5,462.5 211.5,462.5 211.5,467.5 217.5,467.5 222.5,467.5 228.5,467.5 228.5,462.5 228.5,456.5 234.5,456.5 234.5,462.5 234.5,467.5 239.5,467.5 239.5,462.5 239.5,456.5 239.5,451.5 234.5,451.5 228.5,451.5 228.5,445.5 234.5,445.5 239.5,445.5 239.5,439.5 234.5,439.5 228.5,439.5 228.5,434.5 228.5,428.5 228.5,422.5 234.5,422.5 234.5,428.5 234.5,434.5 239.5,434.5 239.5,428.5 239.5,422.5 239.5,417.5 234.5,417.5 228.5,417.5 228.5,411.5 234.5,411.5 239.5,411.5 239.5,406.5 234.5,406.5 228.5,406.5 222.5,406.5 222.5,411.5 222.5,417.5 217.5,417.5 217.5,411.5 217.5,406.5 211.5,406.5 211.5,411.5 211.5,417.5 206.5,417.5 200.5,417.5 194.5,417.5 194.5,411.5 200.5,411.5 206.5,411.5 206.5,406.5 200.5,406.5 194.5,406.5 194.5,400.5 194.5,394.5 194.5,389.5 200.5,389.5 200.5,394.5 200.5,400.5 206.5,400.5 206.5,394.5 206.5,389.5 211.5,389.5 217.5,389.5 222.5,389.5 222.5,394.5 217.5,394.5 211.5,394.5 211.5,400.5 217.5,400.5 222.5,400.5 228.5,400.5 228.5,394.5 228.5,389.5 234.5,389.5 234.5,394.5 234.5,400.5 239.5,400.5 239.5,394.5 239.5,389.5 239.5,383.5 234.5,383.5 228.5,383.5 228.5,377.5 234.5,377.5 239.5,377.5 239.5,372.5 234.5,372.5 228.5,372.5 222.5,372.5 222.5,377.5 222.5,383.5 217.5,383.5 217.5,377.5 217.5,372.5 211.5,372.5 211.5,377.5 211.5,383.5 206.5,383.5 200.5,383.5 194.5,383.5 194.5,377.5 200.5,377.5 206.5,377.5 206.5,372.5 200.5,372.5 194.5,372.5 194.5,366.5 194.5,361.5 194.5,355.5 200.5,355.5 200.5,361.5 200.5,366.5 206.5,366.5 206.5,361.5 206.5,355.5 206.5,349.5 200.5,349.5 194.5,349.5 194.5,344.5 200.5,344.5 206.5,344.5 206.5,338.5 200.5,338.5 194.5,338.5 194.5,332.5 194.5,327.5 194.5,321.5 200.5,321.5 200.5,327.5 200.5,332.5 206.5,332.5 206.5,327.5 206.5,321.5 211.5,321.5 217.5,321.5 222.5,321.5 222.5,327.5 217.5,327.5 211.5,327.5 211.5,332.5 217.5,332.5 222.5,332.5 222.5,338.5 222.5,344.5 222.5,349.5 217.5,349.5 217.5,344.5 217.5,338.5 211.5,338.5 211.5,344.5 211.5,349.5 211.5,355.5 217.5,355.5 222.5,355.5 222.5,361.5 217.5,361.5 211.5,361.5 211.5,366.5 217.5,366.5 222.5,366.5 228.5,366.5 228.5,361.5 228.5,355.5 234.5,355.5 234.5,361.5 234.5,366.5 239.5,366.5 239.5,361.5 239.5,355.5 239.5,349.5 234.5,349.5 228.5,349.5 228.5,344.5 234.5,344.5 239.5,344.5 239.5,338.5 234.5,338.5 228.5,338.5 228.5,332.5 228.5,327.5 228.5,321.5 234.5,321.5 234.5,327.5 234.5,332.5 239.5,332.5 239.5,327.5 239.5,321.5 239.5,316.5 234.5,316.5 228.5,316.5 228.5,310.5 234.5,310.5 239.5,310.5 239.5,304.5 234.5,304.5 228.5,304.5 222.5,304.5 222.5,310.5 222.5,316.5 217.5,316.5 217.5,310.5 217.5,304.5 211.5,304.5 211.5,310.5 211.5,316.5 206.5,316.5 200.5,316.5 194.5,316.5 194.5,310.5 200.5,310.5 206.5,310.5 206.5,304.5 200.5,304.5 194.5,304.5 194.5,299.5 194.5,293.5 194.5,287.5 200.5,287.5 200.5,293.5 200.5,299.5 206.5,299.5 206.5,293.5 206.5,287.5 211.5,287.5 217.5,287.5 222.5,287.5 222.5,293.5 217.5,293.5 211.5,293.5 211.5,299.5 217.5,299.5 222.5,299.5 228.5,299.5 228.5,293.5 228.5,287.5 234.5,287.5 234.5,293.5 234.5,299.5 239.5,299.5 239.5,293.5 239.5,287.5 239.5,282.5 234.5,282.5 228.5,282.5 228.5,276.5 234.5,276.5 239.5,276.5 239.5,271.5 234.5,271.5 228.5,271.5 222.5,271.5 222.5,276.5 222.5,282.5 217.5,282.5 217.5,276.5 217.5,271.5 211.5,271.5 211.5,276.5 211.5,282.5 206.5,282.5 200.5,282.5 194.5,282.5 194.5,276.5 200.5,276.5 206.5,276.5 206.5,271.5 200.5,271.5 194.5,271.5 189.5,271.5 189.5,276.5 189.5,282.5 183.5,282.5 183.5,276.5 183.5,271.5 177.5,271.5 177.5,276.5 177.5,282.5 177.5,287.5 183.5,287.5 189.5,287.5 189.5,293.5 183.5,293.5 177.5,293.5 177.5,299.5 183.5,299.5 189.5,299.5 189.5,304.5 189.5,310.5 189.5,316.5 183.5,316.5 183.5,310.5 183.5,304.5 177.5,304.5 177.5,310.5 177.5,316.5 172.5,316.5 166.5,316.5 161.5,316.5 161.5,310.5 166.5,310.5 172.5,310.5 172.5,304.5 166.5,304.5 161.5,304.5 161.5,299.5 161.5,293.5 161.5,287.5 166.5,287.5 166.5,293.5 166.5,299.5 172.5,299.5 172.5,293.5 172.5,287.5 172.5,282.5 166.5,282.5 161.5,282.5 161.5,276.5 166.5,276.5 172.5,276.5 172.5,271.5 166.5,271.5 161.5,271.5 155.5,271.5 155.5,276.5 155.5,282.5 149.5,282.5 149.5,276.5 149.5,271.5 144.5,271.5 144.5,276.5 144.5,282.5 144.5,287.5 149.5,287.5 155.5,287.5 155.5,293.5 149.5,293.5 144.5,293.5 144.5,299.5 149.5,299.5 155.5,299.5 155.5,304.5 155.5,310.5 155.5,316.5 149.5,316.5 149.5,310.5 149.5,304.5 144.5,304.5 144.5,310.5 144.5,316.5 138.5,316.5 132.5,316.5 127.5,316.5 127.5,310.5 132.5,310.5 138.5,310.5 138.5,304.5 132.5,304.5 127.5,304.5 121.5,304.5 121.5,310.5 121.5,316.5 116.5,316.5 116.5,310.5 116.5,304.5 110.5,304.5 110.5,310.5 110.5,316.5 104.5,316.5 99.5,316.5 93.5,316.5 93.5,310.5 99.5,310.5 104.5,310.5 104.5,304.5 99.5,304.5 93.5,304.5 93.5,299.5 93.5,293.5 93.5,287.5 99.5,287.5 99.5,293.5 99.5,299.5 104.5,299.5 104.5,293.5 104.5,287.5 110.5,287.5 116.5,287.5 121.5,287.5 121.5,293.5 116.5,293.5 110.5,293.5 110.5,299.5 116.5,299.5 121.5,299.5 127.5,299.5 127.5,293.5 127.5,287.5 132.5,287.5 132.5,293.5 132.5,299.5 138.5,299.5 138.5,293.5 138.5,287.5 138.5,282.5 132.5,282.5 127.5,282.5 127.5,276.5 132.5,276.5 138.5,276.5 138.5,271.5 132.5,271.5 127.5,271.5 121.5,271.5 121.5,276.5 121.5,282.5 116.5,282.5 116.5,276.5 116.5,271.5 110.5,271.5 110.5,276.5 110.5,282.5 104.5,282.5 99.5,282.5 93.5,282.5 93.5,276.5 99.5,276.5 104.5,276.5 104.5,271.5 99.5,271.5 93.5,271.5 93.5,265.5 93.5,259.5 93.5,254.5 99.5,254.5 99.5,259.5 99.5,265.5 104.5,265.5 104.5,259.5 104.5,254.5 104.5,248.5 99.5,248.5 93.5,248.5 93.5,242.5 99.5,242.5 104.5,242.5 104.5,237.5 99.5,237.5 93.5,237.5 93.5,231.5 93.5,226.5 93.5,220.5 99.5,220.5 99.5,226.5 99.5,231.5 104.5,231.5 104.5,226.5 104.5,220.5 110.5,220.5 116.5,220.5 121.5,220.5 121.5,226.5 116.5,226.5 110.5,226.5 110.5,231.5 116.5,231.5 121.5,231.5 121.5,237.5 121.5,242.5 121.5,248.5 116.5,248.5 116.5,242.5 116.5,237.5 110.5,237.5 110.5,242.5 110.5,248.5 110.5,254.5 116.5,254.5 121.5,254.5 121.5,259.5 116.5,259.5 110.5,259.5 110.5,265.5 116.5,265.5 121.5,265.5 127.5,265.5 127.5,259.5 127.5,254.5 132.5,254.5 132.5,259.5 132.5,265.5 138.5,265.5 138.5,259.5 138.5,254.5 138.5,248.5 132.5,248.5 127.5,248.5 127.5,242.5 132.5,242.5 138.5,242.5 138.5,237.5 132.5,237.5 127.5,237.5 127.5,231.5 127.5,226.5 127.5,220.5 132.5,220.5 132.5,226.5 132.5,231.5 138.5,231.5 138.5,226.5 138.5,220.5 144.5,220.5 149.5,220.5 155.5,220.5 155.5,226.5 149.5,226.5 144.5,226.5 144.5,231.5 149.5,231.5 155.5,231.5 161.5,231.5 161.5,226.5 161.5,220.5 166.5,220.5 166.5,226.5 166.5,231.5 172.5,231.5 172.5,226.5 172.5,220.5 177.5,220.5 183.5,220.5 189.5,220.5 189.5,226.5 183.5,226.5 177.5,226.5 177.5,231.5 183.5,231.5 189.5,231.5 189.5,237.5 189.5,242.5 189.5,248.5 183.5,248.5 183.5,242.5 183.5,237.5 177.5,237.5 177.5,242.5 177.5,248.5 172.5,248.5 166.5,248.5 161.5,248.5 161.5,242.5 166.5,242.5 172.5,242.5 172.5,237.5 166.5,237.5 161.5,237.5 155.5,237.5 155.5,242.5 155.5,248.5 149.5,248.5 149.5,242.5 149.5,237.5 144.5,237.5 144.5,242.5 144.5,248.5 144.5,254.5 149.5,254.5 155.5,254.5 155.5,259.5 149.5,259.5 144.5,259.5 144.5,265.5 149.5,265.5 155.5,265.5 161.5,265.5 161.5,259.5 161.5,254.5 166.5,254.5 166.5,259.5 166.5,265.5 172.5,265.5 172.5,259.5 172.5,254.5 177.5,254.5 183.5,254.5 189.5,254.5 189.5,259.5 183.5,259.5 177.5,259.5 177.5,265.5 183.5,265.5 189.5,265.5 194.5,265.5 194.5,259.5 194.5,254.5 200.5,254.5 200.5,259.5 200.5,265.5 206.5,265.5 206.5,259.5 206.5,254.5 206.5,248.5 200.5,248.5 194.5,248.5 194.5,242.5 200.5,242.5 206.5,242.5 206.5,237.5 200.5,237.5 194.5,237.5 194.5,231.5 194.5,226.5 194.5,220.5 200.5,220.5 200.5,226.5 200.5,231.5 206.5,231.5 206.5,226.5 206.5,220.5 211.5,220.5 217.5,220.5 222.5,220.5 222.5,226.5 217.5,226.5 211.5,226.5 211.5,231.5 217.5,231.5 222.5,231.5 222.5,237.5 222.5,242.5 222.5,248.5 217.5,248.5 217.5,242.5 217.5,237.5 211.5,237.5 211.5,242.5 211.5,248.5 211.5,254.5 217.5,254.5 222.5,254.5 222.5,259.5 217.5,259.5 211.5,259.5 211.5,265.5 217.5,265.5 222.5,265.5 228.5,265.5 228.5,259.5 228.5,254.5 234.5,254.5 234.5,259.5 234.5,265.5 239.5,265.5 239.5,259.5 239.5,254.5 239.5,248.5 234.5,248.5 228.5,248.5 228.5,242.5 234.5,242.5 239.5,242.5 239.5,237.5 234.5,237.5 228.5,237.5 228.5,231.5 228.5,226.5 228.5,220.5 234.5,220.5 234.5,226.5 234.5,231.5 239.5,231.5 239.5,226.5 239.5,220.5 239.5,214.5 234.5,214.5 228.5,214.5 228.5,209.5 234.5,209.5 239.5,209.5 239.5,203.5 234.5,203.5 228.5,203.5 222.5,203.5 222.5,209.5 222.5,214.5 217.5,214.5 217.5,209.5 217.5,203.5 211.5,203.5 211.5,209.5 211.5,214.5 206.5,214.5 200.5,214.5 194.5,214.5 194.5,209.5 200.5,209.5 206.5,209.5 206.5,203.5 200.5,203.5 194.5,203.5 194.5,198.5 194.5,192.5 194.5,186.5 200.5,186.5 200.5,192.5 200.5,198.5 206.5,198.5 206.5,192.5 206.5,186.5 211.5,186.5 217.5,186.5 222.5,186.5 222.5,192.5 217.5,192.5 211.5,192.5 211.5,198.5 217.5,198.5 222.5,198.5 228.5,198.5 228.5,192.5 228.5,186.5 234.5,186.5 234.5,192.5 234.5,198.5 239.5,198.5 239.5,192.5 239.5,186.5 239.5,181.5 234.5,181.5 228.5,181.5 228.5,175.5 234.5,175.5 239.5,175.5 239.5,169.5 234.5,169.5 228.5,169.5 222.5,169.5 222.5,175.5 222.5,181.5 217.5,181.5 217.5,175.5 217.5,169.5 211.5,169.5 211.5,175.5 211.5,181.5 206.5,181.5 200.5,181.5 194.5,181.5 194.5,175.5 200.5,175.5 206.5,175.5 206.5,169.5 200.5,169.5 194.5,169.5 189.5,169.5 189.5,175.5 189.5,181.5 183.5,181.5 183.5,175.5 183.5,169.5 177.5,169.5 177.5,175.5 177.5,181.5 177.5,186.5 183.5,186.5 189.5,186.5 189.5,192.5 183.5,192.5 177.5,192.5 177.5,198.5 183.5,198.5 189.5,198.5 189.5,203.5 189.5,209.5 189.5,214.5 183.5,214.5 183.5,209.5 183.5,203.5 177.5,203.5 177.5,209.5 177.5,214.5 172.5,214.5 166.5,214.5 161.5,214.5 161.5,209.5 166.5,209.5 172.5,209.5 172.5,203.5 166.5,203.5 161.5,203.5 161.5,198.5 161.5,192.5 161.5,186.5 166.5,186.5 166.5,192.5 166.5,198.5 172.5,198.5 172.5,192.5 172.5,186.5 172.5,181.5 166.5,181.5 161.5,181.5 161.5,175.5 166.5,175.5 172.5,175.5 172.5,169.5 166.5,169.5 161.5,169.5 155.5,169.5 155.5,175.5 155.5,181.5 149.5,181.5 149.5,175.5 149.5,169.5 144.5,169.5 144.5,175.5 144.5,181.5 144.5,186.5 149.5,186.5 155.5,186.5 155.5,192.5 149.5,192.5 144.5,192.5 144.5,198.5 149.5,198.5 155.5,198.5 155.5,203.5 155.5,209.5 155.5,214.5 149.5,214.5 149.5,209.5 149.5,203.5 144.5,203.5 144.5,209.5 144.5,214.5 138.5,214.5 132.5,214.5 127.5,214.5 127.5,209.5 132.5,209.5 138.5,209.5 138.5,203.5 132.5,203.5 127.5,203.5 121.5,203.5 121.5,209.5 121.5,214.5 116.5,214.5 116.5,209.5 116.5,203.5 110.5,203.5 110.5,209.5 110.5,214.5 104.5,214.5 99.5,214.5 93.5,214.5 93.5,209.5 99.5,209.5 104.5,209.5 104.5,203.5 99.5,203.5 93.5,203.5 93.5,198.5 93.5,192.5 93.5,186.5 99.5,186.5 99.5,192.5 99.5,198.5 104.5,198.5 104.5,192.5 104.5,186.5 110.5,186.5 116.5,186.5 121.5,186.5 121.5,192.5 116.5,192.5 110.5,192.5 110.5,198.5 116.5,198.5 121.5,198.5 127.5,198.5 127.5,192.5 127.5,186.5 132.5,186.5 132.5,192.5 132.5,198.5 138.5,198.5 138.5,192.5 138.5,186.5 138.5,181.5 132.5,181.5 127.5,181.5 127.5,175.5 132.5,175.5 138.5,175.5 138.5,169.5 132.5,169.5 127.5,169.5 121.5,169.5 121.5,175.5 121.5,181.5 116.5,181.5 116.5,175.5 116.5,169.5 110.5,169.5 110.5,175.5 110.5,181.5 104.5,181.5 99.5,181.5 93.5,181.5 93.5,175.5 99.5,175.5 104.5,175.5 104.5,169.5 99.5,169.5 93.5,169.5 93.5,164.5 93.5,158.5 93.5,153.5 99.5,153.5 99.5,158.5 99.5,164.5 104.5,164.5 104.5,158.5 104.5,153.5 104.5,147.5 99.5,147.5 93.5,147.5 93.5,141.5 99.5,141.5 104.5,141.5 104.5,136.5 99.5,136.5 93.5,136.5 93.5,130.5 93.5,124.5 93.5,119.5 99.5,119.5 99.5,124.5 99.5,130.5 104.5,130.5 104.5,124.5 104.5,119.5 110.5,119.5 116.5,119.5 121.5,119.5 121.5,124.5 116.5,124.5 110.5,124.5 110.5,130.5 116.5,130.5 121.5,130.5 121.5,136.5 121.5,141.5 121.5,147.5 116.5,147.5 116.5,141.5 116.5,136.5 110.5,136.5 110.5,141.5 110.5,147.5 110.5,153.5 116.5,153.5 121.5,153.5 121.5,158.5 116.5,158.5 110.5,158.5 110.5,164.5 116.5,164.5 121.5,164.5 127.5,164.5 127.5,158.5 127.5,153.5 132.5,153.5 132.5,158.5 132.5,164.5 138.5,164.5 138.5,158.5 138.5,153.5 138.5,147.5 132.5,147.5 127.5,147.5 127.5,141.5 132.5,141.5 138.5,141.5 138.5,136.5 132.5,136.5 127.5,136.5 127.5,130.5 127.5,124.5 127.5,119.5 132.5,119.5 132.5,124.5 132.5,130.5 138.5,130.5 138.5,124.5 138.5,119.5 138.5,113.5 132.5,113.5 127.5,113.5 127.5,108.5 132.5,108.5 138.5,108.5 138.5,102.5 132.5,102.5 127.5,102.5 121.5,102.5 121.5,108.5 121.5,113.5 116.5,113.5 116.5,108.5 116.5,102.5 110.5,102.5 110.5,108.5 110.5,113.5 104.5,113.5 99.5,113.5 93.5,113.5 93.5,108.5 99.5,108.5 104.5,108.5 104.5,102.5 99.5,102.5 93.5,102.5 93.5,96.5 93.5,91.5 93.5,85.5 99.5,85.5 99.5,91.5 99.5,96.5 104.5,96.5 104.5,91.5 104.5,85.5 110.5,85.5 116.5,85.5 121.5,85.5 121.5,91.5 116.5,91.5 110.5,91.5 110.5,96.5 116.5,96.5 121.5,96.5 127.5,96.5 127.5,91.5 127.5,85.5 132.5,85.5 132.5,91.5 132.5,96.5 138.5,96.5 138.5,91.5 138.5,85.5 138.5,79.5 132.5,79.5 127.5,79.5 127.5,74.5 132.5,74.5 138.5,74.5 138.5,68.5 132.5,68.5 127.5,68.5 121.5,68.5 121.5,74.5 121.5,79.5 116.5,79.5 116.5,74.5 116.5,68.5 110.5,68.5 110.5,74.5 110.5,79.5 104.5,79.5 99.5,79.5 93.5,79.5 93.5,74.5 99.5,74.5 104.5,74.5 104.5,68.5 99.5,68.5 93.5,68.5 93.5,63.5 93.5,57.5 93.5,51.5 99.5,51.5 99.5,57.5 99.5,63.5 104.5,63.5 104.5,57.5 104.5,51.5 104.5,46.5 99.5,46.5 93.5,46.5 93.5,40.5 99.5,40.5 104.5,40.5 104.5,34.5 99.5,34.5 93.5,34.5 93.5,29.5 93.5,23.5 93.5,18.5 99.5,18.5 99.5,23.5 99.5,29.5 104.5,29.5 104.5,23.5 104.5,18.5 110.5,18.5 116.5,18.5 121.5,18.5 121.5,23.5 116.5,23.5 110.5,23.5 110.5,29.5 116.5,29.5 121.5,29.5 121.5,34.5 121.5,40.5 121.5,46.5 116.5,46.5 116.5,40.5 116.5,34.5 110.5,34.5 110.5,40.5 110.5,46.5 110.5,51.5 116.5,51.5 121.5,51.5 121.5,57.5 116.5,57.5 110.5,57.5 110.5,63.5 116.5,63.5 121.5,63.5 127.5,63.5 127.5,57.5 127.5,51.5 132.5,51.5 132.5,57.5 132.5,63.5 138.5,63.5 138.5,57.5 138.5,51.5 138.5,46.5 132.5,46.5 127.5,46.5 127.5,40.5 132.5,40.5 138.5,40.5 138.5,34.5 132.5,34.5 127.5,34.5 127.5,29.5 127.5,23.5 127.5,18.5 132.5,18.5 132.5,23.5 132.5,29.5 138.5,29.5 138.5,23.5 138.5,18.5 144.5,18.5 149.5,18.5 155.5,18.5 155.5,23.5 149.5,23.5 144.5,23.5 144.5,29.5 149.5,29.5 155.5,29.5 161.5,29.5 161.5,23.5 161.5,18.5 166.5,18.5 166.5,23.5 166.5,29.5 172.5,29.5 172.5,23.5 172.5,18.5 177.5,18.5 183.5,18.5 189.5,18.5 189.5,23.5 183.5,23.5 177.5,23.5 177.5,29.5 183.5,29.5 189.5,29.5 189.5,34.5 189.5,40.5 189.5,46.5 183.5,46.5 183.5,40.5 183.5,34.5 177.5,34.5 177.5,40.5 177.5,46.5 172.5,46.5 166.5,46.5 161.5,46.5 161.5,40.5 166.5,40.5 172.5,40.5 172.5,34.5 166.5,34.5 161.5,34.5 155.5,34.5 155.5,40.5 155.5,46.5 149.5,46.5 149.5,40.5 149.5,34.5 144.5,34.5 144.5,40.5 144.5,46.5 144.5,51.5 149.5,51.5 155.5,51.5 155.5,57.5 149.5,57.5 144.5,57.5 144.5,63.5 149.5,63.5 155.5,63.5 161.5,63.5 161.5,57.5 161.5,51.5 166.5,51.5 166.5,57.5 166.5,63.5 172.5,63.5 172.5,57.5 172.5,51.5 177.5,51.5 183.5,51.5 189.5,51.5 189.5,57.5 183.5,57.5 177.5,57.5 177.5,63.5 183.5,63.5 189.5,63.5 189.5,68.5 189.5,74.5 189.5,79.5 183.5,79.5 183.5,74.5 183.5,68.5 177.5,68.5 177.5,74.5 177.5,79.5 177.5,85.5 183.5,85.5 189.5,85.5 189.5,91.5 183.5,91.5 177.5,91.5 177.5,96.5 183.5,96.5 189.5,96.5 189.5,102.5 189.5,108.5 189.5,113.5 183.5,113.5 183.5,108.5 183.5,102.5 177.5,102.5 177.5,108.5 177.5,113.5 172.5,113.5 166.5,113.5 161.5,113.5 161.5,108.5 166.5,108.5 172.5,108.5 172.5,102.5 166.5,102.5 161.5,102.5 161.5,96.5 161.5,91.5 161.5,85.5 166.5,85.5 166.5,91.5 166.5,96.5 172.5,96.5 172.5,91.5 172.5,85.5 172.5,79.5 166.5,79.5 161.5,79.5 161.5,74.5 166.5,74.5 172.5,74.5 172.5,68.5 166.5,68.5 161.5,68.5 155.5,68.5 155.5,74.5 155.5,79.5 149.5,79.5 149.5,74.5 149.5,68.5 144.5,68.5 144.5,74.5 144.5,79.5 144.5,85.5 149.5,85.5 155.5,85.5 155.5,91.5 149.5,91.5 144.5,91.5 144.5,96.5 149.5,96.5 155.5,96.5 155.5,102.5 155.5,108.5 155.5,113.5 149.5,113.5 149.5,108.5 149.5,102.5 144.5,102.5 144.5,108.5 144.5,113.5 144.5,119.5 149.5,119.5 155.5,119.5 155.5,124.5 149.5,124.5 144.5,124.5 144.5,130.5 149.5,130.5 155.5,130.5 161.5,130.5 161.5,124.5 161.5,119.5 166.5,119.5 166.5,124.5 166.5,130.5 172.5,130.5 172.5,124.5 172.5,119.5 177.5,119.5 183.5,119.5 189.5,119.5 189.5,124.5 183.5,124.5 177.5,124.5 177.5,130.5 183.5,130.5 189.5,130.5 189.5,136.5 189.5,141.5 189.5,147.5 183.5,147.5 183.5,141.5 183.5,136.5 177.5,136.5 177.5,141.5 177.5,147.5 172.5,147.5 166.5,147.5 161.5,147.5 161.5,141.5 166.5,141.5 172.5,141.5 172.5,136.5 166.5,136.5 161.5,136.5 155.5,136.5 155.5,141.5 155.5,147.5 149.5,147.5 149.5,141.5 149.5,136.5 144.5,136.5 144.5,141.5 144.5,147.5 144.5,153.5 149.5,153.5 155.5,153.5 155.5,158.5 149.5,158.5 144.5,158.5 144.5,164.5 149.5,164.5 155.5,164.5 161.5,164.5 161.5,158.5 161.5,153.5 166.5,153.5 166.5,158.5 166.5,164.5 172.5,164.5 172.5,158.5 172.5,153.5 177.5,153.5 183.5,153.5 189.5,153.5 189.5,158.5 183.5,158.5 177.5,158.5 177.5,164.5 183.5,164.5 189.5,164.5 194.5,164.5 194.5,158.5 194.5,153.5 200.5,153.5 200.5,158.5 200.5,164.5 206.5,164.5 206.5,158.5 206.5,153.5 206.5,147.5 200.5,147.5 194.5,147.5 194.5,141.5 200.5,141.5 206.5,141.5 206.5,136.5 200.5,136.5 194.5,136.5 194.5,130.5 194.5,124.5 194.5,119.5 200.5,119.5 200.5,124.5 200.5,130.5 206.5,130.5 206.5,124.5 206.5,119.5 211.5,119.5 217.5,119.5 222.5,119.5 222.5,124.5 217.5,124.5 211.5,124.5 211.5,130.5 217.5,130.5 222.5,130.5 222.5,136.5 222.5,141.5 222.5,147.5 217.5,147.5 217.5,141.5 217.5,136.5 211.5,136.5 211.5,141.5 211.5,147.5 211.5,153.5 217.5,153.5 222.5,153.5 222.5,158.5 217.5,158.5 211.5,158.5 211.5,164.5 217.5,164.5 222.5,164.5 228.5,164.5 228.5,158.5 228.5,153.5 234.5,153.5 234.5,158.5 234.5,164.5 239.5,164.5 239.5,158.5 239.5,153.5 239.5,147.5 234.5,147.5 228.5,147.5 228.5,141.5 234.5,141.5 239.5,141.5 239.5,136.5 234.5,136.5 228.5,136.5 228.5,130.5 228.5,124.5 228.5,119.5 234.5,119.5 234.5,124.5 234.5,130.5 239.5,130.5 239.5,124.5 239.5,119.5 239.5,113.5 234.5,113.5 228.5,113.5 228.5,108.5 234.5,108.5 239.5,108.5 239.5,102.5 234.5,102.5 228.5,102.5 222.5,102.5 222.5,108.5 222.5,113.5 217.5,113.5 217.5,108.5 217.5,102.5 211.5,102.5 211.5,108.5 211.5,113.5 206.5,113.5 200.5,113.5 194.5,113.5 194.5,108.5 200.5,108.5 206.5,108.5 206.5,102.5 200.5,102.5 194.5,102.5 194.5,96.5 194.5,91.5 194.5,85.5 200.5,85.5 200.5,91.5 200.5,96.5 206.5,96.5 206.5,91.5 206.5,85.5 211.5,85.5 217.5,85.5 222.5,85.5 222.5,91.5 217.5,91.5 211.5,91.5 211.5,96.5 217.5,96.5 222.5,96.5 228.5,96.5 228.5,91.5 228.5,85.5 234.5,85.5 234.5,91.5 234.5,96.5 239.5,96.5 239.5,91.5 239.5,85.5 239.5,79.5 234.5,79.5 228.5,79.5 228.5,74.5 234.5,74.5 239.5,74.5 239.5,68.5 234.5,68.5 228.5,68.5 222.5,68.5 222.5,74.5 222.5,79.5 217.5,79.5 217.5,74.5 217.5,68.5 211.5,68.5 211.5,74.5 211.5,79.5 206.5,79.5 200.5,79.5 194.5,79.5 194.5,74.5 200.5,74.5 206.5,74.5 206.5,68.5 200.5,68.5 194.5,68.5 194.5,63.5 194.5,57.5 194.5,51.5 200.5,51.5 200.5,57.5 200.5,63.5 206.5,63.5 206.5,57.5 206.5,51.5 206.5,46.5 200.5,46.5 194.5,46.5 194.5,40.5 200.5,40.5 206.5,40.5 206.5,34.5 200.5,34.5 194.5,34.5 194.5,29.5 194.5,23.5 194.5,18.5 200.5,18.5 200.5,23.5 200.5,29.5 206.5,29.5 206.5,23.5 206.5,18.5 211.5,18.5 217.5,18.5 222.5,18.5 222.5,23.5 217.5,23.5 211.5,23.5 211.5,29.5 217.5,29.5 222.5,29.5 222.5,34.5 222.5,40.5 222.5,46.5 217.5,46.5 217.5,40.5 217.5,34.5 211.5,34.5 211.5,40.5 211.5,46.5 211.5,51.5 217.5,51.5 222.5,51.5 222.5,57.5 217.5,57.5 211.5,57.5 211.5,63.5 217.5,63.5 222.5,63.5 228.5,63.5 228.5,57.5 228.5,51.5 234.5,51.5 234.5,57.5 234.5,63.5 239.5,63.5 239.5,57.5 239.5,51.5 239.5,46.5 234.5,46.5 228.5,46.5 228.5,40.5 234.5,40.5 239.5,40.5 239.5,34.5 234.5,34.5 228.5,34.5 228.5,29.5 228.5,23.5 228.5,18.5 234.5,18.5 234.5,23.5 234.5,29.5 239.5,29.5 239.5,23.5 239.5,18.5 245.5,18.5 251.5,18.5 256.5,18.5 256.5,23.5 251.5,23.5 245.5,23.5 245.5,29.5 251.5,29.5 256.5,29.5 262.5,29.5 262.5,23.5 262.5,18.5 267.5,18.5 267.5,23.5 267.5,29.5 273.5,29.5 273.5,23.5 273.5,18.5 279.5,18.5 284.5,18.5 290.5,18.5 290.5,23.5 284.5,23.5 279.5,23.5 279.5,29.5 284.5,29.5 290.5,29.5 290.5,34.5 290.5,40.5 290.5,46.5 284.5,46.5 284.5,40.5 284.5,34.5 279.5,34.5 279.5,40.5 279.5,46.5 273.5,46.5 267.5,46.5 262.5,46.5 262.5,40.5 267.5,40.5 273.5,40.5 273.5,34.5 267.5,34.5 262.5,34.5 256.5,34.5 256.5,40.5 256.5,46.5 251.5,46.5 251.5,40.5 251.5,34.5 245.5,34.5 245.5,40.5 245.5,46.5 245.5,51.5 251.5,51.5 256.5,51.5 256.5,57.5 251.5,57.5 245.5,57.5 245.5,63.5 251.5,63.5 256.5,63.5 262.5,63.5 262.5,57.5 262.5,51.5 267.5,51.5 267.5,57.5 267.5,63.5 273.5,63.5 273.5,57.5 273.5,51.5 279.5,51.5 284.5,51.5 290.5,51.5 290.5,57.5 284.5,57.5 279.5,57.5 279.5,63.5 284.5,63.5 290.5,63.5 296.5,63.5 296.5,57.5 296.5,51.5 301.5,51.5 301.5,57.5 301.5,63.5 307.5,63.5 307.5,57.5 307.5,51.5 307.5,46.5 301.5,46.5 296.5,46.5 296.5,40.5 301.5,40.5 307.5,40.5 307.5,34.5 301.5,34.5 296.5,34.5 296.5,29.5 296.5,23.5 296.5,18.5 301.5,18.5 301.5,23.5 301.5,29.5 307.5,29.5 307.5,23.5 307.5,18.5 312.5,18.5 318.5,18.5 324.5,18.5 324.5,23.5 318.5,23.5 312.5,23.5 312.5,29.5 318.5,29.5 324.5,29.5 324.5,34.5 324.5,40.5 324.5,46.5 318.5,46.5 318.5,40.5 318.5,34.5 312.5,34.5 312.5,40.5 312.5,46.5 312.5,51.5 318.5,51.5 324.5,51.5 324.5,57.5 318.5,57.5 312.5,57.5 312.5,63.5 318.5,63.5 324.5,63.5 329.5,63.5 329.5,57.5 329.5,51.5 335.5,51.5 335.5,57.5 335.5,63.5 340.5,63.5 340.5,57.5 340.5,51.5 340.5,46.5 335.5,46.5 329.5,46.5 329.5,40.5 335.5,40.5 340.5,40.5 340.5,34.5 335.5,34.5 329.5,34.5 329.5,29.5 329.5,23.5 329.5,18.5 335.5,18.5 335.5,23.5 335.5,29.5 340.5,29.5 340.5,23.5 340.5,18.5 346.5,18.5 352.5,18.5 357.5,18.5 357.5,23.5 352.5,23.5 346.5,23.5 346.5,29.5 352.5,29.5 357.5,29.5 363.5,29.5 363.5,23.5 363.5,18.5 369.5,18.5 369.5,23.5 369.5,29.5 374.5,29.5 374.5,23.5 374.5,18.5 380.5,18.5 385.5,18.5 391.5,18.5 391.5,23.5 385.5,23.5 380.5,23.5 380.5,29.5 385.5,29.5 391.5,29.5 391.5,34.5 391.5,40.5 391.5,46.5 385.5,46.5 385.5,40.5 385.5,34.5 380.5,34.5 380.5,40.5 380.5,46.5 374.5,46.5 369.5,46.5 363.5,46.5 363.5,40.5 369.5,40.5 374.5,40.5 374.5,34.5 369.5,34.5 363.5,34.5 357.5,34.5 357.5,40.5 357.5,46.5 352.5,46.5 352.5,40.5 352.5,34.5 346.5,34.5 346.5,40.5 346.5,46.5 346.5,51.5 352.5,51.5 357.5,51.5 357.5,57.5 352.5,57.5 346.5,57.5 346.5,63.5 352.5,63.5 357.5,63.5 363.5,63.5 363.5,57.5 363.5,51.5 369.5,51.5 369.5,57.5 369.5,63.5 374.5,63.5 374.5,57.5 374.5,51.5 380.5,51.5 385.5,51.5 391.5,51.5 391.5,57.5 385.5,57.5 380.5,57.5 380.5,63.5 385.5,63.5 391.5,63.5 391.5,68.5 391.5,74.5 391.5,79.5 385.5,79.5 385.5,74.5 385.5,68.5 380.5,68.5 380.5,74.5 380.5,79.5 380.5,85.5 385.5,85.5 391.5,85.5 391.5,91.5 385.5,91.5 380.5,91.5 380.5,96.5 385.5,96.5 391.5,96.5 391.5,102.5 391.5,108.5 391.5,113.5 385.5,113.5 385.5,108.5 385.5,102.5 380.5,102.5 380.5,108.5 380.5,113.5 374.5,113.5 369.5,113.5 363.5,113.5 363.5,108.5 369.5,108.5 374.5,108.5 374.5,102.5 369.5,102.5 363.5,102.5 363.5,96.5 363.5,91.5 363.5,85.5 369.5,85.5 369.5,91.5 369.5,96.5 374.5,96.5 374.5,91.5 374.5,85.5 374.5,79.5 369.5,79.5 363.5,79.5 363.5,74.5 369.5,74.5 374.5,74.5 374.5,68.5 369.5,68.5 363.5,68.5 357.5,68.5 357.5,74.5 357.5,79.5 352.5,79.5 352.5,74.5 352.5,68.5 346.5,68.5 346.5,74.5 346.5,79.5 346.5,85.5 352.5,85.5 357.5,85.5 357.5,91.5 352.5,91.5 346.5,91.5 346.5,96.5 352.5,96.5 357.5,96.5 357.5,102.5 357.5,108.5 357.5,113.5 352.5,113.5 352.5,108.5 352.5,102.5 346.5,102.5 346.5,108.5 346.5,113.5 340.5,113.5 335.5,113.5 329.5,113.5 329.5,108.5 335.5,108.5 340.5,108.5 340.5,102.5 335.5,102.5 329.5,102.5 324.5,102.5 324.5,108.5 324.5,113.5 318.5,113.5 318.5,108.5 318.5,102.5 312.5,102.5 312.5,108.5 312.5,113.5 307.5,113.5 301.5,113.5 296.5,113.5 296.5,108.5 301.5,108.5 307.5,108.5 307.5,102.5 301.5,102.5 296.5,102.5 296.5,96.5 296.5,91.5 296.5,85.5 301.5,85.5 301.5,91.5 301.5,96.5 307.5,96.5 307.5,91.5 307.5,85.5 312.5,85.5 318.5,85.5 324.5,85.5 324.5,91.5 318.5,91.5 312.5,91.5 312.5,96.5 318.5,96.5 324.5,96.5 329.5,96.5 329.5,91.5 329.5,85.5 335.5,85.5 335.5,91.5 335.5,96.5 340.5,96.5 340.5,91.5 340.5,85.5 340.5,79.5 335.5,79.5 329.5,79.5 329.5,74.5 335.5,74.5 340.5,74.5 340.5,68.5 335.5,68.5 329.5,68.5 324.5,68.5 324.5,74.5 324.5,79.5 318.5,79.5 318.5,74.5 318.5,68.5 312.5,68.5 312.5,74.5 312.5,79.5 307.5,79.5 301.5,79.5 296.5,79.5 296.5,74.5 301.5,74.5 307.5,74.5 307.5,68.5 301.5,68.5 296.5,68.5 290.5,68.5 290.5,74.5 290.5,79.5 284.5,79.5 284.5,74.5 284.5,68.5 279.5,68.5 279.5,74.5 279.5,79.5 279.5,85.5 284.5,85.5 290.5,85.5 290.5,91.5 284.5,91.5 279.5,91.5 279.5,96.5 284.5,96.5 290.5,96.5 290.5,102.5 290.5,108.5 290.5,113.5 284.5,113.5 284.5,108.5 284.5,102.5 279.5,102.5 279.5,108.5 279.5,113.5 273.5,113.5 267.5,113.5 262.5,113.5 262.5,108.5 267.5,108.5 273.5,108.5 273.5,102.5 267.5,102.5 262.5,102.5 262.5,96.5 262.5,91.5 262.5,85.5 267.5,85.5 267.5,91.5 267.5,96.5 273.5,96.5 273.5,91.5 273.5,85.5 273.5,79.5 267.5,79.5 262.5,79.5 262.5,74.5 267.5,74.5 273.5,74.5 273.5,68.5 267.5,68.5 262.5,68.5 256.5,68.5 256.5,74.5 256.5,79.5 251.5,79.5 251.5,74.5 251.5,68.5 245.5,68.5 245.5,74.5 245.5,79.5 245.5,85.5 251.5,85.5 256.5,85.5 256.5,91.5 251.5,91.5 245.5,91.5 245.5,96.5 251.5,96.5 256.5,96.5 256.5,102.5 256.5,108.5 256.5,113.5 251.5,113.5 251.5,108.5 251.5,102.5 245.5,102.5 245.5,108.5 245.5,113.5 245.5,119.5 251.5,119.5 256.5,119.5 256.5,124.5 251.5,124.5 245.5,124.5 245.5,130.5 251.5,130.5 256.5,130.5 262.5,130.5 262.5,124.5 262.5,119.5 267.5,119.5 267.5,124.5 267.5,130.5 273.5,130.5 273.5,124.5 273.5,119.5 279.5,119.5 284.5,119.5 290.5,119.5 290.5,124.5 284.5,124.5 279.5,124.5 279.5,130.5 284.5,130.5 290.5,130.5 290.5,136.5 290.5,141.5 290.5,147.5 284.5,147.5 284.5,141.5 284.5,136.5 279.5,136.5 279.5,141.5 279.5,147.5 273.5,147.5 267.5,147.5 262.5,147.5 262.5,141.5 267.5,141.5 273.5,141.5 273.5,136.5 267.5,136.5 262.5,136.5 256.5,136.5 256.5,141.5 256.5,147.5 251.5,147.5 251.5,141.5 251.5,136.5 245.5,136.5 245.5,141.5 245.5,147.5 245.5,153.5 251.5,153.5 256.5,153.5 256.5,158.5 251.5,158.5 245.5,158.5 245.5,164.5 251.5,164.5 256.5,164.5 262.5,164.5 262.5,158.5 262.5,153.5 267.5,153.5 267.5,158.5 267.5,164.5 273.5,164.5 273.5,158.5 273.5,153.5 279.5,153.5 284.5,153.5 290.5,153.5 290.5,158.5 284.5,158.5 279.5,158.5 279.5,164.5 284.5,164.5 290.5,164.5 296.5,164.5 296.5,158.5 296.5,153.5 301.5,153.5 301.5,158.5 301.5,164.5 307.5,164.5 307.5,158.5 307.5,153.5 307.5,147.5 301.5,147.5 296.5,147.5 296.5,141.5 301.5,141.5 307.5,141.5 307.5,136.5 301.5,136.5 296.5,136.5 296.5,130.5 296.5,124.5 296.5,119.5 301.5,119.5 301.5,124.5 301.5,130.5 307.5,130.5 307.5,124.5 307.5,119.5 312.5,119.5 318.5,119.5 324.5,119.5 324.5,124.5 318.5,124.5 312.5,124.5 312.5,130.5 318.5,130.5 324.5,130.5 324.5,136.5 324.5,141.5 324.5,147.5 318.5,147.5 318.5,141.5 318.5,136.5 312.5,136.5 312.5,141.5 312.5,147.5 312.5,153.5 318.5,153.5 324.5,153.5 324.5,158.5 318.5,158.5 312.5,158.5 312.5,164.5 318.5,164.5 324.5,164.5 329.5,164.5 329.5,158.5 329.5,153.5 335.5,153.5 335.5,158.5 335.5,164.5 340.5,164.5 340.5,158.5 340.5,153.5 340.5,147.5 335.5,147.5 329.5,147.5 329.5,141.5 335.5,141.5 340.5,141.5 340.5,136.5 335.5,136.5 329.5,136.5 329.5,130.5 329.5,124.5 329.5,119.5 335.5,119.5 335.5,124.5 335.5,130.5 340.5,130.5 340.5,124.5 340.5,119.5 346.5,119.5 352.5,119.5 357.5,119.5 357.5,124.5 352.5,124.5 346.5,124.5 346.5,130.5 352.5,130.5 357.5,130.5 363.5,130.5 363.5,124.5 363.5,119.5 369.5,119.5 369.5,124.5 369.5,130.5 374.5,130.5 374.5,124.5 374.5,119.5 380.5,119.5 385.5,119.5 391.5,119.5 391.5,124.5 385.5,124.5 380.5,124.5 380.5,130.5 385.5,130.5 391.5,130.5 391.5,136.5 391.5,141.5 391.5,147.5 385.5,147.5 385.5,141.5 385.5,136.5 380.5,136.5 380.5,141.5 380.5,147.5 374.5,147.5 369.5,147.5 363.5,147.5 363.5,141.5 369.5,141.5 374.5,141.5 374.5,136.5 369.5,136.5 363.5,136.5 357.5,136.5 357.5,141.5 357.5,147.5 352.5,147.5 352.5,141.5 352.5,136.5 346.5,136.5 346.5,141.5 346.5,147.5 346.5,153.5 352.5,153.5 357.5,153.5 357.5,158.5 352.5,158.5 346.5,158.5 346.5,164.5 352.5,164.5 357.5,164.5 363.5,164.5 363.5,158.5 363.5,153.5 369.5,153.5 369.5,158.5 369.5,164.5 374.5,164.5 374.5,158.5 374.5,153.5 380.5,153.5 385.5,153.5 391.5,153.5 391.5,158.5 385.5,158.5 380.5,158.5 380.5,164.5 385.5,164.5 391.5,164.5 391.5,169.5 391.5,175.5 391.5,181.5 385.5,181.5 385.5,175.5 385.5,169.5 380.5,169.5 380.5,175.5 380.5,181.5 380.5,186.5 385.5,186.5 391.5,186.5 391.5,192.5 385.5,192.5 380.5,192.5 380.5,198.5 385.5,198.5 391.5,198.5 391.5,203.5 391.5,209.5 391.5,214.5 385.5,214.5 385.5,209.5 385.5,203.5 380.5,203.5 380.5,209.5 380.5,214.5 374.5,214.5 369.5,214.5 363.5,214.5 363.5,209.5 369.5,209.5 374.5,209.5 374.5,203.5 369.5,203.5 363.5,203.5 363.5,198.5 363.5,192.5 363.5,186.5 369.5,186.5 369.5,192.5 369.5,198.5 374.5,198.5 374.5,192.5 374.5,186.5 374.5,181.5 369.5,181.5 363.5,181.5 363.5,175.5 369.5,175.5 374.5,175.5 374.5,169.5 369.5,169.5 363.5,169.5 357.5,169.5 357.5,175.5 357.5,181.5 352.5,181.5 352.5,175.5 352.5,169.5 346.5,169.5 346.5,175.5 346.5,181.5 346.5,186.5 352.5,186.5 357.5,186.5 357.5,192.5 352.5,192.5 346.5,192.5 346.5,198.5 352.5,198.5 357.5,198.5 357.5,203.5 357.5,209.5 357.5,214.5 352.5,214.5 352.5,209.5 352.5,203.5 346.5,203.5 346.5,209.5 346.5,214.5 346.5,220.5 352.5,220.5 357.5,220.5 357.5,226.5 352.5,226.5 346.5,226.5 346.5,231.5 352.5,231.5 357.5,231.5 363.5,231.5 363.5,226.5 363.5,220.5 369.5,220.5 369.5,226.5 369.5,231.5 374.5,231.5 374.5,226.5 374.5,220.5 380.5,220.5 385.5,220.5 391.5,220.5 391.5,226.5 385.5,226.5 380.5,226.5 380.5,231.5 385.5,231.5 391.5,231.5 391.5,237.5 391.5,242.5 391.5,248.5 385.5,248.5 385.5,242.5 385.5,237.5 380.5,237.5 380.5,242.5 380.5,248.5 374.5,248.5 369.5,248.5 363.5,248.5 363.5,242.5 369.5,242.5 374.5,242.5 374.5,237.5 369.5,237.5 363.5,237.5 357.5,237.5 357.5,242.5 357.5,248.5 352.5,248.5 352.5,242.5 352.5,237.5 346.5,237.5 346.5,242.5 346.5,248.5 346.5,254.5 352.5,254.5 357.5,254.5 357.5,259.5 352.5,259.5 346.5,259.5 346.5,265.5 352.5,265.5 357.5,265.5 363.5,265.5 363.5,259.5 363.5,254.5 369.5,254.5 369.5,259.5 369.5,265.5 374.5,265.5 374.5,259.5 374.5,254.5 380.5,254.5 385.5,254.5 391.5,254.5 391.5,259.5 385.5,259.5 380.5,259.5 380.5,265.5 385.5,265.5 391.5,265.5 391.5,271.5 391.5,276.5 391.5,282.5 385.5,282.5 385.5,276.5 385.5,271.5 380.5,271.5 380.5,276.5 380.5,282.5 380.5,287.5 385.5,287.5 391.5,287.5 391.5,293.5 385.5,293.5 380.5,293.5 380.5,299.5 385.5,299.5 391.5,299.5 391.5,304.5 391.5,310.5 391.5,316.5 385.5,316.5 385.5,310.5 385.5,304.5 380.5,304.5 380.5,310.5 380.5,316.5 374.5,316.5 369.5,316.5 363.5,316.5 363.5,310.5 369.5,310.5 374.5,310.5 374.5,304.5 369.5,304.5 363.5,304.5 363.5,299.5 363.5,293.5 363.5,287.5 369.5,287.5 369.5,293.5 369.5,299.5 374.5,299.5 374.5,293.5 374.5,287.5 374.5,282.5 369.5,282.5 363.5,282.5 363.5,276.5 369.5,276.5 374.5,276.5 374.5,271.5 369.5,271.5 363.5,271.5 357.5,271.5 357.5,276.5 357.5,282.5 352.5,282.5 352.5,276.5 352.5,271.5 346.5,271.5 346.5,276.5 346.5,282.5 346.5,287.5 352.5,287.5 357.5,287.5 357.5,293.5 352.5,293.5 346.5,293.5 346.5,299.5 352.5,299.5 357.5,299.5 357.5,304.5 357.5,310.5 357.5,316.5 352.5,316.5 352.5,310.5 352.5,304.5 346.5,304.5 346.5,310.5 346.5,316.5 340.5,316.5 335.5,316.5 329.5,316.5 329.5,310.5 335.5,310.5 340.5,310.5 340.5,304.5 335.5,304.5 329.5,304.5 324.5,304.5 324.5,310.5 324.5,316.5 318.5,316.5 318.5,310.5 318.5,304.5 312.5,304.5 312.5,310.5 312.5,316.5 307.5,316.5 301.5,316.5 296.5,316.5 296.5,310.5 301.5,310.5 307.5,310.5 307.5,304.5 301.5,304.5 296.5,304.5 296.5,299.5 296.5,293.5 296.5,287.5 301.5,287.5 301.5,293.5 301.5,299.5 307.5,299.5 307.5,293.5 307.5,287.5 312.5,287.5 318.5,287.5 324.5,287.5 324.5,293.5 318.5,293.5 312.5,293.5 312.5,299.5 318.5,299.5 324.5,299.5 329.5,299.5 329.5,293.5 329.5,287.5 335.5,287.5 335.5,293.5 335.5,299.5 340.5,299.5 340.5,293.5 340.5,287.5 340.5,282.5 335.5,282.5 329.5,282.5 329.5,276.5 335.5,276.5 340.5,276.5 340.5,271.5 335.5,271.5 329.5,271.5 324.5,271.5 324.5,276.5 324.5,282.5 318.5,282.5 318.5,276.5 318.5,271.5 312.5,271.5 312.5,276.5 312.5,282.5 307.5,282.5 301.5,282.5 296.5,282.5 296.5,276.5 301.5,276.5 307.5,276.5 307.5,271.5 301.5,271.5 296.5,271.5 296.5,265.5 296.5,259.5 296.5,254.5 301.5,254.5 301.5,259.5 301.5,265.5 307.5,265.5 307.5,259.5 307.5,254.5 307.5,248.5 301.5,248.5 296.5,248.5 296.5,242.5 301.5,242.5 307.5,242.5 307.5,237.5 301.5,237.5 296.5,237.5 296.5,231.5 296.5,226.5 296.5,220.5 301.5,220.5 301.5,226.5 301.5,231.5 307.5,231.5 307.5,226.5 307.5,220.5 312.5,220.5 318.5,220.5 324.5,220.5 324.5,226.5 318.5,226.5 312.5,226.5 312.5,231.5 318.5,231.5 324.5,231.5 324.5,237.5 324.5,242.5 324.5,248.5 318.5,248.5 318.5,242.5 318.5,237.5 312.5,237.5 312.5,242.5 312.5,248.5 312.5,254.5 318.5,254.5 324.5,254.5 324.5,259.5 318.5,259.5 312.5,259.5 312.5,265.5 318.5,265.5 324.5,265.5 329.5,265.5 329.5,259.5 329.5,254.5 335.5,254.5 335.5,259.5 335.5,265.5 340.5,265.5 340.5,259.5 340.5,254.5 340.5,248.5 335.5,248.5 329.5,248.5 329.5,242.5 335.5,242.5 340.5,242.5 340.5,237.5 335.5,237.5 329.5,237.5 329.5,231.5 329.5,226.5 329.5,220.5 335.5,220.5 335.5,226.5 335.5,231.5 340.5,231.5 340.5,226.5 340.5,220.5 340.5,214.5 335.5,214.5 329.5,214.5 329.5,209.5 335.5,209.5 340.5,209.5 340.5,203.5 335.5,203.5 329.5,203.5 324.5,203.5 324.5,209.5 324.5,214.5 318.5,214.5 318.5,209.5 318.5,203.5 312.5,203.5 312.5,209.5 312.5,214.5 307.5,214.5 301.5,214.5 296.5,214.5 296.5,209.5 301.5,209.5 307.5,209.5 307.5,203.5 301.5,203.5 296.5,203.5 296.5,198.5 296.5,192.5 296.5,186.5 301.5,186.5 301.5,192.5 301.5,198.5 307.5,198.5 307.5,192.5 307.5,186.5 312.5,186.5 318.5,186.5 324.5,186.5 324.5,192.5 318.5,192.5 312.5,192.5 312.5,198.5 318.5,198.5 324.5,198.5 329.5,198.5 329.5,192.5 329.5,186.5 335.5,186.5 335.5,192.5 335.5,198.5 340.5,198.5 340.5,192.5 340.5,186.5 340.5,181.5 335.5,181.5 329.5,181.5 329.5,175.5 335.5,175.5 340.5,175.5 340.5,169.5 335.5,169.5 329.5,169.5 324.5,169.5 324.5,175.5 324.5,181.5 318.5,181.5 318.5,175.5 318.5,169.5 312.5,169.5 312.5,175.5 312.5,181.5 307.5,181.5 301.5,181.5 296.5,181.5 296.5,175.5 301.5,175.5 307.5,175.5 307.5,169.5 301.5,169.5 296.5,169.5 290.5,169.5 290.5,175.5 290.5,181.5 284.5,181.5 284.5,175.5 284.5,169.5 279.5,169.5 279.5,175.5 279.5,181.5 279.5,186.5 284.5,186.5 290.5,186.5 290.5,192.5 284.5,192.5 279.5,192.5 279.5,198.5 284.5,198.5 290.5,198.5 290.5,203.5 290.5,209.5 290.5,214.5 284.5,214.5 284.5,209.5 284.5,203.5 279.5,203.5 279.5,209.5 279.5,214.5 273.5,214.5 267.5,214.5 262.5,214.5 262.5,209.5 267.5,209.5 273.5,209.5 273.5,203.5 267.5,203.5 262.5,203.5 262.5,198.5 262.5,192.5 262.5,186.5 267.5,186.5 267.5,192.5 267.5,198.5 273.5,198.5 273.5,192.5 273.5,186.5 273.5,181.5 267.5,181.5 262.5,181.5 262.5,175.5 267.5,175.5 273.5,175.5 273.5,169.5 267.5,169.5 262.5,169.5 256.5,169.5 256.5,175.5 256.5,181.5 251.5,181.5 251.5,175.5 251.5,169.5 245.5,169.5 245.5,175.5 245.5,181.5 245.5,186.5 251.5,186.5 256.5,186.5 256.5,192.5 251.5,192.5 245.5,192.5 245.5,198.5 251.5,198.5 256.5,198.5 256.5,203.5 256.5,209.5 256.5,214.5 251.5,214.5 251.5,209.5 251.5,203.5 245.5,203.5 245.5,209.5 245.5,214.5 245.5,220.5 251.5,220.5 256.5,220.5 256.5,226.5 251.5,226.5 245.5,226.5 245.5,231.5 251.5,231.5 256.5,231.5 262.5,231.5 262.5,226.5 262.5,220.5 267.5,220.5 267.5,226.5 267.5,231.5 273.5,231.5 273.5,226.5 273.5,220.5 279.5,220.5 284.5,220.5 290.5,220.5 290.5,226.5 284.5,226.5 279.5,226.5 279.5,231.5 284.5,231.5 290.5,231.5 290.5,237.5 290.5,242.5 290.5,248.5 284.5,248.5 284.5,242.5 284.5,237.5 279.5,237.5 279.5,242.5 279.5,248.5 273.5,248.5 267.5,248.5 262.5,248.5 262.5,242.5 267.5,242.5 273.5,242.5 273.5,237.5 267.5,237.5 262.5,237.5 256.5,237.5 256.5,242.5 256.5,248.5 251.5,248.5 251.5,242.5 251.5,237.5 245.5,237.5 245.5,242.5 245.5,248.5 245.5,254.5 251.5,254.5 256.5,254.5 256.5,259.5 251.5,259.5 245.5,259.5 245.5,265.5 251.5,265.5 256.5,265.5 262.5,265.5 262.5,259.5 262.5,254.5 267.5,254.5 267.5,259.5 267.5,265.5 273.5,265.5 273.5,259.5 273.5,254.5 279.5,254.5 284.5,254.5 290.5,254.5 290.5,259.5 284.5,259.5 279.5,259.5 279.5,265.5 284.5,265.5 290.5,265.5 290.5,271.5 290.5,276.5 290.5,282.5 284.5,282.5 284.5,276.5 284.5,271.5 279.5,271.5 279.5,276.5 279.5,282.5 279.5,287.5 284.5,287.5 290.5,287.5 290.5,293.5 284.5,293.5 279.5,293.5 279.5,299.5 284.5,299.5 290.5,299.5 290.5,304.5 290.5,310.5 290.5,316.5 284.5,316.5 284.5,310.5 284.5,304.5 279.5,304.5 279.5,310.5 279.5,316.5 273.5,316.5 267.5,316.5 262.5,316.5 262.5,310.5 267.5,310.5 273.5,310.5 273.5,304.5 267.5,304.5 262.5,304.5 262.5,299.5 262.5,293.5 262.5,287.5 267.5,287.5 267.5,293.5 267.5,299.5 273.5,299.5 273.5,293.5 273.5,287.5 273.5,282.5 267.5,282.5 262.5,282.5 262.5,276.5 267.5,276.5 273.5,276.5 273.5,271.5 267.5,271.5 262.5,271.5 256.5,271.5 256.5,276.5 256.5,282.5 251.5,282.5 251.5,276.5 251.5,271.5 245.5,271.5 245.5,276.5 245.5,282.5 245.5,287.5 251.5,287.5 256.5,287.5 256.5,293.5 251.5,293.5 245.5,293.5 245.5,299.5 251.5,299.5 256.5,299.5 256.5,304.5 256.5,310.5 256.5,316.5 251.5,316.5 251.5,310.5 251.5,304.5 245.5,304.5 245.5,310.5 245.5,316.5 245.5,321.5 251.5,321.5 256.5,321.5 256.5,327.5 251.5,327.5 245.5,327.5 245.5,332.5 251.5,332.5 256.5,332.5 262.5,332.5 262.5,327.5 262.5,321.5 267.5,321.5 267.5,327.5 267.5,332.5 273.5,332.5 273.5,327.5 273.5,321.5 279.5,321.5 284.5,321.5 290.5,321.5 290.5,327.5 284.5,327.5 279.5,327.5 279.5,332.5 284.5,332.5 290.5,332.5 290.5,338.5 290.5,344.5 290.5,349.5 284.5,349.5 284.5,344.5 284.5,338.5 279.5,338.5 279.5,344.5 279.5,349.5 273.5,349.5 267.5,349.5 262.5,349.5 262.5,344.5 267.5,344.5 273.5,344.5 273.5,338.5 267.5,338.5 262.5,338.5 256.5,338.5 256.5,344.5 256.5,349.5 251.5,349.5 251.5,344.5 251.5,338.5 245.5,338.5 245.5,344.5 245.5,349.5 245.5,355.5 251.5,355.5 256.5,355.5 256.5,361.5 251.5,361.5 245.5,361.5 245.5,366.5 251.5,366.5 256.5,366.5 262.5,366.5 262.5,361.5 262.5,355.5 267.5,355.5 267.5,361.5 267.5,366.5 273.5,366.5 273.5,361.5 273.5,355.5 279.5,355.5 284.5,355.5 290.5,355.5 290.5,361.5 284.5,361.5 279.5,361.5 279.5,366.5 284.5,366.5 290.5,366.5 296.5,366.5 296.5,361.5 296.5,355.5 301.5,355.5 301.5,361.5 301.5,366.5 307.5,366.5 307.5,361.5 307.5,355.5 307.5,349.5 301.5,349.5 296.5,349.5 296.5,344.5 301.5,344.5 307.5,344.5 307.5,338.5 301.5,338.5 296.5,338.5 296.5,332.5 296.5,327.5 296.5,321.5 301.5,321.5 301.5,327.5 301.5,332.5 307.5,332.5 307.5,327.5 307.5,321.5 312.5,321.5 318.5,321.5 324.5,321.5 324.5,327.5 318.5,327.5 312.5,327.5 312.5,332.5 318.5,332.5 324.5,332.5 324.5,338.5 324.5,344.5 324.5,349.5 318.5,349.5 318.5,344.5 318.5,338.5 312.5,338.5 312.5,344.5 312.5,349.5 312.5,355.5 318.5,355.5 324.5,355.5 324.5,361.5 318.5,361.5 312.5,361.5 312.5,366.5 318.5,366.5 324.5,366.5 329.5,366.5 329.5,361.5 329.5,355.5 335.5,355.5 335.5,361.5 335.5,366.5 340.5,366.5 340.5,361.5 340.5,355.5 340.5,349.5 335.5,349.5 329.5,349.5 329.5,344.5 335.5,344.5 340.5,344.5 340.5,338.5 335.5,338.5 329.5,338.5 329.5,332.5 329.5,327.5 329.5,321.5 335.5,321.5 335.5,327.5 335.5,332.5 340.5,332.5 340.5,327.5 340.5,321.5 346.5,321.5 352.5,321.5 357.5,321.5 357.5,327.5 352.5,327.5 346.5,327.5 346.5,332.5 352.5,332.5 357.5,332.5 363.5,332.5 363.5,327.5 363.5,321.5 369.5,321.5 369.5,327.5 369.5,332.5 374.5,332.5 374.5,327.5 374.5,321.5 380.5,321.5 385.5,321.5 391.5,321.5 391.5,327.5 385.5,327.5 380.5,327.5 380.5,332.5 385.5,332.5 391.5,332.5 391.5,338.5 391.5,344.5 391.5,349.5 385.5,349.5 385.5,344.5 385.5,338.5 380.5,338.5 380.5,344.5 380.5,349.5 374.5,349.5 369.5,349.5 363.5,349.5 363.5,344.5 369.5,344.5 374.5,344.5 374.5,338.5 369.5,338.5 363.5,338.5 357.5,338.5 357.5,344.5 357.5,349.5 352.5,349.5 352.5,344.5 352.5,338.5 346.5,338.5 346.5,344.5 346.5,349.5 346.5,355.5 352.5,355.5 357.5,355.5 357.5,361.5 352.5,361.5 346.5,361.5 346.5,366.5 352.5,366.5 357.5,366.5 363.5,366.5 363.5,361.5 363.5,355.5 369.5,355.5 369.5,361.5 369.5,366.5 374.5,366.5 374.5,361.5 374.5,355.5 380.5,355.5 385.5,355.5 391.5,355.5 391.5,361.5 385.5,361.5 380.5,361.5 380.5,366.5 385.5,366.5 391.5,366.5 391.5,372.5 391.5,377.5 391.5,383.5 385.5,383.5 385.5,377.5 385.5,372.5 380.5,372.5 380.5,377.5 380.5,383.5 380.5,389.5 385.5,389.5 391.5,389.5 391.5,394.5 385.5,394.5 380.5,394.5 380.5,400.5 385.5,400.5 391.5,400.5 391.5,406.5 391.5,411.5 391.5,417.5 385.5,417.5 385.5,411.5 385.5,406.5 380.5,406.5 380.5,411.5 380.5,417.5 374.5,417.5 369.5,417.5 363.5,417.5 363.5,411.5 369.5,411.5 374.5,411.5 374.5,406.5 369.5,406.5 363.5,406.5 363.5,400.5 363.5,394.5 363.5,389.5 369.5,389.5 369.5,394.5 369.5,400.5 374.5,400.5 374.5,394.5 374.5,389.5 374.5,383.5 369.5,383.5 363.5,383.5 363.5,377.5 369.5,377.5 374.5,377.5 374.5,372.5 369.5,372.5 363.5,372.5 357.5,372.5 357.5,377.5 357.5,383.5 352.5,383.5 352.5,377.5 352.5,372.5 346.5,372.5 346.5,377.5 346.5,383.5 346.5,389.5 352.5,389.5 357.5,389.5 357.5,394.5 352.5,394.5 346.5,394.5 346.5,400.5 352.5,400.5 357.5,400.5 357.5,406.5 357.5,411.5 357.5,417.5 352.5,417.5 352.5,411.5 352.5,406.5 346.5,406.5 346.5,411.5 346.5,417.5 340.5,417.5 335.5,417.5 329.5,417.5 329.5,411.5 335.5,411.5 340.5,411.5 340.5,406.5 335.5,406.5 329.5,406.5 324.5,406.5 324.5,411.5 324.5,417.5 318.5,417.5 318.5,411.5 318.5,406.5 312.5,406.5 312.5,411.5 312.5,417.5 307.5,417.5 301.5,417.5 296.5,417.5 296.5,411.5 301.5,411.5 307.5,411.5 307.5,406.5 301.5,406.5 296.5,406.5 296.5,400.5 296.5,394.5 296.5,389.5 301.5,389.5 301.5,394.5 301.5,400.5 307.5,400.5 307.5,394.5 307.5,389.5 312.5,389.5 318.5,389.5 324.5,389.5 324.5,394.5 318.5,394.5 312.5,394.5 312.5,400.5 318.5,400.5 324.5,400.5 329.5,400.5 329.5,394.5 329.5,389.5 335.5,389.5 335.5,394.5 335.5,400.5 340.5,400.5 340.5,394.5 340.5,389.5 340.5,383.5 335.5,383.5 329.5,383.5 329.5,377.5 335.5,377.5 340.5,377.5 340.5,372.5 335.5,372.5 329.5,372.5 324.5,372.5 324.5,377.5 324.5,383.5 318.5,383.5 318.5,377.5 318.5,372.5 312.5,372.5 312.5,377.5 312.5,383.5 307.5,383.5 301.5,383.5 296.5,383.5 296.5,377.5 301.5,377.5 307.5,377.5 307.5,372.5 301.5,372.5 296.5,372.5 290.5,372.5 290.5,377.5 290.5,383.5 284.5,383.5 284.5,377.5 284.5,372.5 279.5,372.5 279.5,377.5 279.5,383.5 279.5,389.5 284.5,389.5 290.5,389.5 290.5,394.5 284.5,394.5 279.5,394.5 279.5,400.5 284.5,400.5 290.5,400.5 290.5,406.5 290.5,411.5 290.5,417.5 284.5,417.5 284.5,411.5 284.5,406.5 279.5,406.5 279.5,411.5 279.5,417.5 273.5,417.5 267.5,417.5 262.5,417.5 262.5,411.5 267.5,411.5 273.5,411.5 273.5,406.5 267.5,406.5 262.5,406.5 262.5,400.5 262.5,394.5 262.5,389.5 267.5,389.5 267.5,394.5 267.5,400.5 273.5,400.5 273.5,394.5 273.5,389.5 273.5,383.5 267.5,383.5 262.5,383.5 262.5,377.5 267.5,377.5 273.5,377.5 273.5,372.5 267.5,372.5 262.5,372.5 256.5,372.5 256.5,377.5 256.5,383.5 251.5,383.5 251.5,377.5 251.5,372.5 245.5,372.5 245.5,377.5 245.5,383.5 245.5,389.5 251.5,389.5 256.5,389.5 256.5,394.5 251.5,394.5 245.5,394.5 245.5,400.5 251.5,400.5 256.5,400.5 256.5,406.5 256.5,411.5 256.5,417.5 251.5,417.5 251.5,411.5 251.5,406.5 245.5,406.5 245.5,411.5 245.5,417.5 245.5,422.5 251.5,422.5 256.5,422.5 256.5,428.5 251.5,428.5 245.5,428.5 245.5,434.5 251.5,434.5 256.5,434.5 262.5,434.5 262.5,428.5 262.5,422.5 267.5,422.5 267.5,428.5 267.5,434.5 273.5,434.5 273.5,428.5 273.5,422.5 279.5,422.5 284.5,422.5 290.5,422.5 290.5,428.5 284.5,428.5 279.5,428.5 279.5,434.5 284.5,434.5 290.5,434.5 290.5,439.5 290.5,445.5 290.5,451.5 284.5,451.5 284.5,445.5 284.5,439.5 279.5,439.5 279.5,445.5 279.5,451.5 273.5,451.5 267.5,451.5 262.5,451.5 262.5,445.5 267.5,445.5 273.5,445.5 273.5,439.5 267.5,439.5 262.5,439.5 256.5,439.5 256.5,445.5 256.5,451.5 251.5,451.5 251.5,445.5 251.5,439.5 245.5,439.5 245.5,445.5 245.5,451.5 245.5,456.5 251.5,456.5 256.5,456.5 256.5,462.5 251.5,462.5 245.5,462.5 245.5,467.5 251.5,467.5 256.5,467.5 262.5,467.5 262.5,462.5 262.5,456.5 267.5,456.5 267.5,462.5 267.5,467.5 273.5,467.5 273.5,462.5 273.5,456.5 279.5,456.5 284.5,456.5 290.5,456.5 290.5,462.5 284.5,462.5 279.5,462.5 279.5,467.5 284.5,467.5 290.5,467.5 296.5,467.5 296.5,462.5 296.5,456.5 301.5,456.5 301.5,462.5 301.5,467.5 307.5,467.5 307.5,462.5 307.5,456.5 307.5,451.5 301.5,451.5 296.5,451.5 296.5,445.5 301.5,445.5 307.5,445.5 307.5,439.5 301.5,439.5 296.5,439.5 296.5,434.5 296.5,428.5 296.5,422.5 301.5,422.5 301.5,428.5 301.5,434.5 307.5,434.5 307.5,428.5 307.5,422.5 312.5,422.5 318.5,422.5 324.5,422.5 324.5,428.5 318.5,428.5 312.5,428.5 312.5,434.5 318.5,434.5 324.5,434.5 324.5,439.5 324.5,445.5 324.5,451.5 318.5,451.5 318.5,445.5 318.5,439.5 312.5,439.5 312.5,445.5 312.5,451.5 312.5,456.5 318.5,456.5 324.5,456.5 324.5,462.5 318.5,462.5 312.5,462.5 312.5,467.5 318.5,467.5 324.5,467.5 329.5,467.5 329.5,462.5 329.5,456.5 335.5,456.5 335.5,462.5 335.5,467.5 340.5,467.5 340.5,462.5 340.5,456.5 340.5,451.5 335.5,451.5 329.5,451.5 329.5,445.5 335.5,445.5 340.5,445.5 340.5,439.5 335.5,439.5 329.5,439.5 329.5,434.5 329.5,428.5 329.5,422.5 335.5,422.5 335.5,428.5 335.5,434.5 340.5,434.5 340.5,428.5 340.5,422.5 346.5,422.5 352.5,422.5 357.5,422.5 357.5,428.5 352.5,428.5 346.5,428.5 346.5,434.5 352.5,434.5 357.5,434.5 363.5,434.5 363.5,428.5 363.5,422.5 369.5,422.5 369.5,428.5 369.5,434.5 374.5,434.5 374.5,428.5 374.5,422.5 380.5,422.5 385.5,422.5 391.5,422.5 391.5,428.5 385.5,428.5 380.5,428.5 380.5,434.5 385.5,434.5 391.5,434.5 391.5,439.5 391.5,445.5 391.5,451.5 385.5,451.5 385.5,445.5 385.5,439.5 380.5,439.5 380.5,445.5 380.5,451.5 374.5,451.5 369.5,451.5 363.5,451.5 363.5,445.5 369.5,445.5 374.5,445.5 374.5,439.5 369.5,439.5 363.5,439.5 357.5,439.5 357.5,445.5 357.5,451.5 352.5,451.5 352.5,445.5 352.5,439.5 346.5,439.5 346.5,445.5 346.5,451.5 346.5,456.5 352.5,456.5 357.5,456.5 357.5,462.5 352.5,462.5 346.5,462.5 346.5,467.5 352.5,467.5 357.5,467.5 363.5,467.5 363.5,462.5 363.5,456.5 369.5,456.5 369.5,462.5 369.5,467.5 374.5,467.5 374.5,462.5 374.5,456.5 380.5,456.5 385.5,456.5 391.5,456.5 391.5,462.5 385.5,462.5 380.5,462.5 380.5,467.5 385.5,467.5 391.5,467.5 397.5,467.5 397.5,462.5 397.5,456.5 402.5,456.5 402.5,462.5 402.5,467.5 408.5,467.5 408.5,462.5 408.5,456.5 408.5,451.5 402.5,451.5 397.5,451.5 397.5,445.5 402.5,445.5 408.5,445.5 408.5,439.5 402.5,439.5 397.5,439.5 397.5,434.5 397.5,428.5 397.5,422.5 402.5,422.5 402.5,428.5 402.5,434.5 408.5,434.5 408.5,428.5 408.5,422.5 414.5,422.5 419.5,422.5 425.5,422.5 425.5,428.5 419.5,428.5 414.5,428.5 414.5,434.5 419.5,434.5 425.5,434.5 425.5,439.5 425.5,445.5 425.5,451.5 419.5,451.5 419.5,445.5 419.5,439.5 414.5,439.5 414.5,445.5 414.5,451.5 414.5,456.5 419.5,456.5 425.5,456.5 425.5,462.5 419.5,462.5 414.5,462.5 414.5,467.5 419.5,467.5 425.5,467.5 430.5,467.5 430.5,462.5 430.5,456.5 436.5,456.5 436.5,462.5 436.5,467.5 442.5,467.5 442.5,462.5 442.5,456.5 442.5,451.5 436.5,451.5 430.5,451.5 430.5,445.5 436.5,445.5 442.5,445.5 442.5,439.5 436.5,439.5 430.5,439.5 430.5,434.5 430.5,428.5 430.5,422.5 436.5,422.5 436.5,428.5 436.5,434.5 442.5,434.5 442.5,428.5 442.5,422.5 442.5,417.5 436.5,417.5 430.5,417.5 430.5,411.5 436.5,411.5 442.5,411.5 442.5,406.5 436.5,406.5 430.5,406.5 425.5,406.5 425.5,411.5 425.5,417.5 419.5,417.5 419.5,411.5 419.5,406.5 414.5,406.5 414.5,411.5 414.5,417.5 408.5,417.5 402.5,417.5 397.5,417.5 397.5,411.5 402.5,411.5 408.5,411.5 408.5,406.5 402.5,406.5 397.5,406.5 397.5,400.5 397.5,394.5 397.5,389.5 402.5,389.5 402.5,394.5 402.5,400.5 408.5,400.5 408.5,394.5 408.5,389.5 414.5,389.5 419.5,389.5 425.5,389.5 425.5,394.5 419.5,394.5 414.5,394.5 414.5,400.5 419.5,400.5 425.5,400.5 430.5,400.5 430.5,394.5 430.5,389.5 436.5,389.5 436.5,394.5 436.5,400.5 442.5,400.5 442.5,394.5 442.5,389.5 442.5,383.5 436.5,383.5 430.5,383.5 430.5,377.5 436.5,377.5 442.5,377.5 442.5,372.5 436.5,372.5 430.5,372.5 425.5,372.5 425.5,377.5 425.5,383.5 419.5,383.5 419.5,377.5 419.5,372.5 414.5,372.5 414.5,377.5 414.5,383.5 408.5,383.5 402.5,383.5 397.5,383.5 397.5,377.5 402.5,377.5 408.5,377.5 408.5,372.5 402.5,372.5 397.5,372.5 397.5,366.5 397.5,361.5 397.5,355.5 402.5,355.5 402.5,361.5 402.5,366.5 408.5,366.5 408.5,361.5 408.5,355.5 408.5,349.5 402.5,349.5 397.5,349.5 397.5,344.5 402.5,344.5 408.5,344.5 408.5,338.5 402.5,338.5 397.5,338.5 397.5,332.5 397.5,327.5 397.5,321.5 402.5,321.5 402.5,327.5 402.5,332.5 408.5,332.5 408.5,327.5 408.5,321.5 414.5,321.5 419.5,321.5 425.5,321.5 425.5,327.5 419.5,327.5 414.5,327.5 414.5,332.5 419.5,332.5 425.5,332.5 425.5,338.5 425.5,344.5 425.5,349.5 419.5,349.5 419.5,344.5 419.5,338.5 414.5,338.5 414.5,344.5 414.5,349.5 414.5,355.5 419.5,355.5 425.5,355.5 425.5,361.5 419.5,361.5 414.5,361.5 414.5,366.5 419.5,366.5 425.5,366.5 430.5,366.5 430.5,361.5 430.5,355.5 436.5,355.5 436.5,361.5 436.5,366.5 442.5,366.5 442.5,361.5 442.5,355.5 442.5,349.5 436.5,349.5 430.5,349.5 430.5,344.5 436.5,344.5 442.5,344.5 442.5,338.5 436.5,338.5 430.5,338.5 430.5,332.5 430.5,327.5 430.5,321.5 436.5,321.5 436.5,327.5 436.5,332.5 442.5,332.5 442.5,327.5 442.5,321.5 447.5,321.5 453.5,321.5 459.5,321.5 459.5,327.5 453.5,327.5 447.5,327.5 447.5,332.5 453.5,332.5 459.5,332.5 464.5,332.5 464.5,327.5 464.5,321.5 470.5,321.5 470.5,327.5 470.5,332.5 475.5,332.5 475.5,327.5 475.5,321.5 481.5,321.5 487.5,321.5 492.5,321.5 492.5,327.5 487.5,327.5 481.5,327.5 481.5,332.5 487.5,332.5 492.5,332.5 492.5,338.5 492.5,344.5 492.5,349.5 487.5,349.5 487.5,344.5 487.5,338.5 481.5,338.5 481.5,344.5 481.5,349.5 475.5,349.5 470.5,349.5 464.5,349.5 464.5,344.5 470.5,344.5 475.5,344.5 475.5,338.5 470.5,338.5 464.5,338.5 459.5,338.5 459.5,344.5 459.5,349.5 453.5,349.5 453.5,344.5 453.5,338.5 447.5,338.5 447.5,344.5 447.5,349.5 447.5,355.5 453.5,355.5 459.5,355.5 459.5,361.5 453.5,361.5 447.5,361.5 447.5,366.5 453.5,366.5 459.5,366.5 464.5,366.5 464.5,361.5 464.5,355.5 470.5,355.5 470.5,361.5 470.5,366.5 475.5,366.5 475.5,361.5 475.5,355.5 481.5,355.5 487.5,355.5 492.5,355.5 492.5,361.5 487.5,361.5 481.5,361.5 481.5,366.5 487.5,366.5 492.5,366.5 492.5,372.5 492.5,377.5 492.5,383.5 487.5,383.5 487.5,377.5 487.5,372.5 481.5,372.5 481.5,377.5 481.5,383.5 481.5,389.5 487.5,389.5 492.5,389.5 492.5,394.5 487.5,394.5 481.5,394.5 481.5,400.5 487.5,400.5 492.5,400.5 492.5,406.5 492.5,411.5 492.5,417.5 487.5,417.5 487.5,411.5 487.5,406.5 481.5,406.5 481.5,411.5 481.5,417.5 475.5,417.5 470.5,417.5 464.5,417.5 464.5,411.5 470.5,411.5 475.5,411.5 475.5,406.5 470.5,406.5 464.5,406.5 464.5,400.5 464.5,394.5 464.5,389.5 470.5,389.5 470.5,394.5 470.5,400.5 475.5,400.5 475.5,394.5 475.5,389.5 475.5,383.5 470.5,383.5 464.5,383.5 464.5,377.5 470.5,377.5 475.5,377.5 475.5,372.5 470.5,372.5 464.5,372.5 459.5,372.5 459.5,377.5 459.5,383.5 453.5,383.5 453.5,377.5 453.5,372.5 447.5,372.5 447.5,377.5 447.5,383.5 447.5,389.5 453.5,389.5 459.5,389.5 459.5,394.5 453.5,394.5 447.5,394.5 447.5,400.5 453.5,400.5 459.5,400.5 459.5,406.5 459.5,411.5 459.5,417.5 453.5,417.5 453.5,411.5 453.5,406.5 447.5,406.5 447.5,411.5 447.5,417.5 447.5,422.5 453.5,422.5 459.5,422.5 459.5,428.5 453.5,428.5 447.5,428.5 447.5,434.5 453.5,434.5 459.5,434.5 464.5,434.5 464.5,428.5 464.5,422.5 470.5,422.5 470.5,428.5 470.5,434.5 475.5,434.5 475.5,428.5 475.5,422.5 481.5,422.5 487.5,422.5 492.5,422.5 492.5,428.5 487.5,428.5 481.5,428.5 481.5,434.5 487.5,434.5 492.5,434.5 492.5,439.5 492.5,445.5 492.5,451.5 487.5,451.5 487.5,445.5 487.5,439.5 481.5,439.5 481.5,445.5 481.5,451.5 475.5,451.5 470.5,451.5 464.5,451.5 464.5,445.5 470.5,445.5 475.5,445.5 475.5,439.5 470.5,439.5 464.5,439.5 459.5,439.5 459.5,445.5 459.5,451.5 453.5,451.5 453.5,445.5 453.5,439.5 447.5,439.5 447.5,445.5 447.5,451.5 447.5,456.5 453.5,456.5 459.5,456.5 459.5,462.5 453.5,462.5 447.5,462.5 447.5,467.5 453.5,467.5 459.5,467.5 464.5,467.5 464.5,462.5 464.5,456.5 470.5,456.5 470.5,462.5 470.5,467.5 475.5,467.5 475.5,462.5 475.5,456.5 481.5,456.5 487.5,456.5 492.5,456.5 492.5,462.5 487.5,462.5 481.5,462.5 481.5,467.5 487.5,467.5 492.5,467.5 498.5,467.5 498.5,462.5 498.5,456.5 504.5,456.5 504.5,462.5 504.5,467.5 509.5,467.5 509.5,462.5 509.5,456.5 509.5,451.5 504.5,451.5 498.5,451.5 498.5,445.5 504.5,445.5 509.5,445.5 509.5,439.5 504.5,439.5 498.5,439.5 498.5,434.5 498.5,428.5 498.5,422.5 504.5,422.5 504.5,428.5 504.5,434.5 509.5,434.5 509.5,428.5 509.5,422.5 515.5,422.5 520.5,422.5 526.5,422.5 526.5,428.5 520.5,428.5 515.5,428.5 515.5,434.5 520.5,434.5 526.5,434.5 526.5,439.5 526.5,445.5 526.5,451.5 520.5,451.5 520.5,445.5 520.5,439.5 515.5,439.5 515.5,445.5 515.5,451.5 515.5,456.5 520.5,456.5 526.5,456.5 526.5,462.5 520.5,462.5 515.5,462.5 515.5,467.5 520.5,467.5 526.5,467.5 532.5,467.5 532.5,462.5 532.5,456.5 537.5,456.5 537.5,462.5 537.5,467.5 543.5,467.5 543.5,462.5 543.5,456.5 543.5,451.5 537.5,451.5 532.5,451.5 532.5,445.5 537.5,445.5 543.5,445.5 543.5,439.5 537.5,439.5 532.5,439.5 532.5,434.5 532.5,428.5 532.5,422.5 537.5,422.5 537.5,428.5 537.5,434.5 543.5,434.5 543.5,428.5 543.5,422.5 543.5,417.5 537.5,417.5 532.5,417.5 532.5,411.5 537.5,411.5 543.5,411.5 543.5,406.5 537.5,406.5 532.5,406.5 526.5,406.5 526.5,411.5 526.5,417.5 520.5,417.5 520.5,411.5 520.5,406.5 515.5,406.5 515.5,411.5 515.5,417.5 509.5,417.5 504.5,417.5 498.5,417.5 498.5,411.5 504.5,411.5 509.5,411.5 509.5,406.5 504.5,406.5 498.5,406.5 498.5,400.5 498.5,394.5 498.5,389.5 504.5,389.5 504.5,394.5 504.5,400.5 509.5,400.5 509.5,394.5 509.5,389.5 515.5,389.5 520.5,389.5 526.5,389.5 526.5,394.5 520.5,394.5 515.5,394.5 515.5,400.5 520.5,400.5 526.5,400.5 532.5,400.5 532.5,394.5 532.5,389.5 537.5,389.5 537.5,394.5 537.5,400.5 543.5,400.5 543.5,394.5 543.5,389.5 543.5,383.5 537.5,383.5 532.5,383.5 532.5,377.5 537.5,377.5 543.5,377.5 543.5,372.5 537.5,372.5 532.5,372.5 526.5,372.5 526.5,377.5 526.5,383.5 520.5,383.5 520.5,377.5 520.5,372.5 515.5,372.5 515.5,377.5 515.5,383.5 509.5,383.5 504.5,383.5 498.5,383.5 498.5,377.5 504.5,377.5 509.5,377.5 509.5,372.5 504.5,372.5 498.5,372.5 498.5,366.5 498.5,361.5 498.5,355.5 504.5,355.5 504.5,361.5 504.5,366.5 509.5,366.5 509.5,361.5 509.5,355.5 509.5,349.5 504.5,349.5 498.5,349.5 498.5,344.5 504.5,344.5 509.5,344.5 509.5,338.5 504.5,338.5 498.5,338.5 498.5,332.5 498.5,327.5 498.5,321.5 504.5,321.5 504.5,327.5 504.5,332.5 509.5,332.5 509.5,327.5 509.5,321.5 515.5,321.5 520.5,321.5 526.5,321.5 526.5,327.5 520.5,327.5 515.5,327.5 515.5,332.5 520.5,332.5 526.5,332.5 526.5,338.5 526.5,344.5 526.5,349.5 520.5,349.5 520.5,344.5 520.5,338.5 515.5,338.5 515.5,344.5 515.5,349.5 515.5,355.5 520.5,355.5 526.5,355.5 526.5,361.5 520.5,361.5 515.5,361.5 515.5,366.5 520.5,366.5 526.5,366.5 532.5,366.5 532.5,361.5 532.5,355.5 537.5,355.5 537.5,361.5 537.5,366.5 543.5,366.5 543.5,361.5 543.5,355.5 543.5,349.5 537.5,349.5 532.5,349.5 532.5,344.5 537.5,344.5 543.5,344.5 543.5,338.5 537.5,338.5 532.5,338.5 532.5,332.5 532.5,327.5 532.5,321.5 537.5,321.5 537.5,327.5 537.5,332.5 543.5,332.5 543.5,327.5 543.5,321.5 543.5,316.5 537.5,316.5 532.5,316.5 532.5,310.5 537.5,310.5 543.5,310.5 543.5,304.5 537.5,304.5 532.5,304.5 526.5,304.5 526.5,310.5 526.5,316.5 520.5,316.5 520.5,310.5 520.5,304.5 515.5,304.5 515.5,310.5 515.5,316.5 509.5,316.5 504.5,316.5 498.5,316.5 498.5,310.5 504.5,310.5 509.5,310.5 509.5,304.5 504.5,304.5 498.5,304.5 498.5,299.5 498.5,293.5 498.5,287.5 504.5,287.5 504.5,293.5 504.5,299.5 509.5,299.5 509.5,293.5 509.5,287.5 515.5,287.5 520.5,287.5 526.5,287.5 526.5,293.5 520.5,293.5 515.5,293.5 515.5,299.5 520.5,299.5 526.5,299.5 532.5,299.5 532.5,293.5 532.5,287.5 537.5,287.5 537.5,293.5 537.5,299.5 543.5,299.5 543.5,293.5 543.5,287.5 543.5,282.5 537.5,282.5 532.5,282.5 532.5,276.5 537.5,276.5 543.5,276.5 543.5,271.5 537.5,271.5 532.5,271.5 526.5,271.5 526.5,276.5 526.5,282.5 520.5,282.5 520.5,276.5 520.5,271.5 515.5,271.5 515.5,276.5 515.5,282.5 509.5,282.5 504.5,282.5 498.5,282.5 498.5,276.5 504.5,276.5 509.5,276.5 509.5,271.5 504.5,271.5 498.5,271.5 492.5,271.5 492.5,276.5 492.5,282.5 487.5,282.5 487.5,276.5 487.5,271.5 481.5,271.5 481.5,276.5 481.5,282.5 481.5,287.5 487.5,287.5 492.5,287.5 492.5,293.5 487.5,293.5 481.5,293.5 481.5,299.5 487.5,299.5 492.5,299.5 492.5,304.5 492.5,310.5 492.5,316.5 487.5,316.5 487.5,310.5 487.5,304.5 481.5,304.5 481.5,310.5 481.5,316.5 475.5,316.5 470.5,316.5 464.5,316.5 464.5,310.5 470.5,310.5 475.5,310.5 475.5,304.5 470.5,304.5 464.5,304.5 464.5,299.5 464.5,293.5 464.5,287.5 470.5,287.5 470.5,293.5 470.5,299.5 475.5,299.5 475.5,293.5 475.5,287.5 475.5,282.5 470.5,282.5 464.5,282.5 464.5,276.5 470.5,276.5 475.5,276.5 475.5,271.5 470.5,271.5 464.5,271.5 459.5,271.5 459.5,276.5 459.5,282.5 453.5,282.5 453.5,276.5 453.5,271.5 447.5,271.5 447.5,276.5 447.5,282.5 447.5,287.5 453.5,287.5 459.5,287.5 459.5,293.5 453.5,293.5 447.5,293.5 447.5,299.5 453.5,299.5 459.5,299.5 459.5,304.5 459.5,310.5 459.5,316.5 453.5,316.5 453.5,310.5 453.5,304.5 447.5,304.5 447.5,310.5 447.5,316.5 442.5,316.5 436.5,316.5 430.5,316.5 430.5,310.5 436.5,310.5 442.5,310.5 442.5,304.5 436.5,304.5 430.5,304.5 425.5,304.5 425.5,310.5 425.5,316.5 419.5,316.5 419.5,310.5 419.5,304.5 414.5,304.5 414.5,310.5 414.5,316.5 408.5,316.5 402.5,316.5 397.5,316.5 397.5,310.5 402.5,310.5 408.5,310.5 408.5,304.5 402.5,304.5 397.5,304.5 397.5,299.5 397.5,293.5 397.5,287.5 402.5,287.5 402.5,293.5 402.5,299.5 408.5,299.5 408.5,293.5 408.5,287.5 414.5,287.5 419.5,287.5 425.5,287.5 425.5,293.5 419.5,293.5 414.5,293.5 414.5,299.5 419.5,299.5 425.5,299.5 430.5,299.5 430.5,293.5 430.5,287.5 436.5,287.5 436.5,293.5 436.5,299.5 442.5,299.5 442.5,293.5 442.5,287.5 442.5,282.5 436.5,282.5 430.5,282.5 430.5,276.5 436.5,276.5 442.5,276.5 442.5,271.5 436.5,271.5 430.5,271.5 425.5,271.5 425.5,276.5 425.5,282.5 419.5,282.5 419.5,276.5 419.5,271.5 414.5,271.5 414.5,276.5 414.5,282.5 408.5,282.5 402.5,282.5 397.5,282.5 397.5,276.5 402.5,276.5 408.5,276.5 408.5,271.5 402.5,271.5 397.5,271.5 397.5,265.5 397.5,259.5 397.5,254.5 402.5,254.5 402.5,259.5 402.5,265.5 408.5,265.5 408.5,259.5 408.5,254.5 408.5,248.5 402.5,248.5 397.5,248.5 397.5,242.5 402.5,242.5 408.5,242.5 408.5,237.5 402.5,237.5 397.5,237.5 397.5,231.5 397.5,226.5 397.5,220.5 402.5,220.5 402.5,226.5 402.5,231.5 408.5,231.5 408.5,226.5 408.5,220.5 414.5,220.5 419.5,220.5 425.5,220.5 425.5,226.5 419.5,226.5 414.5,226.5 414.5,231.5 419.5,231.5 425.5,231.5 425.5,237.5 425.5,242.5 425.5,248.5 419.5,248.5 419.5,242.5 419.5,237.5 414.5,237.5 414.5,242.5 414.5,248.5 414.5,254.5 419.5,254.5 425.5,254.5 425.5,259.5 419.5,259.5 414.5,259.5 414.5,265.5 419.5,265.5 425.5,265.5 430.5,265.5 430.5,259.5 430.5,254.5 436.5,254.5 436.5,259.5 436.5,265.5 442.5,265.5 442.5,259.5 442.5,254.5 442.5,248.5 436.5,248.5 430.5,248.5 430.5,242.5 436.5,242.5 442.5,242.5 442.5,237.5 436.5,237.5 430.5,237.5 430.5,231.5 430.5,226.5 430.5,220.5 436.5,220.5 436.5,226.5 436.5,231.5 442.5,231.5 442.5,226.5 442.5,220.5 447.5,220.5 453.5,220.5 459.5,220.5 459.5,226.5 453.5,226.5 447.5,226.5 447.5,231.5 453.5,231.5 459.5,231.5 464.5,231.5 464.5,226.5 464.5,220.5 470.5,220.5 470.5,226.5 470.5,231.5 475.5,231.5 475.5,226.5 475.5,220.5 481.5,220.5 487.5,220.5 492.5,220.5 492.5,226.5 487.5,226.5 481.5,226.5 481.5,231.5 487.5,231.5 492.5,231.5 492.5,237.5 492.5,242.5 492.5,248.5 487.5,248.5 487.5,242.5 487.5,237.5 481.5,237.5 481.5,242.5 481.5,248.5 475.5,248.5 470.5,248.5 464.5,248.5 464.5,242.5 470.5,242.5 475.5,242.5 475.5,237.5 470.5,237.5 464.5,237.5 459.5,237.5 459.5,242.5 459.5,248.5 453.5,248.5 453.5,242.5 453.5,237.5 447.5,237.5 447.5,242.5 447.5,248.5 447.5,254.5 453.5,254.5 459.5,254.5 459.5,259.5 453.5,259.5 447.5,259.5 447.5,265.5 453.5,265.5 459.5,265.5 464.5,265.5 464.5,259.5 464.5,254.5 470.5,254.5 470.5,259.5 470.5,265.5 475.5,265.5 475.5,259.5 475.5,254.5 481.5,254.5 487.5,254.5 492.5,254.5 492.5,259.5 487.5,259.5 481.5,259.5 481.5,265.5 487.5,265.5 492.5,265.5 498.5,265.5 498.5,259.5 498.5,254.5 504.5,254.5 504.5,259.5 504.5,265.5 509.5,265.5 509.5,259.5 509.5,254.5 509.5,248.5 504.5,248.5 498.5,248.5 498.5,242.5 504.5,242.5 509.5,242.5 509.5,237.5 504.5,237.5 498.5,237.5 498.5,231.5 498.5,226.5 498.5,220.5 504.5,220.5 504.5,226.5 504.5,231.5 509.5,231.5 509.5,226.5 509.5,220.5 515.5,220.5 520.5,220.5 526.5,220.5 526.5,226.5 520.5,226.5 515.5,226.5 515.5,231.5 520.5,231.5 526.5,231.5 526.5,237.5 526.5,242.5 526.5,248.5 520.5,248.5 520.5,242.5 520.5,237.5 515.5,237.5 515.5,242.5 515.5,248.5 515.5,254.5 520.5,254.5 526.5,254.5 526.5,259.5 520.5,259.5 515.5,259.5 515.5,265.5 520.5,265.5 526.5,265.5 532.5,265.5 532.5,259.5 532.5,254.5 537.5,254.5 537.5,259.5 537.5,265.5 543.5,265.5 543.5,259.5 543.5,254.5 543.5,248.5 537.5,248.5 532.5,248.5 532.5,242.5 537.5,242.5 543.5,242.5 543.5,237.5 537.5,237.5 532.5,237.5 532.5,231.5 532.5,226.5 532.5,220.5 537.5,220.5 537.5,226.5 537.5,231.5 543.5,231.5 543.5,226.5 543.5,220.5 543.5,214.5 537.5,214.5 532.5,214.5 532.5,209.5 537.5,209.5 543.5,209.5 543.5,203.5 537.5,203.5 532.5,203.5 526.5,203.5 526.5,209.5 526.5,214.5 520.5,214.5 520.5,209.5 520.5,203.5 515.5,203.5 515.5,209.5 515.5,214.5 509.5,214.5 504.5,214.5 498.5,214.5 498.5,209.5 504.5,209.5 509.5,209.5 509.5,203.5 504.5,203.5 498.5,203.5 498.5,198.5 498.5,192.5 498.5,186.5 504.5,186.5 504.5,192.5 504.5,198.5 509.5,198.5 509.5,192.5 509.5,186.5 515.5,186.5 520.5,186.5 526.5,186.5 526.5,192.5 520.5,192.5 515.5,192.5 515.5,198.5 520.5,198.5 526.5,198.5 532.5,198.5 532.5,192.5 532.5,186.5 537.5,186.5 537.5,192.5 537.5,198.5 543.5,198.5 543.5,192.5 543.5,186.5 543.5,181.5 537.5,181.5 532.5,181.5 532.5,175.5 537.5,175.5 543.5,175.5 543.5,169.5 537.5,169.5 532.5,169.5 526.5,169.5 526.5,175.5 526.5,181.5 520.5,181.5 520.5,175.5 520.5,169.5 515.5,169.5 515.5,175.5 515.5,181.5 509.5,181.5 504.5,181.5 498.5,181.5 498.5,175.5 504.5,175.5 509.5,175.5 509.5,169.5 504.5,169.5 498.5,169.5 492.5,169.5 492.5,175.5 492.5,181.5 487.5,181.5 487.5,175.5 487.5,169.5 481.5,169.5 481.5,175.5 481.5,181.5 481.5,186.5 487.5,186.5 492.5,186.5 492.5,192.5 487.5,192.5 481.5,192.5 481.5,198.5 487.5,198.5 492.5,198.5 492.5,203.5 492.5,209.5 492.5,214.5 487.5,214.5 487.5,209.5 487.5,203.5 481.5,203.5 481.5,209.5 481.5,214.5 475.5,214.5 470.5,214.5 464.5,214.5 464.5,209.5 470.5,209.5 475.5,209.5 475.5,203.5 470.5,203.5 464.5,203.5 464.5,198.5 464.5,192.5 464.5,186.5 470.5,186.5 470.5,192.5 470.5,198.5 475.5,198.5 475.5,192.5 475.5,186.5 475.5,181.5 470.5,181.5 464.5,181.5 464.5,175.5 470.5,175.5 475.5,175.5 475.5,169.5 470.5,169.5 464.5,169.5 459.5,169.5 459.5,175.5 459.5,181.5 453.5,181.5 453.5,175.5 453.5,169.5 447.5,169.5 447.5,175.5 447.5,181.5 447.5,186.5 453.5,186.5 459.5,186.5 459.5,192.5 453.5,192.5 447.5,192.5 447.5,198.5 453.5,198.5 459.5,198.5 459.5,203.5 459.5,209.5 459.5,214.5 453.5,214.5 453.5,209.5 453.5,203.5 447.5,203.5 447.5,209.5 447.5,214.5 442.5,214.5 436.5,214.5 430.5,214.5 430.5,209.5 436.5,209.5 442.5,209.5 442.5,203.5 436.5,203.5 430.5,203.5 425.5,203.5 425.5,209.5 425.5,214.5 419.5,214.5 419.5,209.5 419.5,203.5 414.5,203.5 414.5,209.5 414.5,214.5 408.5,214.5 402.5,214.5 397.5,214.5 397.5,209.5 402.5,209.5 408.5,209.5 408.5,203.5 402.5,203.5 397.5,203.5 397.5,198.5 397.5,192.5 397.5,186.5 402.5,186.5 402.5,192.5 402.5,198.5 408.5,198.5 408.5,192.5 408.5,186.5 414.5,186.5 419.5,186.5 425.5,186.5 425.5,192.5 419.5,192.5 414.5,192.5 414.5,198.5 419.5,198.5 425.5,198.5 430.5,198.5 430.5,192.5 430.5,186.5 436.5,186.5 436.5,192.5 436.5,198.5 442.5,198.5 442.5,192.5 442.5,186.5 442.5,181.5 436.5,181.5 430.5,181.5 430.5,175.5 436.5,175.5 442.5,175.5 442.5,169.5 436.5,169.5 430.5,169.5 425.5,169.5 425.5,175.5 425.5,181.5 419.5,181.5 419.5,175.5 419.5,169.5 414.5,169.5 414.5,175.5 414.5,181.5 408.5,181.5 402.5,181.5 397.5,181.5 397.5,175.5 402.5,175.5 408.5,175.5 408.5,169.5 402.5,169.5 397.5,169.5 397.5,164.5 397.5,158.5 397.5,153.5 402.5,153.5 402.5,158.5 402.5,164.5 408.5,164.5 408.5,158.5 408.5,153.5 408.5,147.5 402.5,147.5 397.5,147.5 397.5,141.5 402.5,141.5 408.5,141.5 408.5,136.5 402.5,136.5 397.5,136.5 397.5,130.5 397.5,124.5 397.5,119.5 402.5,119.5 402.5,124.5 402.5,130.5 408.5,130.5 408.5,124.5 408.5,119.5 414.5,119.5 419.5,119.5 425.5,119.5 425.5,124.5 419.5,124.5 414.5,124.5 414.5,130.5 419.5,130.5 425.5,130.5 425.5,136.5 425.5,141.5 425.5,147.5 419.5,147.5 419.5,141.5 419.5,136.5 414.5,136.5 414.5,141.5 414.5,147.5 414.5,153.5 419.5,153.5 425.5,153.5 425.5,158.5 419.5,158.5 414.5,158.5 414.5,164.5 419.5,164.5 425.5,164.5 430.5,164.5 430.5,158.5 430.5,153.5 436.5,153.5 436.5,158.5 436.5,164.5 442.5,164.5 442.5,158.5 442.5,153.5 442.5,147.5 436.5,147.5 430.5,147.5 430.5,141.5 436.5,141.5 442.5,141.5 442.5,136.5 436.5,136.5 430.5,136.5 430.5,130.5 430.5,124.5 430.5,119.5 436.5,119.5 436.5,124.5 436.5,130.5 442.5,130.5 442.5,124.5 442.5,119.5 442.5,113.5 436.5,113.5 430.5,113.5 430.5,108.5 436.5,108.5 442.5,108.5 442.5,102.5 436.5,102.5 430.5,102.5 425.5,102.5 425.5,108.5 425.5,113.5 419.5,113.5 419.5,108.5 419.5,102.5 414.5,102.5 414.5,108.5 414.5,113.5 408.5,113.5 402.5,113.5 397.5,113.5 397.5,108.5 402.5,108.5 408.5,108.5 408.5,102.5 402.5,102.5 397.5,102.5 397.5,96.5 397.5,91.5 397.5,85.5 402.5,85.5 402.5,91.5 402.5,96.5 408.5,96.5 408.5,91.5 408.5,85.5 414.5,85.5 419.5,85.5 425.5,85.5 425.5,91.5 419.5,91.5 414.5,91.5 414.5,96.5 419.5,96.5 425.5,96.5 430.5,96.5 430.5,91.5 430.5,85.5 436.5,85.5 436.5,91.5 436.5,96.5 442.5,96.5 442.5,91.5 442.5,85.5 442.5,79.5 436.5,79.5 430.5,79.5 430.5,74.5 436.5,74.5 442.5,74.5 442.5,68.5 436.5,68.5 430.5,68.5 425.5,68.5 425.5,74.5 425.5,79.5 419.5,79.5 419.5,74.5 419.5,68.5 414.5,68.5 414.5,74.5 414.5,79.5 408.5,79.5 402.5,79.5 397.5,79.5 397.5,74.5 402.5,74.5 408.5,74.5 408.5,68.5 402.5,68.5 397.5,68.5 397.5,63.5 397.5,57.5 397.5,51.5 402.5,51.5 402.5,57.5 402.5,63.5 408.5,63.5 408.5,57.5 408.5,51.5 408.5,46.5 402.5,46.5 397.5,46.5 397.5,40.5 402.5,40.5 408.5,40.5 408.5,34.5 402.5,34.5 397.5,34.5 397.5,29.5 397.5,23.5 397.5,18.5 402.5,18.5 402.5,23.5 402.5,29.5 408.5,29.5 408.5,23.5 408.5,18.5 414.5,18.5 419.5,18.5 425.5,18.5 425.5,23.5 419.5,23.5 414.5,23.5 414.5,29.5 419.5,29.5 425.5,29.5 425.5,34.5 425.5,40.5 425.5,46.5 419.5,46.5 419.5,40.5 419.5,34.5 414.5,34.5 414.5,40.5 414.5,46.5 414.5,51.5 419.5,51.5 425.5,51.5 425.5,57.5 419.5,57.5 414.5,57.5 414.5,63.5 419.5,63.5 425.5,63.5 430.5,63.5 430.5,57.5 430.5,51.5 436.5,51.5 436.5,57.5 436.5,63.5 442.5,63.5 442.5,57.5 442.5,51.5 442.5,46.5 436.5,46.5 430.5,46.5 430.5,40.5 436.5,40.5 442.5,40.5 442.5,34.5 436.5,34.5 430.5,34.5 430.5,29.5 430.5,23.5 430.5,18.5 436.5,18.5 436.5,23.5 436.5,29.5 442.5,29.5 442.5,23.5 442.5,18.5 447.5,18.5 453.5,18.5 459.5,18.5 459.5,23.5 453.5,23.5 447.5,23.5 447.5,29.5 453.5,29.5 459.5,29.5 464.5,29.5 464.5,23.5 464.5,18.5 470.5,18.5 470.5,23.5 470.5,29.5 475.5,29.5 475.5,23.5 475.5,18.5 481.5,18.5 487.5,18.5 492.5,18.5 492.5,23.5 487.5,23.5 481.5,23.5 481.5,29.5 487.5,29.5 492.5,29.5 492.5,34.5 492.5,40.5 492.5,46.5 487.5,46.5 487.5,40.5 487.5,34.5 481.5,34.5 481.5,40.5 481.5,46.5 475.5,46.5 470.5,46.5 464.5,46.5 464.5,40.5 470.5,40.5 475.5,40.5 475.5,34.5 470.5,34.5 464.5,34.5 459.5,34.5 459.5,40.5 459.5,46.5 453.5,46.5 453.5,40.5 453.5,34.5 447.5,34.5 447.5,40.5 447.5,46.5 447.5,51.5 453.5,51.5 459.5,51.5 459.5,57.5 453.5,57.5 447.5,57.5 447.5,63.5 453.5,63.5 459.5,63.5 464.5,63.5 464.5,57.5 464.5,51.5 470.5,51.5 470.5,57.5 470.5,63.5 475.5,63.5 475.5,57.5 475.5,51.5 481.5,51.5 487.5,51.5 492.5,51.5 492.5,57.5 487.5,57.5 481.5,57.5 481.5,63.5 487.5,63.5 492.5,63.5 492.5,68.5 492.5,74.5 492.5,79.5 487.5,79.5 487.5,74.5 487.5,68.5 481.5,68.5 481.5,74.5 481.5,79.5 481.5,85.5 487.5,85.5 492.5,85.5 492.5,91.5 487.5,91.5 481.5,91.5 481.5,96.5 487.5,96.5 492.5,96.5 492.5,102.5 492.5,108.5 492.5,113.5 487.5,113.5 487.5,108.5 487.5,102.5 481.5,102.5 481.5,108.5 481.5,113.5 475.5,113.5 470.5,113.5 464.5,113.5 464.5,108.5 470.5,108.5 475.5,108.5 475.5,102.5 470.5,102.5 464.5,102.5 464.5,96.5 464.5,91.5 464.5,85.5 470.5,85.5 470.5,91.5 470.5,96.5 475.5,96.5 475.5,91.5 475.5,85.5 475.5,79.5 470.5,79.5 464.5,79.5 464.5,74.5 470.5,74.5 475.5,74.5 475.5,68.5 470.5,68.5 464.5,68.5 459.5,68.5 459.5,74.5 459.5,79.5 453.5,79.5 453.5,74.5 453.5,68.5 447.5,68.5 447.5,74.5 447.5,79.5 447.5,85.5 453.5,85.5 459.5,85.5 459.5,91.5 453.5,91.5 447.5,91.5 447.5,96.5 453.5,96.5 459.5,96.5 459.5,102.5 459.5,108.5 459.5,113.5 453.5,113.5 453.5,108.5 453.5,102.5 447.5,102.5 447.5,108.5 447.5,113.5 447.5,119.5 453.5,119.5 459.5,119.5 459.5,124.5 453.5,124.5 447.5,124.5 447.5,130.5 453.5,130.5 459.5,130.5 464.5,130.5 464.5,124.5 464.5,119.5 470.5,119.5 470.5,124.5 470.5,130.5 475.5,130.5 475.5,124.5 475.5,119.5 481.5,119.5 487.5,119.5 492.5,119.5 492.5,124.5 487.5,124.5 481.5,124.5 481.5,130.5 487.5,130.5 492.5,130.5 492.5,136.5 492.5,141.5 492.5,147.5 487.5,147.5 487.5,141.5 487.5,136.5 481.5,136.5 481.5,141.5 481.5,147.5 475.5,147.5 470.5,147.5 464.5,147.5 464.5,141.5 470.5,141.5 475.5,141.5 475.5,136.5 470.5,136.5 464.5,136.5 459.5,136.5 459.5,141.5 459.5,147.5 453.5,147.5 453.5,141.5 453.5,136.5 447.5,136.5 447.5,141.5 447.5,147.5 447.5,153.5 453.5,153.5 459.5,153.5 459.5,158.5 453.5,158.5 447.5,158.5 447.5,164.5 453.5,164.5 459.5,164.5 464.5,164.5 464.5,158.5 464.5,153.5 470.5,153.5 470.5,158.5 470.5,164.5 475.5,164.5 475.5,158.5 475.5,153.5 481.5,153.5 487.5,153.5 492.5,153.5 492.5,158.5 487.5,158.5 481.5,158.5 481.5,164.5 487.5,164.5 492.5,164.5 498.5,164.5 498.5,158.5 498.5,153.5 504.5,153.5 504.5,158.5 504.5,164.5 509.5,164.5 509.5,158.5 509.5,153.5 509.5,147.5 504.5,147.5 498.5,147.5 498.5,141.5 504.5,141.5 509.5,141.5 509.5,136.5 504.5,136.5 498.5,136.5 498.5,130.5 498.5,124.5 498.5,119.5 504.5,119.5 504.5,124.5 504.5,130.5 509.5,130.5 509.5,124.5 509.5,119.5 515.5,119.5 520.5,119.5 526.5,119.5 526.5,124.5 520.5,124.5 515.5,124.5 515.5,130.5 520.5,130.5 526.5,130.5 526.5,136.5 526.5,141.5 526.5,147.5 520.5,147.5 520.5,141.5 520.5,136.5 515.5,136.5 515.5,141.5 515.5,147.5 515.5,153.5 520.5,153.5 526.5,153.5 526.5,158.5 520.5,158.5 515.5,158.5 515.5,164.5 520.5,164.5 526.5,164.5 532.5,164.5 532.5,158.5 532.5,153.5 537.5,153.5 537.5,158.5 537.5,164.5 543.5,164.5 543.5,158.5 543.5,153.5 543.5,147.5 537.5,147.5 532.5,147.5 532.5,141.5 537.5,141.5 543.5,141.5 543.5,136.5 537.5,136.5 532.5,136.5 532.5,130.5 532.5,124.5 532.5,119.5 537.5,119.5 537.5,124.5 537.5,130.5 543.5,130.5 543.5,124.5 543.5,119.5 543.5,113.5 537.5,113.5 532.5,113.5 532.5,108.5 537.5,108.5 543.5,108.5 543.5,102.5 537.5,102.5 532.5,102.5 526.5,102.5 526.5,108.5 526.5,113.5 520.5,113.5 520.5,108.5 520.5,102.5 515.5,102.5 515.5,108.5 515.5,113.5 509.5,113.5 504.5,113.5 498.5,113.5 498.5,108.5 504.5,108.5 509.5,108.5 509.5,102.5 504.5,102.5 498.5,102.5 498.5,96.5 498.5,91.5 498.5,85.5 504.5,85.5 504.5,91.5 504.5,96.5 509.5,96.5 509.5,91.5 509.5,85.5 515.5,85.5 520.5,85.5 526.5,85.5 526.5,91.5 520.5,91.5 515.5,91.5 515.5,96.5 520.5,96.5 526.5,96.5 532.5,96.5 532.5,91.5 532.5,85.5 537.5,85.5 537.5,91.5 537.5,96.5 543.5,96.5 543.5,91.5 543.5,85.5 543.5,79.5 537.5,79.5 532.5,79.5 532.5,74.5 537.5,74.5 543.5,74.5 543.5,68.5 537.5,68.5 532.5,68.5 526.5,68.5 526.5,74.5 526.5,79.5 520.5,79.5 520.5,74.5 520.5,68.5 515.5,68.5 515.5,74.5 515.5,79.5 509.5,79.5 504.5,79.5 498.5,79.5 498.5,74.5 504.5,74.5 509.5,74.5 509.5,68.5 504.5,68.5 498.5,68.5 498.5,63.5 498.5,57.5 498.5,51.5 504.5,51.5 504.5,57.5 504.5,63.5 509.5,63.5 509.5,57.5 509.5,51.5 509.5,46.5 504.5,46.5 498.5,46.5 498.5,40.5 504.5,40.5 509.5,40.5 509.5,34.5 504.5,34.5 498.5,34.5 498.5,29.5 498.5,23.5 498.5,18.5 504.5,18.5 504.5,23.5 504.5,29.5 509.5,29.5 509.5,23.5 509.5,18.5 515.5,18.5 520.5,18.5 526.5,18.5 526.5,23.5 520.5,23.5 515.5,23.5 515.5,29.5 520.5,29.5 526.5,29.5 526.5,34.5 526.5,40.5 526.5,46.5 520.5,46.5 520.5,40.5 520.5,34.5 515.5,34.5 515.5,40.5 515.5,46.5 515.5,51.5 520.5,51.5 526.5,51.5 526.5,57.5 520.5,57.5 515.5,57.5 515.5,63.5 520.5,63.5 526.5,63.5 532.5,63.5 532.5,57.5 532.5,51.5 537.5,51.5 537.5,57.5 537.5,63.5 543.5,63.5 543.5,57.5 543.5,51.5 543.5,46.5 537.5,46.5 532.5,46.5 532.5,40.5 537.5,40.5 543.5,40.5 543.5,34.5 537.5,34.5 532.5,34.5 532.5,29.5 532.5,23.5 532.5,18.5 537.5,18.5 537.5,23.5 537.5,29.5 543.5,29.5 543.5,23.5 543.5,18.5 " />
</g>

<g fill="none" stroke="#000000" stroke-opacity="1" stroke-width="1" stroke-linecap="square" stroke-linejoin="bevel" transform="matrix(1.17031,0,0,1.17031,0,0)"
font-family="Sans Serif" font-size="9" font-weight="400" font-style="normal" 
>
</g>

<g fill="none" stroke="#000000" stroke-opacity="1" stroke-width="1" stroke-linecap="square" stroke-linejoin="bevel" transform="matrix(1.17031,0,0,1.17031,0,0)"
font-family="Sans Serif" font-size="9" font-weight="400" font-style="normal" 
>
</g>

<g fill="none" stroke="#000000" stroke-opacity="1" stroke-width="1" stroke-linecap="round" stroke-linejoin="round" transform="matrix(1.17031,0,0,1.17031,0,0)"
font-family="Sans Serif" font-size="9" font-weight="400" font-style="normal" 
>
<polyline fill="none" vector-effect="none" points="93.5,18.5 93.5,467.5 543.5,467.5 543.5,18.5 93.5,18.5 " />
</g>

<g fill="none" stroke="#000000" stroke-opacity="1" stroke-width="1" stroke-linecap="square" stroke-linejoin="bevel" transform="matrix(1.17031,0,0,1.17031,0,0)"
font-family="Sans Serif" font-size="9" font-weight="400" font-style="normal" 
>
</g>

<g fill="none" stroke="#000000" stroke-opacity="1" stroke-width="1" stroke-linecap="square" stroke-linejoin="bevel" transform="matrix(1,0,0,1,0,0)"
font-family="Sans Serif" font-size="9" font-weight="400" font-style="normal" 
>
</g>
</g>
</svg>
