<?xml version="1.0" encoding="UTF-8" standalone="no"?>
<svg width="264.231mm" height="241.653mm"
 viewBox="0 0 749 685"
 xmlns="http://www.w3.org/2000/svg" xmlns:xlink="http://www.w3.org/1999/xlink"  version="1.2" baseProfile="tiny">
<title>Qt SVG Document</title>
<desc>Generated with Qt</desc>
<defs>
</defs>
<g fill="none" stroke="black" stroke-width="1" fill-rule="evenodd" stroke-linecap="square" stroke-linejoin="bevel" >

<g fill="none" stroke="#000000" stroke-opacity="1" stroke-width="1" stroke-linecap="square" stroke-linejoin="bevel" transform="matrix(1,0,0,1,0,0)"
font-family="Sans Serif" font-size="9" font-weight="400" font-style="normal" 
>
</g>

<g fill="none" stroke="#000000" stroke-opacity="1" stroke-width="1" stroke-linecap="square" stroke-linejoin="bevel" transform="matrix(1.17031,0,0,1.17031,0,0)"
font-family="Sans Serif" font-size="9" font-weight="400" font-style="normal" 
>
</g>

<g fill="none" stroke="#000000" stroke-opacity="1" stroke-width="1" stroke-linecap="round" stroke-linejoin="round" transform="matrix(1.17031,0,0,1.17031,0,0)"
font-family="Sans Serif" font-size="9" font-weight="400" font-style="normal" 
>
<polyline fill="none" vector-effect="none" points="57.5,18.5 57.5,467.5 579.5,467.5 579.5,18.5 57.5,18.5 " />
</g>

<g fill="none" stroke="#000000" stroke-opacity="1" stroke-width="1" stroke-linecap="square" stroke-linejoin="bevel" transform="matrix(1.17031,0,0,1.17031,0,0)"
font-family="Sans Serif" font-size="9" font-weight="400" font-style="normal" 
>
</g>

<g fill="none" stroke="#000000" stroke-opacity="1" stroke-width="1" stroke-linecap="square" stroke-linejoin="bevel" transform="matrix(1.17031,0,0,1.17031,0,0)"
font-family="Sans Serif" font-size="9" font-weight="400" font-style="normal" 
>
</g>

<g fill="none" stroke="#000000" stroke-opacity="1" stroke-width="1" stroke-linecap="square" stroke-linejoin="bevel" transform="matrix(1.17031,0,0,1.17031,0,0)"
font-family="Sans Serif" font-size="9" font-weight="400" font-style="normal" 
>
</g>

<g fill="none" stroke="#000000" stroke-opacity="1" stroke-width="1" stroke-linecap="square" stroke-linejoin="bevel" transform="matrix(1.17031,0,0,1.17031,0,0)"
font-family="Sans Serif" font-size="9" font-weight="400" font-style="normal" 
>
</g>

<g fill="none" stroke="#9400d3" stroke-opacity="1" stroke-width="1" stroke-linecap="round" stroke-linejoin="round" transform="matrix(1.17031,0,0,1.17031,0,0)"
font-family="Sans Serif" font-size="9" font-weight="400" font-style="normal" 
>
<polyline fill="none" vector-effect="none" points="57.7,467.9 57.7,467.9 59.7,467.9 60.8,466.1 59.7,464.4 60.8,462.6 62.8,462.6 63.8,464.4 62.8,466.1 63.8,467.9 65.8,467.9 66.9,466.1 68.9,466.1 69.9,467.9 72,467.9 73,466.1 72,464.4 69.9,464.4 68.9,462.6 69.9,460.8 68.9,459.1 66.9,459.1 65.8,460.8 63.8,460.8 62.8,459.1 63.8,457.3 65.8,457.3 66.9,455.5 65.8,453.8 66.9,452 68.9,452 69.9,453.8 72,453.8 73,452 72,450.3 69.9,450.3 68.9,448.5 69.9,446.7 72,446.7 73,445 72,443.2 73,441.4 75,441.4 76,443.2 75,445 76,446.7 78.1,446.7 79.1,448.5 78.1,450.3 76,450.3 75,452 76,453.8 78.1,453.8 79.1,452 81.1,452 82.1,453.8 81.1,455.5 82.1,457.3 84.2,457.3 85.2,459.1 84.2,460.8 82.1,460.8 81.1,459.1 79.1,459.1 78.1,460.8 79.1,462.6 78.1,464.4 76,464.4 75,466.1 76,467.9 78.1,467.9 79.1,466.1 81.1,466.1 82.1,467.9 84.2,467.9 85.2,466.1 84.2,464.4 85.2,462.6 87.2,462.6 88.3,464.4 87.2,466.1 88.3,467.9 90.3,467.9 91.3,466.1 93.3,466.1 94.4,467.9 96.4,467.9 97.4,466.1 96.4,464.4 94.4,464.4 93.3,462.6 94.4,460.8 96.4,460.8 97.4,459.1 96.4,457.3 97.4,455.5 99.5,455.5 100.5,457.3 99.5,459.1 100.5,460.8 102.5,460.8 103.5,462.6 102.5,464.4 100.5,464.4 99.5,466.1 100.5,467.9 102.5,467.9 103.5,466.1 105.6,466.1 106.6,467.9 108.6,467.9 109.6,466.1 108.6,464.4 109.6,462.6 111.7,462.6 112.7,464.4 111.7,466.1 112.7,467.9 114.7,467.9 115.8,466.1 117.8,466.1 118.8,467.9 120.9,467.9 121.9,466.1 120.9,464.4 118.8,464.4 117.8,462.6 118.8,460.8 117.8,459.1 115.8,459.1 114.7,460.8 112.7,460.8 111.7,459.1 112.7,457.3 114.7,457.3 115.8,455.5 114.7,453.8 112.7,453.8 111.7,452 112.7,450.3 111.7,448.5 109.6,448.5 108.6,450.3 109.6,452 108.6,453.8 106.6,453.8 105.6,452 103.5,452 102.5,453.8 100.5,453.8 99.5,452 100.5,450.3 102.5,450.3 103.5,448.5 102.5,446.7 103.5,445 105.6,445 106.6,446.7 108.6,446.7 109.6,445 108.6,443.2 106.6,443.2 105.6,441.4 106.6,439.7 105.6,437.9 103.5,437.9 102.5,439.7 100.5,439.7 99.5,437.9 100.5,436.1 102.5,436.1 103.5,434.4 102.5,432.6 100.5,432.6 99.5,430.8 100.5,429.1 99.5,427.3 97.4,427.3 96.4,429.1 97.4,430.8 96.4,432.6 94.4,432.6 93.3,434.4 94.4,436.1 96.4,436.1 97.4,437.9 96.4,439.7 94.4,439.7 93.3,437.9 91.3,437.9 90.3,439.7 88.3,439.7 87.2,437.9 88.3,436.1 87.2,434.4 85.2,434.4 84.2,436.1 85.2,437.9 84.2,439.7 82.1,439.7 81.1,437.9 79.1,437.9 78.1,439.7 76,439.7 75,437.9 76,436.1 78.1,436.1 79.1,434.4 78.1,432.6 79.1,430.8 81.1,430.8 82.1,432.6 84.2,432.6 85.2,430.8 84.2,429.1 82.1,429.1 81.1,427.3 82.1,425.6 84.2,425.6 85.2,423.8 84.2,422 85.2,420.3 87.2,420.3 88.3,422 87.2,423.8 88.3,425.6 90.3,425.6 91.3,423.8 93.3,423.8 94.4,425.6 96.4,425.6 97.4,423.8 96.4,422 94.4,422 93.3,420.3 94.4,418.5 93.3,416.7 91.3,416.7 90.3,418.5 88.3,418.5 87.2,416.7 88.3,415 90.3,415 91.3,413.2 90.3,411.4 91.3,409.7 93.3,409.7 94.4,411.4 96.4,411.4 97.4,409.7 96.4,407.9 94.4,407.9 93.3,406.1 94.4,404.4 96.4,404.4 97.4,402.6 96.4,400.9 97.4,399.1 99.5,399.1 100.5,400.9 99.5,402.6 100.5,404.4 102.5,404.4 103.5,406.1 102.5,407.9 100.5,407.9 99.5,409.7 100.5,411.4 102.5,411.4 103.5,409.7 105.6,409.7 106.6,411.4 108.6,411.4 109.6,409.7 108.6,407.9 109.6,406.1 111.7,406.1 112.7,407.9 111.7,409.7 112.7,411.4 114.7,411.4 115.8,409.7 117.8,409.7 118.8,411.4 120.9,411.4 121.9,409.7 120.9,407.9 118.8,407.9 117.8,406.1 118.8,404.4 117.8,402.6 115.8,402.6 114.7,404.4 112.7,404.4 111.7,402.6 112.7,400.9 114.7,400.9 115.8,399.1 114.7,397.3 112.7,397.3 111.7,395.6 112.7,393.8 111.7,392 109.6,392 108.6,393.8 109.6,395.6 108.6,397.3 106.6,397.3 105.6,395.6 103.5,395.6 102.5,397.3 100.5,397.3 99.5,395.6 100.5,393.8 102.5,393.8 103.5,392 102.5,390.3 103.5,388.5 105.6,388.5 106.6,390.3 108.6,390.3 109.6,388.5 108.6,386.7 106.6,386.7 105.6,385 106.6,383.2 108.6,383.2 109.6,381.4 108.6,379.7 109.6,377.9 111.7,377.9 112.7,379.7 111.7,381.4 112.7,383.2 114.7,383.2 115.8,381.4 117.8,381.4 118.8,383.2 120.9,383.2 121.9,381.4 120.9,379.7 118.8,379.7 117.8,377.9 118.8,376.2 117.8,374.4 115.8,374.4 114.7,376.2 112.7,376.2 111.7,374.4 112.7,372.6 114.7,372.6 115.8,370.9 114.7,369.1 115.8,367.3 117.8,367.3 118.8,369.1 120.9,369.1 121.9,367.3 120.9,365.6 118.8,365.6 117.8,363.8 118.8,362 120.9,362 121.9,360.3 120.9,358.5 121.9,356.7 123.9,356.7 124.9,358.5 123.9,360.3 124.9,362 127,362 128,363.8 127,365.6 124.9,365.6 123.9,367.3 124.9,369.1 127,369.1 128,367.3 130,367.3 131,369.1 130,370.9 131,372.6 133.1,372.6 134.1,374.4 133.1,376.2 131,376.2 130,374.4 128,374.4 127,376.2 128,377.9 127,379.7 124.9,379.7 123.9,381.4 124.9,383.2 127,383.2 128,381.4 130,381.4 131,383.2 133.1,383.2 134.1,381.4 133.1,379.7 134.1,377.9 136.1,377.9 137.1,379.7 136.1,381.4 137.1,383.2 139.2,383.2 140.2,385 139.2,386.7 137.1,386.7 136.1,388.5 137.1,390.3 139.2,390.3 140.2,388.5 142.2,388.5 143.3,390.3 142.2,392 143.3,393.8 145.3,393.8 146.3,395.6 145.3,397.3 143.3,397.3 142.2,395.6 140.2,395.6 139.2,397.3 137.1,397.3 136.1,395.6 137.1,393.8 136.1,392 134.1,392 133.1,393.8 134.1,395.6 133.1,397.3 131,397.3 130,399.1 131,400.9 133.1,400.9 134.1,402.6 133.1,404.4 131,404.4 130,402.6 128,402.6 127,404.4 128,406.1 127,407.9 124.9,407.9 123.9,409.7 124.9,411.4 127,411.4 128,409.7 130,409.7 131,411.4 133.1,411.4 134.1,409.7 133.1,407.9 134.1,406.1 136.1,406.1 137.1,407.9 136.1,409.7 137.1,411.4 139.2,411.4 140.2,409.7 142.2,409.7 143.3,411.4 145.3,411.4 146.3,409.7 145.3,407.9 143.3,407.9 142.2,406.1 143.3,404.4 145.3,404.4 146.3,402.6 145.3,400.9 146.3,399.1 148.4,399.1 149.4,400.9 148.4,402.6 149.4,404.4 151.4,404.4 152.4,406.1 151.4,407.9 149.4,407.9 148.4,409.7 149.4,411.4 151.4,411.4 152.4,409.7 154.5,409.7 155.5,411.4 154.5,413.2 155.5,415 157.5,415 158.5,416.7 157.5,418.5 155.5,418.5 154.5,416.7 152.4,416.7 151.4,418.5 152.4,420.3 151.4,422 149.4,422 148.4,423.8 149.4,425.6 151.4,425.6 152.4,423.8 154.5,423.8 155.5,425.6 157.5,425.6 158.5,423.8 157.5,422 158.5,420.3 160.6,420.3 161.6,422 160.6,423.8 161.6,425.6 163.6,425.6 164.6,427.3 163.6,429.1 161.6,429.1 160.6,430.8 161.6,432.6 163.6,432.6 164.6,430.8 166.7,430.8 167.7,432.6 166.7,434.4 167.7,436.1 169.7,436.1 170.8,437.9 169.7,439.7 167.7,439.7 166.7,437.9 164.6,437.9 163.6,439.7 161.6,439.7 160.6,437.9 161.6,436.1 160.6,434.4 158.5,434.4 157.5,436.1 158.5,437.9 157.5,439.7 155.5,439.7 154.5,437.9 152.4,437.9 151.4,439.7 149.4,439.7 148.4,437.9 149.4,436.1 151.4,436.1 152.4,434.4 151.4,432.6 149.4,432.6 148.4,430.8 149.4,429.1 148.4,427.3 146.3,427.3 145.3,429.1 146.3,430.8 145.3,432.6 143.3,432.6 142.2,434.4 143.3,436.1 145.3,436.1 146.3,437.9 145.3,439.7 143.3,439.7 142.2,437.9 140.2,437.9 139.2,439.7 140.2,441.4 139.2,443.2 137.1,443.2 136.1,445 137.1,446.7 139.2,446.7 140.2,445 142.2,445 143.3,446.7 142.2,448.5 143.3,450.3 145.3,450.3 146.3,452 145.3,453.8 143.3,453.8 142.2,452 140.2,452 139.2,453.8 137.1,453.8 136.1,452 137.1,450.3 136.1,448.5 134.1,448.5 133.1,450.3 134.1,452 133.1,453.8 131,453.8 130,455.5 131,457.3 133.1,457.3 134.1,459.1 133.1,460.8 131,460.8 130,459.1 128,459.1 127,460.8 128,462.6 127,464.4 124.9,464.4 123.9,466.1 124.9,467.9 127,467.9 128,466.1 130,466.1 131,467.9 133.1,467.9 134.1,466.1 133.1,464.4 134.1,462.6 136.1,462.6 137.1,464.4 136.1,466.1 137.1,467.9 139.2,467.9 140.2,466.1 142.2,466.1 143.3,467.9 145.3,467.9 146.3,466.1 145.3,464.4 143.3,464.4 142.2,462.6 143.3,460.8 145.3,460.8 146.3,459.1 145.3,457.3 146.3,455.5 148.4,455.5 149.4,457.3 148.4,459.1 149.4,460.8 151.4,460.8 152.4,462.6 151.4,464.4 149.4,464.4 148.4,466.1 149.4,467.9 151.4,467.9 152.4,466.1 154.5,466.1 155.5,467.9 157.5,467.9 158.5,466.1 157.5,464.4 158.5,462.6 160.6,462.6 161.6,464.4 160.6,466.1 161.6,467.9 163.6,467.9 164.6,466.1 166.7,466.1 167.7,467.9 169.7,467.9 170.8,466.1 169.7,464.4 167.7,464.4 166.7,462.6 167.7,460.8 166.7,459.1 164.6,459.1 163.6,460.8 161.6,460.8 160.6,459.1 161.6,457.3 163.6,457.3 164.6,455.5 163.6,453.8 164.6,452 166.7,452 167.7,453.8 169.7,453.8 170.8,452 169.7,450.3 167.7,450.3 166.7,448.5 167.7,446.7 169.7,446.7 170.8,445 169.7,443.2 170.8,441.4 172.8,441.4 173.8,443.2 172.8,445 173.8,446.7 175.9,446.7 176.9,448.5 175.9,450.3 173.8,450.3 172.8,452 173.8,453.8 175.9,453.8 176.9,452 178.9,452 179.9,453.8 178.9,455.5 179.9,457.3 182,457.3 183,459.1 182,460.8 179.9,460.8 178.9,459.1 176.9,459.1 175.9,460.8 176.9,462.6 175.9,464.4 173.8,464.4 172.8,466.1 173.8,467.9 175.9,467.9 176.9,466.1 178.9,466.1 179.9,467.9 182,467.9 183,466.1 182,464.4 183,462.6 185,462.6 186,464.4 185,466.1 186,467.9 188.1,467.9 189.1,466.1 191.1,466.1 192.1,467.9 194.2,467.9 195.2,466.1 194.2,464.4 192.1,464.4 191.1,462.6 192.1,460.8 194.2,460.8 195.2,459.1 194.2,457.3 195.2,455.5 197.2,455.5 198.3,457.3 197.2,459.1 198.3,460.8 200.3,460.8 201.3,462.6 200.3,464.4 198.3,464.4 197.2,466.1 198.3,467.9 200.3,467.9 201.3,466.1 203.4,466.1 204.4,467.9 206.4,467.9 207.4,466.1 206.4,464.4 207.4,462.6 209.5,462.6 210.5,464.4 209.5,466.1 210.5,467.9 212.5,467.9 213.5,466.1 215.6,466.1 216.6,467.9 218.6,467.9 219.7,466.1 218.6,464.4 216.6,464.4 215.6,462.6 216.6,460.8 215.6,459.1 213.5,459.1 212.5,460.8 210.5,460.8 209.5,459.1 210.5,457.3 212.5,457.3 213.5,455.5 212.5,453.8 210.5,453.8 209.5,452 210.5,450.3 209.5,448.5 207.4,448.5 206.4,450.3 207.4,452 206.4,453.8 204.4,453.8 203.4,452 201.3,452 200.3,453.8 198.3,453.8 197.2,452 198.3,450.3 200.3,450.3 201.3,448.5 200.3,446.7 201.3,445 203.4,445 204.4,446.7 206.4,446.7 207.4,445 206.4,443.2 204.4,443.2 203.4,441.4 204.4,439.7 206.4,439.7 207.4,437.9 206.4,436.1 207.4,434.4 209.5,434.4 210.5,436.1 209.5,437.9 210.5,439.7 212.5,439.7 213.5,437.9 215.6,437.9 216.6,439.7 218.6,439.7 219.7,437.9 218.6,436.1 216.6,436.1 215.6,434.4 216.6,432.6 215.6,430.8 213.5,430.8 212.5,432.6 210.5,432.6 209.5,430.8 210.5,429.1 212.5,429.1 213.5,427.3 212.5,425.6 213.5,423.8 215.6,423.8 216.6,425.6 218.6,425.6 219.7,423.8 218.6,422 216.6,422 215.6,420.3 216.6,418.5 218.6,418.5 219.7,416.7 218.6,415 219.7,413.2 221.7,413.2 222.7,415 221.7,416.7 222.7,418.5 224.7,418.5 225.8,420.3 224.7,422 222.7,422 221.7,423.8 222.7,425.6 224.7,425.6 225.8,423.8 227.8,423.8 228.8,425.6 227.8,427.3 228.8,429.1 230.9,429.1 231.9,430.8 230.9,432.6 228.8,432.6 227.8,430.8 225.8,430.8 224.7,432.6 225.8,434.4 224.7,436.1 222.7,436.1 221.7,437.9 222.7,439.7 224.7,439.7 225.8,437.9 227.8,437.9 228.8,439.7 230.9,439.7 231.9,437.9 230.9,436.1 231.9,434.4 233.9,434.4 234.9,436.1 233.9,437.9 234.9,439.7 237,439.7 238,441.4 237,443.2 234.9,443.2 233.9,445 234.9,446.7 237,446.7 238,445 240,445 241,446.7 240,448.5 241,450.3 243.1,450.3 244.1,452 243.1,453.8 241,453.8 240,452 238,452 237,453.8 234.9,453.8 233.9,452 234.9,450.3 233.9,448.5 231.9,448.5 230.9,450.3 231.9,452 230.9,453.8 228.8,453.8 227.8,455.5 228.8,457.3 230.9,457.3 231.9,459.1 230.9,460.8 228.8,460.8 227.8,459.1 225.8,459.1 224.7,460.8 225.8,462.6 224.7,464.4 222.7,464.4 221.7,466.1 222.7,467.9 224.7,467.9 225.8,466.1 227.8,466.1 228.8,467.9 230.9,467.9 231.9,466.1 230.9,464.4 231.9,462.6 233.9,462.6 234.9,464.4 233.9,466.1 234.9,467.9 237,467.9 238,466.1 240,466.1 241,467.9 243.1,467.9 244.1,466.1 243.1,464.4 241,464.4 240,462.6 241,460.8 243.1,460.8 244.1,459.1 243.1,457.3 244.1,455.5 246.1,455.5 247.2,457.3 246.1,459.1 247.2,460.8 249.2,460.8 250.2,462.6 249.2,464.4 247.2,464.4 246.1,466.1 247.2,467.9 249.2,467.9 250.2,466.1 252.2,466.1 253.3,467.9 255.3,467.9 256.3,466.1 255.3,464.4 256.3,462.6 258.4,462.6 259.4,464.4 258.4,466.1 259.4,467.9 261.4,467.9 262.4,466.1 264.5,466.1 265.5,467.9 267.5,467.9 268.5,466.1 267.5,464.4 265.5,464.4 264.5,462.6 265.5,460.8 264.5,459.1 262.4,459.1 261.4,460.8 259.4,460.8 258.4,459.1 259.4,457.3 261.4,457.3 262.4,455.5 261.4,453.8 262.4,452 264.5,452 265.5,453.8 267.5,453.8 268.5,452 267.5,450.3 265.5,450.3 264.5,448.5 265.5,446.7 267.5,446.7 268.5,445 267.5,443.2 268.5,441.4 270.6,441.4 271.6,443.2 270.6,445 271.6,446.7 273.6,446.7 274.7,448.5 273.6,450.3 271.6,450.3 270.6,452 271.6,453.8 273.6,453.8 274.7,452 276.7,452 277.7,453.8 276.7,455.5 277.7,457.3 279.7,457.3 280.8,459.1 279.7,460.8 277.7,460.8 276.7,459.1 274.7,459.1 273.6,460.8 274.7,462.6 273.6,464.4 271.6,464.4 270.6,466.1 271.6,467.9 273.6,467.9 274.7,466.1 276.7,466.1 277.7,467.9 279.7,467.9 280.8,466.1 279.7,464.4 280.8,462.6 282.8,462.6 283.8,464.4 282.8,466.1 283.8,467.9 285.9,467.9 286.9,466.1 288.9,466.1 289.9,467.9 292,467.9 293,466.1 292,464.4 289.9,464.4 288.9,462.6 289.9,460.8 292,460.8 293,459.1 292,457.3 293,455.5 295,455.5 296,457.3 295,459.1 296,460.8 298.1,460.8 299.1,462.6 298.1,464.4 296,464.4 295,466.1 296,467.9 298.1,467.9 299.1,466.1 301.1,466.1 302.2,467.9 304.2,467.9 305.2,466.1 304.2,464.4 305.2,462.6 307.2,462.6 308.3,464.4 307.2,466.1 308.3,467.9 310.3,467.9 311.3,466.1 313.4,466.1 314.4,467.9 316.4,467.9 317.4,466.1 316.4,464.4 314.4,464.4 313.4,462.6 314.4,460.8 313.4,459.1 311.3,459.1 310.3,460.8 308.3,460.8 307.2,459.1 308.3,457.3 310.3,457.3 311.3,455.5 310.3,453.8 308.3,453.8 307.2,452 308.3,450.3 307.2,448.5 305.2,448.5 304.2,450.3 305.2,452 304.2,453.8 302.2,453.8 301.1,452 299.1,452 298.1,453.8 296,453.8 295,452 296,450.3 298.1,450.3 299.1,448.5 298.1,446.7 299.1,445 301.1,445 302.2,446.7 304.2,446.7 305.2,445 304.2,443.2 302.2,443.2 301.1,441.4 302.2,439.7 301.1,437.9 299.1,437.9 298.1,439.7 296,439.7 295,437.9 296,436.1 298.1,436.1 299.1,434.4 298.1,432.6 296,432.6 295,430.8 296,429.1 295,427.3 293,427.3 292,429.1 293,430.8 292,432.6 289.9,432.6 288.9,434.4 289.9,436.1 292,436.1 293,437.9 292,439.7 289.9,439.7 288.9,437.9 286.9,437.9 285.9,439.7 283.8,439.7 282.8,437.9 283.8,436.1 282.8,434.4 280.8,434.4 279.7,436.1 280.8,437.9 279.7,439.7 277.7,439.7 276.7,437.9 274.7,437.9 273.6,439.7 271.6,439.7 270.6,437.9 271.6,436.1 273.6,436.1 274.7,434.4 273.6,432.6 274.7,430.8 276.7,430.8 277.7,432.6 279.7,432.6 280.8,430.8 279.7,429.1 277.7,429.1 276.7,427.3 277.7,425.6 279.7,425.6 280.8,423.8 279.7,422 280.8,420.3 282.8,420.3 283.8,422 282.8,423.8 283.8,425.6 285.9,425.6 286.9,423.8 288.9,423.8 289.9,425.6 292,425.6 293,423.8 292,422 289.9,422 288.9,420.3 289.9,418.5 288.9,416.7 286.9,416.7 285.9,418.5 283.8,418.5 282.8,416.7 283.8,415 285.9,415 286.9,413.2 285.9,411.4 283.8,411.4 282.8,409.7 283.8,407.9 282.8,406.1 280.8,406.1 279.7,407.9 280.8,409.7 279.7,411.4 277.7,411.4 276.7,409.7 274.7,409.7 273.6,411.4 271.6,411.4 270.6,409.7 271.6,407.9 273.6,407.9 274.7,406.1 273.6,404.4 274.7,402.6 276.7,402.6 277.7,404.4 279.7,404.4 280.8,402.6 279.7,400.9 277.7,400.9 276.7,399.1 277.7,397.3 276.7,395.6 274.7,395.6 273.6,397.3 271.6,397.3 270.6,395.6 271.6,393.8 273.6,393.8 274.7,392 273.6,390.3 271.6,390.3 270.6,388.5 271.6,386.7 270.6,385 268.5,385 267.5,386.7 268.5,388.5 267.5,390.3 265.5,390.3 264.5,392 265.5,393.8 267.5,393.8 268.5,395.6 267.5,397.3 265.5,397.3 264.5,395.6 262.4,395.6 261.4,397.3 262.4,399.1 261.4,400.9 259.4,400.9 258.4,402.6 259.4,404.4 261.4,404.4 262.4,402.6 264.5,402.6 265.5,404.4 264.5,406.1 265.5,407.9 267.5,407.9 268.5,409.7 267.5,411.4 265.5,411.4 264.5,409.7 262.4,409.7 261.4,411.4 259.4,411.4 258.4,409.7 259.4,407.9 258.4,406.1 256.3,406.1 255.3,407.9 256.3,409.7 255.3,411.4 253.3,411.4 252.2,409.7 250.2,409.7 249.2,411.4 247.2,411.4 246.1,409.7 247.2,407.9 249.2,407.9 250.2,406.1 249.2,404.4 247.2,404.4 246.1,402.6 247.2,400.9 246.1,399.1 244.1,399.1 243.1,400.9 244.1,402.6 243.1,404.4 241,404.4 240,406.1 241,407.9 243.1,407.9 244.1,409.7 243.1,411.4 241,411.4 240,409.7 238,409.7 237,411.4 234.9,411.4 233.9,409.7 234.9,407.9 233.9,406.1 231.9,406.1 230.9,407.9 231.9,409.7 230.9,411.4 228.8,411.4 227.8,409.7 225.8,409.7 224.7,411.4 222.7,411.4 221.7,409.7 222.7,407.9 224.7,407.9 225.8,406.1 224.7,404.4 225.8,402.6 227.8,402.6 228.8,404.4 230.9,404.4 231.9,402.6 230.9,400.9 228.8,400.9 227.8,399.1 228.8,397.3 230.9,397.3 231.9,395.6 230.9,393.8 231.9,392 233.9,392 234.9,393.8 233.9,395.6 234.9,397.3 237,397.3 238,395.6 240,395.6 241,397.3 243.1,397.3 244.1,395.6 243.1,393.8 241,393.8 240,392 241,390.3 240,388.5 238,388.5 237,390.3 234.9,390.3 233.9,388.5 234.9,386.7 237,386.7 238,385 237,383.2 238,381.4 240,381.4 241,383.2 243.1,383.2 244.1,381.4 243.1,379.7 241,379.7 240,377.9 241,376.2 243.1,376.2 244.1,374.4 243.1,372.6 244.1,370.9 246.1,370.9 247.2,372.6 246.1,374.4 247.2,376.2 249.2,376.2 250.2,377.9 249.2,379.7 247.2,379.7 246.1,381.4 247.2,383.2 249.2,383.2 250.2,381.4 252.2,381.4 253.3,383.2 255.3,383.2 256.3,381.4 255.3,379.7 256.3,377.9 258.4,377.9 259.4,379.7 258.4,381.4 259.4,383.2 261.4,383.2 262.4,381.4 264.5,381.4 265.5,383.2 267.5,383.2 268.5,381.4 267.5,379.7 265.5,379.7 264.5,377.9 265.5,376.2 264.5,374.4 262.4,374.4 261.4,376.2 259.4,376.2 258.4,374.4 259.4,372.6 261.4,372.6 262.4,370.9 261.4,369.1 259.4,369.1 258.4,367.3 259.4,365.6 258.4,363.8 256.3,363.8 255.3,365.6 256.3,367.3 255.3,369.1 253.3,369.1 252.2,367.3 250.2,367.3 249.2,369.1 247.2,369.1 246.1,367.3 247.2,365.6 249.2,365.6 250.2,363.8 249.2,362 250.2,360.3 252.2,360.3 253.3,362 255.3,362 256.3,360.3 255.3,358.5 253.3,358.5 252.2,356.7 253.3,355 252.2,353.2 250.2,353.2 249.2,355 247.2,355 246.1,353.2 247.2,351.5 249.2,351.5 250.2,349.7 249.2,347.9 247.2,347.9 246.1,346.2 247.2,344.4 246.1,342.6 244.1,342.6 243.1,344.4 244.1,346.2 243.1,347.9 241,347.9 240,349.7 241,351.5 243.1,351.5 244.1,353.2 243.1,355 241,355 240,353.2 238,353.2 237,355 234.9,355 233.9,353.2 234.9,351.5 233.9,349.7 231.9,349.7 230.9,351.5 231.9,353.2 230.9,355 228.8,355 227.8,353.2 225.8,353.2 224.7,355 222.7,355 221.7,353.2 222.7,351.5 224.7,351.5 225.8,349.7 224.7,347.9 225.8,346.2 227.8,346.2 228.8,347.9 230.9,347.9 231.9,346.2 230.9,344.4 228.8,344.4 227.8,342.6 228.8,340.9 230.9,340.9 231.9,339.1 230.9,337.3 231.9,335.6 233.9,335.6 234.9,337.3 233.9,339.1 234.9,340.9 237,340.9 238,339.1 240,339.1 241,340.9 243.1,340.9 244.1,339.1 243.1,337.3 241,337.3 240,335.6 241,333.8 240,332 238,332 237,333.8 234.9,333.8 233.9,332 234.9,330.3 237,330.3 238,328.5 237,326.8 234.9,326.8 233.9,325 234.9,323.2 233.9,321.5 231.9,321.5 230.9,323.2 231.9,325 230.9,326.8 228.8,326.8 227.8,325 225.8,325 224.7,326.8 222.7,326.8 221.7,325 222.7,323.2 224.7,323.2 225.8,321.5 224.7,319.7 225.8,317.9 227.8,317.9 228.8,319.7 230.9,319.7 231.9,317.9 230.9,316.2 228.8,316.2 227.8,314.4 228.8,312.6 227.8,310.9 225.8,310.9 224.7,312.6 222.7,312.6 221.7,310.9 222.7,309.1 224.7,309.1 225.8,307.3 224.7,305.6 222.7,305.6 221.7,303.8 222.7,302.1 221.7,300.3 219.7,300.3 218.6,302.1 219.7,303.8 218.6,305.6 216.6,305.6 215.6,307.3 216.6,309.1 218.6,309.1 219.7,310.9 218.6,312.6 216.6,312.6 215.6,310.9 213.5,310.9 212.5,312.6 213.5,314.4 212.5,316.2 210.5,316.2 209.5,317.9 210.5,319.7 212.5,319.7 213.5,317.9 215.6,317.9 216.6,319.7 215.6,321.5 216.6,323.2 218.6,323.2 219.7,325 218.6,326.8 216.6,326.8 215.6,325 213.5,325 212.5,326.8 210.5,326.8 209.5,325 210.5,323.2 209.5,321.5 207.4,321.5 206.4,323.2 207.4,325 206.4,326.8 204.4,326.8 203.4,328.5 204.4,330.3 206.4,330.3 207.4,332 206.4,333.8 204.4,333.8 203.4,332 201.3,332 200.3,333.8 201.3,335.6 200.3,337.3 198.3,337.3 197.2,339.1 198.3,340.9 200.3,340.9 201.3,339.1 203.4,339.1 204.4,340.9 206.4,340.9 207.4,339.1 206.4,337.3 207.4,335.6 209.5,335.6 210.5,337.3 209.5,339.1 210.5,340.9 212.5,340.9 213.5,342.6 212.5,344.4 210.5,344.4 209.5,346.2 210.5,347.9 212.5,347.9 213.5,346.2 215.6,346.2 216.6,347.9 215.6,349.7 216.6,351.5 218.6,351.5 219.7,353.2 218.6,355 216.6,355 215.6,353.2 213.5,353.2 212.5,355 210.5,355 209.5,353.2 210.5,351.5 209.5,349.7 207.4,349.7 206.4,351.5 207.4,353.2 206.4,355 204.4,355 203.4,353.2 201.3,353.2 200.3,355 198.3,355 197.2,353.2 198.3,351.5 200.3,351.5 201.3,349.7 200.3,347.9 198.3,347.9 197.2,346.2 198.3,344.4 197.2,342.6 195.2,342.6 194.2,344.4 195.2,346.2 194.2,347.9 192.1,347.9 191.1,349.7 192.1,351.5 194.2,351.5 195.2,353.2 194.2,355 192.1,355 191.1,353.2 189.1,353.2 188.1,355 186,355 185,353.2 186,351.5 185,349.7 183,349.7 182,351.5 183,353.2 182,355 179.9,355 178.9,353.2 176.9,353.2 175.9,355 173.8,355 172.8,353.2 173.8,351.5 175.9,351.5 176.9,349.7 175.9,347.9 176.9,346.2 178.9,346.2 179.9,347.9 182,347.9 183,346.2 182,344.4 179.9,344.4 178.9,342.6 179.9,340.9 178.9,339.1 176.9,339.1 175.9,340.9 173.8,340.9 172.8,339.1 173.8,337.3 175.9,337.3 176.9,335.6 175.9,333.8 173.8,333.8 172.8,332 173.8,330.3 172.8,328.5 170.8,328.5 169.7,330.3 170.8,332 169.7,333.8 167.7,333.8 166.7,335.6 167.7,337.3 169.7,337.3 170.8,339.1 169.7,340.9 167.7,340.9 166.7,339.1 164.6,339.1 163.6,340.9 164.6,342.6 163.6,344.4 161.6,344.4 160.6,346.2 161.6,347.9 163.6,347.9 164.6,346.2 166.7,346.2 167.7,347.9 166.7,349.7 167.7,351.5 169.7,351.5 170.8,353.2 169.7,355 167.7,355 166.7,353.2 164.6,353.2 163.6,355 161.6,355 160.6,353.2 161.6,351.5 160.6,349.7 158.5,349.7 157.5,351.5 158.5,353.2 157.5,355 155.5,355 154.5,353.2 152.4,353.2 151.4,355 149.4,355 148.4,353.2 149.4,351.5 151.4,351.5 152.4,349.7 151.4,347.9 149.4,347.9 148.4,346.2 149.4,344.4 148.4,342.6 146.3,342.6 145.3,344.4 146.3,346.2 145.3,347.9 143.3,347.9 142.2,349.7 143.3,351.5 145.3,351.5 146.3,353.2 145.3,355 143.3,355 142.2,353.2 140.2,353.2 139.2,355 137.1,355 136.1,353.2 137.1,351.5 136.1,349.7 134.1,349.7 133.1,351.5 134.1,353.2 133.1,355 131,355 130,353.2 128,353.2 127,355 124.9,355 123.9,353.2 124.9,351.5 127,351.5 128,349.7 127,347.9 128,346.2 130,346.2 131,347.9 133.1,347.9 134.1,346.2 133.1,344.4 131,344.4 130,342.6 131,340.9 133.1,340.9 134.1,339.1 133.1,337.3 134.1,335.6 136.1,335.6 137.1,337.3 136.1,339.1 137.1,340.9 139.2,340.9 140.2,339.1 142.2,339.1 143.3,340.9 145.3,340.9 146.3,339.1 145.3,337.3 143.3,337.3 142.2,335.6 143.3,333.8 142.2,332 140.2,332 139.2,333.8 137.1,333.8 136.1,332 137.1,330.3 139.2,330.3 140.2,328.5 139.2,326.8 140.2,325 142.2,325 143.3,326.8 145.3,326.8 146.3,325 145.3,323.2 143.3,323.2 142.2,321.5 143.3,319.7 145.3,319.7 146.3,317.9 145.3,316.2 146.3,314.4 148.4,314.4 149.4,316.2 148.4,317.9 149.4,319.7 151.4,319.7 152.4,321.5 151.4,323.2 149.4,323.2 148.4,325 149.4,326.8 151.4,326.8 152.4,325 154.5,325 155.5,326.8 157.5,326.8 158.5,325 157.5,323.2 158.5,321.5 160.6,321.5 161.6,323.2 160.6,325 161.6,326.8 163.6,326.8 164.6,325 166.7,325 167.7,326.8 169.7,326.8 170.8,325 169.7,323.2 167.7,323.2 166.7,321.5 167.7,319.7 166.7,317.9 164.6,317.9 163.6,319.7 161.6,319.7 160.6,317.9 161.6,316.2 163.6,316.2 164.6,314.4 163.6,312.6 161.6,312.6 160.6,310.9 161.6,309.1 160.6,307.3 158.5,307.3 157.5,309.1 158.5,310.9 157.5,312.6 155.5,312.6 154.5,310.9 152.4,310.9 151.4,312.6 149.4,312.6 148.4,310.9 149.4,309.1 151.4,309.1 152.4,307.3 151.4,305.6 152.4,303.8 154.5,303.8 155.5,305.6 157.5,305.6 158.5,303.8 157.5,302.1 155.5,302.1 154.5,300.3 155.5,298.5 157.5,298.5 158.5,296.8 157.5,295 158.5,293.2 160.6,293.2 161.6,295 160.6,296.8 161.6,298.5 163.6,298.5 164.6,296.8 166.7,296.8 167.7,298.5 169.7,298.5 170.8,296.8 169.7,295 167.7,295 166.7,293.2 167.7,291.5 166.7,289.7 164.6,289.7 163.6,291.5 161.6,291.5 160.6,289.7 161.6,287.9 163.6,287.9 164.6,286.2 163.6,284.4 164.6,282.6 166.7,282.6 167.7,284.4 169.7,284.4 170.8,282.6 169.7,280.9 167.7,280.9 166.7,279.1 167.7,277.4 169.7,277.4 170.8,275.6 169.7,273.8 170.8,272.1 172.8,272.1 173.8,273.8 172.8,275.6 173.8,277.4 175.9,277.4 176.9,279.1 175.9,280.9 173.8,280.9 172.8,282.6 173.8,284.4 175.9,284.4 176.9,282.6 178.9,282.6 179.9,284.4 178.9,286.2 179.9,287.9 182,287.9 183,289.7 182,291.5 179.9,291.5 178.9,289.7 176.9,289.7 175.9,291.5 176.9,293.2 175.9,295 173.8,295 172.8,296.8 173.8,298.5 175.9,298.5 176.9,296.8 178.9,296.8 179.9,298.5 182,298.5 183,296.8 182,295 183,293.2 185,293.2 186,295 185,296.8 186,298.5 188.1,298.5 189.1,296.8 191.1,296.8 192.1,298.5 194.2,298.5 195.2,296.8 194.2,295 192.1,295 191.1,293.2 192.1,291.5 194.2,291.5 195.2,289.7 194.2,287.9 195.2,286.2 197.2,286.2 198.3,287.9 197.2,289.7 198.3,291.5 200.3,291.5 201.3,293.2 200.3,295 198.3,295 197.2,296.8 198.3,298.5 200.3,298.5 201.3,296.8 203.4,296.8 204.4,298.5 206.4,298.5 207.4,296.8 206.4,295 207.4,293.2 209.5,293.2 210.5,295 209.5,296.8 210.5,298.5 212.5,298.5 213.5,296.8 215.6,296.8 216.6,298.5 218.6,298.5 219.7,296.8 218.6,295 216.6,295 215.6,293.2 216.6,291.5 215.6,289.7 213.5,289.7 212.5,291.5 210.5,291.5 209.5,289.7 210.5,287.9 212.5,287.9 213.5,286.2 212.5,284.4 210.5,284.4 209.5,282.6 210.5,280.9 209.5,279.1 207.4,279.1 206.4,280.9 207.4,282.6 206.4,284.4 204.4,284.4 203.4,282.6 201.3,282.6 200.3,284.4 198.3,284.4 197.2,282.6 198.3,280.9 200.3,280.9 201.3,279.1 200.3,277.4 201.3,275.6 203.4,275.6 204.4,277.4 206.4,277.4 207.4,275.6 206.4,273.8 204.4,273.8 203.4,272.1 204.4,270.3 203.4,268.5 201.3,268.5 200.3,270.3 198.3,270.3 197.2,268.5 198.3,266.8 200.3,266.8 201.3,265 200.3,263.2 198.3,263.2 197.2,261.5 198.3,259.7 197.2,257.9 195.2,257.9 194.2,259.7 195.2,261.5 194.2,263.2 192.1,263.2 191.1,265 192.1,266.8 194.2,266.8 195.2,268.5 194.2,270.3 192.1,270.3 191.1,268.5 189.1,268.5 188.1,270.3 186,270.3 185,268.5 186,266.8 185,265 183,265 182,266.8 183,268.5 182,270.3 179.9,270.3 178.9,268.5 176.9,268.5 175.9,270.3 173.8,270.3 172.8,268.5 173.8,266.8 175.9,266.8 176.9,265 175.9,263.2 176.9,261.5 178.9,261.5 179.9,263.2 182,263.2 183,261.5 182,259.7 179.9,259.7 178.9,257.9 179.9,256.2 182,256.2 183,254.4 182,252.7 183,250.9 185,250.9 186,252.7 185,254.4 186,256.2 188.1,256.2 189.1,254.4 191.1,254.4 192.1,256.2 194.2,256.2 195.2,254.4 194.2,252.7 192.1,252.7 191.1,250.9 192.1,249.1 191.1,247.4 189.1,247.4 188.1,249.1 186,249.1 185,247.4 186,245.6 188.1,245.6 189.1,243.8 188.1,242.1 189.1,240.3 191.1,240.3 192.1,242.1 194.2,242.1 195.2,240.3 194.2,238.5 192.1,238.5 191.1,236.8 192.1,235 194.2,235 195.2,233.2 194.2,231.5 195.2,229.7 197.2,229.7 198.3,231.5 197.2,233.2 198.3,235 200.3,235 201.3,236.8 200.3,238.5 198.3,238.5 197.2,240.3 198.3,242.1 200.3,242.1 201.3,240.3 203.4,240.3 204.4,242.1 206.4,242.1 207.4,240.3 206.4,238.5 207.4,236.8 209.5,236.8 210.5,238.5 209.5,240.3 210.5,242.1 212.5,242.1 213.5,240.3 215.6,240.3 216.6,242.1 218.6,242.1 219.7,240.3 218.6,238.5 216.6,238.5 215.6,236.8 216.6,235 215.6,233.2 213.5,233.2 212.5,235 210.5,235 209.5,233.2 210.5,231.5 212.5,231.5 213.5,229.7 212.5,228 210.5,228 209.5,226.2 210.5,224.4 209.5,222.7 207.4,222.7 206.4,224.4 207.4,226.2 206.4,228 204.4,228 203.4,226.2 201.3,226.2 200.3,228 198.3,228 197.2,226.2 198.3,224.4 200.3,224.4 201.3,222.7 200.3,220.9 201.3,219.1 203.4,219.1 204.4,220.9 206.4,220.9 207.4,219.1 206.4,217.4 204.4,217.4 203.4,215.6 204.4,213.8 206.4,213.8 207.4,212.1 206.4,210.3 207.4,208.5 209.5,208.5 210.5,210.3 209.5,212.1 210.5,213.8 212.5,213.8 213.5,212.1 215.6,212.1 216.6,213.8 218.6,213.8 219.7,212.1 218.6,210.3 216.6,210.3 215.6,208.5 216.6,206.8 215.6,205 213.5,205 212.5,206.8 210.5,206.8 209.5,205 210.5,203.3 212.5,203.3 213.5,201.5 212.5,199.7 213.5,198 215.6,198 216.6,199.7 218.6,199.7 219.7,198 218.6,196.2 216.6,196.2 215.6,194.4 216.6,192.7 218.6,192.7 219.7,190.9 218.6,189.1 219.7,187.4 221.7,187.4 222.7,189.1 221.7,190.9 222.7,192.7 224.7,192.7 225.8,194.4 224.7,196.2 222.7,196.2 221.7,198 222.7,199.7 224.7,199.7 225.8,198 227.8,198 228.8,199.7 227.8,201.5 228.8,203.3 230.9,203.3 231.9,205 230.9,206.8 228.8,206.8 227.8,205 225.8,205 224.7,206.8 225.8,208.5 224.7,210.3 222.7,210.3 221.7,212.1 222.7,213.8 224.7,213.8 225.8,212.1 227.8,212.1 228.8,213.8 230.9,213.8 231.9,212.1 230.9,210.3 231.9,208.5 233.9,208.5 234.9,210.3 233.9,212.1 234.9,213.8 237,213.8 238,215.6 237,217.4 234.9,217.4 233.9,219.1 234.9,220.9 237,220.9 238,219.1 240,219.1 241,220.9 240,222.7 241,224.4 243.1,224.4 244.1,226.2 243.1,228 241,228 240,226.2 238,226.2 237,228 234.9,228 233.9,226.2 234.9,224.4 233.9,222.7 231.9,222.7 230.9,224.4 231.9,226.2 230.9,228 228.8,228 227.8,229.7 228.8,231.5 230.9,231.5 231.9,233.2 230.9,235 228.8,235 227.8,233.2 225.8,233.2 224.7,235 225.8,236.8 224.7,238.5 222.7,238.5 221.7,240.3 222.7,242.1 224.7,242.1 225.8,240.3 227.8,240.3 228.8,242.1 230.9,242.1 231.9,240.3 230.9,238.5 231.9,236.8 233.9,236.8 234.9,238.5 233.9,240.3 234.9,242.1 237,242.1 238,240.3 240,240.3 241,242.1 243.1,242.1 244.1,240.3 243.1,238.5 241,238.5 240,236.8 241,235 243.1,235 244.1,233.2 243.1,231.5 244.1,229.7 246.1,229.7 247.2,231.5 246.1,233.2 247.2,235 249.2,235 250.2,236.8 249.2,238.5 247.2,238.5 246.1,240.3 247.2,242.1 249.2,242.1 250.2,240.3 252.2,240.3 253.3,242.1 255.3,242.1 256.3,240.3 255.3,238.5 256.3,236.8 258.4,236.8 259.4,238.5 258.4,240.3 259.4,242.1 261.4,242.1 262.4,240.3 264.5,240.3 265.5,242.1 267.5,242.1 268.5,240.3 267.5,238.5 265.5,238.5 264.5,236.8 265.5,235 264.5,233.2 262.4,233.2 261.4,235 259.4,235 258.4,233.2 259.4,231.5 261.4,231.5 262.4,229.7 261.4,228 262.4,226.2 264.5,226.2 265.5,228 267.5,228 268.5,226.2 267.5,224.4 265.5,224.4 264.5,222.7 265.5,220.9 267.5,220.9 268.5,219.1 267.5,217.4 268.5,215.6 270.6,215.6 271.6,217.4 270.6,219.1 271.6,220.9 273.6,220.9 274.7,222.7 273.6,224.4 271.6,224.4 270.6,226.2 271.6,228 273.6,228 274.7,226.2 276.7,226.2 277.7,228 276.7,229.7 277.7,231.5 279.7,231.5 280.8,233.2 279.7,235 277.7,235 276.7,233.2 274.7,233.2 273.6,235 274.7,236.8 273.6,238.5 271.6,238.5 270.6,240.3 271.6,242.1 273.6,242.1 274.7,240.3 276.7,240.3 277.7,242.1 279.7,242.1 280.8,240.3 279.7,238.5 280.8,236.8 282.8,236.8 283.8,238.5 282.8,240.3 283.8,242.1 285.9,242.1 286.9,240.3 288.9,240.3 289.9,242.1 292,242.1 293,240.3 292,238.5 289.9,238.5 288.9,236.8 289.9,235 292,235 293,233.2 292,231.5 293,229.7 295,229.7 296,231.5 295,233.2 296,235 298.1,235 299.1,236.8 298.1,238.5 296,238.5 295,240.3 296,242.1 298.1,242.1 299.1,240.3 301.1,240.3 302.2,242.1 304.2,242.1 305.2,240.3 304.2,238.5 305.2,236.8 307.2,236.8 308.3,238.5 307.2,240.3 308.3,242.1 310.3,242.1 311.3,240.3 313.4,240.3 314.4,242.1 316.4,242.1 317.4,240.3 316.4,238.5 314.4,238.5 313.4,236.8 314.4,235 313.4,233.2 311.3,233.2 310.3,235 308.3,235 307.2,233.2 308.3,231.5 310.3,231.5 311.3,229.7 310.3,228 308.3,228 307.2,226.2 308.3,224.4 307.2,222.7 305.2,222.7 304.2,224.4 305.2,226.2 304.2,228 302.2,228 301.1,226.2 299.1,226.2 298.1,228 296,228 295,226.2 296,224.4 298.1,224.4 299.1,222.7 298.1,220.9 299.1,219.1 301.1,219.1 302.2,220.9 304.2,220.9 305.2,219.1 304.2,217.4 302.2,217.4 301.1,215.6 302.2,213.8 301.1,212.1 299.1,212.1 298.1,213.8 296,213.8 295,212.1 296,210.3 298.1,210.3 299.1,208.5 298.1,206.8 296,206.8 295,205 296,203.3 295,201.5 293,201.5 292,203.3 293,205 292,206.8 289.9,206.8 288.9,208.5 289.9,210.3 292,210.3 293,212.1 292,213.8 289.9,213.8 288.9,212.1 286.9,212.1 285.9,213.8 283.8,213.8 282.8,212.1 283.8,210.3 282.8,208.5 280.8,208.5 279.7,210.3 280.8,212.1 279.7,213.8 277.7,213.8 276.7,212.1 274.7,212.1 273.6,213.8 271.6,213.8 270.6,212.1 271.6,210.3 273.6,210.3 274.7,208.5 273.6,206.8 274.7,205 276.7,205 277.7,206.8 279.7,206.8 280.8,205 279.7,203.3 277.7,203.3 276.7,201.5 277.7,199.7 279.7,199.7 280.8,198 279.7,196.2 280.8,194.4 282.8,194.4 283.8,196.2 282.8,198 283.8,199.7 285.9,199.7 286.9,198 288.9,198 289.9,199.7 292,199.7 293,198 292,196.2 289.9,196.2 288.9,194.4 289.9,192.7 288.9,190.9 286.9,190.9 285.9,192.7 283.8,192.7 282.8,190.9 283.8,189.1 285.9,189.1 286.9,187.4 285.9,185.6 283.8,185.6 282.8,183.8 283.8,182.1 282.8,180.3 280.8,180.3 279.7,182.1 280.8,183.8 279.7,185.6 277.7,185.6 276.7,183.8 274.7,183.8 273.6,185.6 271.6,185.6 270.6,183.8 271.6,182.1 273.6,182.1 274.7,180.3 273.6,178.6 274.7,176.8 276.7,176.8 277.7,178.6 279.7,178.6 280.8,176.8 279.7,175 277.7,175 276.7,173.3 277.7,171.5 276.7,169.7 274.7,169.7 273.6,171.5 271.6,171.5 270.6,169.7 271.6,168 273.6,168 274.7,166.2 273.6,164.4 271.6,164.4 270.6,162.7 271.6,160.9 270.6,159.1 268.5,159.1 267.5,160.9 268.5,162.7 267.5,164.4 265.5,164.4 264.5,166.2 265.5,168 267.5,168 268.5,169.7 267.5,171.5 265.5,171.5 264.5,169.7 262.4,169.7 261.4,171.5 262.4,173.3 261.4,175 259.4,175 258.4,176.8 259.4,178.6 261.4,178.6 262.4,176.8 264.5,176.8 265.5,178.6 264.5,180.3 265.5,182.1 267.5,182.1 268.5,183.8 267.5,185.6 265.5,185.6 264.5,183.8 262.4,183.8 261.4,185.6 259.4,185.6 258.4,183.8 259.4,182.1 258.4,180.3 256.3,180.3 255.3,182.1 256.3,183.8 255.3,185.6 253.3,185.6 252.2,183.8 250.2,183.8 249.2,185.6 247.2,185.6 246.1,183.8 247.2,182.1 249.2,182.1 250.2,180.3 249.2,178.6 247.2,178.6 246.1,176.8 247.2,175 246.1,173.3 244.1,173.3 243.1,175 244.1,176.8 243.1,178.6 241,178.6 240,180.3 241,182.1 243.1,182.1 244.1,183.8 243.1,185.6 241,185.6 240,183.8 238,183.8 237,185.6 234.9,185.6 233.9,183.8 234.9,182.1 233.9,180.3 231.9,180.3 230.9,182.1 231.9,183.8 230.9,185.6 228.8,185.6 227.8,183.8 225.8,183.8 224.7,185.6 222.7,185.6 221.7,183.8 222.7,182.1 224.7,182.1 225.8,180.3 224.7,178.6 225.8,176.8 227.8,176.8 228.8,178.6 230.9,178.6 231.9,176.8 230.9,175 228.8,175 227.8,173.3 228.8,171.5 230.9,171.5 231.9,169.7 230.9,168 231.9,166.2 233.9,166.2 234.9,168 233.9,169.7 234.9,171.5 237,171.5 238,169.7 240,169.7 241,171.5 243.1,171.5 244.1,169.7 243.1,168 241,168 240,166.2 241,164.4 240,162.7 238,162.7 237,164.4 234.9,164.4 233.9,162.7 234.9,160.9 237,160.9 238,159.1 237,157.4 238,155.6 240,155.6 241,157.4 243.1,157.4 244.1,155.6 243.1,153.9 241,153.9 240,152.1 241,150.3 243.1,150.3 244.1,148.6 243.1,146.8 244.1,145 246.1,145 247.2,146.8 246.1,148.6 247.2,150.3 249.2,150.3 250.2,152.1 249.2,153.9 247.2,153.9 246.1,155.6 247.2,157.4 249.2,157.4 250.2,155.6 252.2,155.6 253.3,157.4 255.3,157.4 256.3,155.6 255.3,153.9 256.3,152.1 258.4,152.1 259.4,153.9 258.4,155.6 259.4,157.4 261.4,157.4 262.4,155.6 264.5,155.6 265.5,157.4 267.5,157.4 268.5,155.6 267.5,153.9 265.5,153.9 264.5,152.1 265.5,150.3 264.5,148.6 262.4,148.6 261.4,150.3 259.4,150.3 258.4,148.6 259.4,146.8 261.4,146.8 262.4,145 261.4,143.3 259.4,143.3 258.4,141.5 259.4,139.7 258.4,138 256.3,138 255.3,139.7 256.3,141.5 255.3,143.3 253.3,143.3 252.2,141.5 250.2,141.5 249.2,143.3 247.2,143.3 246.1,141.5 247.2,139.7 249.2,139.7 250.2,138 249.2,136.2 250.2,134.4 252.2,134.4 253.3,136.2 255.3,136.2 256.3,134.4 255.3,132.7 253.3,132.7 252.2,130.9 253.3,129.2 255.3,129.2 256.3,127.4 255.3,125.6 256.3,123.9 258.4,123.9 259.4,125.6 258.4,127.4 259.4,129.2 261.4,129.2 262.4,127.4 264.5,127.4 265.5,129.2 267.5,129.2 268.5,127.4 267.5,125.6 265.5,125.6 264.5,123.9 265.5,122.1 264.5,120.3 262.4,120.3 261.4,122.1 259.4,122.1 258.4,120.3 259.4,118.6 261.4,118.6 262.4,116.8 261.4,115 262.4,113.3 264.5,113.3 265.5,115 267.5,115 268.5,113.3 267.5,111.5 265.5,111.5 264.5,109.7 265.5,108 267.5,108 268.5,106.2 267.5,104.5 268.5,102.7 270.6,102.7 271.6,104.5 270.6,106.2 271.6,108 273.6,108 274.7,109.7 273.6,111.5 271.6,111.5 270.6,113.3 271.6,115 273.6,115 274.7,113.3 276.7,113.3 277.7,115 276.7,116.8 277.7,118.6 279.7,118.6 280.8,120.3 279.7,122.1 277.7,122.1 276.7,120.3 274.7,120.3 273.6,122.1 274.7,123.9 273.6,125.6 271.6,125.6 270.6,127.4 271.6,129.2 273.6,129.2 274.7,127.4 276.7,127.4 277.7,129.2 279.7,129.2 280.8,127.4 279.7,125.6 280.8,123.9 282.8,123.9 283.8,125.6 282.8,127.4 283.8,129.2 285.9,129.2 286.9,127.4 288.9,127.4 289.9,129.2 292,129.2 293,127.4 292,125.6 289.9,125.6 288.9,123.9 289.9,122.1 292,122.1 293,120.3 292,118.6 293,116.8 295,116.8 296,118.6 295,120.3 296,122.1 298.1,122.1 299.1,123.9 298.1,125.6 296,125.6 295,127.4 296,129.2 298.1,129.2 299.1,127.4 301.1,127.4 302.2,129.2 304.2,129.2 305.2,127.4 304.2,125.6 305.2,123.9 307.2,123.9 308.3,125.6 307.2,127.4 308.3,129.2 310.3,129.2 311.3,127.4 313.4,127.4 314.4,129.2 316.4,129.2 317.4,127.4 316.4,125.6 314.4,125.6 313.4,123.9 314.4,122.1 313.4,120.3 311.3,120.3 310.3,122.1 308.3,122.1 307.2,120.3 308.3,118.6 310.3,118.6 311.3,116.8 310.3,115 308.3,115 307.2,113.3 308.3,111.5 307.2,109.7 305.2,109.7 304.2,111.5 305.2,113.3 304.2,115 302.2,115 301.1,113.3 299.1,113.3 298.1,115 296,115 295,113.3 296,111.5 298.1,111.5 299.1,109.7 298.1,108 299.1,106.2 301.1,106.2 302.2,108 304.2,108 305.2,106.2 304.2,104.5 302.2,104.5 301.1,102.7 302.2,100.9 301.1,99.2 299.1,99.2 298.1,100.9 296,100.9 295,99.2 296,97.4 298.1,97.4 299.1,95.6 298.1,93.9 296,93.9 295,92.1 296,90.3 295,88.6 293,88.6 292,90.3 293,92.1 292,93.9 289.9,93.9 288.9,95.6 289.9,97.4 292,97.4 293,99.2 292,100.9 289.9,100.9 288.9,99.2 286.9,99.2 285.9,100.9 283.8,100.9 282.8,99.2 283.8,97.4 282.8,95.6 280.8,95.6 279.7,97.4 280.8,99.2 279.7,100.9 277.7,100.9 276.7,99.2 274.7,99.2 273.6,100.9 271.6,100.9 270.6,99.2 271.6,97.4 273.6,97.4 274.7,95.6 273.6,93.9 274.7,92.1 276.7,92.1 277.7,93.9 279.7,93.9 280.8,92.1 279.7,90.3 277.7,90.3 276.7,88.6 277.7,86.8 279.7,86.8 280.8,85 279.7,83.3 280.8,81.5 282.8,81.5 283.8,83.3 282.8,85 283.8,86.8 285.9,86.8 286.9,85 288.9,85 289.9,86.8 292,86.8 293,85 292,83.3 289.9,83.3 288.9,81.5 289.9,79.8 288.9,78 286.9,78 285.9,79.8 283.8,79.8 282.8,78 283.8,76.2 285.9,76.2 286.9,74.5 285.9,72.7 286.9,70.9 288.9,70.9 289.9,72.7 292,72.7 293,70.9 292,69.2 289.9,69.2 288.9,67.4 289.9,65.6 292,65.6 293,63.9 292,62.1 293,60.3 295,60.3 296,62.1 295,63.9 296,65.6 298.1,65.6 299.1,67.4 298.1,69.2 296,69.2 295,70.9 296,72.7 298.1,72.7 299.1,70.9 301.1,70.9 302.2,72.7 304.2,72.7 305.2,70.9 304.2,69.2 305.2,67.4 307.2,67.4 308.3,69.2 307.2,70.9 308.3,72.7 310.3,72.7 311.3,70.9 313.4,70.9 314.4,72.7 316.4,72.7 317.4,70.9 316.4,69.2 314.4,69.2 313.4,67.4 314.4,65.6 313.4,63.9 311.3,63.9 310.3,65.6 308.3,65.6 307.2,63.9 308.3,62.1 310.3,62.1 311.3,60.3 310.3,58.6 308.3,58.6 307.2,56.8 308.3,55.1 307.2,53.3 305.2,53.3 304.2,55.1 305.2,56.8 304.2,58.6 302.2,58.6 301.1,56.8 299.1,56.8 298.1,58.6 296,58.6 295,56.8 296,55.1 298.1,55.1 299.1,53.3 298.1,51.5 299.1,49.8 301.1,49.8 302.2,51.5 304.2,51.5 305.2,49.8 304.2,48 302.2,48 301.1,46.2 302.2,44.5 304.2,44.5 305.2,42.7 304.2,40.9 305.2,39.2 307.2,39.2 308.3,40.9 307.2,42.7 308.3,44.5 310.3,44.5 311.3,42.7 313.4,42.7 314.4,44.5 316.4,44.5 317.4,42.7 316.4,40.9 314.4,40.9 313.4,39.2 314.4,37.4 313.4,35.6 311.3,35.6 310.3,37.4 308.3,37.4 307.2,35.6 308.3,33.9 310.3,33.9 311.3,32.1 310.3,30.4 311.3,28.6 313.4,28.6 314.4,30.4 316.4,30.4 317.4,28.6 316.4,26.8 314.4,26.8 313.4,25.1 314.4,23.3 316.4,23.3 317.4,21.5 316.4,19.8 317.4,18 319.5,18 320.5,19.8 319.5,21.5 320.5,23.3 322.5,23.3 323.5,25.1 322.5,26.8 320.5,26.8 319.5,28.6 320.5,30.4 322.5,30.4 323.5,28.6 325.6,28.6 326.6,30.4 325.6,32.1 326.6,33.9 328.6,33.9 329.7,35.6 328.6,37.4 326.6,37.4 325.6,35.6 323.5,35.6 322.5,37.4 323.5,39.2 322.5,40.9 320.5,40.9 319.5,42.7 320.5,44.5 322.5,44.5 323.5,42.7 325.6,42.7 326.6,44.5 328.6,44.5 329.7,42.7 328.6,40.9 329.7,39.2 331.7,39.2 332.7,40.9 331.7,42.7 332.7,44.5 334.7,44.5 335.8,46.2 334.7,48 332.7,48 331.7,49.8 332.7,51.5 334.7,51.5 335.8,49.8 337.8,49.8 338.8,51.5 337.8,53.3 338.8,55.1 340.9,55.1 341.9,56.8 340.9,58.6 338.8,58.6 337.8,56.8 335.8,56.8 334.7,58.6 332.7,58.6 331.7,56.8 332.7,55.1 331.7,53.3 329.7,53.3 328.6,55.1 329.7,56.8 328.6,58.6 326.6,58.6 325.6,60.3 326.6,62.1 328.6,62.1 329.7,63.9 328.6,65.6 326.6,65.6 325.6,63.9 323.5,63.9 322.5,65.6 323.5,67.4 322.5,69.2 320.5,69.2 319.5,70.9 320.5,72.7 322.5,72.7 323.5,70.9 325.6,70.9 326.6,72.7 328.6,72.7 329.7,70.9 328.6,69.2 329.7,67.4 331.7,67.4 332.7,69.2 331.7,70.9 332.7,72.7 334.7,72.7 335.8,70.9 337.8,70.9 338.8,72.7 340.9,72.7 341.9,70.9 340.9,69.2 338.8,69.2 337.8,67.4 338.8,65.6 340.9,65.6 341.9,63.9 340.9,62.1 341.9,60.3 343.9,60.3 344.9,62.1 343.9,63.9 344.9,65.6 347,65.6 348,67.4 347,69.2 344.9,69.2 343.9,70.9 344.9,72.7 347,72.7 348,70.9 350,70.9 351,72.7 350,74.5 351,76.2 353.1,76.2 354.1,78 353.1,79.8 351,79.8 350,78 348,78 347,79.8 348,81.5 347,83.3 344.9,83.3 343.9,85 344.9,86.8 347,86.8 348,85 350,85 351,86.8 353.1,86.8 354.1,85 353.1,83.3 354.1,81.5 356.1,81.5 357.2,83.3 356.1,85 357.2,86.8 359.2,86.8 360.2,88.6 359.2,90.3 357.2,90.3 356.1,92.1 357.2,93.9 359.2,93.9 360.2,92.1 362.2,92.1 363.3,93.9 362.2,95.6 363.3,97.4 365.3,97.4 366.3,99.2 365.3,100.9 363.3,100.9 362.2,99.2 360.2,99.2 359.2,100.9 357.2,100.9 356.1,99.2 357.2,97.4 356.1,95.6 354.1,95.6 353.1,97.4 354.1,99.2 353.1,100.9 351,100.9 350,99.2 348,99.2 347,100.9 344.9,100.9 343.9,99.2 344.9,97.4 347,97.4 348,95.6 347,93.9 344.9,93.9 343.9,92.1 344.9,90.3 343.9,88.6 341.9,88.6 340.9,90.3 341.9,92.1 340.9,93.9 338.8,93.9 337.8,95.6 338.8,97.4 340.9,97.4 341.9,99.2 340.9,100.9 338.8,100.9 337.8,99.2 335.8,99.2 334.7,100.9 335.8,102.7 334.7,104.5 332.7,104.5 331.7,106.2 332.7,108 334.7,108 335.8,106.2 337.8,106.2 338.8,108 337.8,109.7 338.8,111.5 340.9,111.5 341.9,113.3 340.9,115 338.8,115 337.8,113.3 335.8,113.3 334.7,115 332.7,115 331.7,113.3 332.7,111.5 331.7,109.7 329.7,109.7 328.6,111.5 329.7,113.3 328.6,115 326.6,115 325.6,116.8 326.6,118.6 328.6,118.6 329.7,120.3 328.6,122.1 326.6,122.1 325.6,120.3 323.5,120.3 322.5,122.1 323.5,123.9 322.5,125.6 320.5,125.6 319.5,127.4 320.5,129.2 322.5,129.2 323.5,127.4 325.6,127.4 326.6,129.2 328.6,129.2 329.7,127.4 328.6,125.6 329.7,123.9 331.7,123.9 332.7,125.6 331.7,127.4 332.7,129.2 334.7,129.2 335.8,127.4 337.8,127.4 338.8,129.2 340.9,129.2 341.9,127.4 340.9,125.6 338.8,125.6 337.8,123.9 338.8,122.1 340.9,122.1 341.9,120.3 340.9,118.6 341.9,116.8 343.9,116.8 344.9,118.6 343.9,120.3 344.9,122.1 347,122.1 348,123.9 347,125.6 344.9,125.6 343.9,127.4 344.9,129.2 347,129.2 348,127.4 350,127.4 351,129.2 353.1,129.2 354.1,127.4 353.1,125.6 354.1,123.9 356.1,123.9 357.2,125.6 356.1,127.4 357.2,129.2 359.2,129.2 360.2,127.4 362.2,127.4 363.3,129.2 365.3,129.2 366.3,127.4 365.3,125.6 363.3,125.6 362.2,123.9 363.3,122.1 362.2,120.3 360.2,120.3 359.2,122.1 357.2,122.1 356.1,120.3 357.2,118.6 359.2,118.6 360.2,116.8 359.2,115 360.2,113.3 362.2,113.3 363.3,115 365.3,115 366.3,113.3 365.3,111.5 363.3,111.5 362.2,109.7 363.3,108 365.3,108 366.3,106.2 365.3,104.5 366.3,102.7 368.4,102.7 369.4,104.5 368.4,106.2 369.4,108 371.4,108 372.4,109.7 371.4,111.5 369.4,111.5 368.4,113.3 369.4,115 371.4,115 372.4,113.3 374.5,113.3 375.5,115 374.5,116.8 375.5,118.6 377.5,118.6 378.5,120.3 377.5,122.1 375.5,122.1 374.5,120.3 372.4,120.3 371.4,122.1 372.4,123.9 371.4,125.6 369.4,125.6 368.4,127.4 369.4,129.2 371.4,129.2 372.4,127.4 374.5,127.4 375.5,129.2 377.5,129.2 378.5,127.4 377.5,125.6 378.5,123.9 380.6,123.9 381.6,125.6 380.6,127.4 381.6,129.2 383.6,129.2 384.7,130.9 383.6,132.7 381.6,132.7 380.6,134.4 381.6,136.2 383.6,136.2 384.7,134.4 386.7,134.4 387.7,136.2 386.7,138 387.7,139.7 389.7,139.7 390.8,141.5 389.7,143.3 387.7,143.3 386.7,141.5 384.7,141.5 383.6,143.3 381.6,143.3 380.6,141.5 381.6,139.7 380.6,138 378.5,138 377.5,139.7 378.5,141.5 377.5,143.3 375.5,143.3 374.5,145 375.5,146.8 377.5,146.8 378.5,148.6 377.5,150.3 375.5,150.3 374.5,148.6 372.4,148.6 371.4,150.3 372.4,152.1 371.4,153.9 369.4,153.9 368.4,155.6 369.4,157.4 371.4,157.4 372.4,155.6 374.5,155.6 375.5,157.4 377.5,157.4 378.5,155.6 377.5,153.9 378.5,152.1 380.6,152.1 381.6,153.9 380.6,155.6 381.6,157.4 383.6,157.4 384.7,155.6 386.7,155.6 387.7,157.4 389.7,157.4 390.8,155.6 389.7,153.9 387.7,153.9 386.7,152.1 387.7,150.3 389.7,150.3 390.8,148.6 389.7,146.8 390.8,145 392.8,145 393.8,146.8 392.8,148.6 393.8,150.3 395.9,150.3 396.9,152.1 395.9,153.9 393.8,153.9 392.8,155.6 393.8,157.4 395.9,157.4 396.9,155.6 398.9,155.6 399.9,157.4 398.9,159.1 399.9,160.9 402,160.9 403,162.7 402,164.4 399.9,164.4 398.9,162.7 396.9,162.7 395.9,164.4 396.9,166.2 395.9,168 393.8,168 392.8,169.7 393.8,171.5 395.9,171.5 396.9,169.7 398.9,169.7 399.9,171.5 402,171.5 403,169.7 402,168 403,166.2 405,166.2 406,168 405,169.7 406,171.5 408.1,171.5 409.1,173.3 408.1,175 406,175 405,176.8 406,178.6 408.1,178.6 409.1,176.8 411.1,176.8 412.2,178.6 411.1,180.3 412.2,182.1 414.2,182.1 415.2,183.8 414.2,185.6 412.2,185.6 411.1,183.8 409.1,183.8 408.1,185.6 406,185.6 405,183.8 406,182.1 405,180.3 403,180.3 402,182.1 403,183.8 402,185.6 399.9,185.6 398.9,183.8 396.9,183.8 395.9,185.6 393.8,185.6 392.8,183.8 393.8,182.1 395.9,182.1 396.9,180.3 395.9,178.6 393.8,178.6 392.8,176.8 393.8,175 392.8,173.3 390.8,173.3 389.7,175 390.8,176.8 389.7,178.6 387.7,178.6 386.7,180.3 387.7,182.1 389.7,182.1 390.8,183.8 389.7,185.6 387.7,185.6 386.7,183.8 384.7,183.8 383.6,185.6 381.6,185.6 380.6,183.8 381.6,182.1 380.6,180.3 378.5,180.3 377.5,182.1 378.5,183.8 377.5,185.6 375.5,185.6 374.5,183.8 372.4,183.8 371.4,185.6 369.4,185.6 368.4,183.8 369.4,182.1 371.4,182.1 372.4,180.3 371.4,178.6 372.4,176.8 374.5,176.8 375.5,178.6 377.5,178.6 378.5,176.8 377.5,175 375.5,175 374.5,173.3 375.5,171.5 374.5,169.7 372.4,169.7 371.4,171.5 369.4,171.5 368.4,169.7 369.4,168 371.4,168 372.4,166.2 371.4,164.4 369.4,164.4 368.4,162.7 369.4,160.9 368.4,159.1 366.3,159.1 365.3,160.9 366.3,162.7 365.3,164.4 363.3,164.4 362.2,166.2 363.3,168 365.3,168 366.3,169.7 365.3,171.5 363.3,171.5 362.2,169.7 360.2,169.7 359.2,171.5 360.2,173.3 359.2,175 357.2,175 356.1,176.8 357.2,178.6 359.2,178.6 360.2,176.8 362.2,176.8 363.3,178.6 362.2,180.3 363.3,182.1 365.3,182.1 366.3,183.8 365.3,185.6 363.3,185.6 362.2,183.8 360.2,183.8 359.2,185.6 357.2,185.6 356.1,183.8 357.2,182.1 356.1,180.3 354.1,180.3 353.1,182.1 354.1,183.8 353.1,185.6 351,185.6 350,187.4 351,189.1 353.1,189.1 354.1,190.9 353.1,192.7 351,192.7 350,190.9 348,190.9 347,192.7 348,194.4 347,196.2 344.9,196.2 343.9,198 344.9,199.7 347,199.7 348,198 350,198 351,199.7 353.1,199.7 354.1,198 353.1,196.2 354.1,194.4 356.1,194.4 357.2,196.2 356.1,198 357.2,199.7 359.2,199.7 360.2,201.5 359.2,203.3 357.2,203.3 356.1,205 357.2,206.8 359.2,206.8 360.2,205 362.2,205 363.3,206.8 362.2,208.5 363.3,210.3 365.3,210.3 366.3,212.1 365.3,213.8 363.3,213.8 362.2,212.1 360.2,212.1 359.2,213.8 357.2,213.8 356.1,212.1 357.2,210.3 356.1,208.5 354.1,208.5 353.1,210.3 354.1,212.1 353.1,213.8 351,213.8 350,212.1 348,212.1 347,213.8 344.9,213.8 343.9,212.1 344.9,210.3 347,210.3 348,208.5 347,206.8 344.9,206.8 343.9,205 344.9,203.3 343.9,201.5 341.9,201.5 340.9,203.3 341.9,205 340.9,206.8 338.8,206.8 337.8,208.5 338.8,210.3 340.9,210.3 341.9,212.1 340.9,213.8 338.8,213.8 337.8,212.1 335.8,212.1 334.7,213.8 335.8,215.6 334.7,217.4 332.7,217.4 331.7,219.1 332.7,220.9 334.7,220.9 335.8,219.1 337.8,219.1 338.8,220.9 337.8,222.7 338.8,224.4 340.9,224.4 341.9,226.2 340.9,228 338.8,228 337.8,226.2 335.8,226.2 334.7,228 332.7,228 331.7,226.2 332.7,224.4 331.7,222.7 329.7,222.7 328.6,224.4 329.7,226.2 328.6,228 326.6,228 325.6,229.7 326.6,231.5 328.6,231.5 329.7,233.2 328.6,235 326.6,235 325.6,233.2 323.5,233.2 322.5,235 323.5,236.8 322.5,238.5 320.5,238.5 319.5,240.3 320.5,242.1 322.5,242.1 323.5,240.3 325.6,240.3 326.6,242.1 328.6,242.1 329.7,240.3 328.6,238.5 329.7,236.8 331.7,236.8 332.7,238.5 331.7,240.3 332.7,242.1 334.7,242.1 335.8,240.3 337.8,240.3 338.8,242.1 340.9,242.1 341.9,240.3 340.9,238.5 338.8,238.5 337.8,236.8 338.8,235 340.9,235 341.9,233.2 340.9,231.5 341.9,229.7 343.9,229.7 344.9,231.5 343.9,233.2 344.9,235 347,235 348,236.8 347,238.5 344.9,238.5 343.9,240.3 344.9,242.1 347,242.1 348,240.3 350,240.3 351,242.1 353.1,242.1 354.1,240.3 353.1,238.5 354.1,236.8 356.1,236.8 357.2,238.5 356.1,240.3 357.2,242.1 359.2,242.1 360.2,240.3 362.2,240.3 363.3,242.1 365.3,242.1 366.3,240.3 365.3,238.5 363.3,238.5 362.2,236.8 363.3,235 362.2,233.2 360.2,233.2 359.2,235 357.2,235 356.1,233.2 357.2,231.5 359.2,231.5 360.2,229.7 359.2,228 360.2,226.2 362.2,226.2 363.3,228 365.3,228 366.3,226.2 365.3,224.4 363.3,224.4 362.2,222.7 363.3,220.9 365.3,220.9 366.3,219.1 365.3,217.4 366.3,215.6 368.4,215.6 369.4,217.4 368.4,219.1 369.4,220.9 371.4,220.9 372.4,222.7 371.4,224.4 369.4,224.4 368.4,226.2 369.4,228 371.4,228 372.4,226.2 374.5,226.2 375.5,228 374.5,229.7 375.5,231.5 377.5,231.5 378.5,233.2 377.5,235 375.5,235 374.5,233.2 372.4,233.2 371.4,235 372.4,236.8 371.4,238.5 369.4,238.5 368.4,240.3 369.4,242.1 371.4,242.1 372.4,240.3 374.5,240.3 375.5,242.1 377.5,242.1 378.5,240.3 377.5,238.5 378.5,236.8 380.6,236.8 381.6,238.5 380.6,240.3 381.6,242.1 383.6,242.1 384.7,240.3 386.7,240.3 387.7,242.1 389.7,242.1 390.8,240.3 389.7,238.5 387.7,238.5 386.7,236.8 387.7,235 389.7,235 390.8,233.2 389.7,231.5 390.8,229.7 392.8,229.7 393.8,231.5 392.8,233.2 393.8,235 395.9,235 396.9,236.8 395.9,238.5 393.8,238.5 392.8,240.3 393.8,242.1 395.9,242.1 396.9,240.3 398.9,240.3 399.9,242.1 402,242.1 403,240.3 402,238.5 403,236.8 405,236.8 406,238.5 405,240.3 406,242.1 408.1,242.1 409.1,240.3 411.1,240.3 412.2,242.1 414.2,242.1 415.2,240.3 414.2,238.5 412.2,238.5 411.1,236.8 412.2,235 411.1,233.2 409.1,233.2 408.1,235 406,235 405,233.2 406,231.5 408.1,231.5 409.1,229.7 408.1,228 406,228 405,226.2 406,224.4 405,222.7 403,222.7 402,224.4 403,226.2 402,228 399.9,228 398.9,226.2 396.9,226.2 395.9,228 393.8,228 392.8,226.2 393.8,224.4 395.9,224.4 396.9,222.7 395.9,220.9 396.9,219.1 398.9,219.1 399.9,220.9 402,220.9 403,219.1 402,217.4 399.9,217.4 398.9,215.6 399.9,213.8 402,213.8 403,212.1 402,210.3 403,208.5 405,208.5 406,210.3 405,212.1 406,213.8 408.1,213.8 409.1,212.1 411.1,212.1 412.2,213.8 414.2,213.8 415.2,212.1 414.2,210.3 412.2,210.3 411.1,208.5 412.2,206.8 411.1,205 409.1,205 408.1,206.8 406,206.8 405,205 406,203.3 408.1,203.3 409.1,201.5 408.1,199.7 409.1,198 411.1,198 412.2,199.7 414.2,199.7 415.2,198 414.2,196.2 412.2,196.2 411.1,194.4 412.2,192.7 414.2,192.7 415.2,190.9 414.2,189.1 415.2,187.4 417.2,187.4 418.3,189.1 417.2,190.9 418.3,192.7 420.3,192.7 421.3,194.4 420.3,196.2 418.3,196.2 417.2,198 418.3,199.7 420.3,199.7 421.3,198 423.4,198 424.4,199.7 423.4,201.5 424.4,203.3 426.4,203.3 427.4,205 426.4,206.8 424.4,206.8 423.4,205 421.3,205 420.3,206.8 421.3,208.5 420.3,210.3 418.3,210.3 417.2,212.1 418.3,213.8 420.3,213.8 421.3,212.1 423.4,212.1 424.4,213.8 426.4,213.8 427.4,212.1 426.4,210.3 427.4,208.5 429.5,208.5 430.5,210.3 429.5,212.1 430.5,213.8 432.5,213.8 433.5,215.6 432.5,217.4 430.5,217.4 429.5,219.1 430.5,220.9 432.5,220.9 433.5,219.1 435.6,219.1 436.6,220.9 435.6,222.7 436.6,224.4 438.6,224.4 439.7,226.2 438.6,228 436.6,228 435.6,226.2 433.5,226.2 432.5,228 430.5,228 429.5,226.2 430.5,224.4 429.5,222.7 427.4,222.7 426.4,224.4 427.4,226.2 426.4,228 424.4,228 423.4,229.7 424.4,231.5 426.4,231.5 427.4,233.2 426.4,235 424.4,235 423.4,233.2 421.3,233.2 420.3,235 421.3,236.8 420.3,238.5 418.3,238.5 417.2,240.3 418.3,242.1 420.3,242.1 421.3,240.3 423.4,240.3 424.4,242.1 426.4,242.1 427.4,240.3 426.4,238.5 427.4,236.8 429.5,236.8 430.5,238.5 429.5,240.3 430.5,242.1 432.5,242.1 433.5,240.3 435.6,240.3 436.6,242.1 438.6,242.1 439.7,240.3 438.6,238.5 436.6,238.5 435.6,236.8 436.6,235 438.6,235 439.7,233.2 438.6,231.5 439.7,229.7 441.7,229.7 442.7,231.5 441.7,233.2 442.7,235 444.8,235 445.8,236.8 444.8,238.5 442.7,238.5 441.7,240.3 442.7,242.1 444.8,242.1 445.8,240.3 447.8,240.3 448.8,242.1 447.8,243.8 448.8,245.6 450.9,245.6 451.9,247.4 450.9,249.1 448.8,249.1 447.8,247.4 445.8,247.4 444.8,249.1 445.8,250.9 444.8,252.7 442.7,252.7 441.7,254.4 442.7,256.2 444.8,256.2 445.8,254.4 447.8,254.4 448.8,256.2 450.9,256.2 451.9,254.4 450.9,252.7 451.9,250.9 453.9,250.9 454.9,252.7 453.9,254.4 454.9,256.2 457,256.2 458,257.9 457,259.7 454.9,259.7 453.9,261.5 454.9,263.2 457,263.2 458,261.5 460,261.5 461,263.2 460,265 461,266.8 463.1,266.8 464.1,268.5 463.1,270.3 461,270.3 460,268.5 458,268.5 457,270.3 454.9,270.3 453.9,268.5 454.9,266.8 453.9,265 451.9,265 450.9,266.8 451.9,268.5 450.9,270.3 448.8,270.3 447.8,268.5 445.8,268.5 444.8,270.3 442.7,270.3 441.7,268.5 442.7,266.8 444.8,266.8 445.8,265 444.8,263.2 442.7,263.2 441.7,261.5 442.7,259.7 441.7,257.9 439.7,257.9 438.6,259.7 439.7,261.5 438.6,263.2 436.6,263.2 435.6,265 436.6,266.8 438.6,266.8 439.7,268.5 438.6,270.3 436.6,270.3 435.6,268.5 433.5,268.5 432.5,270.3 433.5,272.1 432.5,273.8 430.5,273.8 429.5,275.6 430.5,277.4 432.5,277.4 433.5,275.6 435.6,275.6 436.6,277.4 435.6,279.1 436.6,280.9 438.6,280.9 439.7,282.6 438.6,284.4 436.6,284.4 435.6,282.6 433.5,282.6 432.5,284.4 430.5,284.4 429.5,282.6 430.5,280.9 429.5,279.1 427.4,279.1 426.4,280.9 427.4,282.6 426.4,284.4 424.4,284.4 423.4,286.2 424.4,287.9 426.4,287.9 427.4,289.7 426.4,291.5 424.4,291.5 423.4,289.7 421.3,289.7 420.3,291.5 421.3,293.2 420.3,295 418.3,295 417.2,296.8 418.3,298.5 420.3,298.5 421.3,296.8 423.4,296.8 424.4,298.5 426.4,298.5 427.4,296.8 426.4,295 427.4,293.2 429.5,293.2 430.5,295 429.5,296.8 430.5,298.5 432.5,298.5 433.5,296.8 435.6,296.8 436.6,298.5 438.6,298.5 439.7,296.8 438.6,295 436.6,295 435.6,293.2 436.6,291.5 438.6,291.5 439.7,289.7 438.6,287.9 439.7,286.2 441.7,286.2 442.7,287.9 441.7,289.7 442.7,291.5 444.8,291.5 445.8,293.2 444.8,295 442.7,295 441.7,296.8 442.7,298.5 444.8,298.5 445.8,296.8 447.8,296.8 448.8,298.5 450.9,298.5 451.9,296.8 450.9,295 451.9,293.2 453.9,293.2 454.9,295 453.9,296.8 454.9,298.5 457,298.5 458,296.8 460,296.8 461,298.5 463.1,298.5 464.1,296.8 463.1,295 461,295 460,293.2 461,291.5 460,289.7 458,289.7 457,291.5 454.9,291.5 453.9,289.7 454.9,287.9 457,287.9 458,286.2 457,284.4 458,282.6 460,282.6 461,284.4 463.1,284.4 464.1,282.6 463.1,280.9 461,280.9 460,279.1 461,277.4 463.1,277.4 464.1,275.6 463.1,273.8 464.1,272.1 466.1,272.1 467.2,273.8 466.1,275.6 467.2,277.4 469.2,277.4 470.2,279.1 469.2,280.9 467.2,280.9 466.1,282.6 467.2,284.4 469.2,284.4 470.2,282.6 472.3,282.6 473.3,284.4 472.3,286.2 473.3,287.9 475.3,287.9 476.3,289.7 475.3,291.5 473.3,291.5 472.3,289.7 470.2,289.7 469.2,291.5 470.2,293.2 469.2,295 467.2,295 466.1,296.8 467.2,298.5 469.2,298.5 470.2,296.8 472.3,296.8 473.3,298.5 475.3,298.5 476.3,296.8 475.3,295 476.3,293.2 478.4,293.2 479.4,295 478.4,296.8 479.4,298.5 481.4,298.5 482.4,300.3 481.4,302.1 479.4,302.1 478.4,303.8 479.4,305.6 481.4,305.6 482.4,303.8 484.5,303.8 485.5,305.6 484.5,307.3 485.5,309.1 487.5,309.1 488.5,310.9 487.5,312.6 485.5,312.6 484.5,310.9 482.4,310.9 481.4,312.6 479.4,312.6 478.4,310.9 479.4,309.1 478.4,307.3 476.3,307.3 475.3,309.1 476.3,310.9 475.3,312.6 473.3,312.6 472.3,314.4 473.3,316.2 475.3,316.2 476.3,317.9 475.3,319.7 473.3,319.7 472.3,317.9 470.2,317.9 469.2,319.7 470.2,321.5 469.2,323.2 467.2,323.2 466.1,325 467.2,326.8 469.2,326.8 470.2,325 472.3,325 473.3,326.8 475.3,326.8 476.3,325 475.3,323.2 476.3,321.5 478.4,321.5 479.4,323.2 478.4,325 479.4,326.8 481.4,326.8 482.4,325 484.5,325 485.5,326.8 487.5,326.8 488.5,325 487.5,323.2 485.5,323.2 484.5,321.5 485.5,319.7 487.5,319.7 488.5,317.9 487.5,316.2 488.5,314.4 490.6,314.4 491.6,316.2 490.6,317.9 491.6,319.7 493.6,319.7 494.7,321.5 493.6,323.2 491.6,323.2 490.6,325 491.6,326.8 493.6,326.8 494.7,325 496.7,325 497.7,326.8 496.7,328.5 497.7,330.3 499.8,330.3 500.8,332 499.8,333.8 497.7,333.8 496.7,332 494.7,332 493.6,333.8 494.7,335.6 493.6,337.3 491.6,337.3 490.6,339.1 491.6,340.9 493.6,340.9 494.7,339.1 496.7,339.1 497.7,340.9 499.8,340.9 500.8,339.1 499.8,337.3 500.8,335.6 502.8,335.6 503.8,337.3 502.8,339.1 503.8,340.9 505.9,340.9 506.9,342.6 505.9,344.4 503.8,344.4 502.8,346.2 503.8,347.9 505.9,347.9 506.9,346.2 508.9,346.2 509.9,347.9 508.9,349.7 509.9,351.5 512,351.5 513,353.2 512,355 509.9,355 508.9,353.2 506.9,353.2 505.9,355 503.8,355 502.8,353.2 503.8,351.5 502.8,349.7 500.8,349.7 499.8,351.5 500.8,353.2 499.8,355 497.7,355 496.7,353.2 494.7,353.2 493.6,355 491.6,355 490.6,353.2 491.6,351.5 493.6,351.5 494.7,349.7 493.6,347.9 491.6,347.9 490.6,346.2 491.6,344.4 490.6,342.6 488.5,342.6 487.5,344.4 488.5,346.2 487.5,347.9 485.5,347.9 484.5,349.7 485.5,351.5 487.5,351.5 488.5,353.2 487.5,355 485.5,355 484.5,353.2 482.4,353.2 481.4,355 479.4,355 478.4,353.2 479.4,351.5 478.4,349.7 476.3,349.7 475.3,351.5 476.3,353.2 475.3,355 473.3,355 472.3,353.2 470.2,353.2 469.2,355 467.2,355 466.1,353.2 467.2,351.5 469.2,351.5 470.2,349.7 469.2,347.9 470.2,346.2 472.3,346.2 473.3,347.9 475.3,347.9 476.3,346.2 475.3,344.4 473.3,344.4 472.3,342.6 473.3,340.9 472.3,339.1 470.2,339.1 469.2,340.9 467.2,340.9 466.1,339.1 467.2,337.3 469.2,337.3 470.2,335.6 469.2,333.8 467.2,333.8 466.1,332 467.2,330.3 466.1,328.5 464.1,328.5 463.1,330.3 464.1,332 463.1,333.8 461,333.8 460,335.6 461,337.3 463.1,337.3 464.1,339.1 463.1,340.9 461,340.9 460,339.1 458,339.1 457,340.9 458,342.6 457,344.4 454.9,344.4 453.9,346.2 454.9,347.9 457,347.9 458,346.2 460,346.2 461,347.9 460,349.7 461,351.5 463.1,351.5 464.1,353.2 463.1,355 461,355 460,353.2 458,353.2 457,355 454.9,355 453.9,353.2 454.9,351.5 453.9,349.7 451.9,349.7 450.9,351.5 451.9,353.2 450.9,355 448.8,355 447.8,353.2 445.8,353.2 444.8,355 442.7,355 441.7,353.2 442.7,351.5 444.8,351.5 445.8,349.7 444.8,347.9 442.7,347.9 441.7,346.2 442.7,344.4 441.7,342.6 439.7,342.6 438.6,344.4 439.7,346.2 438.6,347.9 436.6,347.9 435.6,349.7 436.6,351.5 438.6,351.5 439.7,353.2 438.6,355 436.6,355 435.6,353.2 433.5,353.2 432.5,355 430.5,355 429.5,353.2 430.5,351.5 429.5,349.7 427.4,349.7 426.4,351.5 427.4,353.2 426.4,355 424.4,355 423.4,353.2 421.3,353.2 420.3,355 418.3,355 417.2,353.2 418.3,351.5 420.3,351.5 421.3,349.7 420.3,347.9 421.3,346.2 423.4,346.2 424.4,347.9 426.4,347.9 427.4,346.2 426.4,344.4 424.4,344.4 423.4,342.6 424.4,340.9 426.4,340.9 427.4,339.1 426.4,337.3 427.4,335.6 429.5,335.6 430.5,337.3 429.5,339.1 430.5,340.9 432.5,340.9 433.5,339.1 435.6,339.1 436.6,340.9 438.6,340.9 439.7,339.1 438.6,337.3 436.6,337.3 435.6,335.6 436.6,333.8 435.6,332 433.5,332 432.5,333.8 430.5,333.8 429.5,332 430.5,330.3 432.5,330.3 433.5,328.5 432.5,326.8 430.5,326.8 429.5,325 430.5,323.2 429.5,321.5 427.4,321.5 426.4,323.2 427.4,325 426.4,326.8 424.4,326.8 423.4,325 421.3,325 420.3,326.8 418.3,326.8 417.2,325 418.3,323.2 420.3,323.2 421.3,321.5 420.3,319.7 421.3,317.9 423.4,317.9 424.4,319.7 426.4,319.7 427.4,317.9 426.4,316.2 424.4,316.2 423.4,314.4 424.4,312.6 423.4,310.9 421.3,310.9 420.3,312.6 418.3,312.6 417.2,310.9 418.3,309.1 420.3,309.1 421.3,307.3 420.3,305.6 418.3,305.6 417.2,303.8 418.3,302.1 417.2,300.3 415.2,300.3 414.2,302.1 415.2,303.8 414.2,305.6 412.2,305.6 411.1,307.3 412.2,309.1 414.2,309.1 415.2,310.9 414.2,312.6 412.2,312.6 411.1,310.9 409.1,310.9 408.1,312.6 409.1,314.4 408.1,316.2 406,316.2 405,317.9 406,319.7 408.1,319.7 409.1,317.9 411.1,317.9 412.2,319.7 411.1,321.5 412.2,323.2 414.2,323.2 415.2,325 414.2,326.8 412.2,326.8 411.1,325 409.1,325 408.1,326.8 406,326.8 405,325 406,323.2 405,321.5 403,321.5 402,323.2 403,325 402,326.8 399.9,326.8 398.9,328.5 399.9,330.3 402,330.3 403,332 402,333.8 399.9,333.8 398.9,332 396.9,332 395.9,333.8 396.9,335.6 395.9,337.3 393.8,337.3 392.8,339.1 393.8,340.9 395.9,340.9 396.9,339.1 398.9,339.1 399.9,340.9 402,340.9 403,339.1 402,337.3 403,335.6 405,335.6 406,337.3 405,339.1 406,340.9 408.1,340.9 409.1,342.6 408.1,344.4 406,344.4 405,346.2 406,347.9 408.1,347.9 409.1,346.2 411.1,346.2 412.2,347.9 411.1,349.7 412.2,351.5 414.2,351.5 415.2,353.2 414.2,355 412.2,355 411.1,353.2 409.1,353.2 408.1,355 406,355 405,353.2 406,351.5 405,349.7 403,349.7 402,351.5 403,353.2 402,355 399.9,355 398.9,353.2 396.9,353.2 395.9,355 393.8,355 392.8,353.2 393.8,351.5 395.9,351.5 396.9,349.7 395.9,347.9 393.8,347.9 392.8,346.2 393.8,344.4 392.8,342.6 390.8,342.6 389.7,344.4 390.8,346.2 389.7,347.9 387.7,347.9 386.7,349.7 387.7,351.5 389.7,351.5 390.8,353.2 389.7,355 387.7,355 386.7,353.2 384.7,353.2 383.6,355 384.7,356.7 383.6,358.5 381.6,358.5 380.6,360.3 381.6,362 383.6,362 384.7,360.3 386.7,360.3 387.7,362 386.7,363.8 387.7,365.6 389.7,365.6 390.8,367.3 389.7,369.1 387.7,369.1 386.7,367.3 384.7,367.3 383.6,369.1 381.6,369.1 380.6,367.3 381.6,365.6 380.6,363.8 378.5,363.8 377.5,365.6 378.5,367.3 377.5,369.1 375.5,369.1 374.5,370.9 375.5,372.6 377.5,372.6 378.5,374.4 377.5,376.2 375.5,376.2 374.5,374.4 372.4,374.4 371.4,376.2 372.4,377.9 371.4,379.7 369.4,379.7 368.4,381.4 369.4,383.2 371.4,383.2 372.4,381.4 374.5,381.4 375.5,383.2 377.5,383.2 378.5,381.4 377.5,379.7 378.5,377.9 380.6,377.9 381.6,379.7 380.6,381.4 381.6,383.2 383.6,383.2 384.7,381.4 386.7,381.4 387.7,383.2 389.7,383.2 390.8,381.4 389.7,379.7 387.7,379.7 386.7,377.9 387.7,376.2 389.7,376.2 390.8,374.4 389.7,372.6 390.8,370.9 392.8,370.9 393.8,372.6 392.8,374.4 393.8,376.2 395.9,376.2 396.9,377.9 395.9,379.7 393.8,379.7 392.8,381.4 393.8,383.2 395.9,383.2 396.9,381.4 398.9,381.4 399.9,383.2 398.9,385 399.9,386.7 402,386.7 403,388.5 402,390.3 399.9,390.3 398.9,388.5 396.9,388.5 395.9,390.3 396.9,392 395.9,393.8 393.8,393.8 392.8,395.6 393.8,397.3 395.9,397.3 396.9,395.6 398.9,395.6 399.9,397.3 402,397.3 403,395.6 402,393.8 403,392 405,392 406,393.8 405,395.6 406,397.3 408.1,397.3 409.1,399.1 408.1,400.9 406,400.9 405,402.6 406,404.4 408.1,404.4 409.1,402.6 411.1,402.6 412.2,404.4 411.1,406.1 412.2,407.9 414.2,407.9 415.2,409.7 414.2,411.4 412.2,411.4 411.1,409.7 409.1,409.7 408.1,411.4 406,411.4 405,409.7 406,407.9 405,406.1 403,406.1 402,407.9 403,409.7 402,411.4 399.9,411.4 398.9,409.7 396.9,409.7 395.9,411.4 393.8,411.4 392.8,409.7 393.8,407.9 395.9,407.9 396.9,406.1 395.9,404.4 393.8,404.4 392.8,402.6 393.8,400.9 392.8,399.1 390.8,399.1 389.7,400.9 390.8,402.6 389.7,404.4 387.7,404.4 386.7,406.1 387.7,407.9 389.7,407.9 390.8,409.7 389.7,411.4 387.7,411.4 386.7,409.7 384.7,409.7 383.6,411.4 381.6,411.4 380.6,409.7 381.6,407.9 380.6,406.1 378.5,406.1 377.5,407.9 378.5,409.7 377.5,411.4 375.5,411.4 374.5,409.7 372.4,409.7 371.4,411.4 369.4,411.4 368.4,409.7 369.4,407.9 371.4,407.9 372.4,406.1 371.4,404.4 372.4,402.6 374.5,402.6 375.5,404.4 377.5,404.4 378.5,402.6 377.5,400.9 375.5,400.9 374.5,399.1 375.5,397.3 374.5,395.6 372.4,395.6 371.4,397.3 369.4,397.3 368.4,395.6 369.4,393.8 371.4,393.8 372.4,392 371.4,390.3 369.4,390.3 368.4,388.5 369.4,386.7 368.4,385 366.3,385 365.3,386.7 366.3,388.5 365.3,390.3 363.3,390.3 362.2,392 363.3,393.8 365.3,393.8 366.3,395.6 365.3,397.3 363.3,397.3 362.2,395.6 360.2,395.6 359.2,397.3 360.2,399.1 359.2,400.9 357.2,400.9 356.1,402.6 357.2,404.4 359.2,404.4 360.2,402.6 362.2,402.6 363.3,404.4 362.2,406.1 363.3,407.9 365.3,407.9 366.3,409.7 365.3,411.4 363.3,411.4 362.2,409.7 360.2,409.7 359.2,411.4 357.2,411.4 356.1,409.7 357.2,407.9 356.1,406.1 354.1,406.1 353.1,407.9 354.1,409.7 353.1,411.4 351,411.4 350,413.2 351,415 353.1,415 354.1,416.7 353.1,418.5 351,418.5 350,416.7 348,416.7 347,418.5 348,420.3 347,422 344.9,422 343.9,423.8 344.9,425.6 347,425.6 348,423.8 350,423.8 351,425.6 353.1,425.6 354.1,423.8 353.1,422 354.1,420.3 356.1,420.3 357.2,422 356.1,423.8 357.2,425.6 359.2,425.6 360.2,427.3 359.2,429.1 357.2,429.1 356.1,430.8 357.2,432.6 359.2,432.6 360.2,430.8 362.2,430.8 363.3,432.6 362.2,434.4 363.3,436.1 365.3,436.1 366.3,437.9 365.3,439.7 363.3,439.7 362.2,437.9 360.2,437.9 359.2,439.7 357.2,439.7 356.1,437.9 357.2,436.1 356.1,434.4 354.1,434.4 353.1,436.1 354.1,437.9 353.1,439.7 351,439.7 350,437.9 348,437.9 347,439.7 344.9,439.7 343.9,437.9 344.9,436.1 347,436.1 348,434.4 347,432.6 344.9,432.6 343.9,430.8 344.9,429.1 343.9,427.3 341.9,427.3 340.9,429.1 341.9,430.8 340.9,432.6 338.8,432.6 337.8,434.4 338.8,436.1 340.9,436.1 341.9,437.9 340.9,439.7 338.8,439.7 337.8,437.9 335.8,437.9 334.7,439.7 335.8,441.4 334.7,443.2 332.7,443.2 331.7,445 332.7,446.7 334.7,446.7 335.8,445 337.8,445 338.8,446.7 337.8,448.5 338.8,450.3 340.9,450.3 341.9,452 340.9,453.8 338.8,453.8 337.8,452 335.8,452 334.7,453.8 332.7,453.8 331.7,452 332.7,450.3 331.7,448.5 329.7,448.5 328.6,450.3 329.7,452 328.6,453.8 326.6,453.8 325.6,455.5 326.6,457.3 328.6,457.3 329.7,459.1 328.6,460.8 326.6,460.8 325.6,459.1 323.5,459.1 322.5,460.8 323.5,462.6 322.5,464.4 320.5,464.4 319.5,466.1 320.5,467.9 322.5,467.9 323.5,466.1 325.6,466.1 326.6,467.9 328.6,467.9 329.7,466.1 328.6,464.4 329.7,462.6 331.7,462.6 332.7,464.4 331.7,466.1 332.7,467.9 334.7,467.9 335.8,466.1 337.8,466.1 338.8,467.9 340.9,467.9 341.9,466.1 340.9,464.4 338.8,464.4 337.8,462.6 338.8,460.8 340.9,460.8 341.9,459.1 340.9,457.3 341.9,455.5 343.9,455.5 344.9,457.3 343.9,459.1 344.9,460.8 347,460.8 348,462.6 347,464.4 344.9,464.4 343.9,466.1 344.9,467.9 347,467.9 348,466.1 350,466.1 351,467.9 353.1,467.9 354.1,466.1 353.1,464.4 354.1,462.6 356.1,462.6 357.2,464.4 356.1,466.1 357.2,467.9 359.2,467.9 360.2,466.1 362.2,466.1 363.3,467.9 365.3,467.9 366.3,466.1 365.3,464.4 363.3,464.4 362.2,462.6 363.3,460.8 362.2,459.1 360.2,459.1 359.2,460.8 357.2,460.8 356.1,459.1 357.2,457.3 359.2,457.3 360.2,455.5 359.2,453.8 360.2,452 362.2,452 363.3,453.8 365.3,453.8 366.3,452 365.3,450.3 363.3,450.3 362.2,448.5 363.3,446.7 365.3,446.7 366.3,445 365.3,443.2 366.3,441.4 368.4,441.4 369.4,443.2 368.4,445 369.4,446.7 371.4,446.7 372.4,448.5 371.4,450.3 369.4,450.3 368.4,452 369.4,453.8 371.4,453.8 372.4,452 374.5,452 375.5,453.8 374.5,455.5 375.5,457.3 377.5,457.3 378.5,459.1 377.5,460.8 375.5,460.8 374.5,459.1 372.4,459.1 371.4,460.8 372.4,462.6 371.4,464.4 369.4,464.4 368.4,466.1 369.4,467.9 371.4,467.9 372.4,466.1 374.5,466.1 375.5,467.9 377.5,467.9 378.5,466.1 377.5,464.4 378.5,462.6 380.6,462.6 381.6,464.4 380.6,466.1 381.6,467.9 383.6,467.9 384.7,466.1 386.7,466.1 387.7,467.9 389.7,467.9 390.8,466.1 389.7,464.4 387.7,464.4 386.7,462.6 387.7,460.8 389.7,460.8 390.8,459.1 389.7,457.3 390.8,455.5 392.8,455.5 393.8,457.3 392.8,459.1 393.8,460.8 395.9,460.8 396.9,462.6 395.9,464.4 393.8,464.4 392.8,466.1 393.8,467.9 395.9,467.9 396.9,466.1 398.9,466.1 399.9,467.9 402,467.9 403,466.1 402,464.4 403,462.6 405,462.6 406,464.4 405,466.1 406,467.9 408.1,467.9 409.1,466.1 411.1,466.1 412.2,467.9 414.2,467.9 415.2,466.1 414.2,464.4 412.2,464.4 411.1,462.6 412.2,460.8 411.1,459.1 409.1,459.1 408.1,460.8 406,460.8 405,459.1 406,457.3 408.1,457.3 409.1,455.5 408.1,453.8 406,453.8 405,452 406,450.3 405,448.5 403,448.5 402,450.3 403,452 402,453.8 399.9,453.8 398.9,452 396.9,452 395.9,453.8 393.8,453.8 392.8,452 393.8,450.3 395.9,450.3 396.9,448.5 395.9,446.7 396.9,445 398.9,445 399.9,446.7 402,446.7 403,445 402,443.2 399.9,443.2 398.9,441.4 399.9,439.7 402,439.7 403,437.9 402,436.1 403,434.4 405,434.4 406,436.1 405,437.9 406,439.7 408.1,439.7 409.1,437.9 411.1,437.9 412.2,439.7 414.2,439.7 415.2,437.9 414.2,436.1 412.2,436.1 411.1,434.4 412.2,432.6 411.1,430.8 409.1,430.8 408.1,432.6 406,432.6 405,430.8 406,429.1 408.1,429.1 409.1,427.3 408.1,425.6 409.1,423.8 411.1,423.8 412.2,425.6 414.2,425.6 415.2,423.8 414.2,422 412.2,422 411.1,420.3 412.2,418.5 414.2,418.5 415.2,416.7 414.2,415 415.2,413.2 417.2,413.2 418.3,415 417.2,416.7 418.3,418.5 420.3,418.5 421.3,420.3 420.3,422 418.3,422 417.2,423.8 418.3,425.6 420.3,425.6 421.3,423.8 423.4,423.8 424.4,425.6 423.4,427.3 424.4,429.1 426.4,429.1 427.4,430.8 426.4,432.6 424.4,432.6 423.4,430.8 421.3,430.8 420.3,432.6 421.3,434.4 420.3,436.1 418.3,436.1 417.2,437.9 418.3,439.7 420.3,439.7 421.3,437.9 423.4,437.9 424.4,439.7 426.4,439.7 427.4,437.9 426.4,436.1 427.4,434.4 429.5,434.4 430.5,436.1 429.5,437.9 430.5,439.7 432.5,439.7 433.5,441.4 432.5,443.2 430.5,443.2 429.5,445 430.5,446.7 432.5,446.7 433.5,445 435.6,445 436.6,446.7 435.6,448.5 436.6,450.3 438.6,450.3 439.7,452 438.6,453.8 436.6,453.8 435.6,452 433.5,452 432.5,453.8 430.5,453.8 429.5,452 430.5,450.3 429.5,448.5 427.4,448.5 426.4,450.3 427.4,452 426.4,453.8 424.4,453.8 423.4,455.5 424.4,457.3 426.4,457.3 427.4,459.1 426.4,460.8 424.4,460.8 423.4,459.1 421.3,459.1 420.3,460.8 421.3,462.6 420.3,464.4 418.3,464.4 417.2,466.1 418.3,467.9 420.3,467.9 421.3,466.1 423.4,466.1 424.4,467.9 426.4,467.9 427.4,466.1 426.4,464.4 427.4,462.6 429.5,462.6 430.5,464.4 429.5,466.1 430.5,467.9 432.5,467.9 433.5,466.1 435.6,466.1 436.6,467.9 438.6,467.9 439.7,466.1 438.6,464.4 436.6,464.4 435.6,462.6 436.6,460.8 438.6,460.8 439.7,459.1 438.6,457.3 439.7,455.5 441.7,455.5 442.7,457.3 441.7,459.1 442.7,460.8 444.8,460.8 445.8,462.6 444.8,464.4 442.7,464.4 441.7,466.1 442.7,467.9 444.8,467.9 445.8,466.1 447.8,466.1 448.8,467.9 450.9,467.9 451.9,466.1 450.9,464.4 451.9,462.6 453.9,462.6 454.9,464.4 453.9,466.1 454.9,467.9 457,467.9 458,466.1 460,466.1 461,467.9 463.1,467.9 464.1,466.1 463.1,464.4 461,464.4 460,462.6 461,460.8 460,459.1 458,459.1 457,460.8 454.9,460.8 453.9,459.1 454.9,457.3 457,457.3 458,455.5 457,453.8 458,452 460,452 461,453.8 463.1,453.8 464.1,452 463.1,450.3 461,450.3 460,448.5 461,446.7 463.1,446.7 464.1,445 463.1,443.2 464.1,441.4 466.1,441.4 467.2,443.2 466.1,445 467.2,446.7 469.2,446.7 470.2,448.5 469.2,450.3 467.2,450.3 466.1,452 467.2,453.8 469.2,453.8 470.2,452 472.3,452 473.3,453.8 472.3,455.5 473.3,457.3 475.3,457.3 476.3,459.1 475.3,460.8 473.3,460.8 472.3,459.1 470.2,459.1 469.2,460.8 470.2,462.6 469.2,464.4 467.2,464.4 466.1,466.1 467.2,467.9 469.2,467.9 470.2,466.1 472.3,466.1 473.3,467.9 475.3,467.9 476.3,466.1 475.3,464.4 476.3,462.6 478.4,462.6 479.4,464.4 478.4,466.1 479.4,467.9 481.4,467.9 482.4,466.1 484.5,466.1 485.5,467.9 487.5,467.9 488.5,466.1 487.5,464.4 485.5,464.4 484.5,462.6 485.5,460.8 487.5,460.8 488.5,459.1 487.5,457.3 488.5,455.5 490.6,455.5 491.6,457.3 490.6,459.1 491.6,460.8 493.6,460.8 494.7,462.6 493.6,464.4 491.6,464.4 490.6,466.1 491.6,467.9 493.6,467.9 494.7,466.1 496.7,466.1 497.7,467.9 499.8,467.9 500.8,466.1 499.8,464.4 500.8,462.6 502.8,462.6 503.8,464.4 502.8,466.1 503.8,467.9 505.9,467.9 506.9,466.1 508.9,466.1 509.9,467.9 512,467.9 513,466.1 512,464.4 509.9,464.4 508.9,462.6 509.9,460.8 508.9,459.1 506.9,459.1 505.9,460.8 503.8,460.8 502.8,459.1 503.8,457.3 505.9,457.3 506.9,455.5 505.9,453.8 503.8,453.8 502.8,452 503.8,450.3 502.8,448.5 500.8,448.5 499.8,450.3 500.8,452 499.8,453.8 497.7,453.8 496.7,452 494.7,452 493.6,453.8 491.6,453.8 490.6,452 491.6,450.3 493.6,450.3 494.7,448.5 493.6,446.7 494.7,445 496.7,445 497.7,446.7 499.8,446.7 500.8,445 499.8,443.2 497.7,443.2 496.7,441.4 497.7,439.7 496.7,437.9 494.7,437.9 493.6,439.7 491.6,439.7 490.6,437.9 491.6,436.1 493.6,436.1 494.7,434.4 493.6,432.6 491.6,432.6 490.6,430.8 491.6,429.1 490.6,427.3 488.5,427.3 487.5,429.1 488.5,430.8 487.5,432.6 485.5,432.6 484.5,434.4 485.5,436.1 487.5,436.1 488.5,437.9 487.5,439.7 485.5,439.7 484.5,437.9 482.4,437.9 481.4,439.7 479.4,439.7 478.4,437.9 479.4,436.1 478.4,434.4 476.3,434.4 475.3,436.1 476.3,437.9 475.3,439.7 473.3,439.7 472.3,437.9 470.2,437.9 469.2,439.7 467.2,439.7 466.1,437.9 467.2,436.1 469.2,436.1 470.2,434.4 469.2,432.6 470.2,430.8 472.3,430.8 473.3,432.6 475.3,432.6 476.3,430.8 475.3,429.1 473.3,429.1 472.3,427.3 473.3,425.6 475.3,425.6 476.3,423.8 475.3,422 476.3,420.3 478.4,420.3 479.4,422 478.4,423.8 479.4,425.6 481.4,425.6 482.4,423.8 484.5,423.8 485.5,425.6 487.5,425.6 488.5,423.8 487.5,422 485.5,422 484.5,420.3 485.5,418.5 484.5,416.7 482.4,416.7 481.4,418.5 479.4,418.5 478.4,416.7 479.4,415 481.4,415 482.4,413.2 481.4,411.4 482.4,409.7 484.5,409.7 485.5,411.4 487.5,411.4 488.5,409.7 487.5,407.9 485.5,407.9 484.5,406.1 485.5,404.4 487.5,404.4 488.5,402.6 487.5,400.9 488.5,399.1 490.6,399.1 491.6,400.9 490.6,402.6 491.6,404.4 493.6,404.4 494.7,406.1 493.6,407.9 491.6,407.9 490.6,409.7 491.6,411.4 493.6,411.4 494.7,409.7 496.7,409.7 497.7,411.4 499.8,411.4 500.8,409.7 499.8,407.9 500.8,406.1 502.8,406.1 503.8,407.9 502.8,409.7 503.8,411.4 505.9,411.4 506.9,409.7 508.9,409.7 509.9,411.4 512,411.4 513,409.7 512,407.9 509.9,407.9 508.9,406.1 509.9,404.4 508.9,402.6 506.9,402.6 505.9,404.4 503.8,404.4 502.8,402.6 503.8,400.9 505.9,400.9 506.9,399.1 505.9,397.3 503.8,397.3 502.8,395.6 503.8,393.8 502.8,392 500.8,392 499.8,393.8 500.8,395.6 499.8,397.3 497.7,397.3 496.7,395.6 494.7,395.6 493.6,397.3 491.6,397.3 490.6,395.6 491.6,393.8 493.6,393.8 494.7,392 493.6,390.3 494.7,388.5 496.7,388.5 497.7,390.3 499.8,390.3 500.8,388.5 499.8,386.7 497.7,386.7 496.7,385 497.7,383.2 499.8,383.2 500.8,381.4 499.8,379.7 500.8,377.9 502.8,377.9 503.8,379.7 502.8,381.4 503.8,383.2 505.9,383.2 506.9,381.4 508.9,381.4 509.9,383.2 512,383.2 513,381.4 512,379.7 509.9,379.7 508.9,377.9 509.9,376.2 508.9,374.4 506.9,374.4 505.9,376.2 503.8,376.2 502.8,374.4 503.8,372.6 505.9,372.6 506.9,370.9 505.9,369.1 506.9,367.3 508.9,367.3 509.9,369.1 512,369.1 513,367.3 512,365.6 509.9,365.6 508.9,363.8 509.9,362 512,362 513,360.3 512,358.5 513,356.7 515,356.7 516,358.5 515,360.3 516,362 518.1,362 519.1,363.8 518.1,365.6 516,365.6 515,367.3 516,369.1 518.1,369.1 519.1,367.3 521.1,367.3 522.2,369.1 521.1,370.9 522.2,372.6 524.2,372.6 525.2,374.4 524.2,376.2 522.2,376.2 521.1,374.4 519.1,374.4 518.1,376.2 519.1,377.9 518.1,379.7 516,379.7 515,381.4 516,383.2 518.1,383.2 519.1,381.4 521.1,381.4 522.2,383.2 524.2,383.2 525.2,381.4 524.2,379.7 525.2,377.9 527.3,377.9 528.3,379.7 527.3,381.4 528.3,383.2 530.3,383.2 531.3,385 530.3,386.7 528.3,386.7 527.3,388.5 528.3,390.3 530.3,390.3 531.3,388.5 533.4,388.5 534.4,390.3 533.4,392 534.4,393.8 536.4,393.8 537.4,395.6 536.4,397.3 534.4,397.3 533.4,395.6 531.3,395.6 530.3,397.3 528.3,397.3 527.3,395.6 528.3,393.8 527.3,392 525.2,392 524.2,393.8 525.2,395.6 524.2,397.3 522.2,397.3 521.1,399.1 522.2,400.9 524.2,400.9 525.2,402.6 524.2,404.4 522.2,404.4 521.1,402.6 519.1,402.6 518.1,404.4 519.1,406.1 518.1,407.9 516,407.9 515,409.7 516,411.4 518.1,411.4 519.1,409.7 521.1,409.7 522.2,411.4 524.2,411.4 525.2,409.7 524.2,407.9 525.2,406.1 527.3,406.1 528.3,407.9 527.3,409.7 528.3,411.4 530.3,411.4 531.3,409.7 533.4,409.7 534.4,411.4 536.4,411.4 537.4,409.7 536.4,407.9 534.4,407.9 533.4,406.1 534.4,404.4 536.4,404.4 537.4,402.6 536.4,400.9 537.4,399.1 539.5,399.1 540.5,400.9 539.5,402.6 540.5,404.4 542.5,404.4 543.6,406.1 542.5,407.9 540.5,407.9 539.5,409.7 540.5,411.4 542.5,411.4 543.6,409.7 545.6,409.7 546.6,411.4 545.6,413.2 546.6,415 548.6,415 549.7,416.7 548.6,418.5 546.6,418.5 545.6,416.7 543.6,416.7 542.5,418.5 543.6,420.3 542.5,422 540.5,422 539.5,423.8 540.5,425.6 542.5,425.6 543.6,423.8 545.6,423.8 546.6,425.6 548.6,425.6 549.7,423.8 548.6,422 549.7,420.3 551.7,420.3 552.7,422 551.7,423.8 552.7,425.6 554.8,425.6 555.8,427.3 554.8,429.1 552.7,429.1 551.7,430.8 552.7,432.6 554.8,432.6 555.8,430.8 557.8,430.8 558.8,432.6 557.8,434.4 558.8,436.1 560.9,436.1 561.9,437.9 560.9,439.7 558.8,439.7 557.8,437.9 555.8,437.9 554.8,439.7 552.7,439.7 551.7,437.9 552.7,436.1 551.7,434.4 549.7,434.4 548.6,436.1 549.7,437.9 548.6,439.7 546.6,439.7 545.6,437.9 543.6,437.9 542.5,439.7 540.5,439.7 539.5,437.9 540.5,436.1 542.5,436.1 543.6,434.4 542.5,432.6 540.5,432.6 539.5,430.8 540.5,429.1 539.5,427.3 537.4,427.3 536.4,429.1 537.4,430.8 536.4,432.6 534.4,432.6 533.4,434.4 534.4,436.1 536.4,436.1 537.4,437.9 536.4,439.7 534.4,439.7 533.4,437.9 531.3,437.9 530.3,439.7 531.3,441.4 530.3,443.2 528.3,443.2 527.3,445 528.3,446.7 530.3,446.7 531.3,445 533.4,445 534.4,446.7 533.4,448.5 534.4,450.3 536.4,450.3 537.4,452 536.4,453.8 534.4,453.8 533.4,452 531.3,452 530.3,453.8 528.3,453.8 527.3,452 528.3,450.3 527.3,448.5 525.2,448.5 524.2,450.3 525.2,452 524.2,453.8 522.2,453.8 521.1,455.5 522.2,457.3 524.2,457.3 525.2,459.1 524.2,460.8 522.2,460.8 521.1,459.1 519.1,459.1 518.1,460.8 519.1,462.6 518.1,464.4 516,464.4 515,466.1 516,467.9 518.1,467.9 519.1,466.1 521.1,466.1 522.2,467.9 524.2,467.9 525.2,466.1 524.2,464.4 525.2,462.6 527.3,462.6 528.3,464.4 527.3,466.1 528.3,467.9 530.3,467.9 531.3,466.1 533.4,466.1 534.4,467.9 536.4,467.9 537.4,466.1 536.4,464.4 534.4,464.4 533.4,462.6 534.4,460.8 536.4,460.8 537.4,459.1 536.4,457.3 537.4,455.5 539.5,455.5 540.5,457.3 539.5,459.1 540.5,460.8 542.5,460.8 543.6,462.6 542.5,464.4 540.5,464.4 539.5,466.1 540.5,467.9 542.5,467.9 543.6,466.1 545.6,466.1 546.6,467.9 548.6,467.9 549.7,466.1 548.6,464.4 549.7,462.6 551.7,462.6 552.7,464.4 551.7,466.1 552.7,467.9 554.8,467.9 555.8,466.1 557.8,466.1 558.8,467.9 560.9,467.9 561.9,466.1 560.9,464.4 558.8,464.4 557.8,462.6 558.8,460.8 557.8,459.1 555.8,459.1 554.8,460.8 552.7,460.8 551.7,459.1 552.7,457.3 554.8,457.3 555.8,455.5 554.8,453.8 555.8,452 557.8,452 558.8,453.8 560.9,453.8 561.9,452 560.9,450.3 558.8,450.3 557.8,448.5 558.8,446.7 560.9,446.7 561.9,445 560.9,443.2 561.9,441.4 563.9,441.4 564.9,443.2 563.9,445 564.9,446.7 567,446.7 568,448.5 567,450.3 564.9,450.3 563.9,452 564.9,453.8 567,453.8 568,452 570,452 571.1,453.8 570,455.5 571.1,457.3 573.1,457.3 574.1,459.1 573.1,460.8 571.1,460.8 570,459.1 568,459.1 567,460.8 568,462.6 567,464.4 564.9,464.4 563.9,466.1 564.9,467.9 567,467.9 568,466.1 570,466.1 571.1,467.9 573.1,467.9 574.1,466.1 573.1,464.4 574.1,462.6 576.1,462.6 577.2,464.4 576.1,466.1 577.2,467.9 579.2,467.9 " />
</g>

<g fill="none" stroke="#000000" stroke-opacity="1" stroke-width="1" stroke-linecap="square" stroke-linejoin="bevel" transform="matrix(1.17031,0,0,1.17031,0,0)"
font-family="Sans Serif" font-size="9" font-weight="400" font-style="normal" 
>
</g>

<g fill="none" stroke="#000000" stroke-opacity="1" stroke-width="1" stroke-linecap="square" stroke-linejoin="bevel" transform="matrix(1.17031,0,0,1.17031,0,0)"
font-family="Sans Serif" font-size="9" font-weight="400" font-style="normal" 
>
</g>

<g fill="none" stroke="#000000" stroke-opacity="1" stroke-width="1" stroke-linecap="round" stroke-linejoin="round" transform="matrix(1.17031,0,0,1.17031,0,0)"
font-family="Sans Serif" font-size="9" font-weight="400" font-style="normal" 
>
<polyline fill="none" vector-effect="none" points="57.5,18.5 57.5,467.5 579.5,467.5 579.5,18.5 57.5,18.5 " />
</g>

<g fill="none" stroke="#000000" stroke-opacity="1" stroke-width="1" stroke-linecap="square" stroke-linejoin="bevel" transform="matrix(1.17031,0,0,1.17031,0,0)"
font-family="Sans Serif" font-size="9" font-weight="400" font-style="normal" 
>
</g>

<g fill="none" stroke="#000000" stroke-opacity="1" stroke-width="1" stroke-linecap="square" stroke-linejoin="bevel" transform="matrix(1,0,0,1,0,0)"
font-family="Sans Serif" font-size="9" font-weight="400" font-style="normal" 
>
</g>
</g>
</svg>
