<?xml version="1.0" encoding="UTF-8" standalone="no"?>
<svg width="264.231mm" height="241.653mm"
 viewBox="0 0 749 685"
 xmlns="http://www.w3.org/2000/svg" xmlns:xlink="http://www.w3.org/1999/xlink"  version="1.2" baseProfile="tiny">
<title>Qt SVG Document</title>
<desc>Generated with Qt</desc>
<defs>
</defs>
<g fill="none" stroke="black" stroke-width="1" fill-rule="evenodd" stroke-linecap="square" stroke-linejoin="bevel" >

<g fill="none" stroke="#000000" stroke-opacity="1" stroke-width="1" stroke-linecap="square" stroke-linejoin="bevel" transform="matrix(1,0,0,1,0,0)"
font-family="Sans Serif" font-size="9" font-weight="400" font-style="normal" 
>
</g>

<g fill="none" stroke="#000000" stroke-opacity="1" stroke-width="1" stroke-linecap="square" stroke-linejoin="bevel" transform="matrix(1.17031,0,0,1.17031,0,0)"
font-family="Sans Serif" font-size="9" font-weight="400" font-style="normal" 
>
</g>

<g fill="none" stroke="#000000" stroke-opacity="1" stroke-width="1" stroke-linecap="round" stroke-linejoin="round" transform="matrix(1.17031,0,0,1.17031,0,0)"
font-family="Sans Serif" font-size="9" font-weight="400" font-style="normal" 
>
<polyline fill="none" vector-effect="none" points="15.5,69.5 15.5,416.5 621.5,416.5 621.5,69.5 15.5,69.5 " />
</g>

<g fill="none" stroke="#000000" stroke-opacity="1" stroke-width="1" stroke-linecap="square" stroke-linejoin="bevel" transform="matrix(1.17031,0,0,1.17031,0,0)"
font-family="Sans Serif" font-size="9" font-weight="400" font-style="normal" 
>
</g>

<g fill="none" stroke="#000000" stroke-opacity="1" stroke-width="1" stroke-linecap="square" stroke-linejoin="bevel" transform="matrix(1.17031,0,0,1.17031,0,0)"
font-family="Sans Serif" font-size="9" font-weight="400" font-style="normal" 
>
</g>

<g fill="none" stroke="#000000" stroke-opacity="1" stroke-width="1" stroke-linecap="square" stroke-linejoin="bevel" transform="matrix(1.17031,0,0,1.17031,0,0)"
font-family="Sans Serif" font-size="9" font-weight="400" font-style="normal" 
>
</g>

<g fill="none" stroke="#000000" stroke-opacity="1" stroke-width="1" stroke-linecap="square" stroke-linejoin="bevel" transform="matrix(1.17031,0,0,1.17031,0,0)"
font-family="Sans Serif" font-size="9" font-weight="400" font-style="normal" 
>
</g>

<g fill="none" stroke="#9400d3" stroke-opacity="1" stroke-width="1" stroke-linecap="round" stroke-linejoin="round" transform="matrix(1.17031,0,0,1.17031,0,0)"
font-family="Sans Serif" font-size="9" font-weight="400" font-style="normal" 
>
<polyline fill="none" vector-effect="none" points="48.3,242.9 48.3,242.9 45,248.7 41.7,242.9 38.3,248.7 35,242.9 41.7,242.9 38.3,237.2 35,242.9 31.7,237.2 28.3,242.9 25,237.2 31.7,237.2 28.3,231.4 35,231.4 31.7,237.2 38.3,237.2 35,231.4 41.7,231.4 38.3,225.6 35,231.4 31.7,225.6 28.3,231.4 25,225.6 31.7,225.6 28.3,219.8 25,225.6 21.7,219.8 18.3,225.6 15,219.8 21.7,219.8 18.3,214.1 25,214.1 21.7,219.8 28.3,219.8 25,214.1 31.7,214.1 28.3,208.3 35,208.3 31.7,214.1 38.3,214.1 35,219.8 31.7,214.1 28.3,219.8 35,219.8 31.7,225.6 38.3,225.6 35,219.8 41.7,219.8 38.3,214.1 45,214.1 41.7,219.8 48.3,219.8 45,214.1 51.7,214.1 48.3,208.3 45,214.1 41.7,208.3 38.3,214.1 35,208.3 41.7,208.3 38.3,202.5 35,208.3 31.7,202.5 28.3,208.3 25,202.5 31.7,202.5 28.3,196.7 35,196.7 31.7,202.5 38.3,202.5 35,196.7 41.7,196.7 38.3,191 35,196.7 31.7,191 28.3,196.7 25,191 31.7,191 28.3,185.2 25,191 21.7,185.2 18.3,191 15,185.2 21.7,185.2 18.3,179.4 25,179.4 21.7,185.2 28.3,185.2 25,179.4 31.7,179.4 28.3,173.7 35,173.7 31.7,179.4 38.3,179.4 35,185.2 31.7,179.4 28.3,185.2 35,185.2 31.7,191 38.3,191 35,185.2 41.7,185.2 38.3,179.4 45,179.4 41.7,185.2 48.3,185.2 45,179.4 51.7,179.4 48.3,173.7 55,173.7 51.7,179.4 58.4,179.4 55,185.2 51.7,179.4 48.3,185.2 55,185.2 51.7,191 58.4,191 55,196.7 51.7,191 48.3,196.7 45,191 51.7,191 48.3,185.2 45,191 41.7,185.2 38.3,191 45,191 41.7,196.7 48.3,196.7 45,202.5 41.7,196.7 38.3,202.5 45,202.5 41.7,208.3 48.3,208.3 45,202.5 51.7,202.5 48.3,196.7 55,196.7 51.7,202.5 58.4,202.5 55,196.7 61.7,196.7 58.4,191 65,191 61.7,196.7 68.4,196.7 65,202.5 61.7,196.7 58.4,202.5 65,202.5 61.7,208.3 68.4,208.3 65,202.5 71.7,202.5 68.4,196.7 75,196.7 71.7,202.5 78.4,202.5 75,196.7 81.7,196.7 78.4,191 75,196.7 71.7,191 68.4,196.7 65,191 71.7,191 68.4,185.2 65,191 61.7,185.2 58.4,191 55,185.2 61.7,185.2 58.4,179.4 65,179.4 61.7,185.2 68.4,185.2 65,179.4 71.7,179.4 68.4,173.7 65,179.4 61.7,173.7 58.4,179.4 55,173.7 61.7,173.7 58.4,167.9 55,173.7 51.7,167.9 48.3,173.7 45,167.9 51.7,167.9 48.3,162.1 55,162.1 51.7,167.9 58.4,167.9 55,162.1 61.7,162.1 58.4,156.3 65,156.3 61.7,162.1 68.4,162.1 65,167.9 61.7,162.1 58.4,167.9 65,167.9 61.7,173.7 68.4,173.7 65,167.9 71.7,167.9 68.4,162.1 75,162.1 71.7,167.9 78.4,167.9 75,162.1 81.7,162.1 78.4,156.3 75,162.1 71.7,156.3 68.4,162.1 65,156.3 71.7,156.3 68.4,150.6 65,156.3 61.7,150.6 58.4,156.3 55,150.6 61.7,150.6 58.4,144.8 65,144.8 61.7,150.6 68.4,150.6 65,144.8 71.7,144.8 68.4,139 65,144.8 61.7,139 58.4,144.8 55,139 61.7,139 58.4,133.2 55,139 51.7,133.2 48.3,139 45,133.2 51.7,133.2 48.3,127.4 55,127.4 51.7,133.2 58.4,133.2 55,127.4 61.7,127.4 58.4,121.7 65,121.7 61.7,127.4 68.4,127.4 65,133.2 61.7,127.4 58.4,133.2 65,133.2 61.7,139 68.4,139 65,133.2 71.7,133.2 68.4,127.4 75,127.4 71.7,133.2 78.4,133.2 75,127.4 81.7,127.4 78.4,121.7 85,121.7 81.7,127.4 88.4,127.4 85,133.2 81.7,127.4 78.4,133.2 85,133.2 81.7,139 88.4,139 85,144.8 81.7,139 78.4,144.8 75,139 81.7,139 78.4,133.2 75,139 71.7,133.2 68.4,139 75,139 71.7,144.8 78.4,144.8 75,150.6 71.7,144.8 68.4,150.6 75,150.6 71.7,156.3 78.4,156.3 75,150.6 81.7,150.6 78.4,144.8 85,144.8 81.7,150.6 88.4,150.6 85,144.8 91.7,144.8 88.4,139 95,139 91.7,144.8 98.4,144.8 95,150.6 91.7,144.8 88.4,150.6 95,150.6 91.7,156.3 98.4,156.3 95,150.6 101.7,150.6 98.4,144.8 105,144.8 101.7,150.6 108.4,150.6 105,144.8 111.7,144.8 108.4,139 115,139 111.7,144.8 118.4,144.8 115,150.6 111.7,144.8 108.4,150.6 115,150.6 111.7,156.3 118.4,156.3 115,162.1 111.7,156.3 108.4,162.1 105,156.3 111.7,156.3 108.4,150.6 105,156.3 101.7,150.6 98.4,156.3 105,156.3 101.7,162.1 108.4,162.1 105,167.9 101.7,162.1 98.4,167.9 105,167.9 101.7,173.7 108.4,173.7 105,179.4 101.7,173.7 98.4,179.4 95,173.7 101.7,173.7 98.4,167.9 95,173.7 91.7,167.9 88.4,173.7 85,167.9 91.7,167.9 88.4,162.1 95,162.1 91.7,167.9 98.4,167.9 95,162.1 101.7,162.1 98.4,156.3 95,162.1 91.7,156.3 88.4,162.1 85,156.3 91.7,156.3 88.4,150.6 85,156.3 81.7,150.6 78.4,156.3 85,156.3 81.7,162.1 88.4,162.1 85,167.9 81.7,162.1 78.4,167.9 85,167.9 81.7,173.7 88.4,173.7 85,179.4 81.7,173.7 78.4,179.4 75,173.7 81.7,173.7 78.4,167.9 75,173.7 71.7,167.9 68.4,173.7 75,173.7 71.7,179.4 78.4,179.4 75,185.2 71.7,179.4 68.4,185.2 75,185.2 71.7,191 78.4,191 75,185.2 81.7,185.2 78.4,179.4 85,179.4 81.7,185.2 88.4,185.2 85,179.4 91.7,179.4 88.4,173.7 95,173.7 91.7,179.4 98.4,179.4 95,185.2 91.7,179.4 88.4,185.2 95,185.2 91.7,191 98.4,191 95,185.2 101.7,185.2 98.4,179.4 105,179.4 101.7,185.2 108.4,185.2 105,179.4 111.7,179.4 108.4,173.7 115,173.7 111.7,179.4 118.4,179.4 115,185.2 111.7,179.4 108.4,185.2 115,185.2 111.7,191 118.4,191 115,196.7 111.7,191 108.4,196.7 105,191 111.7,191 108.4,185.2 105,191 101.7,185.2 98.4,191 105,191 101.7,196.7 108.4,196.7 105,202.5 101.7,196.7 98.4,202.5 105,202.5 101.7,208.3 108.4,208.3 105,202.5 111.7,202.5 108.4,196.7 115,196.7 111.7,202.5 118.4,202.5 115,196.7 121.7,196.7 118.4,191 125,191 121.7,196.7 128.4,196.7 125,202.5 121.7,196.7 118.4,202.5 125,202.5 121.7,208.3 128.4,208.3 125,202.5 131.7,202.5 128.4,196.7 135,196.7 131.7,202.5 138.4,202.5 135,196.7 141.7,196.7 138.4,191 135,196.7 131.7,191 128.4,196.7 125,191 131.7,191 128.4,185.2 125,191 121.7,185.2 118.4,191 115,185.2 121.7,185.2 118.4,179.4 125,179.4 121.7,185.2 128.4,185.2 125,179.4 131.7,179.4 128.4,173.7 125,179.4 121.7,173.7 118.4,179.4 115,173.7 121.7,173.7 118.4,167.9 115,173.7 111.7,167.9 108.4,173.7 105,167.9 111.7,167.9 108.4,162.1 115,162.1 111.7,167.9 118.4,167.9 115,162.1 121.7,162.1 118.4,156.3 125,156.3 121.7,162.1 128.4,162.1 125,167.9 121.7,162.1 118.4,167.9 125,167.9 121.7,173.7 128.4,173.7 125,167.9 131.7,167.9 128.4,162.1 135,162.1 131.7,167.9 138.4,167.9 135,162.1 141.7,162.1 138.4,156.3 135,162.1 131.7,156.3 128.4,162.1 125,156.3 131.7,156.3 128.4,150.6 125,156.3 121.7,150.6 118.4,156.3 115,150.6 121.7,150.6 118.4,144.8 125,144.8 121.7,150.6 128.4,150.6 125,144.8 131.7,144.8 128.4,139 125,144.8 121.7,139 118.4,144.8 115,139 121.7,139 118.4,133.2 115,139 111.7,133.2 108.4,139 105,133.2 111.7,133.2 108.4,127.4 115,127.4 111.7,133.2 118.4,133.2 115,127.4 121.7,127.4 118.4,121.7 125,121.7 121.7,127.4 128.4,127.4 125,133.2 121.7,127.4 118.4,133.2 125,133.2 121.7,139 128.4,139 125,133.2 131.7,133.2 128.4,127.4 135,127.4 131.7,133.2 138.4,133.2 135,127.4 141.7,127.4 138.4,121.7 145.1,121.7 141.7,127.4 148.4,127.4 145.1,133.2 141.7,127.4 138.4,133.2 145.1,133.2 141.7,139 148.4,139 145.1,144.8 141.7,139 138.4,144.8 135,139 141.7,139 138.4,133.2 135,139 131.7,133.2 128.4,139 135,139 131.7,144.8 138.4,144.8 135,150.6 131.7,144.8 128.4,150.6 135,150.6 131.7,156.3 138.4,156.3 135,150.6 141.7,150.6 138.4,144.8 145.1,144.8 141.7,150.6 148.4,150.6 145.1,144.8 151.7,144.8 148.4,139 155.1,139 151.7,144.8 158.4,144.8 155.1,150.6 151.7,144.8 148.4,150.6 155.1,150.6 151.7,156.3 158.4,156.3 155.1,150.6 161.7,150.6 158.4,144.8 165.1,144.8 161.7,150.6 168.4,150.6 165.1,144.8 171.7,144.8 168.4,139 165.1,144.8 161.7,139 158.4,144.8 155.1,139 161.7,139 158.4,133.2 155.1,139 151.7,133.2 148.4,139 145.1,133.2 151.7,133.2 148.4,127.4 155.1,127.4 151.7,133.2 158.4,133.2 155.1,127.4 161.7,127.4 158.4,121.7 155.1,127.4 151.7,121.7 148.4,127.4 145.1,121.7 151.7,121.7 148.4,115.9 145.1,121.7 141.7,115.9 138.4,121.7 135,115.9 141.7,115.9 138.4,110.1 145.1,110.1 141.7,115.9 148.4,115.9 145.1,110.1 151.7,110.1 148.4,104.3 155.1,104.3 151.7,110.1 158.4,110.1 155.1,115.9 151.7,110.1 148.4,115.9 155.1,115.9 151.7,121.7 158.4,121.7 155.1,115.9 161.7,115.9 158.4,110.1 165.1,110.1 161.7,115.9 168.4,115.9 165.1,110.1 171.7,110.1 168.4,104.3 165.1,110.1 161.7,104.3 158.4,110.1 155.1,104.3 161.7,104.3 158.4,98.6 155.1,104.3 151.7,98.6 148.4,104.3 145.1,98.6 151.7,98.6 148.4,92.8 155.1,92.8 151.7,98.6 158.4,98.6 155.1,92.8 161.7,92.8 158.4,87 155.1,92.8 151.7,87 148.4,92.8 145.1,87 151.7,87 148.4,81.2 145.1,87 141.7,81.2 138.4,87 135,81.2 141.7,81.2 138.4,75.5 145.1,75.5 141.7,81.2 148.4,81.2 145.1,75.5 151.7,75.5 148.4,69.7 155.1,69.7 151.7,75.5 158.4,75.5 155.1,81.2 151.7,75.5 148.4,81.2 155.1,81.2 151.7,87 158.4,87 155.1,81.2 161.7,81.2 158.4,75.5 165.1,75.5 161.7,81.2 168.4,81.2 165.1,75.5 171.7,75.5 168.4,69.7 175.1,69.7 171.7,75.5 178.4,75.5 175.1,81.2 171.7,75.5 168.4,81.2 175.1,81.2 171.7,87 178.4,87 175.1,92.8 171.7,87 168.4,92.8 165.1,87 171.7,87 168.4,81.2 165.1,87 161.7,81.2 158.4,87 165.1,87 161.7,92.8 168.4,92.8 165.1,98.6 161.7,92.8 158.4,98.6 165.1,98.6 161.7,104.3 168.4,104.3 165.1,98.6 171.7,98.6 168.4,92.8 175.1,92.8 171.7,98.6 178.4,98.6 175.1,92.8 181.7,92.8 178.4,87 185.1,87 181.7,92.8 188.4,92.8 185.1,98.6 181.7,92.8 178.4,98.6 185.1,98.6 181.7,104.3 188.4,104.3 185.1,98.6 191.7,98.6 188.4,92.8 195.1,92.8 191.7,98.6 198.4,98.6 195.1,92.8 201.7,92.8 198.4,87 205.1,87 201.7,92.8 208.4,92.8 205.1,98.6 201.7,92.8 198.4,98.6 205.1,98.6 201.7,104.3 208.4,104.3 205.1,110.1 201.7,104.3 198.4,110.1 195.1,104.3 201.7,104.3 198.4,98.6 195.1,104.3 191.7,98.6 188.4,104.3 195.1,104.3 191.7,110.1 198.4,110.1 195.1,115.9 191.7,110.1 188.4,115.9 195.1,115.9 191.7,121.7 198.4,121.7 195.1,127.4 191.7,121.7 188.4,127.4 185.1,121.7 191.7,121.7 188.4,115.9 185.1,121.7 181.7,115.9 178.4,121.7 175.1,115.9 181.7,115.9 178.4,110.1 185.1,110.1 181.7,115.9 188.4,115.9 185.1,110.1 191.7,110.1 188.4,104.3 185.1,110.1 181.7,104.3 178.4,110.1 175.1,104.3 181.7,104.3 178.4,98.6 175.1,104.3 171.7,98.6 168.4,104.3 175.1,104.3 171.7,110.1 178.4,110.1 175.1,115.9 171.7,110.1 168.4,115.9 175.1,115.9 171.7,121.7 178.4,121.7 175.1,127.4 171.7,121.7 168.4,127.4 165.1,121.7 171.7,121.7 168.4,115.9 165.1,121.7 161.7,115.9 158.4,121.7 165.1,121.7 161.7,127.4 168.4,127.4 165.1,133.2 161.7,127.4 158.4,133.2 165.1,133.2 161.7,139 168.4,139 165.1,133.2 171.7,133.2 168.4,127.4 175.1,127.4 171.7,133.2 178.4,133.2 175.1,127.4 181.7,127.4 178.4,121.7 185.1,121.7 181.7,127.4 188.4,127.4 185.1,133.2 181.7,127.4 178.4,133.2 185.1,133.2 181.7,139 188.4,139 185.1,133.2 191.7,133.2 188.4,127.4 195.1,127.4 191.7,133.2 198.4,133.2 195.1,127.4 201.7,127.4 198.4,121.7 205.1,121.7 201.7,127.4 208.4,127.4 205.1,133.2 201.7,127.4 198.4,133.2 205.1,133.2 201.7,139 208.4,139 205.1,144.8 201.7,139 198.4,144.8 195.1,139 201.7,139 198.4,133.2 195.1,139 191.7,133.2 188.4,139 195.1,139 191.7,144.8 198.4,144.8 195.1,150.6 191.7,144.8 188.4,150.6 195.1,150.6 191.7,156.3 198.4,156.3 195.1,150.6 201.7,150.6 198.4,144.8 205.1,144.8 201.7,150.6 208.4,150.6 205.1,144.8 211.7,144.8 208.4,139 215.1,139 211.7,144.8 218.4,144.8 215.1,150.6 211.7,144.8 208.4,150.6 215.1,150.6 211.7,156.3 218.4,156.3 215.1,150.6 221.7,150.6 218.4,144.8 225.1,144.8 221.7,150.6 228.4,150.6 225.1,144.8 231.8,144.8 228.4,139 235.1,139 231.8,144.8 238.4,144.8 235.1,150.6 231.8,144.8 228.4,150.6 235.1,150.6 231.8,156.3 238.4,156.3 235.1,162.1 231.8,156.3 228.4,162.1 225.1,156.3 231.8,156.3 228.4,150.6 225.1,156.3 221.7,150.6 218.4,156.3 225.1,156.3 221.7,162.1 228.4,162.1 225.1,167.9 221.7,162.1 218.4,167.9 225.1,167.9 221.7,173.7 228.4,173.7 225.1,179.4 221.7,173.7 218.4,179.4 215.1,173.7 221.7,173.7 218.4,167.9 215.1,173.7 211.7,167.9 208.4,173.7 205.1,167.9 211.7,167.9 208.4,162.1 215.1,162.1 211.7,167.9 218.4,167.9 215.1,162.1 221.7,162.1 218.4,156.3 215.1,162.1 211.7,156.3 208.4,162.1 205.1,156.3 211.7,156.3 208.4,150.6 205.1,156.3 201.7,150.6 198.4,156.3 205.1,156.3 201.7,162.1 208.4,162.1 205.1,167.9 201.7,162.1 198.4,167.9 205.1,167.9 201.7,173.7 208.4,173.7 205.1,179.4 201.7,173.7 198.4,179.4 195.1,173.7 201.7,173.7 198.4,167.9 195.1,173.7 191.7,167.9 188.4,173.7 195.1,173.7 191.7,179.4 198.4,179.4 195.1,185.2 191.7,179.4 188.4,185.2 195.1,185.2 191.7,191 198.4,191 195.1,196.7 191.7,191 188.4,196.7 185.1,191 191.7,191 188.4,185.2 185.1,191 181.7,185.2 178.4,191 175.1,185.2 181.7,185.2 178.4,179.4 185.1,179.4 181.7,185.2 188.4,185.2 185.1,179.4 191.7,179.4 188.4,173.7 185.1,179.4 181.7,173.7 178.4,179.4 175.1,173.7 181.7,173.7 178.4,167.9 175.1,173.7 171.7,167.9 168.4,173.7 165.1,167.9 171.7,167.9 168.4,162.1 175.1,162.1 171.7,167.9 178.4,167.9 175.1,162.1 181.7,162.1 178.4,156.3 185.1,156.3 181.7,162.1 188.4,162.1 185.1,167.9 181.7,162.1 178.4,167.9 185.1,167.9 181.7,173.7 188.4,173.7 185.1,167.9 191.7,167.9 188.4,162.1 195.1,162.1 191.7,167.9 198.4,167.9 195.1,162.1 201.7,162.1 198.4,156.3 195.1,162.1 191.7,156.3 188.4,162.1 185.1,156.3 191.7,156.3 188.4,150.6 185.1,156.3 181.7,150.6 178.4,156.3 175.1,150.6 181.7,150.6 178.4,144.8 185.1,144.8 181.7,150.6 188.4,150.6 185.1,144.8 191.7,144.8 188.4,139 185.1,144.8 181.7,139 178.4,144.8 175.1,139 181.7,139 178.4,133.2 175.1,139 171.7,133.2 168.4,139 175.1,139 171.7,144.8 178.4,144.8 175.1,150.6 171.7,144.8 168.4,150.6 175.1,150.6 171.7,156.3 178.4,156.3 175.1,162.1 171.7,156.3 168.4,162.1 165.1,156.3 171.7,156.3 168.4,150.6 165.1,156.3 161.7,150.6 158.4,156.3 165.1,156.3 161.7,162.1 168.4,162.1 165.1,167.9 161.7,162.1 158.4,167.9 165.1,167.9 161.7,173.7 168.4,173.7 165.1,179.4 161.7,173.7 158.4,179.4 155.1,173.7 161.7,173.7 158.4,167.9 155.1,173.7 151.7,167.9 148.4,173.7 145.1,167.9 151.7,167.9 148.4,162.1 155.1,162.1 151.7,167.9 158.4,167.9 155.1,162.1 161.7,162.1 158.4,156.3 155.1,162.1 151.7,156.3 148.4,162.1 145.1,156.3 151.7,156.3 148.4,150.6 145.1,156.3 141.7,150.6 138.4,156.3 145.1,156.3 141.7,162.1 148.4,162.1 145.1,167.9 141.7,162.1 138.4,167.9 145.1,167.9 141.7,173.7 148.4,173.7 145.1,179.4 141.7,173.7 138.4,179.4 135,173.7 141.7,173.7 138.4,167.9 135,173.7 131.7,167.9 128.4,173.7 135,173.7 131.7,179.4 138.4,179.4 135,185.2 131.7,179.4 128.4,185.2 135,185.2 131.7,191 138.4,191 135,185.2 141.7,185.2 138.4,179.4 145.1,179.4 141.7,185.2 148.4,185.2 145.1,179.4 151.7,179.4 148.4,173.7 155.1,173.7 151.7,179.4 158.4,179.4 155.1,185.2 151.7,179.4 148.4,185.2 155.1,185.2 151.7,191 158.4,191 155.1,185.2 161.7,185.2 158.4,179.4 165.1,179.4 161.7,185.2 168.4,185.2 165.1,179.4 171.7,179.4 168.4,173.7 175.1,173.7 171.7,179.4 178.4,179.4 175.1,185.2 171.7,179.4 168.4,185.2 175.1,185.2 171.7,191 178.4,191 175.1,196.7 171.7,191 168.4,196.7 165.1,191 171.7,191 168.4,185.2 165.1,191 161.7,185.2 158.4,191 165.1,191 161.7,196.7 168.4,196.7 165.1,202.5 161.7,196.7 158.4,202.5 165.1,202.5 161.7,208.3 168.4,208.3 165.1,202.5 171.7,202.5 168.4,196.7 175.1,196.7 171.7,202.5 178.4,202.5 175.1,196.7 181.7,196.7 178.4,191 185.1,191 181.7,196.7 188.4,196.7 185.1,202.5 181.7,196.7 178.4,202.5 185.1,202.5 181.7,208.3 188.4,208.3 185.1,202.5 191.7,202.5 188.4,196.7 195.1,196.7 191.7,202.5 198.4,202.5 195.1,196.7 201.7,196.7 198.4,191 205.1,191 201.7,196.7 208.4,196.7 205.1,202.5 201.7,196.7 198.4,202.5 205.1,202.5 201.7,208.3 208.4,208.3 205.1,214.1 201.7,208.3 198.4,214.1 195.1,208.3 201.7,208.3 198.4,202.5 195.1,208.3 191.7,202.5 188.4,208.3 195.1,208.3 191.7,214.1 198.4,214.1 195.1,219.8 191.7,214.1 188.4,219.8 195.1,219.8 191.7,225.6 198.4,225.6 195.1,231.4 191.7,225.6 188.4,231.4 185.1,225.6 191.7,225.6 188.4,219.8 185.1,225.6 181.7,219.8 178.4,225.6 175.1,219.8 181.7,219.8 178.4,214.1 185.1,214.1 181.7,219.8 188.4,219.8 185.1,214.1 191.7,214.1 188.4,208.3 185.1,214.1 181.7,208.3 178.4,214.1 175.1,208.3 181.7,208.3 178.4,202.5 175.1,208.3 171.7,202.5 168.4,208.3 175.1,208.3 171.7,214.1 178.4,214.1 175.1,219.8 171.7,214.1 168.4,219.8 175.1,219.8 171.7,225.6 178.4,225.6 175.1,231.4 171.7,225.6 168.4,231.4 165.1,225.6 171.7,225.6 168.4,219.8 165.1,225.6 161.7,219.8 158.4,225.6 165.1,225.6 161.7,231.4 168.4,231.4 165.1,237.2 161.7,231.4 158.4,237.2 165.1,237.2 161.7,242.9 168.4,242.9 165.1,237.2 171.7,237.2 168.4,231.4 175.1,231.4 171.7,237.2 178.4,237.2 175.1,231.4 181.7,231.4 178.4,225.6 185.1,225.6 181.7,231.4 188.4,231.4 185.1,237.2 181.7,231.4 178.4,237.2 185.1,237.2 181.7,242.9 188.4,242.9 185.1,237.2 191.7,237.2 188.4,231.4 195.1,231.4 191.7,237.2 198.4,237.2 195.1,231.4 201.7,231.4 198.4,225.6 205.1,225.6 201.7,231.4 208.4,231.4 205.1,237.2 201.7,231.4 198.4,237.2 205.1,237.2 201.7,242.9 208.4,242.9 205.1,248.7 201.7,242.9 198.4,248.7 195.1,242.9 201.7,242.9 198.4,237.2 195.1,242.9 191.7,237.2 188.4,242.9 195.1,242.9 191.7,248.7 198.4,248.7 195.1,254.5 191.7,248.7 188.4,254.5 195.1,254.5 191.7,260.3 198.4,260.3 195.1,254.5 201.7,254.5 198.4,248.7 205.1,248.7 201.7,254.5 208.4,254.5 205.1,248.7 211.7,248.7 208.4,242.9 215.1,242.9 211.7,248.7 218.4,248.7 215.1,254.5 211.7,248.7 208.4,254.5 215.1,254.5 211.7,260.3 218.4,260.3 215.1,254.5 221.7,254.5 218.4,248.7 225.1,248.7 221.7,254.5 228.4,254.5 225.1,248.7 231.8,248.7 228.4,242.9 225.1,248.7 221.7,242.9 218.4,248.7 215.1,242.9 221.7,242.9 218.4,237.2 215.1,242.9 211.7,237.2 208.4,242.9 205.1,237.2 211.7,237.2 208.4,231.4 215.1,231.4 211.7,237.2 218.4,237.2 215.1,231.4 221.7,231.4 218.4,225.6 215.1,231.4 211.7,225.6 208.4,231.4 205.1,225.6 211.7,225.6 208.4,219.8 205.1,225.6 201.7,219.8 198.4,225.6 195.1,219.8 201.7,219.8 198.4,214.1 205.1,214.1 201.7,219.8 208.4,219.8 205.1,214.1 211.7,214.1 208.4,208.3 215.1,208.3 211.7,214.1 218.4,214.1 215.1,219.8 211.7,214.1 208.4,219.8 215.1,219.8 211.7,225.6 218.4,225.6 215.1,219.8 221.7,219.8 218.4,214.1 225.1,214.1 221.7,219.8 228.4,219.8 225.1,214.1 231.8,214.1 228.4,208.3 225.1,214.1 221.7,208.3 218.4,214.1 215.1,208.3 221.7,208.3 218.4,202.5 215.1,208.3 211.7,202.5 208.4,208.3 205.1,202.5 211.7,202.5 208.4,196.7 215.1,196.7 211.7,202.5 218.4,202.5 215.1,196.7 221.7,196.7 218.4,191 215.1,196.7 211.7,191 208.4,196.7 205.1,191 211.7,191 208.4,185.2 205.1,191 201.7,185.2 198.4,191 195.1,185.2 201.7,185.2 198.4,179.4 205.1,179.4 201.7,185.2 208.4,185.2 205.1,179.4 211.7,179.4 208.4,173.7 215.1,173.7 211.7,179.4 218.4,179.4 215.1,185.2 211.7,179.4 208.4,185.2 215.1,185.2 211.7,191 218.4,191 215.1,185.2 221.7,185.2 218.4,179.4 225.1,179.4 221.7,185.2 228.4,185.2 225.1,179.4 231.8,179.4 228.4,173.7 235.1,173.7 231.8,179.4 238.4,179.4 235.1,185.2 231.8,179.4 228.4,185.2 235.1,185.2 231.8,191 238.4,191 235.1,196.7 231.8,191 228.4,196.7 225.1,191 231.8,191 228.4,185.2 225.1,191 221.7,185.2 218.4,191 225.1,191 221.7,196.7 228.4,196.7 225.1,202.5 221.7,196.7 218.4,202.5 225.1,202.5 221.7,208.3 228.4,208.3 225.1,202.5 231.8,202.5 228.4,196.7 235.1,196.7 231.8,202.5 238.4,202.5 235.1,196.7 241.8,196.7 238.4,191 245.1,191 241.8,196.7 248.4,196.7 245.1,202.5 241.8,196.7 238.4,202.5 245.1,202.5 241.8,208.3 248.4,208.3 245.1,202.5 251.8,202.5 248.4,196.7 255.1,196.7 251.8,202.5 258.4,202.5 255.1,196.7 261.8,196.7 258.4,191 255.1,196.7 251.8,191 248.4,196.7 245.1,191 251.8,191 248.4,185.2 245.1,191 241.8,185.2 238.4,191 235.1,185.2 241.8,185.2 238.4,179.4 245.1,179.4 241.8,185.2 248.4,185.2 245.1,179.4 251.8,179.4 248.4,173.7 245.1,179.4 241.8,173.7 238.4,179.4 235.1,173.7 241.8,173.7 238.4,167.9 235.1,173.7 231.8,167.9 228.4,173.7 225.1,167.9 231.8,167.9 228.4,162.1 235.1,162.1 231.8,167.9 238.4,167.9 235.1,162.1 241.8,162.1 238.4,156.3 245.1,156.3 241.8,162.1 248.4,162.1 245.1,167.9 241.8,162.1 238.4,167.9 245.1,167.9 241.8,173.7 248.4,173.7 245.1,167.9 251.8,167.9 248.4,162.1 255.1,162.1 251.8,167.9 258.4,167.9 255.1,162.1 261.8,162.1 258.4,156.3 255.1,162.1 251.8,156.3 248.4,162.1 245.1,156.3 251.8,156.3 248.4,150.6 245.1,156.3 241.8,150.6 238.4,156.3 235.1,150.6 241.8,150.6 238.4,144.8 245.1,144.8 241.8,150.6 248.4,150.6 245.1,144.8 251.8,144.8 248.4,139 245.1,144.8 241.8,139 238.4,144.8 235.1,139 241.8,139 238.4,133.2 235.1,139 231.8,133.2 228.4,139 225.1,133.2 231.8,133.2 228.4,127.4 235.1,127.4 231.8,133.2 238.4,133.2 235.1,127.4 241.8,127.4 238.4,121.7 245.1,121.7 241.8,127.4 248.4,127.4 245.1,133.2 241.8,127.4 238.4,133.2 245.1,133.2 241.8,139 248.4,139 245.1,133.2 251.8,133.2 248.4,127.4 255.1,127.4 251.8,133.2 258.4,133.2 255.1,127.4 261.8,127.4 258.4,121.7 265.1,121.7 261.8,127.4 268.4,127.4 265.1,133.2 261.8,127.4 258.4,133.2 265.1,133.2 261.8,139 268.4,139 265.1,144.8 261.8,139 258.4,144.8 255.1,139 261.8,139 258.4,133.2 255.1,139 251.8,133.2 248.4,139 255.1,139 251.8,144.8 258.4,144.8 255.1,150.6 251.8,144.8 248.4,150.6 255.1,150.6 251.8,156.3 258.4,156.3 255.1,150.6 261.8,150.6 258.4,144.8 265.1,144.8 261.8,150.6 268.4,150.6 265.1,144.8 271.8,144.8 268.4,139 275.1,139 271.8,144.8 278.4,144.8 275.1,150.6 271.8,144.8 268.4,150.6 275.1,150.6 271.8,156.3 278.4,156.3 275.1,150.6 281.8,150.6 278.4,144.8 285.1,144.8 281.8,150.6 288.4,150.6 285.1,144.8 291.8,144.8 288.4,139 295.1,139 291.8,144.8 298.4,144.8 295.1,150.6 291.8,144.8 288.4,150.6 295.1,150.6 291.8,156.3 298.4,156.3 295.1,162.1 291.8,156.3 288.4,162.1 285.1,156.3 291.8,156.3 288.4,150.6 285.1,156.3 281.8,150.6 278.4,156.3 285.1,156.3 281.8,162.1 288.4,162.1 285.1,167.9 281.8,162.1 278.4,167.9 285.1,167.9 281.8,173.7 288.4,173.7 285.1,179.4 281.8,173.7 278.4,179.4 275.1,173.7 281.8,173.7 278.4,167.9 275.1,173.7 271.8,167.9 268.4,173.7 265.1,167.9 271.8,167.9 268.4,162.1 275.1,162.1 271.8,167.9 278.4,167.9 275.1,162.1 281.8,162.1 278.4,156.3 275.1,162.1 271.8,156.3 268.4,162.1 265.1,156.3 271.8,156.3 268.4,150.6 265.1,156.3 261.8,150.6 258.4,156.3 265.1,156.3 261.8,162.1 268.4,162.1 265.1,167.9 261.8,162.1 258.4,167.9 265.1,167.9 261.8,173.7 268.4,173.7 265.1,179.4 261.8,173.7 258.4,179.4 255.1,173.7 261.8,173.7 258.4,167.9 255.1,173.7 251.8,167.9 248.4,173.7 255.1,173.7 251.8,179.4 258.4,179.4 255.1,185.2 251.8,179.4 248.4,185.2 255.1,185.2 251.8,191 258.4,191 255.1,185.2 261.8,185.2 258.4,179.4 265.1,179.4 261.8,185.2 268.4,185.2 265.1,179.4 271.8,179.4 268.4,173.7 275.1,173.7 271.8,179.4 278.4,179.4 275.1,185.2 271.8,179.4 268.4,185.2 275.1,185.2 271.8,191 278.4,191 275.1,185.2 281.8,185.2 278.4,179.4 285.1,179.4 281.8,185.2 288.4,185.2 285.1,179.4 291.8,179.4 288.4,173.7 295.1,173.7 291.8,179.4 298.4,179.4 295.1,185.2 291.8,179.4 288.4,185.2 295.1,185.2 291.8,191 298.4,191 295.1,196.7 291.8,191 288.4,196.7 285.1,191 291.8,191 288.4,185.2 285.1,191 281.8,185.2 278.4,191 285.1,191 281.8,196.7 288.4,196.7 285.1,202.5 281.8,196.7 278.4,202.5 285.1,202.5 281.8,208.3 288.4,208.3 285.1,202.5 291.8,202.5 288.4,196.7 295.1,196.7 291.8,202.5 298.4,202.5 295.1,196.7 301.8,196.7 298.4,191 305.1,191 301.8,196.7 308.4,196.7 305.1,202.5 301.8,196.7 298.4,202.5 305.1,202.5 301.8,208.3 308.4,208.3 305.1,202.5 311.8,202.5 308.4,196.7 315.1,196.7 311.8,202.5 318.5,202.5 315.1,196.7 321.8,196.7 318.5,191 315.1,196.7 311.8,191 308.4,196.7 305.1,191 311.8,191 308.4,185.2 305.1,191 301.8,185.2 298.4,191 295.1,185.2 301.8,185.2 298.4,179.4 305.1,179.4 301.8,185.2 308.4,185.2 305.1,179.4 311.8,179.4 308.4,173.7 305.1,179.4 301.8,173.7 298.4,179.4 295.1,173.7 301.8,173.7 298.4,167.9 295.1,173.7 291.8,167.9 288.4,173.7 285.1,167.9 291.8,167.9 288.4,162.1 295.1,162.1 291.8,167.9 298.4,167.9 295.1,162.1 301.8,162.1 298.4,156.3 305.1,156.3 301.8,162.1 308.4,162.1 305.1,167.9 301.8,162.1 298.4,167.9 305.1,167.9 301.8,173.7 308.4,173.7 305.1,167.9 311.8,167.9 308.4,162.1 315.1,162.1 311.8,167.9 318.5,167.9 315.1,162.1 321.8,162.1 318.5,156.3 315.1,162.1 311.8,156.3 308.4,162.1 305.1,156.3 311.8,156.3 308.4,150.6 305.1,156.3 301.8,150.6 298.4,156.3 295.1,150.6 301.8,150.6 298.4,144.8 305.1,144.8 301.8,150.6 308.4,150.6 305.1,144.8 311.8,144.8 308.4,139 305.1,144.8 301.8,139 298.4,144.8 295.1,139 301.8,139 298.4,133.2 295.1,139 291.8,133.2 288.4,139 285.1,133.2 291.8,133.2 288.4,127.4 295.1,127.4 291.8,133.2 298.4,133.2 295.1,127.4 301.8,127.4 298.4,121.7 305.1,121.7 301.8,127.4 308.4,127.4 305.1,133.2 301.8,127.4 298.4,133.2 305.1,133.2 301.8,139 308.4,139 305.1,133.2 311.8,133.2 308.4,127.4 315.1,127.4 311.8,133.2 318.5,133.2 315.1,127.4 321.8,127.4 318.5,121.7 325.1,121.7 321.8,127.4 328.5,127.4 325.1,133.2 321.8,127.4 318.5,133.2 325.1,133.2 321.8,139 328.5,139 325.1,144.8 321.8,139 318.5,144.8 315.1,139 321.8,139 318.5,133.2 315.1,139 311.8,133.2 308.4,139 315.1,139 311.8,144.8 318.5,144.8 315.1,150.6 311.8,144.8 308.4,150.6 315.1,150.6 311.8,156.3 318.5,156.3 315.1,150.6 321.8,150.6 318.5,144.8 325.1,144.8 321.8,150.6 328.5,150.6 325.1,144.8 331.8,144.8 328.5,139 335.1,139 331.8,144.8 338.5,144.8 335.1,150.6 331.8,144.8 328.5,150.6 335.1,150.6 331.8,156.3 338.5,156.3 335.1,150.6 341.8,150.6 338.5,144.8 345.1,144.8 341.8,150.6 348.5,150.6 345.1,144.8 351.8,144.8 348.5,139 345.1,144.8 341.8,139 338.5,144.8 335.1,139 341.8,139 338.5,133.2 335.1,139 331.8,133.2 328.5,139 325.1,133.2 331.8,133.2 328.5,127.4 335.1,127.4 331.8,133.2 338.5,133.2 335.1,127.4 341.8,127.4 338.5,121.7 335.1,127.4 331.8,121.7 328.5,127.4 325.1,121.7 331.8,121.7 328.5,115.9 325.1,121.7 321.8,115.9 318.5,121.7 315.1,115.9 321.8,115.9 318.5,110.1 325.1,110.1 321.8,115.9 328.5,115.9 325.1,110.1 331.8,110.1 328.5,104.3 335.1,104.3 331.8,110.1 338.5,110.1 335.1,115.9 331.8,110.1 328.5,115.9 335.1,115.9 331.8,121.7 338.5,121.7 335.1,115.9 341.8,115.9 338.5,110.1 345.1,110.1 341.8,115.9 348.5,115.9 345.1,110.1 351.8,110.1 348.5,104.3 345.1,110.1 341.8,104.3 338.5,110.1 335.1,104.3 341.8,104.3 338.5,98.6 335.1,104.3 331.8,98.6 328.5,104.3 325.1,98.6 331.8,98.6 328.5,92.8 335.1,92.8 331.8,98.6 338.5,98.6 335.1,92.8 341.8,92.8 338.5,87 335.1,92.8 331.8,87 328.5,92.8 325.1,87 331.8,87 328.5,81.2 325.1,87 321.8,81.2 318.5,87 315.1,81.2 321.8,81.2 318.5,75.5 325.1,75.5 321.8,81.2 328.5,81.2 325.1,75.5 331.8,75.5 328.5,69.7 335.1,69.7 331.8,75.5 338.5,75.5 335.1,81.2 331.8,75.5 328.5,81.2 335.1,81.2 331.8,87 338.5,87 335.1,81.2 341.8,81.2 338.5,75.5 345.1,75.5 341.8,81.2 348.5,81.2 345.1,75.5 351.8,75.5 348.5,69.7 355.1,69.7 351.8,75.5 358.5,75.5 355.1,81.2 351.8,75.5 348.5,81.2 355.1,81.2 351.8,87 358.5,87 355.1,92.8 351.8,87 348.5,92.8 345.1,87 351.8,87 348.5,81.2 345.1,87 341.8,81.2 338.5,87 345.1,87 341.8,92.8 348.5,92.8 345.1,98.6 341.8,92.8 338.5,98.6 345.1,98.6 341.8,104.3 348.5,104.3 345.1,98.6 351.8,98.6 348.5,92.8 355.1,92.8 351.8,98.6 358.5,98.6 355.1,92.8 361.8,92.8 358.5,87 365.1,87 361.8,92.8 368.5,92.8 365.1,98.6 361.8,92.8 358.5,98.6 365.1,98.6 361.8,104.3 368.5,104.3 365.1,98.6 371.8,98.6 368.5,92.8 375.1,92.8 371.8,98.6 378.5,98.6 375.1,92.8 381.8,92.8 378.5,87 385.1,87 381.8,92.8 388.5,92.8 385.1,98.6 381.8,92.8 378.5,98.6 385.1,98.6 381.8,104.3 388.5,104.3 385.1,110.1 381.8,104.3 378.5,110.1 375.1,104.3 381.8,104.3 378.5,98.6 375.1,104.3 371.8,98.6 368.5,104.3 375.1,104.3 371.8,110.1 378.5,110.1 375.1,115.9 371.8,110.1 368.5,115.9 375.1,115.9 371.8,121.7 378.5,121.7 375.1,127.4 371.8,121.7 368.5,127.4 365.1,121.7 371.8,121.7 368.5,115.9 365.1,121.7 361.8,115.9 358.5,121.7 355.1,115.9 361.8,115.9 358.5,110.1 365.1,110.1 361.8,115.9 368.5,115.9 365.1,110.1 371.8,110.1 368.5,104.3 365.1,110.1 361.8,104.3 358.5,110.1 355.1,104.3 361.8,104.3 358.5,98.6 355.1,104.3 351.8,98.6 348.5,104.3 355.1,104.3 351.8,110.1 358.5,110.1 355.1,115.9 351.8,110.1 348.5,115.9 355.1,115.9 351.8,121.7 358.5,121.7 355.1,127.4 351.8,121.7 348.5,127.4 345.1,121.7 351.8,121.7 348.5,115.9 345.1,121.7 341.8,115.9 338.5,121.7 345.1,121.7 341.8,127.4 348.5,127.4 345.1,133.2 341.8,127.4 338.5,133.2 345.1,133.2 341.8,139 348.5,139 345.1,133.2 351.8,133.2 348.5,127.4 355.1,127.4 351.8,133.2 358.5,133.2 355.1,127.4 361.8,127.4 358.5,121.7 365.1,121.7 361.8,127.4 368.5,127.4 365.1,133.2 361.8,127.4 358.5,133.2 365.1,133.2 361.8,139 368.5,139 365.1,133.2 371.8,133.2 368.5,127.4 375.1,127.4 371.8,133.2 378.5,133.2 375.1,127.4 381.8,127.4 378.5,121.7 385.1,121.7 381.8,127.4 388.5,127.4 385.1,133.2 381.8,127.4 378.5,133.2 385.1,133.2 381.8,139 388.5,139 385.1,144.8 381.8,139 378.5,144.8 375.1,139 381.8,139 378.5,133.2 375.1,139 371.8,133.2 368.5,139 375.1,139 371.8,144.8 378.5,144.8 375.1,150.6 371.8,144.8 368.5,150.6 375.1,150.6 371.8,156.3 378.5,156.3 375.1,150.6 381.8,150.6 378.5,144.8 385.1,144.8 381.8,150.6 388.5,150.6 385.1,144.8 391.8,144.8 388.5,139 395.1,139 391.8,144.8 398.5,144.8 395.1,150.6 391.8,144.8 388.5,150.6 395.1,150.6 391.8,156.3 398.5,156.3 395.1,150.6 401.8,150.6 398.5,144.8 405.2,144.8 401.8,150.6 408.5,150.6 405.2,144.8 411.8,144.8 408.5,139 415.2,139 411.8,144.8 418.5,144.8 415.2,150.6 411.8,144.8 408.5,150.6 415.2,150.6 411.8,156.3 418.5,156.3 415.2,162.1 411.8,156.3 408.5,162.1 405.2,156.3 411.8,156.3 408.5,150.6 405.2,156.3 401.8,150.6 398.5,156.3 405.2,156.3 401.8,162.1 408.5,162.1 405.2,167.9 401.8,162.1 398.5,167.9 405.2,167.9 401.8,173.7 408.5,173.7 405.2,179.4 401.8,173.7 398.5,179.4 395.1,173.7 401.8,173.7 398.5,167.9 395.1,173.7 391.8,167.9 388.5,173.7 385.1,167.9 391.8,167.9 388.5,162.1 395.1,162.1 391.8,167.9 398.5,167.9 395.1,162.1 401.8,162.1 398.5,156.3 395.1,162.1 391.8,156.3 388.5,162.1 385.1,156.3 391.8,156.3 388.5,150.6 385.1,156.3 381.8,150.6 378.5,156.3 385.1,156.3 381.8,162.1 388.5,162.1 385.1,167.9 381.8,162.1 378.5,167.9 385.1,167.9 381.8,173.7 388.5,173.7 385.1,179.4 381.8,173.7 378.5,179.4 375.1,173.7 381.8,173.7 378.5,167.9 375.1,173.7 371.8,167.9 368.5,173.7 375.1,173.7 371.8,179.4 378.5,179.4 375.1,185.2 371.8,179.4 368.5,185.2 375.1,185.2 371.8,191 378.5,191 375.1,196.7 371.8,191 368.5,196.7 365.1,191 371.8,191 368.5,185.2 365.1,191 361.8,185.2 358.5,191 355.1,185.2 361.8,185.2 358.5,179.4 365.1,179.4 361.8,185.2 368.5,185.2 365.1,179.4 371.8,179.4 368.5,173.7 365.1,179.4 361.8,173.7 358.5,179.4 355.1,173.7 361.8,173.7 358.5,167.9 355.1,173.7 351.8,167.9 348.5,173.7 345.1,167.9 351.8,167.9 348.5,162.1 355.1,162.1 351.8,167.9 358.5,167.9 355.1,162.1 361.8,162.1 358.5,156.3 365.1,156.3 361.8,162.1 368.5,162.1 365.1,167.9 361.8,162.1 358.5,167.9 365.1,167.9 361.8,173.7 368.5,173.7 365.1,167.9 371.8,167.9 368.5,162.1 375.1,162.1 371.8,167.9 378.5,167.9 375.1,162.1 381.8,162.1 378.5,156.3 375.1,162.1 371.8,156.3 368.5,162.1 365.1,156.3 371.8,156.3 368.5,150.6 365.1,156.3 361.8,150.6 358.5,156.3 355.1,150.6 361.8,150.6 358.5,144.8 365.1,144.8 361.8,150.6 368.5,150.6 365.1,144.8 371.8,144.8 368.5,139 365.1,144.8 361.8,139 358.5,144.8 355.1,139 361.8,139 358.5,133.2 355.1,139 351.8,133.2 348.5,139 355.1,139 351.8,144.8 358.5,144.8 355.1,150.6 351.8,144.8 348.5,150.6 355.1,150.6 351.8,156.3 358.5,156.3 355.1,162.1 351.8,156.3 348.5,162.1 345.1,156.3 351.8,156.3 348.5,150.6 345.1,156.3 341.8,150.6 338.5,156.3 345.1,156.3 341.8,162.1 348.5,162.1 345.1,167.9 341.8,162.1 338.5,167.9 345.1,167.9 341.8,173.7 348.5,173.7 345.1,179.4 341.8,173.7 338.5,179.4 335.1,173.7 341.8,173.7 338.5,167.9 335.1,173.7 331.8,167.9 328.5,173.7 325.1,167.9 331.8,167.9 328.5,162.1 335.1,162.1 331.8,167.9 338.5,167.9 335.1,162.1 341.8,162.1 338.5,156.3 335.1,162.1 331.8,156.3 328.5,162.1 325.1,156.3 331.8,156.3 328.5,150.6 325.1,156.3 321.8,150.6 318.5,156.3 325.1,156.3 321.8,162.1 328.5,162.1 325.1,167.9 321.8,162.1 318.5,167.9 325.1,167.9 321.8,173.7 328.5,173.7 325.1,179.4 321.8,173.7 318.5,179.4 315.1,173.7 321.8,173.7 318.5,167.9 315.1,173.7 311.8,167.9 308.4,173.7 315.1,173.7 311.8,179.4 318.5,179.4 315.1,185.2 311.8,179.4 308.4,185.2 315.1,185.2 311.8,191 318.5,191 315.1,185.2 321.8,185.2 318.5,179.4 325.1,179.4 321.8,185.2 328.5,185.2 325.1,179.4 331.8,179.4 328.5,173.7 335.1,173.7 331.8,179.4 338.5,179.4 335.1,185.2 331.8,179.4 328.5,185.2 335.1,185.2 331.8,191 338.5,191 335.1,185.2 341.8,185.2 338.5,179.4 345.1,179.4 341.8,185.2 348.5,185.2 345.1,179.4 351.8,179.4 348.5,173.7 355.1,173.7 351.8,179.4 358.5,179.4 355.1,185.2 351.8,179.4 348.5,185.2 355.1,185.2 351.8,191 358.5,191 355.1,196.7 351.8,191 348.5,196.7 345.1,191 351.8,191 348.5,185.2 345.1,191 341.8,185.2 338.5,191 345.1,191 341.8,196.7 348.5,196.7 345.1,202.5 341.8,196.7 338.5,202.5 345.1,202.5 341.8,208.3 348.5,208.3 345.1,202.5 351.8,202.5 348.5,196.7 355.1,196.7 351.8,202.5 358.5,202.5 355.1,196.7 361.8,196.7 358.5,191 365.1,191 361.8,196.7 368.5,196.7 365.1,202.5 361.8,196.7 358.5,202.5 365.1,202.5 361.8,208.3 368.5,208.3 365.1,202.5 371.8,202.5 368.5,196.7 375.1,196.7 371.8,202.5 378.5,202.5 375.1,196.7 381.8,196.7 378.5,191 385.1,191 381.8,196.7 388.5,196.7 385.1,202.5 381.8,196.7 378.5,202.5 385.1,202.5 381.8,208.3 388.5,208.3 385.1,214.1 381.8,208.3 378.5,214.1 375.1,208.3 381.8,208.3 378.5,202.5 375.1,208.3 371.8,202.5 368.5,208.3 375.1,208.3 371.8,214.1 378.5,214.1 375.1,219.8 371.8,214.1 368.5,219.8 375.1,219.8 371.8,225.6 378.5,225.6 375.1,231.4 371.8,225.6 368.5,231.4 365.1,225.6 371.8,225.6 368.5,219.8 365.1,225.6 361.8,219.8 358.5,225.6 355.1,219.8 361.8,219.8 358.5,214.1 365.1,214.1 361.8,219.8 368.5,219.8 365.1,214.1 371.8,214.1 368.5,208.3 365.1,214.1 361.8,208.3 358.5,214.1 355.1,208.3 361.8,208.3 358.5,202.5 355.1,208.3 351.8,202.5 348.5,208.3 355.1,208.3 351.8,214.1 358.5,214.1 355.1,219.8 351.8,214.1 348.5,219.8 355.1,219.8 351.8,225.6 358.5,225.6 355.1,231.4 351.8,225.6 348.5,231.4 345.1,225.6 351.8,225.6 348.5,219.8 345.1,225.6 341.8,219.8 338.5,225.6 345.1,225.6 341.8,231.4 348.5,231.4 345.1,237.2 341.8,231.4 338.5,237.2 345.1,237.2 341.8,242.9 348.5,242.9 345.1,237.2 351.8,237.2 348.5,231.4 355.1,231.4 351.8,237.2 358.5,237.2 355.1,231.4 361.8,231.4 358.5,225.6 365.1,225.6 361.8,231.4 368.5,231.4 365.1,237.2 361.8,231.4 358.5,237.2 365.1,237.2 361.8,242.9 368.5,242.9 365.1,237.2 371.8,237.2 368.5,231.4 375.1,231.4 371.8,237.2 378.5,237.2 375.1,231.4 381.8,231.4 378.5,225.6 385.1,225.6 381.8,231.4 388.5,231.4 385.1,237.2 381.8,231.4 378.5,237.2 385.1,237.2 381.8,242.9 388.5,242.9 385.1,248.7 381.8,242.9 378.5,248.7 375.1,242.9 381.8,242.9 378.5,237.2 375.1,242.9 371.8,237.2 368.5,242.9 375.1,242.9 371.8,248.7 378.5,248.7 375.1,254.5 371.8,248.7 368.5,254.5 375.1,254.5 371.8,260.3 378.5,260.3 375.1,254.5 381.8,254.5 378.5,248.7 385.1,248.7 381.8,254.5 388.5,254.5 385.1,248.7 391.8,248.7 388.5,242.9 395.1,242.9 391.8,248.7 398.5,248.7 395.1,254.5 391.8,248.7 388.5,254.5 395.1,254.5 391.8,260.3 398.5,260.3 395.1,254.5 401.8,254.5 398.5,248.7 405.2,248.7 401.8,254.5 408.5,254.5 405.2,248.7 411.8,248.7 408.5,242.9 415.2,242.9 411.8,248.7 418.5,248.7 415.2,254.5 411.8,248.7 408.5,254.5 415.2,254.5 411.8,260.3 418.5,260.3 415.2,266.1 411.8,260.3 408.5,266.1 405.2,260.3 411.8,260.3 408.5,254.5 405.2,260.3 401.8,254.5 398.5,260.3 405.2,260.3 401.8,266.1 408.5,266.1 405.2,271.8 401.8,266.1 398.5,271.8 405.2,271.8 401.8,277.6 408.5,277.6 405.2,283.4 401.8,277.6 398.5,283.4 395.1,277.6 401.8,277.6 398.5,271.8 395.1,277.6 391.8,271.8 388.5,277.6 385.1,271.8 391.8,271.8 388.5,266.1 395.1,266.1 391.8,271.8 398.5,271.8 395.1,266.1 401.8,266.1 398.5,260.3 395.1,266.1 391.8,260.3 388.5,266.1 385.1,260.3 391.8,260.3 388.5,254.5 385.1,260.3 381.8,254.5 378.5,260.3 385.1,260.3 381.8,266.1 388.5,266.1 385.1,271.8 381.8,266.1 378.5,271.8 385.1,271.8 381.8,277.6 388.5,277.6 385.1,283.4 381.8,277.6 378.5,283.4 375.1,277.6 381.8,277.6 378.5,271.8 375.1,277.6 371.8,271.8 368.5,277.6 375.1,277.6 371.8,283.4 378.5,283.4 375.1,289.2 371.8,283.4 368.5,289.2 375.1,289.2 371.8,294.9 378.5,294.9 375.1,300.7 371.8,294.9 368.5,300.7 365.1,294.9 371.8,294.9 368.5,289.2 365.1,294.9 361.8,289.2 358.5,294.9 355.1,289.2 361.8,289.2 358.5,283.4 365.1,283.4 361.8,289.2 368.5,289.2 365.1,283.4 371.8,283.4 368.5,277.6 365.1,283.4 361.8,277.6 358.5,283.4 355.1,277.6 361.8,277.6 358.5,271.8 355.1,277.6 351.8,271.8 348.5,277.6 345.1,271.8 351.8,271.8 348.5,266.1 355.1,266.1 351.8,271.8 358.5,271.8 355.1,266.1 361.8,266.1 358.5,260.3 365.1,260.3 361.8,266.1 368.5,266.1 365.1,271.8 361.8,266.1 358.5,271.8 365.1,271.8 361.8,277.6 368.5,277.6 365.1,271.8 371.8,271.8 368.5,266.1 375.1,266.1 371.8,271.8 378.5,271.8 375.1,266.1 381.8,266.1 378.5,260.3 375.1,266.1 371.8,260.3 368.5,266.1 365.1,260.3 371.8,260.3 368.5,254.5 365.1,260.3 361.8,254.5 358.5,260.3 355.1,254.5 361.8,254.5 358.5,248.7 365.1,248.7 361.8,254.5 368.5,254.5 365.1,248.7 371.8,248.7 368.5,242.9 365.1,248.7 361.8,242.9 358.5,248.7 355.1,242.9 361.8,242.9 358.5,237.2 355.1,242.9 351.8,237.2 348.5,242.9 355.1,242.9 351.8,248.7 358.5,248.7 355.1,254.5 351.8,248.7 348.5,254.5 355.1,254.5 351.8,260.3 358.5,260.3 355.1,266.1 351.8,260.3 348.5,266.1 345.1,260.3 351.8,260.3 348.5,254.5 345.1,260.3 341.8,254.5 338.5,260.3 345.1,260.3 341.8,266.1 348.5,266.1 345.1,271.8 341.8,266.1 338.5,271.8 345.1,271.8 341.8,277.6 348.5,277.6 345.1,283.4 341.8,277.6 338.5,283.4 335.1,277.6 341.8,277.6 338.5,271.8 335.1,277.6 331.8,271.8 328.5,277.6 325.1,271.8 331.8,271.8 328.5,266.1 335.1,266.1 331.8,271.8 338.5,271.8 335.1,266.1 341.8,266.1 338.5,260.3 335.1,266.1 331.8,260.3 328.5,266.1 325.1,260.3 331.8,260.3 328.5,254.5 325.1,260.3 321.8,254.5 318.5,260.3 325.1,260.3 321.8,266.1 328.5,266.1 325.1,271.8 321.8,266.1 318.5,271.8 325.1,271.8 321.8,277.6 328.5,277.6 325.1,283.4 321.8,277.6 318.5,283.4 315.1,277.6 321.8,277.6 318.5,271.8 315.1,277.6 311.8,271.8 308.4,277.6 315.1,277.6 311.8,283.4 318.5,283.4 315.1,289.2 311.8,283.4 308.4,289.2 315.1,289.2 311.8,294.9 318.5,294.9 315.1,300.7 311.8,294.9 308.4,300.7 305.1,294.9 311.8,294.9 308.4,289.2 305.1,294.9 301.8,289.2 298.4,294.9 295.1,289.2 301.8,289.2 298.4,283.4 305.1,283.4 301.8,289.2 308.4,289.2 305.1,283.4 311.8,283.4 308.4,277.6 305.1,283.4 301.8,277.6 298.4,283.4 295.1,277.6 301.8,277.6 298.4,271.8 295.1,277.6 291.8,271.8 288.4,277.6 285.1,271.8 291.8,271.8 288.4,266.1 295.1,266.1 291.8,271.8 298.4,271.8 295.1,266.1 301.8,266.1 298.4,260.3 305.1,260.3 301.8,266.1 308.4,266.1 305.1,271.8 301.8,266.1 298.4,271.8 305.1,271.8 301.8,277.6 308.4,277.6 305.1,271.8 311.8,271.8 308.4,266.1 315.1,266.1 311.8,271.8 318.5,271.8 315.1,266.1 321.8,266.1 318.5,260.3 315.1,266.1 311.8,260.3 308.4,266.1 305.1,260.3 311.8,260.3 308.4,254.5 305.1,260.3 301.8,254.5 298.4,260.3 295.1,254.5 301.8,254.5 298.4,248.7 305.1,248.7 301.8,254.5 308.4,254.5 305.1,248.7 311.8,248.7 308.4,242.9 305.1,248.7 301.8,242.9 298.4,248.7 295.1,242.9 301.8,242.9 298.4,237.2 295.1,242.9 291.8,237.2 288.4,242.9 285.1,237.2 291.8,237.2 288.4,231.4 295.1,231.4 291.8,237.2 298.4,237.2 295.1,231.4 301.8,231.4 298.4,225.6 305.1,225.6 301.8,231.4 308.4,231.4 305.1,237.2 301.8,231.4 298.4,237.2 305.1,237.2 301.8,242.9 308.4,242.9 305.1,237.2 311.8,237.2 308.4,231.4 315.1,231.4 311.8,237.2 318.5,237.2 315.1,231.4 321.8,231.4 318.5,225.6 325.1,225.6 321.8,231.4 328.5,231.4 325.1,237.2 321.8,231.4 318.5,237.2 325.1,237.2 321.8,242.9 328.5,242.9 325.1,248.7 321.8,242.9 318.5,248.7 315.1,242.9 321.8,242.9 318.5,237.2 315.1,242.9 311.8,237.2 308.4,242.9 315.1,242.9 311.8,248.7 318.5,248.7 315.1,254.5 311.8,248.7 308.4,254.5 315.1,254.5 311.8,260.3 318.5,260.3 315.1,254.5 321.8,254.5 318.5,248.7 325.1,248.7 321.8,254.5 328.5,254.5 325.1,248.7 331.8,248.7 328.5,242.9 335.1,242.9 331.8,248.7 338.5,248.7 335.1,254.5 331.8,248.7 328.5,254.5 335.1,254.5 331.8,260.3 338.5,260.3 335.1,254.5 341.8,254.5 338.5,248.7 345.1,248.7 341.8,254.5 348.5,254.5 345.1,248.7 351.8,248.7 348.5,242.9 345.1,248.7 341.8,242.9 338.5,248.7 335.1,242.9 341.8,242.9 338.5,237.2 335.1,242.9 331.8,237.2 328.5,242.9 325.1,237.2 331.8,237.2 328.5,231.4 335.1,231.4 331.8,237.2 338.5,237.2 335.1,231.4 341.8,231.4 338.5,225.6 335.1,231.4 331.8,225.6 328.5,231.4 325.1,225.6 331.8,225.6 328.5,219.8 325.1,225.6 321.8,219.8 318.5,225.6 315.1,219.8 321.8,219.8 318.5,214.1 325.1,214.1 321.8,219.8 328.5,219.8 325.1,214.1 331.8,214.1 328.5,208.3 335.1,208.3 331.8,214.1 338.5,214.1 335.1,219.8 331.8,214.1 328.5,219.8 335.1,219.8 331.8,225.6 338.5,225.6 335.1,219.8 341.8,219.8 338.5,214.1 345.1,214.1 341.8,219.8 348.5,219.8 345.1,214.1 351.8,214.1 348.5,208.3 345.1,214.1 341.8,208.3 338.5,214.1 335.1,208.3 341.8,208.3 338.5,202.5 335.1,208.3 331.8,202.5 328.5,208.3 325.1,202.5 331.8,202.5 328.5,196.7 335.1,196.7 331.8,202.5 338.5,202.5 335.1,196.7 341.8,196.7 338.5,191 335.1,196.7 331.8,191 328.5,196.7 325.1,191 331.8,191 328.5,185.2 325.1,191 321.8,185.2 318.5,191 325.1,191 321.8,196.7 328.5,196.7 325.1,202.5 321.8,196.7 318.5,202.5 325.1,202.5 321.8,208.3 328.5,208.3 325.1,214.1 321.8,208.3 318.5,214.1 315.1,208.3 321.8,208.3 318.5,202.5 315.1,208.3 311.8,202.5 308.4,208.3 315.1,208.3 311.8,214.1 318.5,214.1 315.1,219.8 311.8,214.1 308.4,219.8 315.1,219.8 311.8,225.6 318.5,225.6 315.1,231.4 311.8,225.6 308.4,231.4 305.1,225.6 311.8,225.6 308.4,219.8 305.1,225.6 301.8,219.8 298.4,225.6 295.1,219.8 301.8,219.8 298.4,214.1 305.1,214.1 301.8,219.8 308.4,219.8 305.1,214.1 311.8,214.1 308.4,208.3 305.1,214.1 301.8,208.3 298.4,214.1 295.1,208.3 301.8,208.3 298.4,202.5 295.1,208.3 291.8,202.5 288.4,208.3 295.1,208.3 291.8,214.1 298.4,214.1 295.1,219.8 291.8,214.1 288.4,219.8 295.1,219.8 291.8,225.6 298.4,225.6 295.1,231.4 291.8,225.6 288.4,231.4 285.1,225.6 291.8,225.6 288.4,219.8 285.1,225.6 281.8,219.8 278.4,225.6 285.1,225.6 281.8,231.4 288.4,231.4 285.1,237.2 281.8,231.4 278.4,237.2 285.1,237.2 281.8,242.9 288.4,242.9 285.1,248.7 281.8,242.9 278.4,248.7 275.1,242.9 281.8,242.9 278.4,237.2 275.1,242.9 271.8,237.2 268.4,242.9 265.1,237.2 271.8,237.2 268.4,231.4 275.1,231.4 271.8,237.2 278.4,237.2 275.1,231.4 281.8,231.4 278.4,225.6 275.1,231.4 271.8,225.6 268.4,231.4 265.1,225.6 271.8,225.6 268.4,219.8 265.1,225.6 261.8,219.8 258.4,225.6 255.1,219.8 261.8,219.8 258.4,214.1 265.1,214.1 261.8,219.8 268.4,219.8 265.1,214.1 271.8,214.1 268.4,208.3 275.1,208.3 271.8,214.1 278.4,214.1 275.1,219.8 271.8,214.1 268.4,219.8 275.1,219.8 271.8,225.6 278.4,225.6 275.1,219.8 281.8,219.8 278.4,214.1 285.1,214.1 281.8,219.8 288.4,219.8 285.1,214.1 291.8,214.1 288.4,208.3 285.1,214.1 281.8,208.3 278.4,214.1 275.1,208.3 281.8,208.3 278.4,202.5 275.1,208.3 271.8,202.5 268.4,208.3 265.1,202.5 271.8,202.5 268.4,196.7 275.1,196.7 271.8,202.5 278.4,202.5 275.1,196.7 281.8,196.7 278.4,191 275.1,196.7 271.8,191 268.4,196.7 265.1,191 271.8,191 268.4,185.2 265.1,191 261.8,185.2 258.4,191 265.1,191 261.8,196.7 268.4,196.7 265.1,202.5 261.8,196.7 258.4,202.5 265.1,202.5 261.8,208.3 268.4,208.3 265.1,214.1 261.8,208.3 258.4,214.1 255.1,208.3 261.8,208.3 258.4,202.5 255.1,208.3 251.8,202.5 248.4,208.3 255.1,208.3 251.8,214.1 258.4,214.1 255.1,219.8 251.8,214.1 248.4,219.8 255.1,219.8 251.8,225.6 258.4,225.6 255.1,231.4 251.8,225.6 248.4,231.4 245.1,225.6 251.8,225.6 248.4,219.8 245.1,225.6 241.8,219.8 238.4,225.6 235.1,219.8 241.8,219.8 238.4,214.1 245.1,214.1 241.8,219.8 248.4,219.8 245.1,214.1 251.8,214.1 248.4,208.3 245.1,214.1 241.8,208.3 238.4,214.1 235.1,208.3 241.8,208.3 238.4,202.5 235.1,208.3 231.8,202.5 228.4,208.3 235.1,208.3 231.8,214.1 238.4,214.1 235.1,219.8 231.8,214.1 228.4,219.8 235.1,219.8 231.8,225.6 238.4,225.6 235.1,231.4 231.8,225.6 228.4,231.4 225.1,225.6 231.8,225.6 228.4,219.8 225.1,225.6 221.7,219.8 218.4,225.6 225.1,225.6 221.7,231.4 228.4,231.4 225.1,237.2 221.7,231.4 218.4,237.2 225.1,237.2 221.7,242.9 228.4,242.9 225.1,237.2 231.8,237.2 228.4,231.4 235.1,231.4 231.8,237.2 238.4,237.2 235.1,231.4 241.8,231.4 238.4,225.6 245.1,225.6 241.8,231.4 248.4,231.4 245.1,237.2 241.8,231.4 238.4,237.2 245.1,237.2 241.8,242.9 248.4,242.9 245.1,237.2 251.8,237.2 248.4,231.4 255.1,231.4 251.8,237.2 258.4,237.2 255.1,231.4 261.8,231.4 258.4,225.6 265.1,225.6 261.8,231.4 268.4,231.4 265.1,237.2 261.8,231.4 258.4,237.2 265.1,237.2 261.8,242.9 268.4,242.9 265.1,248.7 261.8,242.9 258.4,248.7 255.1,242.9 261.8,242.9 258.4,237.2 255.1,242.9 251.8,237.2 248.4,242.9 255.1,242.9 251.8,248.7 258.4,248.7 255.1,254.5 251.8,248.7 248.4,254.5 255.1,254.5 251.8,260.3 258.4,260.3 255.1,254.5 261.8,254.5 258.4,248.7 265.1,248.7 261.8,254.5 268.4,254.5 265.1,248.7 271.8,248.7 268.4,242.9 275.1,242.9 271.8,248.7 278.4,248.7 275.1,254.5 271.8,248.7 268.4,254.5 275.1,254.5 271.8,260.3 278.4,260.3 275.1,254.5 281.8,254.5 278.4,248.7 285.1,248.7 281.8,254.5 288.4,254.5 285.1,248.7 291.8,248.7 288.4,242.9 295.1,242.9 291.8,248.7 298.4,248.7 295.1,254.5 291.8,248.7 288.4,254.5 295.1,254.5 291.8,260.3 298.4,260.3 295.1,266.1 291.8,260.3 288.4,266.1 285.1,260.3 291.8,260.3 288.4,254.5 285.1,260.3 281.8,254.5 278.4,260.3 285.1,260.3 281.8,266.1 288.4,266.1 285.1,271.8 281.8,266.1 278.4,271.8 285.1,271.8 281.8,277.6 288.4,277.6 285.1,283.4 281.8,277.6 278.4,283.4 275.1,277.6 281.8,277.6 278.4,271.8 275.1,277.6 271.8,271.8 268.4,277.6 265.1,271.8 271.8,271.8 268.4,266.1 275.1,266.1 271.8,271.8 278.4,271.8 275.1,266.1 281.8,266.1 278.4,260.3 275.1,266.1 271.8,260.3 268.4,266.1 265.1,260.3 271.8,260.3 268.4,254.5 265.1,260.3 261.8,254.5 258.4,260.3 265.1,260.3 261.8,266.1 268.4,266.1 265.1,271.8 261.8,266.1 258.4,271.8 265.1,271.8 261.8,277.6 268.4,277.6 265.1,283.4 261.8,277.6 258.4,283.4 255.1,277.6 261.8,277.6 258.4,271.8 255.1,277.6 251.8,271.8 248.4,277.6 255.1,277.6 251.8,283.4 258.4,283.4 255.1,289.2 251.8,283.4 248.4,289.2 255.1,289.2 251.8,294.9 258.4,294.9 255.1,289.2 261.8,289.2 258.4,283.4 265.1,283.4 261.8,289.2 268.4,289.2 265.1,283.4 271.8,283.4 268.4,277.6 275.1,277.6 271.8,283.4 278.4,283.4 275.1,289.2 271.8,283.4 268.4,289.2 275.1,289.2 271.8,294.9 278.4,294.9 275.1,289.2 281.8,289.2 278.4,283.4 285.1,283.4 281.8,289.2 288.4,289.2 285.1,283.4 291.8,283.4 288.4,277.6 295.1,277.6 291.8,283.4 298.4,283.4 295.1,289.2 291.8,283.4 288.4,289.2 295.1,289.2 291.8,294.9 298.4,294.9 295.1,300.7 291.8,294.9 288.4,300.7 285.1,294.9 291.8,294.9 288.4,289.2 285.1,294.9 281.8,289.2 278.4,294.9 285.1,294.9 281.8,300.7 288.4,300.7 285.1,306.5 281.8,300.7 278.4,306.5 285.1,306.5 281.8,312.2 288.4,312.2 285.1,306.5 291.8,306.5 288.4,300.7 295.1,300.7 291.8,306.5 298.4,306.5 295.1,300.7 301.8,300.7 298.4,294.9 305.1,294.9 301.8,300.7 308.4,300.7 305.1,306.5 301.8,300.7 298.4,306.5 305.1,306.5 301.8,312.2 308.4,312.2 305.1,306.5 311.8,306.5 308.4,300.7 315.1,300.7 311.8,306.5 318.5,306.5 315.1,300.7 321.8,300.7 318.5,294.9 325.1,294.9 321.8,300.7 328.5,300.7 325.1,306.5 321.8,300.7 318.5,306.5 325.1,306.5 321.8,312.2 328.5,312.2 325.1,318 321.8,312.2 318.5,318 315.1,312.2 321.8,312.2 318.5,306.5 315.1,312.2 311.8,306.5 308.4,312.2 315.1,312.2 311.8,318 318.5,318 315.1,323.8 311.8,318 308.4,323.8 315.1,323.8 311.8,329.6 318.5,329.6 315.1,335.3 311.8,329.6 308.4,335.3 305.1,329.6 311.8,329.6 308.4,323.8 305.1,329.6 301.8,323.8 298.4,329.6 295.1,323.8 301.8,323.8 298.4,318 305.1,318 301.8,323.8 308.4,323.8 305.1,318 311.8,318 308.4,312.2 305.1,318 301.8,312.2 298.4,318 295.1,312.2 301.8,312.2 298.4,306.5 295.1,312.2 291.8,306.5 288.4,312.2 295.1,312.2 291.8,318 298.4,318 295.1,323.8 291.8,318 288.4,323.8 295.1,323.8 291.8,329.6 298.4,329.6 295.1,335.3 291.8,329.6 288.4,335.3 285.1,329.6 291.8,329.6 288.4,323.8 285.1,329.6 281.8,323.8 278.4,329.6 285.1,329.6 281.8,335.3 288.4,335.3 285.1,341.1 281.8,335.3 278.4,341.1 285.1,341.1 281.8,346.9 288.4,346.9 285.1,352.7 281.8,346.9 278.4,352.7 275.1,346.9 281.8,346.9 278.4,341.1 275.1,346.9 271.8,341.1 268.4,346.9 265.1,341.1 271.8,341.1 268.4,335.3 275.1,335.3 271.8,341.1 278.4,341.1 275.1,335.3 281.8,335.3 278.4,329.6 275.1,335.3 271.8,329.6 268.4,335.3 265.1,329.6 271.8,329.6 268.4,323.8 265.1,329.6 261.8,323.8 258.4,329.6 255.1,323.8 261.8,323.8 258.4,318 265.1,318 261.8,323.8 268.4,323.8 265.1,318 271.8,318 268.4,312.2 275.1,312.2 271.8,318 278.4,318 275.1,323.8 271.8,318 268.4,323.8 275.1,323.8 271.8,329.6 278.4,329.6 275.1,323.8 281.8,323.8 278.4,318 285.1,318 281.8,323.8 288.4,323.8 285.1,318 291.8,318 288.4,312.2 285.1,318 281.8,312.2 278.4,318 275.1,312.2 281.8,312.2 278.4,306.5 275.1,312.2 271.8,306.5 268.4,312.2 265.1,306.5 271.8,306.5 268.4,300.7 275.1,300.7 271.8,306.5 278.4,306.5 275.1,300.7 281.8,300.7 278.4,294.9 275.1,300.7 271.8,294.9 268.4,300.7 265.1,294.9 271.8,294.9 268.4,289.2 265.1,294.9 261.8,289.2 258.4,294.9 265.1,294.9 261.8,300.7 268.4,300.7 265.1,306.5 261.8,300.7 258.4,306.5 265.1,306.5 261.8,312.2 268.4,312.2 265.1,318 261.8,312.2 258.4,318 255.1,312.2 261.8,312.2 258.4,306.5 255.1,312.2 251.8,306.5 248.4,312.2 255.1,312.2 251.8,318 258.4,318 255.1,323.8 251.8,318 248.4,323.8 255.1,323.8 251.8,329.6 258.4,329.6 255.1,335.3 251.8,329.6 248.4,335.3 245.1,329.6 251.8,329.6 248.4,323.8 245.1,329.6 241.8,323.8 238.4,329.6 235.1,323.8 241.8,323.8 238.4,318 245.1,318 241.8,323.8 248.4,323.8 245.1,318 251.8,318 248.4,312.2 245.1,318 241.8,312.2 238.4,318 235.1,312.2 241.8,312.2 238.4,306.5 235.1,312.2 231.8,306.5 228.4,312.2 235.1,312.2 231.8,318 238.4,318 235.1,323.8 231.8,318 228.4,323.8 235.1,323.8 231.8,329.6 238.4,329.6 235.1,335.3 231.8,329.6 228.4,335.3 225.1,329.6 231.8,329.6 228.4,323.8 225.1,329.6 221.7,323.8 218.4,329.6 225.1,329.6 221.7,335.3 228.4,335.3 225.1,341.1 221.7,335.3 218.4,341.1 225.1,341.1 221.7,346.9 228.4,346.9 225.1,341.1 231.8,341.1 228.4,335.3 235.1,335.3 231.8,341.1 238.4,341.1 235.1,335.3 241.8,335.3 238.4,329.6 245.1,329.6 241.8,335.3 248.4,335.3 245.1,341.1 241.8,335.3 238.4,341.1 245.1,341.1 241.8,346.9 248.4,346.9 245.1,341.1 251.8,341.1 248.4,335.3 255.1,335.3 251.8,341.1 258.4,341.1 255.1,335.3 261.8,335.3 258.4,329.6 265.1,329.6 261.8,335.3 268.4,335.3 265.1,341.1 261.8,335.3 258.4,341.1 265.1,341.1 261.8,346.9 268.4,346.9 265.1,352.7 261.8,346.9 258.4,352.7 255.1,346.9 261.8,346.9 258.4,341.1 255.1,346.9 251.8,341.1 248.4,346.9 255.1,346.9 251.8,352.7 258.4,352.7 255.1,358.4 251.8,352.7 248.4,358.4 255.1,358.4 251.8,364.2 258.4,364.2 255.1,358.4 261.8,358.4 258.4,352.7 265.1,352.7 261.8,358.4 268.4,358.4 265.1,352.7 271.8,352.7 268.4,346.9 275.1,346.9 271.8,352.7 278.4,352.7 275.1,358.4 271.8,352.7 268.4,358.4 275.1,358.4 271.8,364.2 278.4,364.2 275.1,358.4 281.8,358.4 278.4,352.7 285.1,352.7 281.8,358.4 288.4,358.4 285.1,352.7 291.8,352.7 288.4,346.9 295.1,346.9 291.8,352.7 298.4,352.7 295.1,358.4 291.8,352.7 288.4,358.4 295.1,358.4 291.8,364.2 298.4,364.2 295.1,370 291.8,364.2 288.4,370 285.1,364.2 291.8,364.2 288.4,358.4 285.1,364.2 281.8,358.4 278.4,364.2 285.1,364.2 281.8,370 288.4,370 285.1,375.8 281.8,370 278.4,375.8 285.1,375.8 281.8,381.6 288.4,381.6 285.1,387.3 281.8,381.6 278.4,387.3 275.1,381.6 281.8,381.6 278.4,375.8 275.1,381.6 271.8,375.8 268.4,381.6 265.1,375.8 271.8,375.8 268.4,370 275.1,370 271.8,375.8 278.4,375.8 275.1,370 281.8,370 278.4,364.2 275.1,370 271.8,364.2 268.4,370 265.1,364.2 271.8,364.2 268.4,358.4 265.1,364.2 261.8,358.4 258.4,364.2 265.1,364.2 261.8,370 268.4,370 265.1,375.8 261.8,370 258.4,375.8 265.1,375.8 261.8,381.6 268.4,381.6 265.1,387.3 261.8,381.6 258.4,387.3 255.1,381.6 261.8,381.6 258.4,375.8 255.1,381.6 251.8,375.8 248.4,381.6 255.1,381.6 251.8,387.3 258.4,387.3 255.1,393.1 251.8,387.3 248.4,393.1 255.1,393.1 251.8,398.9 258.4,398.9 255.1,393.1 261.8,393.1 258.4,387.3 265.1,387.3 261.8,393.1 268.4,393.1 265.1,387.3 271.8,387.3 268.4,381.6 275.1,381.6 271.8,387.3 278.4,387.3 275.1,393.1 271.8,387.3 268.4,393.1 275.1,393.1 271.8,398.9 278.4,398.9 275.1,393.1 281.8,393.1 278.4,387.3 285.1,387.3 281.8,393.1 288.4,393.1 285.1,387.3 291.8,387.3 288.4,381.6 295.1,381.6 291.8,387.3 298.4,387.3 295.1,393.1 291.8,387.3 288.4,393.1 295.1,393.1 291.8,398.9 298.4,398.9 295.1,404.7 291.8,398.9 288.4,404.7 285.1,398.9 291.8,398.9 288.4,393.1 285.1,398.9 281.8,393.1 278.4,398.9 285.1,398.9 281.8,404.7 288.4,404.7 285.1,410.4 281.8,404.7 278.4,410.4 285.1,410.4 281.8,416.2 288.4,416.2 285.1,410.4 291.8,410.4 288.4,404.7 295.1,404.7 291.8,410.4 298.4,410.4 295.1,404.7 301.8,404.7 298.4,398.9 305.1,398.9 301.8,404.7 308.4,404.7 305.1,410.4 301.8,404.7 298.4,410.4 305.1,410.4 301.8,416.2 308.4,416.2 305.1,410.4 311.8,410.4 308.4,404.7 315.1,404.7 311.8,410.4 318.5,410.4 315.1,404.7 321.8,404.7 318.5,398.9 315.1,404.7 311.8,398.9 308.4,404.7 305.1,398.9 311.8,398.9 308.4,393.1 305.1,398.9 301.8,393.1 298.4,398.9 295.1,393.1 301.8,393.1 298.4,387.3 305.1,387.3 301.8,393.1 308.4,393.1 305.1,387.3 311.8,387.3 308.4,381.6 305.1,387.3 301.8,381.6 298.4,387.3 295.1,381.6 301.8,381.6 298.4,375.8 295.1,381.6 291.8,375.8 288.4,381.6 285.1,375.8 291.8,375.8 288.4,370 295.1,370 291.8,375.8 298.4,375.8 295.1,370 301.8,370 298.4,364.2 305.1,364.2 301.8,370 308.4,370 305.1,375.8 301.8,370 298.4,375.8 305.1,375.8 301.8,381.6 308.4,381.6 305.1,375.8 311.8,375.8 308.4,370 315.1,370 311.8,375.8 318.5,375.8 315.1,370 321.8,370 318.5,364.2 315.1,370 311.8,364.2 308.4,370 305.1,364.2 311.8,364.2 308.4,358.4 305.1,364.2 301.8,358.4 298.4,364.2 295.1,358.4 301.8,358.4 298.4,352.7 305.1,352.7 301.8,358.4 308.4,358.4 305.1,352.7 311.8,352.7 308.4,346.9 305.1,352.7 301.8,346.9 298.4,352.7 295.1,346.9 301.8,346.9 298.4,341.1 295.1,346.9 291.8,341.1 288.4,346.9 285.1,341.1 291.8,341.1 288.4,335.3 295.1,335.3 291.8,341.1 298.4,341.1 295.1,335.3 301.8,335.3 298.4,329.6 305.1,329.6 301.8,335.3 308.4,335.3 305.1,341.1 301.8,335.3 298.4,341.1 305.1,341.1 301.8,346.9 308.4,346.9 305.1,341.1 311.8,341.1 308.4,335.3 315.1,335.3 311.8,341.1 318.5,341.1 315.1,335.3 321.8,335.3 318.5,329.6 325.1,329.6 321.8,335.3 328.5,335.3 325.1,341.1 321.8,335.3 318.5,341.1 325.1,341.1 321.8,346.9 328.5,346.9 325.1,352.7 321.8,346.9 318.5,352.7 315.1,346.9 321.8,346.9 318.5,341.1 315.1,346.9 311.8,341.1 308.4,346.9 315.1,346.9 311.8,352.7 318.5,352.7 315.1,358.4 311.8,352.7 308.4,358.4 315.1,358.4 311.8,364.2 318.5,364.2 315.1,358.4 321.8,358.4 318.5,352.7 325.1,352.7 321.8,358.4 328.5,358.4 325.1,352.7 331.8,352.7 328.5,346.9 335.1,346.9 331.8,352.7 338.5,352.7 335.1,358.4 331.8,352.7 328.5,358.4 335.1,358.4 331.8,364.2 338.5,364.2 335.1,358.4 341.8,358.4 338.5,352.7 345.1,352.7 341.8,358.4 348.5,358.4 345.1,352.7 351.8,352.7 348.5,346.9 345.1,352.7 341.8,346.9 338.5,352.7 335.1,346.9 341.8,346.9 338.5,341.1 335.1,346.9 331.8,341.1 328.5,346.9 325.1,341.1 331.8,341.1 328.5,335.3 335.1,335.3 331.8,341.1 338.5,341.1 335.1,335.3 341.8,335.3 338.5,329.6 335.1,335.3 331.8,329.6 328.5,335.3 325.1,329.6 331.8,329.6 328.5,323.8 325.1,329.6 321.8,323.8 318.5,329.6 315.1,323.8 321.8,323.8 318.5,318 325.1,318 321.8,323.8 328.5,323.8 325.1,318 331.8,318 328.5,312.2 335.1,312.2 331.8,318 338.5,318 335.1,323.8 331.8,318 328.5,323.8 335.1,323.8 331.8,329.6 338.5,329.6 335.1,323.8 341.8,323.8 338.5,318 345.1,318 341.8,323.8 348.5,323.8 345.1,318 351.8,318 348.5,312.2 345.1,318 341.8,312.2 338.5,318 335.1,312.2 341.8,312.2 338.5,306.5 335.1,312.2 331.8,306.5 328.5,312.2 325.1,306.5 331.8,306.5 328.5,300.7 335.1,300.7 331.8,306.5 338.5,306.5 335.1,300.7 341.8,300.7 338.5,294.9 335.1,300.7 331.8,294.9 328.5,300.7 325.1,294.9 331.8,294.9 328.5,289.2 325.1,294.9 321.8,289.2 318.5,294.9 315.1,289.2 321.8,289.2 318.5,283.4 325.1,283.4 321.8,289.2 328.5,289.2 325.1,283.4 331.8,283.4 328.5,277.6 335.1,277.6 331.8,283.4 338.5,283.4 335.1,289.2 331.8,283.4 328.5,289.2 335.1,289.2 331.8,294.9 338.5,294.9 335.1,289.2 341.8,289.2 338.5,283.4 345.1,283.4 341.8,289.2 348.5,289.2 345.1,283.4 351.8,283.4 348.5,277.6 355.1,277.6 351.8,283.4 358.5,283.4 355.1,289.2 351.8,283.4 348.5,289.2 355.1,289.2 351.8,294.9 358.5,294.9 355.1,300.7 351.8,294.9 348.5,300.7 345.1,294.9 351.8,294.9 348.5,289.2 345.1,294.9 341.8,289.2 338.5,294.9 345.1,294.9 341.8,300.7 348.5,300.7 345.1,306.5 341.8,300.7 338.5,306.5 345.1,306.5 341.8,312.2 348.5,312.2 345.1,306.5 351.8,306.5 348.5,300.7 355.1,300.7 351.8,306.5 358.5,306.5 355.1,300.7 361.8,300.7 358.5,294.9 365.1,294.9 361.8,300.7 368.5,300.7 365.1,306.5 361.8,300.7 358.5,306.5 365.1,306.5 361.8,312.2 368.5,312.2 365.1,306.5 371.8,306.5 368.5,300.7 375.1,300.7 371.8,306.5 378.5,306.5 375.1,300.7 381.8,300.7 378.5,294.9 385.1,294.9 381.8,300.7 388.5,300.7 385.1,306.5 381.8,300.7 378.5,306.5 385.1,306.5 381.8,312.2 388.5,312.2 385.1,318 381.8,312.2 378.5,318 375.1,312.2 381.8,312.2 378.5,306.5 375.1,312.2 371.8,306.5 368.5,312.2 375.1,312.2 371.8,318 378.5,318 375.1,323.8 371.8,318 368.5,323.8 375.1,323.8 371.8,329.6 378.5,329.6 375.1,335.3 371.8,329.6 368.5,335.3 365.1,329.6 371.8,329.6 368.5,323.8 365.1,329.6 361.8,323.8 358.5,329.6 355.1,323.8 361.8,323.8 358.5,318 365.1,318 361.8,323.8 368.5,323.8 365.1,318 371.8,318 368.5,312.2 365.1,318 361.8,312.2 358.5,318 355.1,312.2 361.8,312.2 358.5,306.5 355.1,312.2 351.8,306.5 348.5,312.2 355.1,312.2 351.8,318 358.5,318 355.1,323.8 351.8,318 348.5,323.8 355.1,323.8 351.8,329.6 358.5,329.6 355.1,335.3 351.8,329.6 348.5,335.3 345.1,329.6 351.8,329.6 348.5,323.8 345.1,329.6 341.8,323.8 338.5,329.6 345.1,329.6 341.8,335.3 348.5,335.3 345.1,341.1 341.8,335.3 338.5,341.1 345.1,341.1 341.8,346.9 348.5,346.9 345.1,341.1 351.8,341.1 348.5,335.3 355.1,335.3 351.8,341.1 358.5,341.1 355.1,335.3 361.8,335.3 358.5,329.6 365.1,329.6 361.8,335.3 368.5,335.3 365.1,341.1 361.8,335.3 358.5,341.1 365.1,341.1 361.8,346.9 368.5,346.9 365.1,341.1 371.8,341.1 368.5,335.3 375.1,335.3 371.8,341.1 378.5,341.1 375.1,335.3 381.8,335.3 378.5,329.6 385.1,329.6 381.8,335.3 388.5,335.3 385.1,341.1 381.8,335.3 378.5,341.1 385.1,341.1 381.8,346.9 388.5,346.9 385.1,352.7 381.8,346.9 378.5,352.7 375.1,346.9 381.8,346.9 378.5,341.1 375.1,346.9 371.8,341.1 368.5,346.9 375.1,346.9 371.8,352.7 378.5,352.7 375.1,358.4 371.8,352.7 368.5,358.4 375.1,358.4 371.8,364.2 378.5,364.2 375.1,358.4 381.8,358.4 378.5,352.7 385.1,352.7 381.8,358.4 388.5,358.4 385.1,352.7 391.8,352.7 388.5,346.9 395.1,346.9 391.8,352.7 398.5,352.7 395.1,358.4 391.8,352.7 388.5,358.4 395.1,358.4 391.8,364.2 398.5,364.2 395.1,358.4 401.8,358.4 398.5,352.7 405.2,352.7 401.8,358.4 408.5,358.4 405.2,352.7 411.8,352.7 408.5,346.9 405.2,352.7 401.8,346.9 398.5,352.7 395.1,346.9 401.8,346.9 398.5,341.1 395.1,346.9 391.8,341.1 388.5,346.9 385.1,341.1 391.8,341.1 388.5,335.3 395.1,335.3 391.8,341.1 398.5,341.1 395.1,335.3 401.8,335.3 398.5,329.6 395.1,335.3 391.8,329.6 388.5,335.3 385.1,329.6 391.8,329.6 388.5,323.8 385.1,329.6 381.8,323.8 378.5,329.6 375.1,323.8 381.8,323.8 378.5,318 385.1,318 381.8,323.8 388.5,323.8 385.1,318 391.8,318 388.5,312.2 395.1,312.2 391.8,318 398.5,318 395.1,323.8 391.8,318 388.5,323.8 395.1,323.8 391.8,329.6 398.5,329.6 395.1,323.8 401.8,323.8 398.5,318 405.2,318 401.8,323.8 408.5,323.8 405.2,318 411.8,318 408.5,312.2 405.2,318 401.8,312.2 398.5,318 395.1,312.2 401.8,312.2 398.5,306.5 395.1,312.2 391.8,306.5 388.5,312.2 385.1,306.5 391.8,306.5 388.5,300.7 395.1,300.7 391.8,306.5 398.5,306.5 395.1,300.7 401.8,300.7 398.5,294.9 395.1,300.7 391.8,294.9 388.5,300.7 385.1,294.9 391.8,294.9 388.5,289.2 385.1,294.9 381.8,289.2 378.5,294.9 375.1,289.2 381.8,289.2 378.5,283.4 385.1,283.4 381.8,289.2 388.5,289.2 385.1,283.4 391.8,283.4 388.5,277.6 395.1,277.6 391.8,283.4 398.5,283.4 395.1,289.2 391.8,283.4 388.5,289.2 395.1,289.2 391.8,294.9 398.5,294.9 395.1,289.2 401.8,289.2 398.5,283.4 405.2,283.4 401.8,289.2 408.5,289.2 405.2,283.4 411.8,283.4 408.5,277.6 415.2,277.6 411.8,283.4 418.5,283.4 415.2,289.2 411.8,283.4 408.5,289.2 415.2,289.2 411.8,294.9 418.5,294.9 415.2,300.7 411.8,294.9 408.5,300.7 405.2,294.9 411.8,294.9 408.5,289.2 405.2,294.9 401.8,289.2 398.5,294.9 405.2,294.9 401.8,300.7 408.5,300.7 405.2,306.5 401.8,300.7 398.5,306.5 405.2,306.5 401.8,312.2 408.5,312.2 405.2,306.5 411.8,306.5 408.5,300.7 415.2,300.7 411.8,306.5 418.5,306.5 415.2,300.7 421.8,300.7 418.5,294.9 425.2,294.9 421.8,300.7 428.5,300.7 425.2,306.5 421.8,300.7 418.5,306.5 425.2,306.5 421.8,312.2 428.5,312.2 425.2,306.5 431.8,306.5 428.5,300.7 435.2,300.7 431.8,306.5 438.5,306.5 435.2,300.7 441.8,300.7 438.5,294.9 435.2,300.7 431.8,294.9 428.5,300.7 425.2,294.9 431.8,294.9 428.5,289.2 425.2,294.9 421.8,289.2 418.5,294.9 415.2,289.2 421.8,289.2 418.5,283.4 425.2,283.4 421.8,289.2 428.5,289.2 425.2,283.4 431.8,283.4 428.5,277.6 425.2,283.4 421.8,277.6 418.5,283.4 415.2,277.6 421.8,277.6 418.5,271.8 415.2,277.6 411.8,271.8 408.5,277.6 405.2,271.8 411.8,271.8 408.5,266.1 415.2,266.1 411.8,271.8 418.5,271.8 415.2,266.1 421.8,266.1 418.5,260.3 425.2,260.3 421.8,266.1 428.5,266.1 425.2,271.8 421.8,266.1 418.5,271.8 425.2,271.8 421.8,277.6 428.5,277.6 425.2,271.8 431.8,271.8 428.5,266.1 435.2,266.1 431.8,271.8 438.5,271.8 435.2,266.1 441.8,266.1 438.5,260.3 435.2,266.1 431.8,260.3 428.5,266.1 425.2,260.3 431.8,260.3 428.5,254.5 425.2,260.3 421.8,254.5 418.5,260.3 415.2,254.5 421.8,254.5 418.5,248.7 425.2,248.7 421.8,254.5 428.5,254.5 425.2,248.7 431.8,248.7 428.5,242.9 425.2,248.7 421.8,242.9 418.5,248.7 415.2,242.9 421.8,242.9 418.5,237.2 415.2,242.9 411.8,237.2 408.5,242.9 405.2,237.2 411.8,237.2 408.5,231.4 415.2,231.4 411.8,237.2 418.5,237.2 415.2,231.4 421.8,231.4 418.5,225.6 425.2,225.6 421.8,231.4 428.5,231.4 425.2,237.2 421.8,231.4 418.5,237.2 425.2,237.2 421.8,242.9 428.5,242.9 425.2,237.2 431.8,237.2 428.5,231.4 435.2,231.4 431.8,237.2 438.5,237.2 435.2,231.4 441.8,231.4 438.5,225.6 445.2,225.6 441.8,231.4 448.5,231.4 445.2,237.2 441.8,231.4 438.5,237.2 445.2,237.2 441.8,242.9 448.5,242.9 445.2,248.7 441.8,242.9 438.5,248.7 435.2,242.9 441.8,242.9 438.5,237.2 435.2,242.9 431.8,237.2 428.5,242.9 435.2,242.9 431.8,248.7 438.5,248.7 435.2,254.5 431.8,248.7 428.5,254.5 435.2,254.5 431.8,260.3 438.5,260.3 435.2,254.5 441.8,254.5 438.5,248.7 445.2,248.7 441.8,254.5 448.5,254.5 445.2,248.7 451.8,248.7 448.5,242.9 455.2,242.9 451.8,248.7 458.5,248.7 455.2,254.5 451.8,248.7 448.5,254.5 455.2,254.5 451.8,260.3 458.5,260.3 455.2,254.5 461.8,254.5 458.5,248.7 465.2,248.7 461.8,254.5 468.5,254.5 465.2,248.7 471.8,248.7 468.5,242.9 475.2,242.9 471.8,248.7 478.5,248.7 475.2,254.5 471.8,248.7 468.5,254.5 475.2,254.5 471.8,260.3 478.5,260.3 475.2,266.1 471.8,260.3 468.5,266.1 465.2,260.3 471.8,260.3 468.5,254.5 465.2,260.3 461.8,254.5 458.5,260.3 465.2,260.3 461.8,266.1 468.5,266.1 465.2,271.8 461.8,266.1 458.5,271.8 465.2,271.8 461.8,277.6 468.5,277.6 465.2,283.4 461.8,277.6 458.5,283.4 455.2,277.6 461.8,277.6 458.5,271.8 455.2,277.6 451.8,271.8 448.5,277.6 445.2,271.8 451.8,271.8 448.5,266.1 455.2,266.1 451.8,271.8 458.5,271.8 455.2,266.1 461.8,266.1 458.5,260.3 455.2,266.1 451.8,260.3 448.5,266.1 445.2,260.3 451.8,260.3 448.5,254.5 445.2,260.3 441.8,254.5 438.5,260.3 445.2,260.3 441.8,266.1 448.5,266.1 445.2,271.8 441.8,266.1 438.5,271.8 445.2,271.8 441.8,277.6 448.5,277.6 445.2,283.4 441.8,277.6 438.5,283.4 435.2,277.6 441.8,277.6 438.5,271.8 435.2,277.6 431.8,271.8 428.5,277.6 435.2,277.6 431.8,283.4 438.5,283.4 435.2,289.2 431.8,283.4 428.5,289.2 435.2,289.2 431.8,294.9 438.5,294.9 435.2,289.2 441.8,289.2 438.5,283.4 445.2,283.4 441.8,289.2 448.5,289.2 445.2,283.4 451.8,283.4 448.5,277.6 455.2,277.6 451.8,283.4 458.5,283.4 455.2,289.2 451.8,283.4 448.5,289.2 455.2,289.2 451.8,294.9 458.5,294.9 455.2,289.2 461.8,289.2 458.5,283.4 465.2,283.4 461.8,289.2 468.5,289.2 465.2,283.4 471.8,283.4 468.5,277.6 475.2,277.6 471.8,283.4 478.5,283.4 475.2,289.2 471.8,283.4 468.5,289.2 475.2,289.2 471.8,294.9 478.5,294.9 475.2,300.7 471.8,294.9 468.5,300.7 465.2,294.9 471.8,294.9 468.5,289.2 465.2,294.9 461.8,289.2 458.5,294.9 465.2,294.9 461.8,300.7 468.5,300.7 465.2,306.5 461.8,300.7 458.5,306.5 465.2,306.5 461.8,312.2 468.5,312.2 465.2,306.5 471.8,306.5 468.5,300.7 475.2,300.7 471.8,306.5 478.5,306.5 475.2,300.7 481.8,300.7 478.5,294.9 485.2,294.9 481.8,300.7 488.5,300.7 485.2,306.5 481.8,300.7 478.5,306.5 485.2,306.5 481.8,312.2 488.5,312.2 485.2,306.5 491.9,306.5 488.5,300.7 495.2,300.7 491.9,306.5 498.5,306.5 495.2,300.7 501.9,300.7 498.5,294.9 505.2,294.9 501.9,300.7 508.5,300.7 505.2,306.5 501.9,300.7 498.5,306.5 505.2,306.5 501.9,312.2 508.5,312.2 505.2,318 501.9,312.2 498.5,318 495.2,312.2 501.9,312.2 498.5,306.5 495.2,312.2 491.9,306.5 488.5,312.2 495.2,312.2 491.9,318 498.5,318 495.2,323.8 491.9,318 488.5,323.8 495.2,323.8 491.9,329.6 498.5,329.6 495.2,335.3 491.9,329.6 488.5,335.3 485.2,329.6 491.9,329.6 488.5,323.8 485.2,329.6 481.8,323.8 478.5,329.6 475.2,323.8 481.8,323.8 478.5,318 485.2,318 481.8,323.8 488.5,323.8 485.2,318 491.9,318 488.5,312.2 485.2,318 481.8,312.2 478.5,318 475.2,312.2 481.8,312.2 478.5,306.5 475.2,312.2 471.8,306.5 468.5,312.2 475.2,312.2 471.8,318 478.5,318 475.2,323.8 471.8,318 468.5,323.8 475.2,323.8 471.8,329.6 478.5,329.6 475.2,335.3 471.8,329.6 468.5,335.3 465.2,329.6 471.8,329.6 468.5,323.8 465.2,329.6 461.8,323.8 458.5,329.6 465.2,329.6 461.8,335.3 468.5,335.3 465.2,341.1 461.8,335.3 458.5,341.1 465.2,341.1 461.8,346.9 468.5,346.9 465.2,352.7 461.8,346.9 458.5,352.7 455.2,346.9 461.8,346.9 458.5,341.1 455.2,346.9 451.8,341.1 448.5,346.9 445.2,341.1 451.8,341.1 448.5,335.3 455.2,335.3 451.8,341.1 458.5,341.1 455.2,335.3 461.8,335.3 458.5,329.6 455.2,335.3 451.8,329.6 448.5,335.3 445.2,329.6 451.8,329.6 448.5,323.8 445.2,329.6 441.8,323.8 438.5,329.6 435.2,323.8 441.8,323.8 438.5,318 445.2,318 441.8,323.8 448.5,323.8 445.2,318 451.8,318 448.5,312.2 455.2,312.2 451.8,318 458.5,318 455.2,323.8 451.8,318 448.5,323.8 455.2,323.8 451.8,329.6 458.5,329.6 455.2,323.8 461.8,323.8 458.5,318 465.2,318 461.8,323.8 468.5,323.8 465.2,318 471.8,318 468.5,312.2 465.2,318 461.8,312.2 458.5,318 455.2,312.2 461.8,312.2 458.5,306.5 455.2,312.2 451.8,306.5 448.5,312.2 445.2,306.5 451.8,306.5 448.5,300.7 455.2,300.7 451.8,306.5 458.5,306.5 455.2,300.7 461.8,300.7 458.5,294.9 455.2,300.7 451.8,294.9 448.5,300.7 445.2,294.9 451.8,294.9 448.5,289.2 445.2,294.9 441.8,289.2 438.5,294.9 445.2,294.9 441.8,300.7 448.5,300.7 445.2,306.5 441.8,300.7 438.5,306.5 445.2,306.5 441.8,312.2 448.5,312.2 445.2,318 441.8,312.2 438.5,318 435.2,312.2 441.8,312.2 438.5,306.5 435.2,312.2 431.8,306.5 428.5,312.2 435.2,312.2 431.8,318 438.5,318 435.2,323.8 431.8,318 428.5,323.8 435.2,323.8 431.8,329.6 438.5,329.6 435.2,335.3 431.8,329.6 428.5,335.3 425.2,329.6 431.8,329.6 428.5,323.8 425.2,329.6 421.8,323.8 418.5,329.6 415.2,323.8 421.8,323.8 418.5,318 425.2,318 421.8,323.8 428.5,323.8 425.2,318 431.8,318 428.5,312.2 425.2,318 421.8,312.2 418.5,318 415.2,312.2 421.8,312.2 418.5,306.5 415.2,312.2 411.8,306.5 408.5,312.2 415.2,312.2 411.8,318 418.5,318 415.2,323.8 411.8,318 408.5,323.8 415.2,323.8 411.8,329.6 418.5,329.6 415.2,335.3 411.8,329.6 408.5,335.3 405.2,329.6 411.8,329.6 408.5,323.8 405.2,329.6 401.8,323.8 398.5,329.6 405.2,329.6 401.8,335.3 408.5,335.3 405.2,341.1 401.8,335.3 398.5,341.1 405.2,341.1 401.8,346.9 408.5,346.9 405.2,341.1 411.8,341.1 408.5,335.3 415.2,335.3 411.8,341.1 418.5,341.1 415.2,335.3 421.8,335.3 418.5,329.6 425.2,329.6 421.8,335.3 428.5,335.3 425.2,341.1 421.8,335.3 418.5,341.1 425.2,341.1 421.8,346.9 428.5,346.9 425.2,341.1 431.8,341.1 428.5,335.3 435.2,335.3 431.8,341.1 438.5,341.1 435.2,335.3 441.8,335.3 438.5,329.6 445.2,329.6 441.8,335.3 448.5,335.3 445.2,341.1 441.8,335.3 438.5,341.1 445.2,341.1 441.8,346.9 448.5,346.9 445.2,352.7 441.8,346.9 438.5,352.7 435.2,346.9 441.8,346.9 438.5,341.1 435.2,346.9 431.8,341.1 428.5,346.9 435.2,346.9 431.8,352.7 438.5,352.7 435.2,358.4 431.8,352.7 428.5,358.4 435.2,358.4 431.8,364.2 438.5,364.2 435.2,358.4 441.8,358.4 438.5,352.7 445.2,352.7 441.8,358.4 448.5,358.4 445.2,352.7 451.8,352.7 448.5,346.9 455.2,346.9 451.8,352.7 458.5,352.7 455.2,358.4 451.8,352.7 448.5,358.4 455.2,358.4 451.8,364.2 458.5,364.2 455.2,358.4 461.8,358.4 458.5,352.7 465.2,352.7 461.8,358.4 468.5,358.4 465.2,352.7 471.8,352.7 468.5,346.9 475.2,346.9 471.8,352.7 478.5,352.7 475.2,358.4 471.8,352.7 468.5,358.4 475.2,358.4 471.8,364.2 478.5,364.2 475.2,370 471.8,364.2 468.5,370 465.2,364.2 471.8,364.2 468.5,358.4 465.2,364.2 461.8,358.4 458.5,364.2 465.2,364.2 461.8,370 468.5,370 465.2,375.8 461.8,370 458.5,375.8 465.2,375.8 461.8,381.6 468.5,381.6 465.2,387.3 461.8,381.6 458.5,387.3 455.2,381.6 461.8,381.6 458.5,375.8 455.2,381.6 451.8,375.8 448.5,381.6 445.2,375.8 451.8,375.8 448.5,370 455.2,370 451.8,375.8 458.5,375.8 455.2,370 461.8,370 458.5,364.2 455.2,370 451.8,364.2 448.5,370 445.2,364.2 451.8,364.2 448.5,358.4 445.2,364.2 441.8,358.4 438.5,364.2 445.2,364.2 441.8,370 448.5,370 445.2,375.8 441.8,370 438.5,375.8 445.2,375.8 441.8,381.6 448.5,381.6 445.2,387.3 441.8,381.6 438.5,387.3 435.2,381.6 441.8,381.6 438.5,375.8 435.2,381.6 431.8,375.8 428.5,381.6 435.2,381.6 431.8,387.3 438.5,387.3 435.2,393.1 431.8,387.3 428.5,393.1 435.2,393.1 431.8,398.9 438.5,398.9 435.2,393.1 441.8,393.1 438.5,387.3 445.2,387.3 441.8,393.1 448.5,393.1 445.2,387.3 451.8,387.3 448.5,381.6 455.2,381.6 451.8,387.3 458.5,387.3 455.2,393.1 451.8,387.3 448.5,393.1 455.2,393.1 451.8,398.9 458.5,398.9 455.2,393.1 461.8,393.1 458.5,387.3 465.2,387.3 461.8,393.1 468.5,393.1 465.2,387.3 471.8,387.3 468.5,381.6 475.2,381.6 471.8,387.3 478.5,387.3 475.2,393.1 471.8,387.3 468.5,393.1 475.2,393.1 471.8,398.9 478.5,398.9 475.2,404.7 471.8,398.9 468.5,404.7 465.2,398.9 471.8,398.9 468.5,393.1 465.2,398.9 461.8,393.1 458.5,398.9 465.2,398.9 461.8,404.7 468.5,404.7 465.2,410.4 461.8,404.7 458.5,410.4 465.2,410.4 461.8,416.2 468.5,416.2 465.2,410.4 471.8,410.4 468.5,404.7 475.2,404.7 471.8,410.4 478.5,410.4 475.2,404.7 481.8,404.7 478.5,398.9 485.2,398.9 481.8,404.7 488.5,404.7 485.2,410.4 481.8,404.7 478.5,410.4 485.2,410.4 481.8,416.2 488.5,416.2 485.2,410.4 491.9,410.4 488.5,404.7 495.2,404.7 491.9,410.4 498.5,410.4 495.2,404.7 501.9,404.7 498.5,398.9 495.2,404.7 491.9,398.9 488.5,404.7 485.2,398.9 491.9,398.9 488.5,393.1 485.2,398.9 481.8,393.1 478.5,398.9 475.2,393.1 481.8,393.1 478.5,387.3 485.2,387.3 481.8,393.1 488.5,393.1 485.2,387.3 491.9,387.3 488.5,381.6 485.2,387.3 481.8,381.6 478.5,387.3 475.2,381.6 481.8,381.6 478.5,375.8 475.2,381.6 471.8,375.8 468.5,381.6 465.2,375.8 471.8,375.8 468.5,370 475.2,370 471.8,375.8 478.5,375.8 475.2,370 481.8,370 478.5,364.2 485.2,364.2 481.8,370 488.5,370 485.2,375.8 481.8,370 478.5,375.8 485.2,375.8 481.8,381.6 488.5,381.6 485.2,375.8 491.9,375.8 488.5,370 495.2,370 491.9,375.8 498.5,375.8 495.2,370 501.9,370 498.5,364.2 495.2,370 491.9,364.2 488.5,370 485.2,364.2 491.9,364.2 488.5,358.4 485.2,364.2 481.8,358.4 478.5,364.2 475.2,358.4 481.8,358.4 478.5,352.7 485.2,352.7 481.8,358.4 488.5,358.4 485.2,352.7 491.9,352.7 488.5,346.9 485.2,352.7 481.8,346.9 478.5,352.7 475.2,346.9 481.8,346.9 478.5,341.1 475.2,346.9 471.8,341.1 468.5,346.9 465.2,341.1 471.8,341.1 468.5,335.3 475.2,335.3 471.8,341.1 478.5,341.1 475.2,335.3 481.8,335.3 478.5,329.6 485.2,329.6 481.8,335.3 488.5,335.3 485.2,341.1 481.8,335.3 478.5,341.1 485.2,341.1 481.8,346.9 488.5,346.9 485.2,341.1 491.9,341.1 488.5,335.3 495.2,335.3 491.9,341.1 498.5,341.1 495.2,335.3 501.9,335.3 498.5,329.6 505.2,329.6 501.9,335.3 508.5,335.3 505.2,341.1 501.9,335.3 498.5,341.1 505.2,341.1 501.9,346.9 508.5,346.9 505.2,352.7 501.9,346.9 498.5,352.7 495.2,346.9 501.9,346.9 498.5,341.1 495.2,346.9 491.9,341.1 488.5,346.9 495.2,346.9 491.9,352.7 498.5,352.7 495.2,358.4 491.9,352.7 488.5,358.4 495.2,358.4 491.9,364.2 498.5,364.2 495.2,358.4 501.9,358.4 498.5,352.7 505.2,352.7 501.9,358.4 508.5,358.4 505.2,352.7 511.9,352.7 508.5,346.9 515.2,346.9 511.9,352.7 518.5,352.7 515.2,358.4 511.9,352.7 508.5,358.4 515.2,358.4 511.9,364.2 518.5,364.2 515.2,358.4 521.9,358.4 518.5,352.7 525.2,352.7 521.9,358.4 528.5,358.4 525.2,352.7 531.9,352.7 528.5,346.9 525.2,352.7 521.9,346.9 518.5,352.7 515.2,346.9 521.9,346.9 518.5,341.1 515.2,346.9 511.9,341.1 508.5,346.9 505.2,341.1 511.9,341.1 508.5,335.3 515.2,335.3 511.9,341.1 518.5,341.1 515.2,335.3 521.9,335.3 518.5,329.6 515.2,335.3 511.9,329.6 508.5,335.3 505.2,329.6 511.9,329.6 508.5,323.8 505.2,329.6 501.9,323.8 498.5,329.6 495.2,323.8 501.9,323.8 498.5,318 505.2,318 501.9,323.8 508.5,323.8 505.2,318 511.9,318 508.5,312.2 515.2,312.2 511.9,318 518.5,318 515.2,323.8 511.9,318 508.5,323.8 515.2,323.8 511.9,329.6 518.5,329.6 515.2,323.8 521.9,323.8 518.5,318 525.2,318 521.9,323.8 528.5,323.8 525.2,318 531.9,318 528.5,312.2 525.2,318 521.9,312.2 518.5,318 515.2,312.2 521.9,312.2 518.5,306.5 515.2,312.2 511.9,306.5 508.5,312.2 505.2,306.5 511.9,306.5 508.5,300.7 515.2,300.7 511.9,306.5 518.5,306.5 515.2,300.7 521.9,300.7 518.5,294.9 515.2,300.7 511.9,294.9 508.5,300.7 505.2,294.9 511.9,294.9 508.5,289.2 505.2,294.9 501.9,289.2 498.5,294.9 495.2,289.2 501.9,289.2 498.5,283.4 505.2,283.4 501.9,289.2 508.5,289.2 505.2,283.4 511.9,283.4 508.5,277.6 515.2,277.6 511.9,283.4 518.5,283.4 515.2,289.2 511.9,283.4 508.5,289.2 515.2,289.2 511.9,294.9 518.5,294.9 515.2,289.2 521.9,289.2 518.5,283.4 525.2,283.4 521.9,289.2 528.5,289.2 525.2,283.4 531.9,283.4 528.5,277.6 535.2,277.6 531.9,283.4 538.5,283.4 535.2,289.2 531.9,283.4 528.5,289.2 535.2,289.2 531.9,294.9 538.5,294.9 535.2,300.7 531.9,294.9 528.5,300.7 525.2,294.9 531.9,294.9 528.5,289.2 525.2,294.9 521.9,289.2 518.5,294.9 525.2,294.9 521.9,300.7 528.5,300.7 525.2,306.5 521.9,300.7 518.5,306.5 525.2,306.5 521.9,312.2 528.5,312.2 525.2,306.5 531.9,306.5 528.5,300.7 535.2,300.7 531.9,306.5 538.5,306.5 535.2,300.7 541.9,300.7 538.5,294.9 545.2,294.9 541.9,300.7 548.5,300.7 545.2,306.5 541.9,300.7 538.5,306.5 545.2,306.5 541.9,312.2 548.5,312.2 545.2,306.5 551.9,306.5 548.5,300.7 555.2,300.7 551.9,306.5 558.5,306.5 555.2,300.7 561.9,300.7 558.5,294.9 565.2,294.9 561.9,300.7 568.5,300.7 565.2,306.5 561.9,300.7 558.5,306.5 565.2,306.5 561.9,312.2 568.5,312.2 565.2,318 561.9,312.2 558.5,318 555.2,312.2 561.9,312.2 558.5,306.5 555.2,312.2 551.9,306.5 548.5,312.2 555.2,312.2 551.9,318 558.5,318 555.2,323.8 551.9,318 548.5,323.8 555.2,323.8 551.9,329.6 558.5,329.6 555.2,335.3 551.9,329.6 548.5,335.3 545.2,329.6 551.9,329.6 548.5,323.8 545.2,329.6 541.9,323.8 538.5,329.6 535.2,323.8 541.9,323.8 538.5,318 545.2,318 541.9,323.8 548.5,323.8 545.2,318 551.9,318 548.5,312.2 545.2,318 541.9,312.2 538.5,318 535.2,312.2 541.9,312.2 538.5,306.5 535.2,312.2 531.9,306.5 528.5,312.2 535.2,312.2 531.9,318 538.5,318 535.2,323.8 531.9,318 528.5,323.8 535.2,323.8 531.9,329.6 538.5,329.6 535.2,335.3 531.9,329.6 528.5,335.3 525.2,329.6 531.9,329.6 528.5,323.8 525.2,329.6 521.9,323.8 518.5,329.6 525.2,329.6 521.9,335.3 528.5,335.3 525.2,341.1 521.9,335.3 518.5,341.1 525.2,341.1 521.9,346.9 528.5,346.9 525.2,341.1 531.9,341.1 528.5,335.3 535.2,335.3 531.9,341.1 538.5,341.1 535.2,335.3 541.9,335.3 538.5,329.6 545.2,329.6 541.9,335.3 548.5,335.3 545.2,341.1 541.9,335.3 538.5,341.1 545.2,341.1 541.9,346.9 548.5,346.9 545.2,341.1 551.9,341.1 548.5,335.3 555.2,335.3 551.9,341.1 558.5,341.1 555.2,335.3 561.9,335.3 558.5,329.6 565.2,329.6 561.9,335.3 568.5,335.3 565.2,341.1 561.9,335.3 558.5,341.1 565.2,341.1 561.9,346.9 568.5,346.9 565.2,352.7 561.9,346.9 558.5,352.7 555.2,346.9 561.9,346.9 558.5,341.1 555.2,346.9 551.9,341.1 548.5,346.9 555.2,346.9 551.9,352.7 558.5,352.7 555.2,358.4 551.9,352.7 548.5,358.4 555.2,358.4 551.9,364.2 558.5,364.2 555.2,358.4 561.9,358.4 558.5,352.7 565.2,352.7 561.9,358.4 568.5,358.4 565.2,352.7 571.9,352.7 568.5,346.9 575.2,346.9 571.9,352.7 578.6,352.7 575.2,358.4 571.9,352.7 568.5,358.4 575.2,358.4 571.9,364.2 578.6,364.2 575.2,358.4 581.9,358.4 578.6,352.7 585.2,352.7 581.9,358.4 588.6,358.4 585.2,352.7 591.9,352.7 588.6,346.9 585.2,352.7 581.9,346.9 578.6,352.7 575.2,346.9 581.9,346.9 578.6,341.1 575.2,346.9 571.9,341.1 568.5,346.9 565.2,341.1 571.9,341.1 568.5,335.3 575.2,335.3 571.9,341.1 578.6,341.1 575.2,335.3 581.9,335.3 578.6,329.6 575.2,335.3 571.9,329.6 568.5,335.3 565.2,329.6 571.9,329.6 568.5,323.8 565.2,329.6 561.9,323.8 558.5,329.6 555.2,323.8 561.9,323.8 558.5,318 565.2,318 561.9,323.8 568.5,323.8 565.2,318 571.9,318 568.5,312.2 575.2,312.2 571.9,318 578.6,318 575.2,323.8 571.9,318 568.5,323.8 575.2,323.8 571.9,329.6 578.6,329.6 575.2,323.8 581.9,323.8 578.6,318 585.2,318 581.9,323.8 588.6,323.8 585.2,318 591.9,318 588.6,312.2 585.2,318 581.9,312.2 578.6,318 575.2,312.2 581.9,312.2 578.6,306.5 575.2,312.2 571.9,306.5 568.5,312.2 565.2,306.5 571.9,306.5 568.5,300.7 575.2,300.7 571.9,306.5 578.6,306.5 575.2,300.7 581.9,300.7 578.6,294.9 575.2,300.7 571.9,294.9 568.5,300.7 565.2,294.9 571.9,294.9 568.5,289.2 565.2,294.9 561.9,289.2 558.5,294.9 555.2,289.2 561.9,289.2 558.5,283.4 565.2,283.4 561.9,289.2 568.5,289.2 565.2,283.4 571.9,283.4 568.5,277.6 575.2,277.6 571.9,283.4 578.6,283.4 575.2,289.2 571.9,283.4 568.5,289.2 575.2,289.2 571.9,294.9 578.6,294.9 575.2,289.2 581.9,289.2 578.6,283.4 585.2,283.4 581.9,289.2 588.6,289.2 585.2,283.4 591.9,283.4 588.6,277.6 595.2,277.6 591.9,283.4 598.6,283.4 595.2,289.2 591.9,283.4 588.6,289.2 595.2,289.2 591.9,294.9 598.6,294.9 595.2,300.7 591.9,294.9 588.6,300.7 585.2,294.9 591.9,294.9 588.6,289.2 585.2,294.9 581.9,289.2 578.6,294.9 585.2,294.9 581.9,300.7 588.6,300.7 585.2,306.5 581.9,300.7 578.6,306.5 585.2,306.5 581.9,312.2 588.6,312.2 585.2,306.5 591.9,306.5 588.6,300.7 595.2,300.7 591.9,306.5 598.6,306.5 595.2,300.7 601.9,300.7 598.6,294.9 605.2,294.9 601.9,300.7 608.6,300.7 605.2,306.5 601.9,300.7 598.6,306.5 605.2,306.5 601.9,312.2 608.6,312.2 605.2,306.5 611.9,306.5 608.6,300.7 615.2,300.7 611.9,306.5 618.6,306.5 615.2,300.7 621.9,300.7 618.6,294.9 615.2,300.7 611.9,294.9 608.6,300.7 605.2,294.9 611.9,294.9 608.6,289.2 605.2,294.9 601.9,289.2 598.6,294.9 595.2,289.2 601.9,289.2 598.6,283.4 605.2,283.4 601.9,289.2 608.6,289.2 605.2,283.4 611.9,283.4 608.6,277.6 605.2,283.4 601.9,277.6 598.6,283.4 595.2,277.6 601.9,277.6 598.6,271.8 595.2,277.6 591.9,271.8 588.6,277.6 585.2,271.8 591.9,271.8 588.6,266.1 595.2,266.1 591.9,271.8 598.6,271.8 595.2,266.1 601.9,266.1 598.6,260.3 605.2,260.3 601.9,266.1 608.6,266.1 605.2,271.8 601.9,266.1 598.6,271.8 605.2,271.8 601.9,277.6 608.6,277.6 605.2,271.8 611.9,271.8 608.6,266.1 615.2,266.1 611.9,271.8 618.6,271.8 615.2,266.1 621.9,266.1 618.6,260.3 615.2,266.1 611.9,260.3 608.6,266.1 605.2,260.3 611.9,260.3 608.6,254.5 605.2,260.3 601.9,254.5 598.6,260.3 595.2,254.5 601.9,254.5 598.6,248.7 605.2,248.7 601.9,254.5 608.6,254.5 605.2,248.7 611.9,248.7 608.6,242.9 605.2,248.7 601.9,242.9 598.6,248.7 595.2,242.9 601.9,242.9 598.6,237.2 595.2,242.9 591.9,237.2 588.6,242.9 " />
</g>

<g fill="none" stroke="#000000" stroke-opacity="1" stroke-width="1" stroke-linecap="square" stroke-linejoin="bevel" transform="matrix(1.17031,0,0,1.17031,0,0)"
font-family="Sans Serif" font-size="9" font-weight="400" font-style="normal" 
>
</g>

<g fill="none" stroke="#000000" stroke-opacity="1" stroke-width="1" stroke-linecap="square" stroke-linejoin="bevel" transform="matrix(1.17031,0,0,1.17031,0,0)"
font-family="Sans Serif" font-size="9" font-weight="400" font-style="normal" 
>
</g>

<g fill="none" stroke="#000000" stroke-opacity="1" stroke-width="1" stroke-linecap="round" stroke-linejoin="round" transform="matrix(1.17031,0,0,1.17031,0,0)"
font-family="Sans Serif" font-size="9" font-weight="400" font-style="normal" 
>
<polyline fill="none" vector-effect="none" points="15.5,69.5 15.5,416.5 621.5,416.5 621.5,69.5 15.5,69.5 " />
</g>

<g fill="none" stroke="#000000" stroke-opacity="1" stroke-width="1" stroke-linecap="square" stroke-linejoin="bevel" transform="matrix(1.17031,0,0,1.17031,0,0)"
font-family="Sans Serif" font-size="9" font-weight="400" font-style="normal" 
>
</g>

<g fill="none" stroke="#000000" stroke-opacity="1" stroke-width="1" stroke-linecap="square" stroke-linejoin="bevel" transform="matrix(1,0,0,1,0,0)"
font-family="Sans Serif" font-size="9" font-weight="400" font-style="normal" 
>
</g>
</g>
</svg>
