<?xml version="1.0" encoding="UTF-8" standalone="no"?>
<svg width="264.231mm" height="241.653mm"
 viewBox="0 0 749 685"
 xmlns="http://www.w3.org/2000/svg" xmlns:xlink="http://www.w3.org/1999/xlink"  version="1.2" baseProfile="tiny">
<title>Qt SVG Document</title>
<desc>Generated with Qt</desc>
<defs>
</defs>
<g fill="none" stroke="black" stroke-width="1" fill-rule="evenodd" stroke-linecap="square" stroke-linejoin="bevel" >

<g fill="none" stroke="#000000" stroke-opacity="1" stroke-width="1" stroke-linecap="square" stroke-linejoin="bevel" transform="matrix(1,0,0,1,0,0)"
font-family="Sans Serif" font-size="9" font-weight="400" font-style="normal" 
>
</g>

<g fill="none" stroke="#000000" stroke-opacity="1" stroke-width="1" stroke-linecap="square" stroke-linejoin="bevel" transform="matrix(1.17031,0,0,1.17031,0,0)"
font-family="Sans Serif" font-size="9" font-weight="400" font-style="normal" 
>
</g>

<g fill="none" stroke="#000000" stroke-opacity="1" stroke-width="1" stroke-linecap="round" stroke-linejoin="round" transform="matrix(1.17031,0,0,1.17031,0,0)"
font-family="Sans Serif" font-size="9" font-weight="400" font-style="normal" 
>
<polyline fill="none" vector-effect="none" points="58.5,18.5 58.5,467.5 578.5,467.5 578.5,18.5 58.5,18.5 " />
</g>

<g fill="none" stroke="#000000" stroke-opacity="1" stroke-width="1" stroke-linecap="square" stroke-linejoin="bevel" transform="matrix(1.17031,0,0,1.17031,0,0)"
font-family="Sans Serif" font-size="9" font-weight="400" font-style="normal" 
>
</g>

<g fill="none" stroke="#000000" stroke-opacity="1" stroke-width="1" stroke-linecap="square" stroke-linejoin="bevel" transform="matrix(1.17031,0,0,1.17031,0,0)"
font-family="Sans Serif" font-size="9" font-weight="400" font-style="normal" 
>
</g>

<g fill="none" stroke="#000000" stroke-opacity="1" stroke-width="1" stroke-linecap="square" stroke-linejoin="bevel" transform="matrix(1.17031,0,0,1.17031,0,0)"
font-family="Sans Serif" font-size="9" font-weight="400" font-style="normal" 
>
</g>

<g fill="none" stroke="#000000" stroke-opacity="1" stroke-width="1" stroke-linecap="square" stroke-linejoin="bevel" transform="matrix(1.17031,0,0,1.17031,0,0)"
font-family="Sans Serif" font-size="9" font-weight="400" font-style="normal" 
>
</g>

<g fill="none" stroke="#9400d3" stroke-opacity="1" stroke-width="1" stroke-linecap="round" stroke-linejoin="round" transform="matrix(1.17031,0,0,1.17031,0,0)"
font-family="Sans Serif" font-size="9" font-weight="400" font-style="normal" 
>
<polyline fill="none" vector-effect="none" points="58.7,467.9 58.7,467.9 62.8,465.5 62.8,460.8 66.9,467.9 71.1,465.5 75.2,458.4 71.1,460.8 66.9,458.4 66.9,453.6 71.1,451.2 71.1,446.5 75.2,453.6 79.3,460.8 75.2,467.9 79.3,465.5 83.4,467.9 87.6,465.5 87.6,460.8 83.4,458.4 91.7,458.4 95.8,451.2 99.9,444.1 95.8,446.5 91.7,444.1 87.6,446.5 87.6,451.2 91.7,453.6 83.4,453.6 79.3,451.2 83.4,444.1 79.3,446.5 75.2,444.1 75.2,439.3 79.3,437 79.3,432.2 83.4,439.3 87.6,437 91.7,429.8 87.6,432.2 83.4,429.8 83.4,425.1 87.6,422.7 87.6,417.9 91.7,425.1 95.8,432.2 91.7,439.3 95.8,437 99.9,439.3 104.1,446.5 104.1,451.2 108.2,453.6 99.9,453.6 95.8,460.8 91.7,467.9 95.8,465.5 99.9,467.9 104.1,465.5 104.1,460.8 99.9,458.4 108.2,458.4 112.3,460.8 108.2,467.9 112.3,465.5 116.4,467.9 120.5,465.5 120.5,460.8 116.4,458.4 124.7,458.4 124.7,453.6 120.5,446.5 120.5,451.2 116.4,453.6 112.3,451.2 112.3,446.5 108.2,444.1 116.4,444.1 124.7,444.1 128.8,451.2 128.8,446.5 132.9,444.1 137,437 137,432.2 132.9,429.8 141.2,429.8 145.3,422.7 149.4,415.5 145.3,417.9 141.2,415.5 137,417.9 137,422.7 141.2,425.1 132.9,425.1 128.8,422.7 132.9,415.5 128.8,417.9 124.7,415.5 120.5,417.9 120.5,422.7 124.7,425.1 116.4,425.1 116.4,429.8 120.5,437 120.5,432.2 124.7,429.8 128.8,432.2 128.8,437 132.9,439.3 124.7,439.3 116.4,439.3 112.3,432.2 112.3,437 108.2,439.3 104.1,437 104.1,432.2 99.9,429.8 108.2,429.8 112.3,422.7 116.4,415.5 112.3,417.9 108.2,415.5 104.1,417.9 104.1,422.7 108.2,425.1 99.9,425.1 95.8,422.7 99.9,415.5 95.8,417.9 91.7,415.5 91.7,410.8 95.8,408.4 95.8,403.6 99.9,410.8 104.1,408.4 108.2,401.2 104.1,403.6 99.9,401.2 99.9,396.5 104.1,394.1 104.1,389.3 108.2,396.5 112.3,403.6 108.2,410.8 112.3,408.4 116.4,410.8 120.5,408.4 120.5,403.6 116.4,401.2 124.7,401.2 128.8,394.1 132.9,387 128.8,389.3 124.7,387 120.5,389.3 120.5,394.1 124.7,396.5 116.4,396.5 112.3,394.1 116.4,387 112.3,389.3 108.2,387 108.2,382.2 112.3,379.8 112.3,375.1 116.4,382.2 120.5,379.8 124.7,372.7 120.5,375.1 116.4,372.7 116.4,367.9 120.5,365.5 120.5,360.8 124.7,367.9 128.8,375.1 124.7,382.2 128.8,379.8 132.9,382.2 137,389.3 137,394.1 141.2,396.5 132.9,396.5 128.8,403.6 124.7,410.8 128.8,408.4 132.9,410.8 137,408.4 137,403.6 132.9,401.2 141.2,401.2 145.3,403.6 141.2,410.8 145.3,408.4 149.4,410.8 153.5,417.9 153.5,422.7 157.7,425.1 149.4,425.1 149.4,429.8 153.5,437 153.5,432.2 157.7,429.8 161.8,432.2 161.8,437 165.9,439.3 157.7,439.3 149.4,439.3 145.3,432.2 145.3,437 141.2,439.3 137,446.5 137,451.2 141.2,453.6 132.9,453.6 128.8,460.8 124.7,467.9 128.8,465.5 132.9,467.9 137,465.5 137,460.8 132.9,458.4 141.2,458.4 145.3,460.8 141.2,467.9 145.3,465.5 149.4,467.9 153.5,465.5 153.5,460.8 149.4,458.4 157.7,458.4 157.7,453.6 153.5,446.5 153.5,451.2 149.4,453.6 145.3,451.2 145.3,446.5 141.2,444.1 149.4,444.1 157.7,444.1 161.8,451.2 161.8,446.5 165.9,444.1 170,446.5 170,451.2 174.1,453.6 165.9,453.6 161.8,460.8 157.7,467.9 161.8,465.5 165.9,467.9 170,465.5 170,460.8 165.9,458.4 174.1,458.4 178.3,460.8 174.1,467.9 178.3,465.5 182.4,467.9 186.5,465.5 186.5,460.8 182.4,458.4 190.6,458.4 190.6,453.6 186.5,446.5 186.5,451.2 182.4,453.6 178.3,451.2 178.3,446.5 174.1,444.1 182.4,444.1 190.6,444.1 194.8,451.2 194.8,446.5 198.9,444.1 198.9,439.3 194.8,437 190.6,439.3 194.8,432.2 190.6,425.1 186.5,417.9 186.5,422.7 182.4,425.1 182.4,429.8 186.5,432.2 190.6,429.8 186.5,437 182.4,439.3 178.3,432.2 178.3,437 174.1,439.3 170,437 170,432.2 165.9,429.8 174.1,429.8 174.1,425.1 170,417.9 170,422.7 165.9,425.1 161.8,422.7 161.8,417.9 157.7,415.5 165.9,415.5 174.1,415.5 178.3,422.7 178.3,417.9 182.4,415.5 190.6,415.5 194.8,417.9 198.9,415.5 194.8,422.7 198.9,429.8 203,437 203,432.2 207.1,429.8 207.1,425.1 203,422.7 198.9,425.1 203,417.9 207.1,415.5 211.3,422.7 211.3,417.9 215.4,415.5 219.5,408.4 219.5,403.6 215.4,401.2 223.6,401.2 223.6,396.5 219.5,389.3 219.5,394.1 215.4,396.5 211.3,394.1 211.3,389.3 207.1,387 215.4,387 223.6,387 227.7,394.1 227.7,389.3 231.9,387 236,379.8 236,375.1 231.9,372.7 240.1,372.7 244.2,365.5 248.4,358.4 244.2,360.8 240.1,358.4 236,360.8 236,365.5 240.1,367.9 231.9,367.9 227.7,365.5 231.9,358.4 227.7,360.8 223.6,358.4 219.5,360.8 219.5,365.5 223.6,367.9 215.4,367.9 215.4,372.7 219.5,379.8 219.5,375.1 223.6,372.7 227.7,375.1 227.7,379.8 231.9,382.2 223.6,382.2 215.4,382.2 211.3,375.1 211.3,379.8 207.1,382.2 203,379.8 203,375.1 198.9,372.7 207.1,372.7 211.3,365.5 215.4,358.4 211.3,360.8 207.1,358.4 203,360.8 203,365.5 207.1,367.9 198.9,367.9 194.8,365.5 198.9,358.4 194.8,360.8 190.6,358.4 186.5,360.8 186.5,365.5 190.6,367.9 182.4,367.9 182.4,372.7 186.5,379.8 186.5,375.1 190.6,372.7 194.8,375.1 194.8,379.8 198.9,382.2 190.6,382.2 182.4,382.2 178.3,375.1 178.3,379.8 174.1,382.2 174.1,387 178.3,389.3 182.4,387 178.3,394.1 182.4,401.2 186.5,408.4 186.5,403.6 190.6,401.2 190.6,396.5 186.5,394.1 182.4,396.5 186.5,389.3 190.6,387 194.8,394.1 194.8,389.3 198.9,387 203,389.3 203,394.1 207.1,396.5 198.9,396.5 198.9,401.2 203,408.4 203,403.6 207.1,401.2 211.3,403.6 211.3,408.4 215.4,410.8 207.1,410.8 198.9,410.8 194.8,403.6 194.8,408.4 190.6,410.8 182.4,410.8 178.3,408.4 174.1,410.8 178.3,403.6 174.1,396.5 170,389.3 170,394.1 165.9,396.5 165.9,401.2 170,403.6 174.1,401.2 170,408.4 165.9,410.8 161.8,403.6 161.8,408.4 157.7,410.8 153.5,408.4 153.5,403.6 149.4,401.2 157.7,401.2 157.7,396.5 153.5,389.3 153.5,394.1 149.4,396.5 145.3,394.1 145.3,389.3 141.2,387 149.4,387 157.7,387 161.8,394.1 161.8,389.3 165.9,387 170,379.8 170,375.1 165.9,372.7 174.1,372.7 178.3,365.5 182.4,358.4 178.3,360.8 174.1,358.4 170,360.8 170,365.5 174.1,367.9 165.9,367.9 161.8,365.5 165.9,358.4 161.8,360.8 157.7,358.4 153.5,360.8 153.5,365.5 157.7,367.9 149.4,367.9 149.4,372.7 153.5,379.8 153.5,375.1 157.7,372.7 161.8,375.1 161.8,379.8 165.9,382.2 157.7,382.2 149.4,382.2 145.3,375.1 145.3,379.8 141.2,382.2 137,379.8 137,375.1 132.9,372.7 141.2,372.7 145.3,365.5 149.4,358.4 145.3,360.8 141.2,358.4 137,360.8 137,365.5 141.2,367.9 132.9,367.9 128.8,365.5 132.9,358.4 128.8,360.8 124.7,358.4 124.7,353.6 128.8,351.3 128.8,346.5 132.9,353.6 137,351.3 141.2,344.1 137,346.5 132.9,344.1 132.9,339.4 137,337 137,332.2 141.2,339.4 145.3,346.5 141.2,353.6 145.3,351.3 149.4,353.6 153.5,351.3 153.5,346.5 149.4,344.1 157.7,344.1 161.8,337 165.9,329.8 161.8,332.2 157.7,329.8 153.5,332.2 153.5,337 157.7,339.4 149.4,339.4 145.3,337 149.4,329.8 145.3,332.2 141.2,329.8 141.2,325.1 145.3,322.7 145.3,317.9 149.4,325.1 153.5,322.7 157.7,315.6 153.5,317.9 149.4,315.6 149.4,310.8 153.5,308.4 153.5,303.7 157.7,310.8 161.8,317.9 157.7,325.1 161.8,322.7 165.9,325.1 170,332.2 170,337 174.1,339.4 165.9,339.4 161.8,346.5 157.7,353.6 161.8,351.3 165.9,353.6 170,351.3 170,346.5 165.9,344.1 174.1,344.1 178.3,346.5 174.1,353.6 178.3,351.3 182.4,353.6 186.5,351.3 186.5,346.5 182.4,344.1 190.6,344.1 190.6,339.4 186.5,332.2 186.5,337 182.4,339.4 178.3,337 178.3,332.2 174.1,329.8 182.4,329.8 190.6,329.8 194.8,337 194.8,332.2 198.9,329.8 203,322.7 203,317.9 198.9,315.6 207.1,315.6 211.3,308.4 215.4,301.3 211.3,303.7 207.1,301.3 203,303.7 203,308.4 207.1,310.8 198.9,310.8 194.8,308.4 198.9,301.3 194.8,303.7 190.6,301.3 186.5,303.7 186.5,308.4 190.6,310.8 182.4,310.8 182.4,315.6 186.5,322.7 186.5,317.9 190.6,315.6 194.8,317.9 194.8,322.7 198.9,325.1 190.6,325.1 182.4,325.1 178.3,317.9 178.3,322.7 174.1,325.1 170,322.7 170,317.9 165.9,315.6 174.1,315.6 178.3,308.4 182.4,301.3 178.3,303.7 174.1,301.3 170,303.7 170,308.4 174.1,310.8 165.9,310.8 161.8,308.4 165.9,301.3 161.8,303.7 157.7,301.3 157.7,296.5 161.8,294.1 161.8,289.4 165.9,296.5 170,294.1 174.1,287 170,289.4 165.9,287 165.9,282.2 170,279.8 170,275.1 174.1,282.2 178.3,289.4 174.1,296.5 178.3,294.1 182.4,296.5 186.5,294.1 186.5,289.4 182.4,287 190.6,287 194.8,279.8 198.9,272.7 194.8,275.1 190.6,272.7 186.5,275.1 186.5,279.8 190.6,282.2 182.4,282.2 178.3,279.8 182.4,272.7 178.3,275.1 174.1,272.7 174.1,267.9 178.3,265.6 178.3,260.8 182.4,267.9 186.5,265.6 190.6,258.4 186.5,260.8 182.4,258.4 182.4,253.7 186.5,251.3 186.5,246.5 190.6,253.7 194.8,260.8 190.6,267.9 194.8,265.6 198.9,267.9 203,275.1 203,279.8 207.1,282.2 198.9,282.2 194.8,289.4 190.6,296.5 194.8,294.1 198.9,296.5 203,294.1 203,289.4 198.9,287 207.1,287 211.3,289.4 207.1,296.5 211.3,294.1 215.4,296.5 219.5,303.7 219.5,308.4 223.6,310.8 215.4,310.8 215.4,315.6 219.5,322.7 219.5,317.9 223.6,315.6 227.7,317.9 227.7,322.7 231.9,325.1 223.6,325.1 215.4,325.1 211.3,317.9 211.3,322.7 207.1,325.1 203,332.2 203,337 207.1,339.4 198.9,339.4 194.8,346.5 190.6,353.6 194.8,351.3 198.9,353.6 203,351.3 203,346.5 198.9,344.1 207.1,344.1 211.3,346.5 207.1,353.6 211.3,351.3 215.4,353.6 219.5,351.3 219.5,346.5 215.4,344.1 223.6,344.1 223.6,339.4 219.5,332.2 219.5,337 215.4,339.4 211.3,337 211.3,332.2 207.1,329.8 215.4,329.8 223.6,329.8 227.7,337 227.7,332.2 231.9,329.8 236,332.2 236,337 240.1,339.4 231.9,339.4 227.7,346.5 223.6,353.6 227.7,351.3 231.9,353.6 236,351.3 236,346.5 231.9,344.1 240.1,344.1 244.2,346.5 240.1,353.6 244.2,351.3 248.4,353.6 252.5,360.8 252.5,365.5 256.6,367.9 248.4,367.9 248.4,372.7 252.5,379.8 252.5,375.1 256.6,372.7 260.7,375.1 260.7,379.8 264.9,382.2 256.6,382.2 248.4,382.2 244.2,375.1 244.2,379.8 240.1,382.2 240.1,387 244.2,389.3 248.4,387 244.2,394.1 248.4,401.2 252.5,408.4 252.5,403.6 256.6,401.2 256.6,396.5 252.5,394.1 248.4,396.5 252.5,389.3 256.6,387 260.7,394.1 260.7,389.3 264.9,387 269,389.3 269,394.1 273.1,396.5 264.9,396.5 264.9,401.2 269,408.4 269,403.6 273.1,401.2 277.2,403.6 277.2,408.4 281.3,410.8 273.1,410.8 264.9,410.8 260.7,403.6 260.7,408.4 256.6,410.8 248.4,410.8 244.2,408.4 240.1,410.8 244.2,403.6 240.1,396.5 236,389.3 236,394.1 231.9,396.5 231.9,401.2 236,403.6 240.1,401.2 236,408.4 231.9,410.8 227.7,403.6 227.7,408.4 223.6,410.8 219.5,417.9 219.5,422.7 223.6,425.1 215.4,425.1 215.4,429.8 219.5,437 219.5,432.2 223.6,429.8 227.7,432.2 227.7,437 231.9,439.3 223.6,439.3 215.4,439.3 211.3,432.2 211.3,437 207.1,439.3 203,446.5 203,451.2 207.1,453.6 198.9,453.6 194.8,460.8 190.6,467.9 194.8,465.5 198.9,467.9 203,465.5 203,460.8 198.9,458.4 207.1,458.4 211.3,460.8 207.1,467.9 211.3,465.5 215.4,467.9 219.5,465.5 219.5,460.8 215.4,458.4 223.6,458.4 223.6,453.6 219.5,446.5 219.5,451.2 215.4,453.6 211.3,451.2 211.3,446.5 207.1,444.1 215.4,444.1 223.6,444.1 227.7,451.2 227.7,446.5 231.9,444.1 236,446.5 236,451.2 240.1,453.6 231.9,453.6 227.7,460.8 223.6,467.9 227.7,465.5 231.9,467.9 236,465.5 236,460.8 231.9,458.4 240.1,458.4 244.2,460.8 240.1,467.9 244.2,465.5 248.4,467.9 252.5,465.5 252.5,460.8 248.4,458.4 256.6,458.4 256.6,453.6 252.5,446.5 252.5,451.2 248.4,453.6 244.2,451.2 244.2,446.5 240.1,444.1 248.4,444.1 256.6,444.1 260.7,451.2 260.7,446.5 264.9,444.1 264.9,439.3 260.7,437 256.6,439.3 260.7,432.2 256.6,425.1 252.5,417.9 252.5,422.7 248.4,425.1 248.4,429.8 252.5,432.2 256.6,429.8 252.5,437 248.4,439.3 244.2,432.2 244.2,437 240.1,439.3 236,437 236,432.2 231.9,429.8 240.1,429.8 240.1,425.1 236,417.9 236,422.7 231.9,425.1 227.7,422.7 227.7,417.9 223.6,415.5 231.9,415.5 240.1,415.5 244.2,422.7 244.2,417.9 248.4,415.5 256.6,415.5 260.7,417.9 264.9,415.5 260.7,422.7 264.9,429.8 269,437 269,432.2 273.1,429.8 273.1,425.1 269,422.7 264.9,425.1 269,417.9 273.1,415.5 277.2,422.7 277.2,417.9 281.3,415.5 285.5,417.9 285.5,422.7 289.6,425.1 281.3,425.1 281.3,429.8 285.5,437 285.5,432.2 289.6,429.8 293.7,432.2 293.7,437 297.8,439.3 289.6,439.3 281.3,439.3 277.2,432.2 277.2,437 273.1,439.3 269,446.5 269,451.2 273.1,453.6 264.9,453.6 260.7,460.8 256.6,467.9 260.7,465.5 264.9,467.9 269,465.5 269,460.8 264.9,458.4 273.1,458.4 277.2,460.8 273.1,467.9 277.2,465.5 281.3,467.9 285.5,465.5 285.5,460.8 281.3,458.4 289.6,458.4 289.6,453.6 285.5,446.5 285.5,451.2 281.3,453.6 277.2,451.2 277.2,446.5 273.1,444.1 281.3,444.1 289.6,444.1 293.7,451.2 293.7,446.5 297.8,444.1 302,446.5 302,451.2 306.1,453.6 297.8,453.6 293.7,460.8 289.6,467.9 293.7,465.5 297.8,467.9 302,465.5 302,460.8 297.8,458.4 306.1,458.4 310.2,460.8 306.1,467.9 310.2,465.5 314.3,467.9 318.5,465.5 318.5,460.8 314.3,458.4 322.6,458.4 322.6,453.6 318.5,446.5 318.5,451.2 314.3,453.6 310.2,451.2 310.2,446.5 306.1,444.1 314.3,444.1 322.6,444.1 326.7,451.2 326.7,446.5 330.8,444.1 330.8,439.3 326.7,437 322.6,439.3 326.7,432.2 322.6,425.1 318.5,417.9 318.5,422.7 314.3,425.1 314.3,429.8 318.5,432.2 322.6,429.8 318.5,437 314.3,439.3 310.2,432.2 310.2,437 306.1,439.3 302,437 302,432.2 297.8,429.8 306.1,429.8 306.1,425.1 302,417.9 302,422.7 297.8,425.1 293.7,422.7 293.7,417.9 289.6,415.5 297.8,415.5 306.1,415.5 310.2,422.7 310.2,417.9 314.3,415.5 322.6,415.5 326.7,417.9 330.8,415.5 326.7,422.7 330.8,429.8 334.9,437 334.9,432.2 339.1,429.8 339.1,425.1 334.9,422.7 330.8,425.1 334.9,417.9 339.1,415.5 343.2,422.7 343.2,417.9 347.3,415.5 347.3,410.8 343.2,408.4 339.1,410.8 343.2,403.6 339.1,401.2 330.8,401.2 334.9,403.6 334.9,408.4 330.8,410.8 326.7,408.4 322.6,410.8 326.7,403.6 330.8,396.5 339.1,396.5 334.9,394.1 334.9,389.3 330.8,382.2 326.7,379.8 322.6,382.2 326.7,375.1 322.6,367.9 318.5,360.8 318.5,365.5 314.3,367.9 314.3,372.7 318.5,375.1 322.6,372.7 318.5,379.8 314.3,382.2 310.2,375.1 310.2,379.8 306.1,382.2 306.1,387 310.2,389.3 314.3,387 310.2,394.1 314.3,396.5 322.6,396.5 318.5,394.1 318.5,389.3 322.6,387 326.7,389.3 330.8,387 326.7,394.1 322.6,401.2 314.3,401.2 318.5,403.6 318.5,408.4 314.3,410.8 310.2,408.4 306.1,410.8 310.2,403.6 306.1,396.5 302,389.3 302,394.1 297.8,396.5 297.8,401.2 302,403.6 306.1,401.2 302,408.4 297.8,410.8 293.7,403.6 293.7,408.4 289.6,410.8 285.5,408.4 285.5,403.6 281.3,401.2 289.6,401.2 289.6,396.5 285.5,389.3 285.5,394.1 281.3,396.5 277.2,394.1 277.2,389.3 273.1,387 281.3,387 289.6,387 293.7,394.1 293.7,389.3 297.8,387 297.8,382.2 293.7,379.8 289.6,382.2 293.7,375.1 289.6,367.9 285.5,360.8 285.5,365.5 281.3,367.9 281.3,372.7 285.5,375.1 289.6,372.7 285.5,379.8 281.3,382.2 277.2,375.1 277.2,379.8 273.1,382.2 269,379.8 269,375.1 264.9,372.7 273.1,372.7 273.1,367.9 269,360.8 269,365.5 264.9,367.9 260.7,365.5 260.7,360.8 256.6,358.4 264.9,358.4 273.1,358.4 277.2,365.5 277.2,360.8 281.3,358.4 289.6,358.4 293.7,360.8 297.8,358.4 293.7,365.5 297.8,372.7 302,379.8 302,375.1 306.1,372.7 306.1,367.9 302,365.5 297.8,367.9 302,360.8 306.1,358.4 310.2,365.5 310.2,360.8 314.3,358.4 322.6,358.4 326.7,360.8 330.8,358.4 326.7,365.5 330.8,367.9 339.1,367.9 334.9,365.5 334.9,360.8 339.1,358.4 343.2,360.8 347.3,358.4 343.2,365.5 339.1,372.7 330.8,372.7 334.9,375.1 334.9,379.8 339.1,387 343.2,389.3 347.3,387 343.2,394.1 347.3,401.2 351.4,408.4 351.4,403.6 355.6,401.2 355.6,396.5 351.4,394.1 347.3,396.5 351.4,389.3 355.6,387 359.7,394.1 359.7,389.3 363.8,387 363.8,382.2 359.7,379.8 355.6,382.2 359.7,375.1 355.6,372.7 347.3,372.7 351.4,375.1 351.4,379.8 347.3,382.2 343.2,379.8 339.1,382.2 343.2,375.1 347.3,367.9 355.6,367.9 351.4,365.5 351.4,360.8 355.6,358.4 359.7,360.8 363.8,358.4 359.7,365.5 363.8,372.7 367.9,379.8 367.9,375.1 372,372.7 372,367.9 367.9,365.5 363.8,367.9 367.9,360.8 372,358.4 376.2,365.5 376.2,360.8 380.3,358.4 384.4,351.3 384.4,346.5 380.3,344.1 388.5,344.1 388.5,339.4 384.4,332.2 384.4,337 380.3,339.4 376.2,337 376.2,332.2 372,329.8 380.3,329.8 388.5,329.8 392.7,337 392.7,332.2 396.8,329.8 396.8,325.1 392.7,322.7 388.5,325.1 392.7,317.9 388.5,310.8 384.4,303.7 384.4,308.4 380.3,310.8 380.3,315.6 384.4,317.9 388.5,315.6 384.4,322.7 380.3,325.1 376.2,317.9 376.2,322.7 372,325.1 367.9,322.7 367.9,317.9 363.8,315.6 372,315.6 372,310.8 367.9,303.7 367.9,308.4 363.8,310.8 359.7,308.4 359.7,303.7 355.6,301.3 363.8,301.3 372,301.3 376.2,308.4 376.2,303.7 380.3,301.3 388.5,301.3 392.7,303.7 396.8,301.3 392.7,308.4 396.8,315.6 400.9,322.7 400.9,317.9 405,315.6 405,310.8 400.9,308.4 396.8,310.8 400.9,303.7 405,301.3 409.2,308.4 409.2,303.7 413.3,301.3 417.4,294.1 417.4,289.4 413.3,287 421.5,287 421.5,282.2 417.4,275.1 417.4,279.8 413.3,282.2 409.2,279.8 409.2,275.1 405,272.7 413.3,272.7 421.5,272.7 425.6,279.8 425.6,275.1 429.8,272.7 433.9,265.6 433.9,260.8 429.8,258.4 438,258.4 442.1,251.3 446.3,244.1 442.1,246.5 438,244.1 433.9,246.5 433.9,251.3 438,253.7 429.8,253.7 425.6,251.3 429.8,244.1 425.6,246.5 421.5,244.1 417.4,246.5 417.4,251.3 421.5,253.7 413.3,253.7 413.3,258.4 417.4,265.6 417.4,260.8 421.5,258.4 425.6,260.8 425.6,265.6 429.8,267.9 421.5,267.9 413.3,267.9 409.2,260.8 409.2,265.6 405,267.9 400.9,265.6 400.9,260.8 396.8,258.4 405,258.4 409.2,251.3 413.3,244.1 409.2,246.5 405,244.1 400.9,246.5 400.9,251.3 405,253.7 396.8,253.7 392.7,251.3 396.8,244.1 392.7,246.5 388.5,244.1 384.4,246.5 384.4,251.3 388.5,253.7 380.3,253.7 380.3,258.4 384.4,265.6 384.4,260.8 388.5,258.4 392.7,260.8 392.7,265.6 396.8,267.9 388.5,267.9 380.3,267.9 376.2,260.8 376.2,265.6 372,267.9 372,272.7 376.2,275.1 380.3,272.7 376.2,279.8 380.3,287 384.4,294.1 384.4,289.4 388.5,287 388.5,282.2 384.4,279.8 380.3,282.2 384.4,275.1 388.5,272.7 392.7,279.8 392.7,275.1 396.8,272.7 400.9,275.1 400.9,279.8 405,282.2 396.8,282.2 396.8,287 400.9,294.1 400.9,289.4 405,287 409.2,289.4 409.2,294.1 413.3,296.5 405,296.5 396.8,296.5 392.7,289.4 392.7,294.1 388.5,296.5 380.3,296.5 376.2,294.1 372,296.5 376.2,289.4 372,282.2 367.9,275.1 367.9,279.8 363.8,282.2 363.8,287 367.9,289.4 372,287 367.9,294.1 363.8,296.5 359.7,289.4 359.7,294.1 355.6,296.5 351.4,294.1 351.4,289.4 347.3,287 355.6,287 355.6,282.2 351.4,275.1 351.4,279.8 347.3,282.2 343.2,279.8 343.2,275.1 339.1,272.7 347.3,272.7 355.6,272.7 359.7,279.8 359.7,275.1 363.8,272.7 367.9,265.6 367.9,260.8 363.8,258.4 372,258.4 376.2,251.3 380.3,244.1 376.2,246.5 372,244.1 367.9,246.5 367.9,251.3 372,253.7 363.8,253.7 359.7,251.3 363.8,244.1 359.7,246.5 355.6,244.1 351.4,246.5 351.4,251.3 355.6,253.7 347.3,253.7 347.3,258.4 351.4,265.6 351.4,260.8 355.6,258.4 359.7,260.8 359.7,265.6 363.8,267.9 355.6,267.9 347.3,267.9 343.2,260.8 343.2,265.6 339.1,267.9 334.9,265.6 334.9,260.8 330.8,258.4 339.1,258.4 343.2,251.3 347.3,244.1 343.2,246.5 339.1,244.1 334.9,246.5 334.9,251.3 339.1,253.7 330.8,253.7 326.7,251.3 330.8,244.1 326.7,246.5 322.6,244.1 318.5,246.5 318.5,251.3 322.6,253.7 314.3,253.7 314.3,258.4 318.5,265.6 318.5,260.8 322.6,258.4 326.7,260.8 326.7,265.6 330.8,267.9 322.6,267.9 314.3,267.9 310.2,260.8 310.2,265.6 306.1,267.9 306.1,272.7 310.2,275.1 314.3,272.7 310.2,279.8 314.3,287 318.5,294.1 318.5,289.4 322.6,287 322.6,282.2 318.5,279.8 314.3,282.2 318.5,275.1 322.6,272.7 326.7,279.8 326.7,275.1 330.8,272.7 334.9,275.1 334.9,279.8 339.1,282.2 330.8,282.2 330.8,287 334.9,294.1 334.9,289.4 339.1,287 343.2,289.4 343.2,294.1 347.3,296.5 339.1,296.5 330.8,296.5 326.7,289.4 326.7,294.1 322.6,296.5 314.3,296.5 310.2,294.1 306.1,296.5 310.2,289.4 306.1,282.2 302,275.1 302,279.8 297.8,282.2 297.8,287 302,289.4 306.1,287 302,294.1 297.8,296.5 293.7,289.4 293.7,294.1 289.6,296.5 289.6,301.3 293.7,303.7 297.8,301.3 293.7,308.4 297.8,310.8 306.1,310.8 302,308.4 302,303.7 306.1,301.3 310.2,303.7 314.3,301.3 310.2,308.4 306.1,315.6 297.8,315.6 302,317.9 302,322.7 306.1,329.8 310.2,332.2 314.3,329.8 310.2,337 314.3,344.1 318.5,351.3 318.5,346.5 322.6,344.1 322.6,339.4 318.5,337 314.3,339.4 318.5,332.2 322.6,329.8 326.7,337 326.7,332.2 330.8,329.8 330.8,325.1 326.7,322.7 322.6,325.1 326.7,317.9 322.6,315.6 314.3,315.6 318.5,317.9 318.5,322.7 314.3,325.1 310.2,322.7 306.1,325.1 310.2,317.9 314.3,310.8 322.6,310.8 318.5,308.4 318.5,303.7 322.6,301.3 326.7,303.7 330.8,301.3 326.7,308.4 330.8,315.6 334.9,322.7 334.9,317.9 339.1,315.6 339.1,310.8 334.9,308.4 330.8,310.8 334.9,303.7 339.1,301.3 343.2,308.4 343.2,303.7 347.3,301.3 351.4,303.7 351.4,308.4 355.6,310.8 347.3,310.8 347.3,315.6 351.4,322.7 351.4,317.9 355.6,315.6 359.7,317.9 359.7,322.7 363.8,325.1 355.6,325.1 347.3,325.1 343.2,317.9 343.2,322.7 339.1,325.1 339.1,329.8 343.2,332.2 347.3,329.8 343.2,337 347.3,344.1 351.4,351.3 351.4,346.5 355.6,344.1 355.6,339.4 351.4,337 347.3,339.4 351.4,332.2 355.6,329.8 359.7,337 359.7,332.2 363.8,329.8 367.9,332.2 367.9,337 372,339.4 363.8,339.4 363.8,344.1 367.9,351.3 367.9,346.5 372,344.1 376.2,346.5 376.2,351.3 380.3,353.6 372,353.6 363.8,353.6 359.7,346.5 359.7,351.3 355.6,353.6 347.3,353.6 343.2,351.3 339.1,353.6 343.2,346.5 339.1,339.4 334.9,332.2 334.9,337 330.8,339.4 330.8,344.1 334.9,346.5 339.1,344.1 334.9,351.3 330.8,353.6 326.7,346.5 326.7,351.3 322.6,353.6 314.3,353.6 310.2,351.3 306.1,353.6 310.2,346.5 306.1,344.1 297.8,344.1 302,346.5 302,351.3 297.8,353.6 293.7,351.3 289.6,353.6 293.7,346.5 297.8,339.4 306.1,339.4 302,337 302,332.2 297.8,325.1 293.7,322.7 289.6,325.1 293.7,317.9 289.6,310.8 285.5,303.7 285.5,308.4 281.3,310.8 281.3,315.6 285.5,317.9 289.6,315.6 285.5,322.7 281.3,325.1 277.2,317.9 277.2,322.7 273.1,325.1 273.1,329.8 277.2,332.2 281.3,329.8 277.2,337 281.3,339.4 289.6,339.4 285.5,337 285.5,332.2 289.6,329.8 293.7,332.2 297.8,329.8 293.7,337 289.6,344.1 281.3,344.1 285.5,346.5 285.5,351.3 281.3,353.6 277.2,351.3 273.1,353.6 277.2,346.5 273.1,339.4 269,332.2 269,337 264.9,339.4 264.9,344.1 269,346.5 273.1,344.1 269,351.3 264.9,353.6 260.7,346.5 260.7,351.3 256.6,353.6 252.5,351.3 252.5,346.5 248.4,344.1 256.6,344.1 256.6,339.4 252.5,332.2 252.5,337 248.4,339.4 244.2,337 244.2,332.2 240.1,329.8 248.4,329.8 256.6,329.8 260.7,337 260.7,332.2 264.9,329.8 264.9,325.1 260.7,322.7 256.6,325.1 260.7,317.9 256.6,310.8 252.5,303.7 252.5,308.4 248.4,310.8 248.4,315.6 252.5,317.9 256.6,315.6 252.5,322.7 248.4,325.1 244.2,317.9 244.2,322.7 240.1,325.1 236,322.7 236,317.9 231.9,315.6 240.1,315.6 240.1,310.8 236,303.7 236,308.4 231.9,310.8 227.7,308.4 227.7,303.7 223.6,301.3 231.9,301.3 240.1,301.3 244.2,308.4 244.2,303.7 248.4,301.3 256.6,301.3 260.7,303.7 264.9,301.3 260.7,308.4 264.9,315.6 269,322.7 269,317.9 273.1,315.6 273.1,310.8 269,308.4 264.9,310.8 269,303.7 273.1,301.3 277.2,308.4 277.2,303.7 281.3,301.3 285.5,294.1 285.5,289.4 281.3,287 289.6,287 289.6,282.2 285.5,275.1 285.5,279.8 281.3,282.2 277.2,279.8 277.2,275.1 273.1,272.7 281.3,272.7 289.6,272.7 293.7,279.8 293.7,275.1 297.8,272.7 302,265.6 302,260.8 297.8,258.4 306.1,258.4 310.2,251.3 314.3,244.1 310.2,246.5 306.1,244.1 302,246.5 302,251.3 306.1,253.7 297.8,253.7 293.7,251.3 297.8,244.1 293.7,246.5 289.6,244.1 285.5,246.5 285.5,251.3 289.6,253.7 281.3,253.7 281.3,258.4 285.5,265.6 285.5,260.8 289.6,258.4 293.7,260.8 293.7,265.6 297.8,267.9 289.6,267.9 281.3,267.9 277.2,260.8 277.2,265.6 273.1,267.9 269,265.6 269,260.8 264.9,258.4 273.1,258.4 277.2,251.3 281.3,244.1 277.2,246.5 273.1,244.1 269,246.5 269,251.3 273.1,253.7 264.9,253.7 260.7,251.3 264.9,244.1 260.7,246.5 256.6,244.1 252.5,246.5 252.5,251.3 256.6,253.7 248.4,253.7 248.4,258.4 252.5,265.6 252.5,260.8 256.6,258.4 260.7,260.8 260.7,265.6 264.9,267.9 256.6,267.9 248.4,267.9 244.2,260.8 244.2,265.6 240.1,267.9 240.1,272.7 244.2,275.1 248.4,272.7 244.2,279.8 248.4,287 252.5,294.1 252.5,289.4 256.6,287 256.6,282.2 252.5,279.8 248.4,282.2 252.5,275.1 256.6,272.7 260.7,279.8 260.7,275.1 264.9,272.7 269,275.1 269,279.8 273.1,282.2 264.9,282.2 264.9,287 269,294.1 269,289.4 273.1,287 277.2,289.4 277.2,294.1 281.3,296.5 273.1,296.5 264.9,296.5 260.7,289.4 260.7,294.1 256.6,296.5 248.4,296.5 244.2,294.1 240.1,296.5 244.2,289.4 240.1,282.2 236,275.1 236,279.8 231.9,282.2 231.9,287 236,289.4 240.1,287 236,294.1 231.9,296.5 227.7,289.4 227.7,294.1 223.6,296.5 219.5,294.1 219.5,289.4 215.4,287 223.6,287 223.6,282.2 219.5,275.1 219.5,279.8 215.4,282.2 211.3,279.8 211.3,275.1 207.1,272.7 215.4,272.7 223.6,272.7 227.7,279.8 227.7,275.1 231.9,272.7 236,265.6 236,260.8 231.9,258.4 240.1,258.4 244.2,251.3 248.4,244.1 244.2,246.5 240.1,244.1 236,246.5 236,251.3 240.1,253.7 231.9,253.7 227.7,251.3 231.9,244.1 227.7,246.5 223.6,244.1 219.5,246.5 219.5,251.3 223.6,253.7 215.4,253.7 215.4,258.4 219.5,265.6 219.5,260.8 223.6,258.4 227.7,260.8 227.7,265.6 231.9,267.9 223.6,267.9 215.4,267.9 211.3,260.8 211.3,265.6 207.1,267.9 203,265.6 203,260.8 198.9,258.4 207.1,258.4 211.3,251.3 215.4,244.1 211.3,246.5 207.1,244.1 203,246.5 203,251.3 207.1,253.7 198.9,253.7 194.8,251.3 198.9,244.1 194.8,246.5 190.6,244.1 190.6,239.4 194.8,237 194.8,232.2 198.9,239.4 203,237 207.1,229.9 203,232.2 198.9,229.9 198.9,225.1 203,222.7 203,218 207.1,225.1 211.3,232.2 207.1,239.4 211.3,237 215.4,239.4 219.5,237 219.5,232.2 215.4,229.9 223.6,229.9 227.7,222.7 231.9,215.6 227.7,218 223.6,215.6 219.5,218 219.5,222.7 223.6,225.1 215.4,225.1 211.3,222.7 215.4,215.6 211.3,218 207.1,215.6 207.1,210.8 211.3,208.4 211.3,203.7 215.4,210.8 219.5,208.4 223.6,201.3 219.5,203.7 215.4,201.3 215.4,196.5 219.5,194.2 219.5,189.4 223.6,196.5 227.7,203.7 223.6,210.8 227.7,208.4 231.9,210.8 236,218 236,222.7 240.1,225.1 231.9,225.1 227.7,232.2 223.6,239.4 227.7,237 231.9,239.4 236,237 236,232.2 231.9,229.9 240.1,229.9 244.2,232.2 240.1,239.4 244.2,237 248.4,239.4 252.5,237 252.5,232.2 248.4,229.9 256.6,229.9 256.6,225.1 252.5,218 252.5,222.7 248.4,225.1 244.2,222.7 244.2,218 240.1,215.6 248.4,215.6 256.6,215.6 260.7,222.7 260.7,218 264.9,215.6 269,208.4 269,203.7 264.9,201.3 273.1,201.3 277.2,194.2 281.3,187 277.2,189.4 273.1,187 269,189.4 269,194.2 273.1,196.5 264.9,196.5 260.7,194.2 264.9,187 260.7,189.4 256.6,187 252.5,189.4 252.5,194.2 256.6,196.5 248.4,196.5 248.4,201.3 252.5,208.4 252.5,203.7 256.6,201.3 260.7,203.7 260.7,208.4 264.9,210.8 256.6,210.8 248.4,210.8 244.2,203.7 244.2,208.4 240.1,210.8 236,208.4 236,203.7 231.9,201.3 240.1,201.3 244.2,194.2 248.4,187 244.2,189.4 240.1,187 236,189.4 236,194.2 240.1,196.5 231.9,196.5 227.7,194.2 231.9,187 227.7,189.4 223.6,187 223.6,182.2 227.7,179.9 227.7,175.1 231.9,182.2 236,179.9 240.1,172.7 236,175.1 231.9,172.7 231.9,168 236,165.6 236,160.8 240.1,168 244.2,175.1 240.1,182.2 244.2,179.9 248.4,182.2 252.5,179.9 252.5,175.1 248.4,172.7 256.6,172.7 260.7,165.6 264.9,158.4 260.7,160.8 256.6,158.4 252.5,160.8 252.5,165.6 256.6,168 248.4,168 244.2,165.6 248.4,158.4 244.2,160.8 240.1,158.4 240.1,153.7 244.2,151.3 244.2,146.5 248.4,153.7 252.5,151.3 256.6,144.2 252.5,146.5 248.4,144.2 248.4,139.4 252.5,137 252.5,132.3 256.6,139.4 260.7,146.5 256.6,153.7 260.7,151.3 264.9,153.7 269,160.8 269,165.6 273.1,168 264.9,168 260.7,175.1 256.6,182.2 260.7,179.9 264.9,182.2 269,179.9 269,175.1 264.9,172.7 273.1,172.7 277.2,175.1 273.1,182.2 277.2,179.9 281.3,182.2 285.5,189.4 285.5,194.2 289.6,196.5 281.3,196.5 281.3,201.3 285.5,208.4 285.5,203.7 289.6,201.3 293.7,203.7 293.7,208.4 297.8,210.8 289.6,210.8 281.3,210.8 277.2,203.7 277.2,208.4 273.1,210.8 269,218 269,222.7 273.1,225.1 264.9,225.1 260.7,232.2 256.6,239.4 260.7,237 264.9,239.4 269,237 269,232.2 264.9,229.9 273.1,229.9 277.2,232.2 273.1,239.4 277.2,237 281.3,239.4 285.5,237 285.5,232.2 281.3,229.9 289.6,229.9 289.6,225.1 285.5,218 285.5,222.7 281.3,225.1 277.2,222.7 277.2,218 273.1,215.6 281.3,215.6 289.6,215.6 293.7,222.7 293.7,218 297.8,215.6 302,218 302,222.7 306.1,225.1 297.8,225.1 293.7,232.2 289.6,239.4 293.7,237 297.8,239.4 302,237 302,232.2 297.8,229.9 306.1,229.9 310.2,232.2 306.1,239.4 310.2,237 314.3,239.4 318.5,237 318.5,232.2 314.3,229.9 322.6,229.9 322.6,225.1 318.5,218 318.5,222.7 314.3,225.1 310.2,222.7 310.2,218 306.1,215.6 314.3,215.6 322.6,215.6 326.7,222.7 326.7,218 330.8,215.6 330.8,210.8 326.7,208.4 322.6,210.8 326.7,203.7 322.6,196.5 318.5,189.4 318.5,194.2 314.3,196.5 314.3,201.3 318.5,203.7 322.6,201.3 318.5,208.4 314.3,210.8 310.2,203.7 310.2,208.4 306.1,210.8 302,208.4 302,203.7 297.8,201.3 306.1,201.3 306.1,196.5 302,189.4 302,194.2 297.8,196.5 293.7,194.2 293.7,189.4 289.6,187 297.8,187 306.1,187 310.2,194.2 310.2,189.4 314.3,187 322.6,187 326.7,189.4 330.8,187 326.7,194.2 330.8,201.3 334.9,208.4 334.9,203.7 339.1,201.3 339.1,196.5 334.9,194.2 330.8,196.5 334.9,189.4 339.1,187 343.2,194.2 343.2,189.4 347.3,187 351.4,179.9 351.4,175.1 347.3,172.7 355.6,172.7 355.6,168 351.4,160.8 351.4,165.6 347.3,168 343.2,165.6 343.2,160.8 339.1,158.4 347.3,158.4 355.6,158.4 359.7,165.6 359.7,160.8 363.8,158.4 367.9,151.3 367.9,146.5 363.8,144.2 372,144.2 376.2,137 380.3,129.9 376.2,132.3 372,129.9 367.9,132.3 367.9,137 372,139.4 363.8,139.4 359.7,137 363.8,129.9 359.7,132.3 355.6,129.9 351.4,132.3 351.4,137 355.6,139.4 347.3,139.4 347.3,144.2 351.4,151.3 351.4,146.5 355.6,144.2 359.7,146.5 359.7,151.3 363.8,153.7 355.6,153.7 347.3,153.7 343.2,146.5 343.2,151.3 339.1,153.7 334.9,151.3 334.9,146.5 330.8,144.2 339.1,144.2 343.2,137 347.3,129.9 343.2,132.3 339.1,129.9 334.9,132.3 334.9,137 339.1,139.4 330.8,139.4 326.7,137 330.8,129.9 326.7,132.3 322.6,129.9 318.5,132.3 318.5,137 322.6,139.4 314.3,139.4 314.3,144.2 318.5,151.3 318.5,146.5 322.6,144.2 326.7,146.5 326.7,151.3 330.8,153.7 322.6,153.7 314.3,153.7 310.2,146.5 310.2,151.3 306.1,153.7 306.1,158.4 310.2,160.8 314.3,158.4 310.2,165.6 314.3,172.7 318.5,179.9 318.5,175.1 322.6,172.7 322.6,168 318.5,165.6 314.3,168 318.5,160.8 322.6,158.4 326.7,165.6 326.7,160.8 330.8,158.4 334.9,160.8 334.9,165.6 339.1,168 330.8,168 330.8,172.7 334.9,179.9 334.9,175.1 339.1,172.7 343.2,175.1 343.2,179.9 347.3,182.2 339.1,182.2 330.8,182.2 326.7,175.1 326.7,179.9 322.6,182.2 314.3,182.2 310.2,179.9 306.1,182.2 310.2,175.1 306.1,168 302,160.8 302,165.6 297.8,168 297.8,172.7 302,175.1 306.1,172.7 302,179.9 297.8,182.2 293.7,175.1 293.7,179.9 289.6,182.2 285.5,179.9 285.5,175.1 281.3,172.7 289.6,172.7 289.6,168 285.5,160.8 285.5,165.6 281.3,168 277.2,165.6 277.2,160.8 273.1,158.4 281.3,158.4 289.6,158.4 293.7,165.6 293.7,160.8 297.8,158.4 302,151.3 302,146.5 297.8,144.2 306.1,144.2 310.2,137 314.3,129.9 310.2,132.3 306.1,129.9 302,132.3 302,137 306.1,139.4 297.8,139.4 293.7,137 297.8,129.9 293.7,132.3 289.6,129.9 285.5,132.3 285.5,137 289.6,139.4 281.3,139.4 281.3,144.2 285.5,151.3 285.5,146.5 289.6,144.2 293.7,146.5 293.7,151.3 297.8,153.7 289.6,153.7 281.3,153.7 277.2,146.5 277.2,151.3 273.1,153.7 269,151.3 269,146.5 264.9,144.2 273.1,144.2 277.2,137 281.3,129.9 277.2,132.3 273.1,129.9 269,132.3 269,137 273.1,139.4 264.9,139.4 260.7,137 264.9,129.9 260.7,132.3 256.6,129.9 256.6,125.1 260.7,122.7 260.7,118 264.9,125.1 269,122.7 273.1,115.6 269,118 264.9,115.6 264.9,110.8 269,108.5 269,103.7 273.1,110.8 277.2,118 273.1,125.1 277.2,122.7 281.3,125.1 285.5,122.7 285.5,118 281.3,115.6 289.6,115.6 293.7,108.5 297.8,101.3 293.7,103.7 289.6,101.3 285.5,103.7 285.5,108.5 289.6,110.8 281.3,110.8 277.2,108.5 281.3,101.3 277.2,103.7 273.1,101.3 273.1,96.6 277.2,94.2 277.2,89.4 281.3,96.6 285.5,94.2 289.6,87 285.5,89.4 281.3,87 281.3,82.3 285.5,79.9 285.5,75.1 289.6,82.3 293.7,89.4 289.6,96.6 293.7,94.2 297.8,96.6 302,103.7 302,108.5 306.1,110.8 297.8,110.8 293.7,118 289.6,125.1 293.7,122.7 297.8,125.1 302,122.7 302,118 297.8,115.6 306.1,115.6 310.2,118 306.1,125.1 310.2,122.7 314.3,125.1 318.5,122.7 318.5,118 314.3,115.6 322.6,115.6 322.6,110.8 318.5,103.7 318.5,108.5 314.3,110.8 310.2,108.5 310.2,103.7 306.1,101.3 314.3,101.3 322.6,101.3 326.7,108.5 326.7,103.7 330.8,101.3 334.9,94.2 334.9,89.4 330.8,87 339.1,87 343.2,79.9 347.3,72.7 343.2,75.1 339.1,72.7 334.9,75.1 334.9,79.9 339.1,82.3 330.8,82.3 326.7,79.9 330.8,72.7 326.7,75.1 322.6,72.7 318.5,75.1 318.5,79.9 322.6,82.3 314.3,82.3 314.3,87 318.5,94.2 318.5,89.4 322.6,87 326.7,89.4 326.7,94.2 330.8,96.6 322.6,96.6 314.3,96.6 310.2,89.4 310.2,94.2 306.1,96.6 302,94.2 302,89.4 297.8,87 306.1,87 310.2,79.9 314.3,72.7 310.2,75.1 306.1,72.7 302,75.1 302,79.9 306.1,82.3 297.8,82.3 293.7,79.9 297.8,72.7 293.7,75.1 289.6,72.7 289.6,68 293.7,65.6 293.7,60.8 297.8,68 302,65.6 306.1,58.5 302,60.8 297.8,58.5 297.8,53.7 302,51.3 302,46.6 306.1,53.7 310.2,60.8 306.1,68 310.2,65.6 314.3,68 318.5,65.6 318.5,60.8 314.3,58.5 322.6,58.5 326.7,51.3 330.8,44.2 326.7,46.6 322.6,44.2 318.5,46.6 318.5,51.3 322.6,53.7 314.3,53.7 310.2,51.3 314.3,44.2 310.2,46.6 306.1,44.2 306.1,39.4 310.2,37 310.2,32.3 314.3,39.4 318.5,37 322.6,29.9 318.5,32.3 314.3,29.9 314.3,25.1 318.5,22.8 318.5,18 322.6,25.1 326.7,32.3 322.6,39.4 326.7,37 330.8,39.4 334.9,46.6 334.9,51.3 339.1,53.7 330.8,53.7 326.7,60.8 322.6,68 326.7,65.6 330.8,68 334.9,65.6 334.9,60.8 330.8,58.5 339.1,58.5 343.2,60.8 339.1,68 343.2,65.6 347.3,68 351.4,75.1 351.4,79.9 355.6,82.3 347.3,82.3 347.3,87 351.4,94.2 351.4,89.4 355.6,87 359.7,89.4 359.7,94.2 363.8,96.6 355.6,96.6 347.3,96.6 343.2,89.4 343.2,94.2 339.1,96.6 334.9,103.7 334.9,108.5 339.1,110.8 330.8,110.8 326.7,118 322.6,125.1 326.7,122.7 330.8,125.1 334.9,122.7 334.9,118 330.8,115.6 339.1,115.6 343.2,118 339.1,125.1 343.2,122.7 347.3,125.1 351.4,122.7 351.4,118 347.3,115.6 355.6,115.6 355.6,110.8 351.4,103.7 351.4,108.5 347.3,110.8 343.2,108.5 343.2,103.7 339.1,101.3 347.3,101.3 355.6,101.3 359.7,108.5 359.7,103.7 363.8,101.3 367.9,103.7 367.9,108.5 372,110.8 363.8,110.8 359.7,118 355.6,125.1 359.7,122.7 363.8,125.1 367.9,122.7 367.9,118 363.8,115.6 372,115.6 376.2,118 372,125.1 376.2,122.7 380.3,125.1 384.4,132.3 384.4,137 388.5,139.4 380.3,139.4 380.3,144.2 384.4,151.3 384.4,146.5 388.5,144.2 392.7,146.5 392.7,151.3 396.8,153.7 388.5,153.7 380.3,153.7 376.2,146.5 376.2,151.3 372,153.7 372,158.4 376.2,160.8 380.3,158.4 376.2,165.6 380.3,172.7 384.4,179.9 384.4,175.1 388.5,172.7 388.5,168 384.4,165.6 380.3,168 384.4,160.8 388.5,158.4 392.7,165.6 392.7,160.8 396.8,158.4 400.9,160.8 400.9,165.6 405,168 396.8,168 396.8,172.7 400.9,179.9 400.9,175.1 405,172.7 409.2,175.1 409.2,179.9 413.3,182.2 405,182.2 396.8,182.2 392.7,175.1 392.7,179.9 388.5,182.2 380.3,182.2 376.2,179.9 372,182.2 376.2,175.1 372,168 367.9,160.8 367.9,165.6 363.8,168 363.8,172.7 367.9,175.1 372,172.7 367.9,179.9 363.8,182.2 359.7,175.1 359.7,179.9 355.6,182.2 351.4,189.4 351.4,194.2 355.6,196.5 347.3,196.5 347.3,201.3 351.4,208.4 351.4,203.7 355.6,201.3 359.7,203.7 359.7,208.4 363.8,210.8 355.6,210.8 347.3,210.8 343.2,203.7 343.2,208.4 339.1,210.8 334.9,218 334.9,222.7 339.1,225.1 330.8,225.1 326.7,232.2 322.6,239.4 326.7,237 330.8,239.4 334.9,237 334.9,232.2 330.8,229.9 339.1,229.9 343.2,232.2 339.1,239.4 343.2,237 347.3,239.4 351.4,237 351.4,232.2 347.3,229.9 355.6,229.9 355.6,225.1 351.4,218 351.4,222.7 347.3,225.1 343.2,222.7 343.2,218 339.1,215.6 347.3,215.6 355.6,215.6 359.7,222.7 359.7,218 363.8,215.6 367.9,218 367.9,222.7 372,225.1 363.8,225.1 359.7,232.2 355.6,239.4 359.7,237 363.8,239.4 367.9,237 367.9,232.2 363.8,229.9 372,229.9 376.2,232.2 372,239.4 376.2,237 380.3,239.4 384.4,237 384.4,232.2 380.3,229.9 388.5,229.9 388.5,225.1 384.4,218 384.4,222.7 380.3,225.1 376.2,222.7 376.2,218 372,215.6 380.3,215.6 388.5,215.6 392.7,222.7 392.7,218 396.8,215.6 396.8,210.8 392.7,208.4 388.5,210.8 392.7,203.7 388.5,196.5 384.4,189.4 384.4,194.2 380.3,196.5 380.3,201.3 384.4,203.7 388.5,201.3 384.4,208.4 380.3,210.8 376.2,203.7 376.2,208.4 372,210.8 367.9,208.4 367.9,203.7 363.8,201.3 372,201.3 372,196.5 367.9,189.4 367.9,194.2 363.8,196.5 359.7,194.2 359.7,189.4 355.6,187 363.8,187 372,187 376.2,194.2 376.2,189.4 380.3,187 388.5,187 392.7,189.4 396.8,187 392.7,194.2 396.8,201.3 400.9,208.4 400.9,203.7 405,201.3 405,196.5 400.9,194.2 396.8,196.5 400.9,189.4 405,187 409.2,194.2 409.2,189.4 413.3,187 417.4,189.4 417.4,194.2 421.5,196.5 413.3,196.5 413.3,201.3 417.4,208.4 417.4,203.7 421.5,201.3 425.6,203.7 425.6,208.4 429.8,210.8 421.5,210.8 413.3,210.8 409.2,203.7 409.2,208.4 405,210.8 400.9,218 400.9,222.7 405,225.1 396.8,225.1 392.7,232.2 388.5,239.4 392.7,237 396.8,239.4 400.9,237 400.9,232.2 396.8,229.9 405,229.9 409.2,232.2 405,239.4 409.2,237 413.3,239.4 417.4,237 417.4,232.2 413.3,229.9 421.5,229.9 421.5,225.1 417.4,218 417.4,222.7 413.3,225.1 409.2,222.7 409.2,218 405,215.6 413.3,215.6 421.5,215.6 425.6,222.7 425.6,218 429.8,215.6 433.9,218 433.9,222.7 438,225.1 429.8,225.1 425.6,232.2 421.5,239.4 425.6,237 429.8,239.4 433.9,237 433.9,232.2 429.8,229.9 438,229.9 442.1,232.2 438,239.4 442.1,237 446.3,239.4 450.4,246.5 450.4,251.3 454.5,253.7 446.3,253.7 446.3,258.4 450.4,265.6 450.4,260.8 454.5,258.4 458.6,260.8 458.6,265.6 462.8,267.9 454.5,267.9 446.3,267.9 442.1,260.8 442.1,265.6 438,267.9 438,272.7 442.1,275.1 446.3,272.7 442.1,279.8 446.3,287 450.4,294.1 450.4,289.4 454.5,287 454.5,282.2 450.4,279.8 446.3,282.2 450.4,275.1 454.5,272.7 458.6,279.8 458.6,275.1 462.8,272.7 466.9,275.1 466.9,279.8 471,282.2 462.8,282.2 462.8,287 466.9,294.1 466.9,289.4 471,287 475.1,289.4 475.1,294.1 479.2,296.5 471,296.5 462.8,296.5 458.6,289.4 458.6,294.1 454.5,296.5 446.3,296.5 442.1,294.1 438,296.5 442.1,289.4 438,282.2 433.9,275.1 433.9,279.8 429.8,282.2 429.8,287 433.9,289.4 438,287 433.9,294.1 429.8,296.5 425.6,289.4 425.6,294.1 421.5,296.5 421.5,301.3 425.6,303.7 429.8,301.3 425.6,308.4 429.8,310.8 438,310.8 433.9,308.4 433.9,303.7 438,301.3 442.1,303.7 446.3,301.3 442.1,308.4 438,315.6 429.8,315.6 433.9,317.9 433.9,322.7 438,329.8 442.1,332.2 446.3,329.8 442.1,337 446.3,344.1 450.4,351.3 450.4,346.5 454.5,344.1 454.5,339.4 450.4,337 446.3,339.4 450.4,332.2 454.5,329.8 458.6,337 458.6,332.2 462.8,329.8 462.8,325.1 458.6,322.7 454.5,325.1 458.6,317.9 454.5,315.6 446.3,315.6 450.4,317.9 450.4,322.7 446.3,325.1 442.1,322.7 438,325.1 442.1,317.9 446.3,310.8 454.5,310.8 450.4,308.4 450.4,303.7 454.5,301.3 458.6,303.7 462.8,301.3 458.6,308.4 462.8,315.6 466.9,322.7 466.9,317.9 471,315.6 471,310.8 466.9,308.4 462.8,310.8 466.9,303.7 471,301.3 475.1,308.4 475.1,303.7 479.2,301.3 483.4,303.7 483.4,308.4 487.5,310.8 479.2,310.8 479.2,315.6 483.4,322.7 483.4,317.9 487.5,315.6 491.6,317.9 491.6,322.7 495.7,325.1 487.5,325.1 479.2,325.1 475.1,317.9 475.1,322.7 471,325.1 471,329.8 475.1,332.2 479.2,329.8 475.1,337 479.2,344.1 483.4,351.3 483.4,346.5 487.5,344.1 487.5,339.4 483.4,337 479.2,339.4 483.4,332.2 487.5,329.8 491.6,337 491.6,332.2 495.7,329.8 499.9,332.2 499.9,337 504,339.4 495.7,339.4 495.7,344.1 499.9,351.3 499.9,346.5 504,344.1 508.1,346.5 508.1,351.3 512.2,353.6 504,353.6 495.7,353.6 491.6,346.5 491.6,351.3 487.5,353.6 479.2,353.6 475.1,351.3 471,353.6 475.1,346.5 471,339.4 466.9,332.2 466.9,337 462.8,339.4 462.8,344.1 466.9,346.5 471,344.1 466.9,351.3 462.8,353.6 458.6,346.5 458.6,351.3 454.5,353.6 446.3,353.6 442.1,351.3 438,353.6 442.1,346.5 438,344.1 429.8,344.1 433.9,346.5 433.9,351.3 429.8,353.6 425.6,351.3 421.5,353.6 425.6,346.5 429.8,339.4 438,339.4 433.9,337 433.9,332.2 429.8,325.1 425.6,322.7 421.5,325.1 425.6,317.9 421.5,310.8 417.4,303.7 417.4,308.4 413.3,310.8 413.3,315.6 417.4,317.9 421.5,315.6 417.4,322.7 413.3,325.1 409.2,317.9 409.2,322.7 405,325.1 405,329.8 409.2,332.2 413.3,329.8 409.2,337 413.3,339.4 421.5,339.4 417.4,337 417.4,332.2 421.5,329.8 425.6,332.2 429.8,329.8 425.6,337 421.5,344.1 413.3,344.1 417.4,346.5 417.4,351.3 413.3,353.6 409.2,351.3 405,353.6 409.2,346.5 405,339.4 400.9,332.2 400.9,337 396.8,339.4 396.8,344.1 400.9,346.5 405,344.1 400.9,351.3 396.8,353.6 392.7,346.5 392.7,351.3 388.5,353.6 384.4,360.8 384.4,365.5 388.5,367.9 380.3,367.9 380.3,372.7 384.4,379.8 384.4,375.1 388.5,372.7 392.7,375.1 392.7,379.8 396.8,382.2 388.5,382.2 380.3,382.2 376.2,375.1 376.2,379.8 372,382.2 372,387 376.2,389.3 380.3,387 376.2,394.1 380.3,401.2 384.4,408.4 384.4,403.6 388.5,401.2 388.5,396.5 384.4,394.1 380.3,396.5 384.4,389.3 388.5,387 392.7,394.1 392.7,389.3 396.8,387 400.9,389.3 400.9,394.1 405,396.5 396.8,396.5 396.8,401.2 400.9,408.4 400.9,403.6 405,401.2 409.2,403.6 409.2,408.4 413.3,410.8 405,410.8 396.8,410.8 392.7,403.6 392.7,408.4 388.5,410.8 380.3,410.8 376.2,408.4 372,410.8 376.2,403.6 372,396.5 367.9,389.3 367.9,394.1 363.8,396.5 363.8,401.2 367.9,403.6 372,401.2 367.9,408.4 363.8,410.8 359.7,403.6 359.7,408.4 355.6,410.8 351.4,417.9 351.4,422.7 355.6,425.1 347.3,425.1 347.3,429.8 351.4,437 351.4,432.2 355.6,429.8 359.7,432.2 359.7,437 363.8,439.3 355.6,439.3 347.3,439.3 343.2,432.2 343.2,437 339.1,439.3 334.9,446.5 334.9,451.2 339.1,453.6 330.8,453.6 326.7,460.8 322.6,467.9 326.7,465.5 330.8,467.9 334.9,465.5 334.9,460.8 330.8,458.4 339.1,458.4 343.2,460.8 339.1,467.9 343.2,465.5 347.3,467.9 351.4,465.5 351.4,460.8 347.3,458.4 355.6,458.4 355.6,453.6 351.4,446.5 351.4,451.2 347.3,453.6 343.2,451.2 343.2,446.5 339.1,444.1 347.3,444.1 355.6,444.1 359.7,451.2 359.7,446.5 363.8,444.1 367.9,446.5 367.9,451.2 372,453.6 363.8,453.6 359.7,460.8 355.6,467.9 359.7,465.5 363.8,467.9 367.9,465.5 367.9,460.8 363.8,458.4 372,458.4 376.2,460.8 372,467.9 376.2,465.5 380.3,467.9 384.4,465.5 384.4,460.8 380.3,458.4 388.5,458.4 388.5,453.6 384.4,446.5 384.4,451.2 380.3,453.6 376.2,451.2 376.2,446.5 372,444.1 380.3,444.1 388.5,444.1 392.7,451.2 392.7,446.5 396.8,444.1 396.8,439.3 392.7,437 388.5,439.3 392.7,432.2 388.5,425.1 384.4,417.9 384.4,422.7 380.3,425.1 380.3,429.8 384.4,432.2 388.5,429.8 384.4,437 380.3,439.3 376.2,432.2 376.2,437 372,439.3 367.9,437 367.9,432.2 363.8,429.8 372,429.8 372,425.1 367.9,417.9 367.9,422.7 363.8,425.1 359.7,422.7 359.7,417.9 355.6,415.5 363.8,415.5 372,415.5 376.2,422.7 376.2,417.9 380.3,415.5 388.5,415.5 392.7,417.9 396.8,415.5 392.7,422.7 396.8,429.8 400.9,437 400.9,432.2 405,429.8 405,425.1 400.9,422.7 396.8,425.1 400.9,417.9 405,415.5 409.2,422.7 409.2,417.9 413.3,415.5 417.4,417.9 417.4,422.7 421.5,425.1 413.3,425.1 413.3,429.8 417.4,437 417.4,432.2 421.5,429.8 425.6,432.2 425.6,437 429.8,439.3 421.5,439.3 413.3,439.3 409.2,432.2 409.2,437 405,439.3 400.9,446.5 400.9,451.2 405,453.6 396.8,453.6 392.7,460.8 388.5,467.9 392.7,465.5 396.8,467.9 400.9,465.5 400.9,460.8 396.8,458.4 405,458.4 409.2,460.8 405,467.9 409.2,465.5 413.3,467.9 417.4,465.5 417.4,460.8 413.3,458.4 421.5,458.4 421.5,453.6 417.4,446.5 417.4,451.2 413.3,453.6 409.2,451.2 409.2,446.5 405,444.1 413.3,444.1 421.5,444.1 425.6,451.2 425.6,446.5 429.8,444.1 433.9,446.5 433.9,451.2 438,453.6 429.8,453.6 425.6,460.8 421.5,467.9 425.6,465.5 429.8,467.9 433.9,465.5 433.9,460.8 429.8,458.4 438,458.4 442.1,460.8 438,467.9 442.1,465.5 446.3,467.9 450.4,465.5 450.4,460.8 446.3,458.4 454.5,458.4 454.5,453.6 450.4,446.5 450.4,451.2 446.3,453.6 442.1,451.2 442.1,446.5 438,444.1 446.3,444.1 454.5,444.1 458.6,451.2 458.6,446.5 462.8,444.1 462.8,439.3 458.6,437 454.5,439.3 458.6,432.2 454.5,425.1 450.4,417.9 450.4,422.7 446.3,425.1 446.3,429.8 450.4,432.2 454.5,429.8 450.4,437 446.3,439.3 442.1,432.2 442.1,437 438,439.3 433.9,437 433.9,432.2 429.8,429.8 438,429.8 438,425.1 433.9,417.9 433.9,422.7 429.8,425.1 425.6,422.7 425.6,417.9 421.5,415.5 429.8,415.5 438,415.5 442.1,422.7 442.1,417.9 446.3,415.5 454.5,415.5 458.6,417.9 462.8,415.5 458.6,422.7 462.8,429.8 466.9,437 466.9,432.2 471,429.8 471,425.1 466.9,422.7 462.8,425.1 466.9,417.9 471,415.5 475.1,422.7 475.1,417.9 479.2,415.5 479.2,410.8 475.1,408.4 471,410.8 475.1,403.6 471,401.2 462.8,401.2 466.9,403.6 466.9,408.4 462.8,410.8 458.6,408.4 454.5,410.8 458.6,403.6 462.8,396.5 471,396.5 466.9,394.1 466.9,389.3 462.8,382.2 458.6,379.8 454.5,382.2 458.6,375.1 454.5,367.9 450.4,360.8 450.4,365.5 446.3,367.9 446.3,372.7 450.4,375.1 454.5,372.7 450.4,379.8 446.3,382.2 442.1,375.1 442.1,379.8 438,382.2 438,387 442.1,389.3 446.3,387 442.1,394.1 446.3,396.5 454.5,396.5 450.4,394.1 450.4,389.3 454.5,387 458.6,389.3 462.8,387 458.6,394.1 454.5,401.2 446.3,401.2 450.4,403.6 450.4,408.4 446.3,410.8 442.1,408.4 438,410.8 442.1,403.6 438,396.5 433.9,389.3 433.9,394.1 429.8,396.5 429.8,401.2 433.9,403.6 438,401.2 433.9,408.4 429.8,410.8 425.6,403.6 425.6,408.4 421.5,410.8 417.4,408.4 417.4,403.6 413.3,401.2 421.5,401.2 421.5,396.5 417.4,389.3 417.4,394.1 413.3,396.5 409.2,394.1 409.2,389.3 405,387 413.3,387 421.5,387 425.6,394.1 425.6,389.3 429.8,387 429.8,382.2 425.6,379.8 421.5,382.2 425.6,375.1 421.5,367.9 417.4,360.8 417.4,365.5 413.3,367.9 413.3,372.7 417.4,375.1 421.5,372.7 417.4,379.8 413.3,382.2 409.2,375.1 409.2,379.8 405,382.2 400.9,379.8 400.9,375.1 396.8,372.7 405,372.7 405,367.9 400.9,360.8 400.9,365.5 396.8,367.9 392.7,365.5 392.7,360.8 388.5,358.4 396.8,358.4 405,358.4 409.2,365.5 409.2,360.8 413.3,358.4 421.5,358.4 425.6,360.8 429.8,358.4 425.6,365.5 429.8,372.7 433.9,379.8 433.9,375.1 438,372.7 438,367.9 433.9,365.5 429.8,367.9 433.9,360.8 438,358.4 442.1,365.5 442.1,360.8 446.3,358.4 454.5,358.4 458.6,360.8 462.8,358.4 458.6,365.5 462.8,367.9 471,367.9 466.9,365.5 466.9,360.8 471,358.4 475.1,360.8 479.2,358.4 475.1,365.5 471,372.7 462.8,372.7 466.9,375.1 466.9,379.8 471,387 475.1,389.3 479.2,387 475.1,394.1 479.2,401.2 483.4,408.4 483.4,403.6 487.5,401.2 487.5,396.5 483.4,394.1 479.2,396.5 483.4,389.3 487.5,387 491.6,394.1 491.6,389.3 495.7,387 495.7,382.2 491.6,379.8 487.5,382.2 491.6,375.1 487.5,372.7 479.2,372.7 483.4,375.1 483.4,379.8 479.2,382.2 475.1,379.8 471,382.2 475.1,375.1 479.2,367.9 487.5,367.9 483.4,365.5 483.4,360.8 487.5,358.4 491.6,360.8 495.7,358.4 491.6,365.5 495.7,372.7 499.9,379.8 499.9,375.1 504,372.7 504,367.9 499.9,365.5 495.7,367.9 499.9,360.8 504,358.4 508.1,365.5 508.1,360.8 512.2,358.4 516.4,360.8 516.4,365.5 520.5,367.9 512.2,367.9 512.2,372.7 516.4,379.8 516.4,375.1 520.5,372.7 524.6,375.1 524.6,379.8 528.7,382.2 520.5,382.2 512.2,382.2 508.1,375.1 508.1,379.8 504,382.2 504,387 508.1,389.3 512.2,387 508.1,394.1 512.2,401.2 516.4,408.4 516.4,403.6 520.5,401.2 520.5,396.5 516.4,394.1 512.2,396.5 516.4,389.3 520.5,387 524.6,394.1 524.6,389.3 528.7,387 532.8,389.3 532.8,394.1 537,396.5 528.7,396.5 528.7,401.2 532.8,408.4 532.8,403.6 537,401.2 541.1,403.6 541.1,408.4 545.2,410.8 537,410.8 528.7,410.8 524.6,403.6 524.6,408.4 520.5,410.8 512.2,410.8 508.1,408.4 504,410.8 508.1,403.6 504,396.5 499.9,389.3 499.9,394.1 495.7,396.5 495.7,401.2 499.9,403.6 504,401.2 499.9,408.4 495.7,410.8 491.6,403.6 491.6,408.4 487.5,410.8 483.4,417.9 483.4,422.7 487.5,425.1 479.2,425.1 479.2,429.8 483.4,437 483.4,432.2 487.5,429.8 491.6,432.2 491.6,437 495.7,439.3 487.5,439.3 479.2,439.3 475.1,432.2 475.1,437 471,439.3 466.9,446.5 466.9,451.2 471,453.6 462.8,453.6 458.6,460.8 454.5,467.9 458.6,465.5 462.8,467.9 466.9,465.5 466.9,460.8 462.8,458.4 471,458.4 475.1,460.8 471,467.9 475.1,465.5 479.2,467.9 483.4,465.5 483.4,460.8 479.2,458.4 487.5,458.4 487.5,453.6 483.4,446.5 483.4,451.2 479.2,453.6 475.1,451.2 475.1,446.5 471,444.1 479.2,444.1 487.5,444.1 491.6,451.2 491.6,446.5 495.7,444.1 499.9,446.5 499.9,451.2 504,453.6 495.7,453.6 491.6,460.8 487.5,467.9 491.6,465.5 495.7,467.9 499.9,465.5 499.9,460.8 495.7,458.4 504,458.4 508.1,460.8 504,467.9 508.1,465.5 512.2,467.9 516.4,465.5 516.4,460.8 512.2,458.4 520.5,458.4 520.5,453.6 516.4,446.5 516.4,451.2 512.2,453.6 508.1,451.2 508.1,446.5 504,444.1 512.2,444.1 520.5,444.1 524.6,451.2 524.6,446.5 528.7,444.1 528.7,439.3 524.6,437 520.5,439.3 524.6,432.2 520.5,425.1 516.4,417.9 516.4,422.7 512.2,425.1 512.2,429.8 516.4,432.2 520.5,429.8 516.4,437 512.2,439.3 508.1,432.2 508.1,437 504,439.3 499.9,437 499.9,432.2 495.7,429.8 504,429.8 504,425.1 499.9,417.9 499.9,422.7 495.7,425.1 491.6,422.7 491.6,417.9 487.5,415.5 495.7,415.5 504,415.5 508.1,422.7 508.1,417.9 512.2,415.5 520.5,415.5 524.6,417.9 528.7,415.5 524.6,422.7 528.7,429.8 532.8,437 532.8,432.2 537,429.8 537,425.1 532.8,422.7 528.7,425.1 532.8,417.9 537,415.5 541.1,422.7 541.1,417.9 545.2,415.5 549.3,417.9 549.3,422.7 553.5,425.1 545.2,425.1 545.2,429.8 549.3,437 549.3,432.2 553.5,429.8 557.6,432.2 557.6,437 561.7,439.3 553.5,439.3 545.2,439.3 541.1,432.2 541.1,437 537,439.3 532.8,446.5 532.8,451.2 537,453.6 528.7,453.6 524.6,460.8 520.5,467.9 524.6,465.5 528.7,467.9 532.8,465.5 532.8,460.8 528.7,458.4 537,458.4 541.1,460.8 537,467.9 541.1,465.5 545.2,467.9 549.3,465.5 549.3,460.8 545.2,458.4 553.5,458.4 553.5,453.6 549.3,446.5 549.3,451.2 545.2,453.6 541.1,451.2 541.1,446.5 537,444.1 545.2,444.1 553.5,444.1 557.6,451.2 557.6,446.5 561.7,444.1 565.8,446.5 565.8,451.2 570,453.6 561.7,453.6 557.6,460.8 553.5,467.9 557.6,465.5 561.7,467.9 565.8,465.5 565.8,460.8 561.7,458.4 570,458.4 574.1,460.8 570,467.9 574.1,465.5 578.2,467.9 " />
</g>

<g fill="none" stroke="#000000" stroke-opacity="1" stroke-width="1" stroke-linecap="square" stroke-linejoin="bevel" transform="matrix(1.17031,0,0,1.17031,0,0)"
font-family="Sans Serif" font-size="9" font-weight="400" font-style="normal" 
>
</g>

<g fill="none" stroke="#000000" stroke-opacity="1" stroke-width="1" stroke-linecap="square" stroke-linejoin="bevel" transform="matrix(1.17031,0,0,1.17031,0,0)"
font-family="Sans Serif" font-size="9" font-weight="400" font-style="normal" 
>
</g>

<g fill="none" stroke="#000000" stroke-opacity="1" stroke-width="1" stroke-linecap="round" stroke-linejoin="round" transform="matrix(1.17031,0,0,1.17031,0,0)"
font-family="Sans Serif" font-size="9" font-weight="400" font-style="normal" 
>
<polyline fill="none" vector-effect="none" points="58.5,18.5 58.5,467.5 578.5,467.5 578.5,18.5 58.5,18.5 " />
</g>

<g fill="none" stroke="#000000" stroke-opacity="1" stroke-width="1" stroke-linecap="square" stroke-linejoin="bevel" transform="matrix(1.17031,0,0,1.17031,0,0)"
font-family="Sans Serif" font-size="9" font-weight="400" font-style="normal" 
>
</g>

<g fill="none" stroke="#000000" stroke-opacity="1" stroke-width="1" stroke-linecap="square" stroke-linejoin="bevel" transform="matrix(1,0,0,1,0,0)"
font-family="Sans Serif" font-size="9" font-weight="400" font-style="normal" 
>
</g>
</g>
</svg>
